G04*
G04 #@! TF.GenerationSoftware,Altium Limited,Altium Designer,25.8.1 (18)*
G04*
G04 Layer_Physical_Order=3*
G04 Layer_Color=36540*
%FSLAX44Y44*%
%MOMM*%
G71*
G04*
G04 #@! TF.SameCoordinates,746143FD-BC81-4DAC-81BB-7BE3C6F3D048*
G04*
G04*
G04 #@! TF.FilePolarity,Positive*
G04*
G01*
G75*
%ADD11C,0.3000*%
%ADD12C,0.2000*%
%ADD14C,0.1500*%
%ADD124C,1.5000*%
%ADD129C,0.4000*%
%ADD132C,0.5000*%
%ADD134C,1.6000*%
%ADD136C,1.5300*%
%ADD137C,0.3000*%
%ADD138R,1.5300X1.5300*%
%ADD139R,1.6000X1.6000*%
%ADD140C,0.4000*%
%ADD141C,0.6000*%
%ADD142C,4.4000*%
%ADD143C,0.1600*%
D11*
X382869Y103181D02*
X385672D01*
X394132Y111641D01*
X374600Y94912D02*
X382869Y103181D01*
X374600Y42500D02*
Y94912D01*
X345000Y212100D02*
X351500Y218600D01*
X345000Y42500D02*
Y212100D01*
X328200Y37000D02*
X369100D01*
X325100Y40100D02*
X328200Y37000D01*
X369100D02*
X374600Y42500D01*
X304800Y39600D02*
Y159000D01*
X276300Y187500D02*
X304800Y159000D01*
X232900Y130900D02*
X239156Y124644D01*
X138400Y123300D02*
X146000Y130900D01*
X232900D01*
D12*
X716760Y312250D02*
X732029Y296982D01*
X607472Y312250D02*
X716760D01*
X601448Y306226D02*
X607472Y312250D01*
X508019Y458100D02*
X596787D01*
X598687Y460000D02*
X629000D01*
X596787Y458100D02*
X598687Y460000D01*
X511381Y861750D02*
X570000Y803131D01*
Y794000D02*
X580987Y783013D01*
X570000Y794000D02*
Y803131D01*
X580987Y783013D02*
X603002D01*
X630323Y760000D02*
X689435D01*
X637910Y764000D02*
X687000D01*
X689435Y760000D02*
X692434Y763000D01*
X576250Y747000D02*
X767504D01*
X696513Y757000D02*
X696684D01*
X586903Y743000D02*
X769607D01*
X627473Y762850D02*
X630323Y760000D01*
X616000Y755000D02*
X694513D01*
X696513Y757000D01*
X687000Y764000D02*
X691000Y768000D01*
X614343Y751000D02*
X764783D01*
X631781Y770129D02*
X637910Y764000D01*
X582871Y738968D02*
X586903Y743000D01*
X608000Y763000D02*
X616000Y755000D01*
X631781Y770129D02*
Y770670D01*
X692434Y763000D02*
X705866D01*
X646337Y774920D02*
X652066Y769191D01*
Y768650D02*
Y769191D01*
X590000Y734000D02*
X766990D01*
X829990Y797000D01*
X572238Y657515D02*
X575149Y654605D01*
X631058D01*
X693886Y655547D02*
X704515D01*
X680339Y642000D02*
X693886Y655547D01*
X544000Y642000D02*
X680339D01*
X704515Y655547D02*
X727334Y678365D01*
X828281D01*
X651483Y549366D02*
X669366D01*
X651075Y549775D02*
X651483Y549366D01*
X632650Y549775D02*
X651075D01*
X871429Y465250D02*
X871750Y465571D01*
X604377Y465250D02*
X871429D01*
X597579Y472048D02*
X604377Y465250D01*
X669366Y549366D02*
X687895Y567895D01*
Y568000D01*
X681416Y515266D02*
X686910D01*
X544119Y514750D02*
X680900D01*
X681416Y515266D01*
X696833Y388250D02*
X735000D01*
X671583Y363000D02*
X696833Y388250D01*
X626750Y363000D02*
X671583D01*
X620758Y388758D02*
X690224D01*
X697466Y396000D01*
X741000D01*
X665783Y384417D02*
X673200Y377000D01*
X615000Y374000D02*
X625417Y384417D01*
X665783D01*
X610000Y378000D02*
X620758Y388758D01*
X469000Y374000D02*
X615000D01*
X612000Y444000D02*
X612064D01*
X604650Y451350D02*
X612000Y444000D01*
X743320Y544113D02*
X749947Y550740D01*
X605887Y544113D02*
X743320D01*
X594435Y555565D02*
X605887Y544113D01*
X767504Y747000D02*
X831421Y810917D01*
X841167D01*
X831607Y805000D02*
X835652D01*
X769607Y743000D02*
X831607Y805000D01*
X832044Y818261D02*
X847800D01*
X764783Y751000D02*
X832044Y818261D01*
X610692Y754651D02*
X614343Y751000D01*
X570541Y754651D02*
X610692D01*
X601638Y486121D02*
X659879D01*
X670468Y475532D01*
X595888Y480372D02*
X601638Y486121D01*
X613260Y774250D02*
X613930Y774920D01*
X603002Y783013D02*
X603138Y782876D01*
X564078Y762253D02*
X576076Y774250D01*
X613930Y774920D02*
X646337D01*
X574541Y778500D02*
X611500D01*
X576076Y774250D02*
X613260D01*
X480000Y338000D02*
X698081D01*
X732081Y304000D01*
X458000Y360000D02*
X480000Y338000D01*
X360650Y333350D02*
X668650D01*
X669000Y333000D01*
X346000Y348000D02*
X360650Y333350D01*
X323107Y492144D02*
X371659D01*
X320270Y489307D02*
X323107Y492144D01*
X270616Y489307D02*
X320270D01*
X274397Y476394D02*
X376078D01*
X376497Y476813D01*
X377813D02*
X378000Y477000D01*
X376497Y476813D02*
X377813D01*
X272791Y478000D02*
X274397Y476394D01*
X272250Y478000D02*
X272791D01*
X246000Y454000D02*
X262000Y470000D01*
X589510D02*
X596093Y463416D01*
X262000Y470000D02*
X589510D01*
X225671Y404000D02*
X403472D01*
X406750Y407278D01*
X215671Y414000D02*
X225671Y404000D01*
X212000Y409000D02*
X222000Y399000D01*
X407665D02*
X411000Y395665D01*
X222000Y399000D02*
X407665D01*
X577951Y555565D02*
X594435D01*
X257830Y576093D02*
X262923Y571000D01*
X388000D02*
X395000Y578000D01*
X262923Y571000D02*
X388000D01*
X418660Y576687D02*
X419201D01*
X395000Y578000D02*
X417346D01*
X418660Y576687D01*
X249138Y544000D02*
X250323Y542815D01*
X550815D01*
X254056Y533250D02*
X258806Y538000D01*
X597000D01*
X550815Y542815D02*
X551000Y543000D01*
X248597Y544000D02*
X249138D01*
X151977Y433743D02*
X152501Y433220D01*
X145402Y433743D02*
X151977D01*
X137000Y430998D02*
X144546Y438544D01*
X152820D01*
X152501Y433220D02*
X153042D01*
X141000Y429342D02*
X145402Y433743D01*
X137000Y158791D02*
Y430998D01*
X141000Y157134D02*
Y429342D01*
X111900Y164100D02*
X124000Y152000D01*
X111900Y164100D02*
Y164200D01*
X130209Y152000D02*
X137000Y158791D01*
X124000Y152000D02*
X130209D01*
X111900Y138800D02*
X121100Y148000D01*
X131866D01*
X141000Y157134D01*
X154000Y311000D02*
Y419343D01*
X148050Y311293D02*
Y419050D01*
X158000Y429000D01*
Y493000D01*
X154000Y419343D02*
X163000Y428343D01*
Y497000D01*
X148050Y311293D02*
X160000Y299343D01*
X154000Y311000D02*
X164000Y301000D01*
X160000Y260500D02*
Y299343D01*
X122739Y528261D02*
X158000Y493000D01*
X609000Y282000D02*
X678000D01*
X605000Y286000D02*
X609000Y282000D01*
X344000Y286000D02*
X605000D01*
X608349Y290651D02*
X612750Y286250D01*
X347349Y290651D02*
X608349D01*
X340000Y298000D02*
X347349Y290651D01*
X612750Y286250D02*
X686000D01*
X299000Y265000D02*
X309000Y275000D01*
X604250D01*
X589177Y264250D02*
X775809D01*
X821090Y309531D01*
X576000Y260172D02*
X778738D01*
X821567Y303000D01*
X589005Y264422D02*
X589177Y264250D01*
X706933Y761933D02*
X707474D01*
X705866Y763000D02*
X706933Y761933D01*
X691000Y768000D02*
X701000D01*
X458000Y360000D02*
Y372000D01*
X476000Y365000D02*
X486856Y354144D01*
X617894D01*
X626750Y363000D01*
X479250Y348750D02*
X620750D01*
X631000Y359000D01*
X463000Y365000D02*
X479250Y348750D01*
X393822Y491394D02*
X563819D01*
X566425Y494000D02*
X593950D01*
X563819Y491394D02*
X566425Y494000D01*
X593950D02*
X594000Y494050D01*
X670468Y475532D02*
X740614D01*
X797090Y223000D02*
X821090Y247000D01*
X428272Y251001D02*
X456274Y223000D01*
X797090D01*
X532503Y218000D02*
X683000D01*
X580769Y306226D02*
X601448D01*
X571866Y307595D02*
X579354Y300107D01*
X285855Y307595D02*
X571866D01*
X579354Y300107D02*
X604460D01*
X574576Y312418D02*
X580769Y306226D01*
X612304Y307950D02*
X684447D01*
X397582Y312418D02*
X574576D01*
X604460Y300107D02*
X612304Y307950D01*
X389000Y321000D02*
X397582Y312418D01*
X292338Y424000D02*
X393750D01*
X161396Y411505D02*
X163891Y414000D01*
X215671D01*
X287088Y418750D02*
X292338Y424000D01*
X190323Y423265D02*
X194839Y418750D01*
X287088D01*
X435914Y582000D02*
X481853D01*
X489853Y590000D01*
X428914Y575000D02*
X435914Y582000D01*
X283518Y348000D02*
X346000D01*
X202710Y510481D02*
X211048Y502144D01*
X383072D02*
X393822Y491394D01*
X178561Y566450D02*
X390932D01*
X174331Y570680D02*
X178561Y566450D01*
X174305Y570680D02*
X174331D01*
X428272Y251001D02*
Y258363D01*
X312906Y270140D02*
X392146D01*
X405285Y257000D01*
X594000Y509000D02*
X594315Y509315D01*
X631674D01*
X663383Y250383D02*
X800589D01*
X804051Y246921D01*
X663000Y250000D02*
X663383Y250383D01*
X794000Y227000D02*
X822840Y255840D01*
Y263000D01*
X732081Y304000D02*
X754440D01*
X732029Y296982D02*
X747458D01*
X681587Y680263D02*
X682128D01*
X685339Y683474D01*
X817718D01*
X819845Y685602D01*
X841167Y810917D02*
X841550Y811300D01*
X692750Y630999D02*
X711999D01*
X441000Y664000D02*
X492000Y715000D01*
Y787000D01*
X441000Y636400D02*
Y664000D01*
X446650Y658650D02*
X496696Y708696D01*
Y785633D01*
X495512Y790512D02*
X500738D01*
X492000Y787000D02*
X495512Y790512D01*
X500738D02*
X506000Y785250D01*
X570541Y782500D02*
X574541Y778500D01*
X570541Y782500D02*
Y782500D01*
X294625Y523250D02*
X639738D01*
X292426Y525450D02*
X294625Y523250D01*
X631674Y509315D02*
X636240Y504750D01*
X678740D01*
X684309Y510319D01*
X482993Y514809D02*
X544060D01*
X639738Y523250D02*
X639750Y523238D01*
X544060Y514809D02*
X544119Y514750D01*
X479802Y518000D02*
X482993Y514809D01*
X504519Y461600D02*
X508019Y458100D01*
X300936Y280000D02*
X595000D01*
X487000Y856750D02*
X496291D01*
X578476Y327000D02*
X595000Y310476D01*
X595750Y384000D02*
X607350D01*
X397018Y572536D02*
X397482D01*
X390932Y566450D02*
X397018Y572536D01*
X594841Y530367D02*
X596209Y529000D01*
X596750D01*
X509119Y530367D02*
X594841D01*
X305557Y457677D02*
X308234Y455000D01*
X425000D01*
X275758Y457677D02*
X305557D01*
X279778Y294000D02*
X336000D01*
X269778Y304000D02*
X279778Y294000D01*
X164000Y263700D02*
Y301000D01*
X297000Y276064D02*
X300936Y280000D01*
X271250Y322200D02*
X285855Y307595D01*
X274834Y356684D02*
X283518Y348000D01*
X485867Y564500D02*
X603450D01*
X478216Y572151D02*
X485867Y564500D01*
X428090Y560423D02*
X438713Y571046D01*
X272688Y560423D02*
X428090D01*
X821090Y309531D02*
Y323000D01*
X702000Y384000D02*
X754000D01*
X754130Y383870D01*
X506632Y866000D02*
X510882Y861750D01*
X451239D02*
X455489Y866000D01*
X506632D01*
X486953Y856797D02*
X487000Y856750D01*
X431729Y856797D02*
X486953D01*
X426776Y861750D02*
X431729Y856797D01*
X496291Y856750D02*
X570541Y782500D01*
X740304Y160696D02*
X748487D01*
X683000Y218000D02*
X740304Y160696D01*
X426434Y861750D02*
X426776D01*
X677000Y359000D02*
X702000Y384000D01*
X631000Y359000D02*
X677000D01*
X424543Y433456D02*
X473243Y384757D01*
X490110D01*
X496866Y378000D01*
X610000D01*
X286190Y433456D02*
X424543D01*
X275503Y444144D02*
X286190Y433456D01*
X489853Y590000D02*
X587000D01*
X605922Y608922D01*
X675000D01*
X508736Y530750D02*
X509119Y530367D01*
X127292Y785617D02*
X127675Y786000D01*
X127292Y784203D02*
Y785617D01*
X126989Y533011D02*
X163000Y497000D01*
X126989Y533011D02*
Y783900D01*
X122739Y528261D02*
Y797439D01*
X126989Y783900D02*
X127292Y784203D01*
X203673Y429000D02*
X416250D01*
X190983Y441691D02*
X203673Y429000D01*
X631058Y654605D02*
X640043Y663589D01*
X572238Y647531D02*
X632112D01*
X640127Y655547D01*
X563000Y582000D02*
X566750Y585750D01*
X737552D01*
X255009Y449682D02*
X255018Y449672D01*
X415254D01*
X177000Y409250D02*
X177250Y409000D01*
X212000D01*
X737552Y585750D02*
X776334Y624533D01*
X586000Y436000D02*
X697338D01*
X574900Y447100D02*
X586000Y436000D01*
X696579Y237000D02*
X697120D01*
X695579Y236000D02*
X696579Y237000D01*
X482496Y236000D02*
X695579D01*
X440750Y785750D02*
X444894Y789894D01*
X440750Y721750D02*
Y785750D01*
X444894Y789894D02*
X451047D01*
X446650Y616650D02*
Y658650D01*
X405600Y601000D02*
X441000Y636400D01*
X635350Y412000D02*
X657000D01*
X607350Y384000D02*
X635350Y412000D01*
X415254Y449672D02*
X417826Y447100D01*
X271157Y518000D02*
X479802D01*
X697338Y436000D02*
X697669Y436331D01*
X684447Y307950D02*
X684497Y308000D01*
X405100Y195635D02*
Y242229D01*
X405285Y242415D01*
X544072Y252000D02*
X547041Y249031D01*
X522000Y252000D02*
X544072D01*
X547041Y249031D02*
X605719D01*
X464352Y254144D02*
X482496Y236000D01*
X445000Y251600D02*
X469600Y227000D01*
X794000D01*
X684309Y510319D02*
X735956D01*
X741908Y516271D01*
X503978Y461600D02*
X504519D01*
X336000Y294000D02*
X344000Y286000D01*
X282164Y298000D02*
X340000D01*
X267000Y313164D02*
X282164Y298000D01*
X240750Y512250D02*
X384431D01*
X224000Y529000D02*
X240750Y512250D01*
X384431D02*
X398031Y498650D01*
X640043Y663589D02*
X699000D01*
X640127Y655547D02*
X685837D01*
X398031Y498650D02*
X491000D01*
X417826Y447100D02*
X574900D01*
X503978Y451350D02*
X604650D01*
X692197Y643197D02*
X715803D01*
X692000Y643000D02*
X692197Y643197D01*
X715803D02*
X716000Y643394D01*
X405100Y195635D02*
X436635Y164100D01*
X337000Y257000D02*
X395000D01*
X327000Y247000D02*
X337000Y257000D01*
X819845Y685602D02*
X823500D01*
X459000Y384000D02*
X469000Y374000D01*
X384000Y384000D02*
X459000D01*
X483000Y327184D02*
X483184Y327000D01*
X578476D01*
X603450Y564500D02*
X607700Y568750D01*
X451047Y789894D02*
X456357Y784584D01*
X445958Y717758D02*
Y784541D01*
X380200Y652000D02*
X445958Y717758D01*
X164000Y263700D02*
X175148Y252552D01*
X160000Y260500D02*
X173500Y247000D01*
X327000D01*
X295318Y252552D02*
X312906Y270140D01*
X372000Y667000D02*
X386000D01*
X440750Y721750D01*
X357000Y652000D02*
X372000Y667000D01*
X354800Y652000D02*
X357000D01*
X431000Y601000D02*
X446650Y616650D01*
X175148Y252552D02*
X295318D01*
X436635Y164100D02*
X480400D01*
D14*
X141025Y584975D02*
Y737275D01*
X657353Y559000D02*
X673353Y575000D01*
X598436Y559565D02*
X599001Y559000D01*
X535518Y555000D02*
X540084Y559565D01*
X598436D01*
X599001Y559000D02*
X657353D01*
X868113Y533211D02*
X869324Y532000D01*
X870000D01*
X721280Y533211D02*
X868113D01*
X423428Y263428D02*
X562572D01*
X385415Y246775D02*
X406775D01*
X423428Y263428D01*
X141025Y584975D02*
X171000Y555000D01*
X141025Y737275D02*
X147250Y743500D01*
X171000Y555000D02*
X535518D01*
X673353Y575000D02*
X864250D01*
X591385Y551315D02*
X611950Y530750D01*
X131000Y588000D02*
X167685Y551315D01*
X591385D01*
X570380Y255620D02*
X790853D01*
X562572Y263428D02*
X570380Y255620D01*
X798233Y263000D02*
X813799D01*
X790853Y255620D02*
X798233Y263000D01*
X425046Y270750D02*
X678086D01*
X405810Y251515D02*
X425046Y270750D01*
X350978Y251515D02*
X405810D01*
X718819Y530750D02*
X721280Y533211D01*
X611950Y530750D02*
X718819D01*
X131000Y588000D02*
Y726232D01*
X678203Y270867D02*
X679617D01*
X680000Y271250D01*
X678086Y270750D02*
X678203Y270867D01*
X132901Y728133D02*
Y728403D01*
X131000Y726232D02*
X132901Y728133D01*
D124*
X532600Y601000D02*
D03*
X431000Y728200D02*
D03*
X507200Y753400D02*
D03*
X456400Y728200D02*
D03*
X329400D02*
D03*
Y652000D02*
D03*
X354800Y728200D02*
D03*
X380200D02*
D03*
X405600D02*
D03*
X431000Y652000D02*
D03*
X456400D02*
D03*
X481800D02*
D03*
Y728200D02*
D03*
X405600Y652000D02*
D03*
X354800D02*
D03*
X380200D02*
D03*
X304000D02*
D03*
X278600D02*
D03*
Y728200D02*
D03*
X304000D02*
D03*
X481800Y753400D02*
D03*
X456400D02*
D03*
X431000D02*
D03*
X405600D02*
D03*
X329400Y601000D02*
D03*
X380200D02*
D03*
X354800D02*
D03*
X380200Y753400D02*
D03*
X304000D02*
D03*
X329400D02*
D03*
X456400Y601000D02*
D03*
X481800D02*
D03*
X278600D02*
D03*
X253200D02*
D03*
X227800D02*
D03*
X354800Y753400D02*
D03*
X202400D02*
D03*
X227800D02*
D03*
X507200Y601000D02*
D03*
X532600Y753400D02*
D03*
X431000Y601000D02*
D03*
X405600D02*
D03*
X278600Y753400D02*
D03*
X253200D02*
D03*
X202400Y601000D02*
D03*
X304000D02*
D03*
D129*
X819792Y414000D02*
X822009Y416217D01*
X721760Y414000D02*
X819792D01*
X721760Y424000D02*
X735760Y438000D01*
X821908D02*
X822000Y437908D01*
X735760Y438000D02*
X821908D01*
D132*
X525544Y88551D02*
X709551D01*
X749000Y128000D01*
X842000D01*
X491000Y77000D02*
X714000D01*
X753000Y116000D01*
X858000D01*
D134*
X640500Y450100D02*
D03*
Y424700D02*
D03*
Y348500D02*
D03*
Y297700D02*
D03*
Y399300D02*
D03*
Y373900D02*
D03*
Y323100D02*
D03*
D136*
X35700Y494400D02*
D03*
X61100D02*
D03*
X35700Y519800D02*
D03*
X61100D02*
D03*
X35700Y723000D02*
D03*
X61100D02*
D03*
X111900Y164200D02*
D03*
X61100Y697600D02*
D03*
X35700D02*
D03*
Y469000D02*
D03*
X61100D02*
D03*
Y291200D02*
D03*
Y316600D02*
D03*
X35700D02*
D03*
X61100Y342000D02*
D03*
X35700D02*
D03*
X61100Y367400D02*
D03*
X35700D02*
D03*
X61100Y392800D02*
D03*
X35700D02*
D03*
X61100Y545200D02*
D03*
X35700D02*
D03*
X61100Y570600D02*
D03*
Y596000D02*
D03*
X35700D02*
D03*
Y570600D02*
D03*
Y621400D02*
D03*
X61100D02*
D03*
Y646800D02*
D03*
X35700D02*
D03*
X61100Y672200D02*
D03*
X35700D02*
D03*
X61100Y748400D02*
D03*
X35700D02*
D03*
X61100Y773800D02*
D03*
X35700D02*
D03*
Y138800D02*
D03*
X61100Y164200D02*
D03*
X35700D02*
D03*
X61100Y189600D02*
D03*
X35700D02*
D03*
X61100Y215000D02*
D03*
X35700D02*
D03*
X61100Y240400D02*
D03*
Y265800D02*
D03*
X35700D02*
D03*
Y291200D02*
D03*
Y240400D02*
D03*
X61100Y418200D02*
D03*
X35700D02*
D03*
Y443600D02*
D03*
X61100D02*
D03*
X86500Y291200D02*
D03*
X111900Y316600D02*
D03*
Y291200D02*
D03*
Y265800D02*
D03*
Y240400D02*
D03*
X86500Y189600D02*
D03*
Y316600D02*
D03*
X111900Y342000D02*
D03*
X86500D02*
D03*
X111900Y367400D02*
D03*
X86500D02*
D03*
Y469000D02*
D03*
X111900Y494400D02*
D03*
X86500D02*
D03*
X111900Y519800D02*
D03*
X86500D02*
D03*
X111900Y545200D02*
D03*
X86500D02*
D03*
X111900Y570600D02*
D03*
X86500D02*
D03*
Y621400D02*
D03*
Y646800D02*
D03*
Y723000D02*
D03*
Y748400D02*
D03*
X111900Y773800D02*
D03*
X86500D02*
D03*
Y138800D02*
D03*
Y164200D02*
D03*
X111900Y189600D02*
D03*
Y215000D02*
D03*
X86500D02*
D03*
Y265800D02*
D03*
Y240400D02*
D03*
Y596000D02*
D03*
X111900D02*
D03*
Y748400D02*
D03*
Y723000D02*
D03*
X86500Y443600D02*
D03*
Y418200D02*
D03*
Y392800D02*
D03*
X111900Y646800D02*
D03*
X86500Y697600D02*
D03*
X111900D02*
D03*
X86500Y672200D02*
D03*
X111900D02*
D03*
Y621400D02*
D03*
Y443600D02*
D03*
Y469000D02*
D03*
Y392800D02*
D03*
Y418200D02*
D03*
D137*
X714510Y332000D02*
D03*
X726510D02*
D03*
Y344000D02*
D03*
X738510D02*
D03*
X762510Y332000D02*
D03*
X774510D02*
D03*
X738510D02*
D03*
X750510D02*
D03*
X714510Y356000D02*
D03*
Y344000D02*
D03*
X726510Y356000D02*
D03*
X750510Y344000D02*
D03*
X762510Y356000D02*
D03*
X738510D02*
D03*
X750510D02*
D03*
X762510Y344000D02*
D03*
X774510D02*
D03*
Y356000D02*
D03*
D138*
X111900Y138800D02*
D03*
X61100D02*
D03*
D139*
X640500Y475500D02*
D03*
D140*
X470893Y817000D02*
D03*
X281814Y533250D02*
D03*
X703428Y305897D02*
D03*
Y317118D02*
D03*
X629000Y460000D02*
D03*
X148769Y653000D02*
D03*
X600084Y804090D02*
D03*
X560733Y821000D02*
D03*
X570000Y794000D02*
D03*
X581000Y811840D02*
D03*
X664904Y783013D02*
D03*
X671000Y770308D02*
D03*
X696684Y757000D02*
D03*
X661770Y774750D02*
D03*
X652066Y768650D02*
D03*
X675000Y783013D02*
D03*
X700935Y792500D02*
D03*
X249000Y203000D02*
D03*
X224900Y66400D02*
D03*
Y56958D02*
D03*
X225774Y82732D02*
D03*
X249300Y104400D02*
D03*
X754000Y729750D02*
D03*
X632650Y549775D02*
D03*
X798753Y469875D02*
D03*
X799320Y484202D02*
D03*
X725000Y460994D02*
D03*
X796000Y499142D02*
D03*
X810000Y496000D02*
D03*
X801000Y422000D02*
D03*
X787000D02*
D03*
X687895Y568000D02*
D03*
X269344Y465750D02*
D03*
X815500Y838750D02*
D03*
X797595Y718750D02*
D03*
X785000Y736650D02*
D03*
X776000Y737000D02*
D03*
X789698Y736566D02*
D03*
X706434Y569000D02*
D03*
X716445D02*
D03*
X653000Y564000D02*
D03*
X699400Y505074D02*
D03*
Y498250D02*
D03*
Y535212D02*
D03*
Y551847D02*
D03*
Y524850D02*
D03*
X675000Y498250D02*
D03*
Y510500D02*
D03*
X686910Y515266D02*
D03*
X686973Y501282D02*
D03*
X679750Y729000D02*
D03*
X683750Y719000D02*
D03*
X627473Y762850D02*
D03*
X636203Y738750D02*
D03*
X673200Y393643D02*
D03*
X612064Y444000D02*
D03*
Y539863D02*
D03*
X591464Y812356D02*
D03*
X729931Y738750D02*
D03*
X642066Y768650D02*
D03*
X829990Y797000D02*
D03*
X765800Y759000D02*
D03*
X546000Y360644D02*
D03*
X543822Y366144D02*
D03*
X519700Y367700D02*
D03*
X454062Y480938D02*
D03*
X617950Y810744D02*
D03*
X603138Y782876D02*
D03*
X482599Y713410D02*
D03*
X514716Y342250D02*
D03*
X669000Y333000D02*
D03*
X371659Y492144D02*
D03*
X378000Y477000D02*
D03*
X362078Y348000D02*
D03*
X331700Y481219D02*
D03*
X308981Y480644D02*
D03*
X307261Y496277D02*
D03*
X331700Y487750D02*
D03*
X544300Y498644D02*
D03*
X390000Y580470D02*
D03*
X358700Y575250D02*
D03*
X328576D02*
D03*
X275583D02*
D03*
X152657Y628564D02*
D03*
X136633Y639150D02*
D03*
X577951Y555565D02*
D03*
X359277Y547065D02*
D03*
X797109Y570000D02*
D03*
X149157Y670383D02*
D03*
X153042Y433220D02*
D03*
X152820Y438544D02*
D03*
X125360Y143200D02*
D03*
X248750Y326399D02*
D03*
Y287300D02*
D03*
X227730Y236471D02*
D03*
X249000Y193926D02*
D03*
X234000Y215121D02*
D03*
X584000Y686000D02*
D03*
X618750Y668610D02*
D03*
X545845Y439583D02*
D03*
X793451Y556250D02*
D03*
X700000Y714000D02*
D03*
X532503Y245417D02*
D03*
X772073Y268500D02*
D03*
X589005Y264422D02*
D03*
X723259Y539703D02*
D03*
X594000Y494050D02*
D03*
X709000Y218000D02*
D03*
X532503D02*
D03*
X400311Y610359D02*
D03*
X414701Y569702D02*
D03*
X406750Y407278D02*
D03*
X393750Y424000D02*
D03*
X413277Y582823D02*
D03*
X276000Y393000D02*
D03*
X125360Y157000D02*
D03*
X389000Y321000D02*
D03*
X371400Y319750D02*
D03*
X270616Y497481D02*
D03*
X251401D02*
D03*
X618750Y658855D02*
D03*
X615919Y551750D02*
D03*
X136775Y684000D02*
D03*
X601000Y429760D02*
D03*
X253354Y131000D02*
D03*
X159135Y249664D02*
D03*
X174305Y579000D02*
D03*
Y570680D02*
D03*
X221831Y154913D02*
D03*
X428272Y258363D02*
D03*
X436400Y254750D02*
D03*
X415525Y504419D02*
D03*
X454062D02*
D03*
X514554Y394144D02*
D03*
Y439135D02*
D03*
X468216Y324337D02*
D03*
X428505D02*
D03*
X336878Y373559D02*
D03*
Y439526D02*
D03*
Y414144D02*
D03*
X405285Y257000D02*
D03*
X735000Y388250D02*
D03*
X741000Y396000D02*
D03*
X428500Y637000D02*
D03*
X754000Y798026D02*
D03*
X666039Y726000D02*
D03*
X630910Y621835D02*
D03*
X648500Y498250D02*
D03*
X633750Y499624D02*
D03*
X594000Y509000D02*
D03*
X804976Y270000D02*
D03*
X804130Y256180D02*
D03*
X792000Y267000D02*
D03*
X822840Y263000D02*
D03*
X774010Y286482D02*
D03*
X754440Y304000D02*
D03*
X747458Y296982D02*
D03*
X849550Y605500D02*
D03*
X864250Y575000D02*
D03*
X859000Y605500D02*
D03*
X828281Y678365D02*
D03*
X841550Y811300D02*
D03*
X847800Y818261D02*
D03*
X835652Y805000D02*
D03*
X788022Y799000D02*
D03*
X766000Y804000D02*
D03*
X746940Y802646D02*
D03*
X707474Y761933D02*
D03*
X660039Y804994D02*
D03*
X630200Y809919D02*
D03*
X708760Y419380D02*
D03*
X692750Y630999D02*
D03*
X631781Y770670D02*
D03*
X515940Y846249D02*
D03*
X519112Y760900D02*
D03*
X496696Y785633D02*
D03*
X483998Y794969D02*
D03*
X570541Y754651D02*
D03*
X564078Y762253D02*
D03*
X587333Y662991D02*
D03*
X572238Y657515D02*
D03*
X611500Y778500D02*
D03*
X555286Y807000D02*
D03*
X510867Y648000D02*
D03*
X476000Y365000D02*
D03*
X597000Y538000D02*
D03*
X600000Y501000D02*
D03*
X595000Y519000D02*
D03*
X596093Y463416D02*
D03*
X597579Y472048D02*
D03*
X595000Y280000D02*
D03*
X595041Y403000D02*
D03*
Y422088D02*
D03*
X595300Y392400D02*
D03*
X595228Y367614D02*
D03*
X595000Y310476D02*
D03*
X595750Y384000D02*
D03*
X512503Y569886D02*
D03*
X503517Y576000D02*
D03*
X419201Y576687D02*
D03*
X397482Y572536D02*
D03*
X411000Y395665D02*
D03*
X525544Y88551D02*
D03*
X842000Y128000D02*
D03*
X536000Y88551D02*
D03*
X499983Y77000D02*
D03*
X491000D02*
D03*
X858000Y116000D02*
D03*
X422155Y251600D02*
D03*
X504495Y123135D02*
D03*
Y110906D02*
D03*
X512000Y107251D02*
D03*
Y127836D02*
D03*
X401000Y125575D02*
D03*
X392149Y111891D02*
D03*
Y125575D02*
D03*
X401000Y111891D02*
D03*
X292426Y525450D02*
D03*
X596750Y529000D02*
D03*
X246000Y454000D02*
D03*
X275758Y457677D02*
D03*
X269778Y304000D02*
D03*
X247747Y299592D02*
D03*
X242100Y299536D02*
D03*
X182245Y111630D02*
D03*
X167646Y303558D02*
D03*
X169000Y325142D02*
D03*
X615919Y568750D02*
D03*
X703000Y426000D02*
D03*
X656488Y349000D02*
D03*
X891000Y663000D02*
D03*
X512176Y502000D02*
D03*
X663000Y250000D02*
D03*
X576000Y260172D02*
D03*
X297000Y276064D02*
D03*
X290584Y338070D02*
D03*
X785480Y312000D02*
D03*
X785268Y318785D02*
D03*
X496213Y480938D02*
D03*
X368216Y296803D02*
D03*
X320304Y231467D02*
D03*
X306887Y231600D02*
D03*
X323000Y265000D02*
D03*
X484100Y207900D02*
D03*
X504220D02*
D03*
X514280D02*
D03*
X494160D02*
D03*
X524340D02*
D03*
X534400D02*
D03*
X519000Y302644D02*
D03*
X308600Y460644D02*
D03*
X343100Y530955D02*
D03*
X145000Y816200D02*
D03*
X591078Y610250D02*
D03*
X640600Y649036D02*
D03*
X269778Y296000D02*
D03*
X655250Y602308D02*
D03*
X596412Y665208D02*
D03*
X173000Y468000D02*
D03*
X421090Y845000D02*
D03*
X468938Y844697D02*
D03*
X481000D02*
D03*
X345000Y242000D02*
D03*
X523000Y840500D02*
D03*
X548502Y812901D02*
D03*
X650250Y810205D02*
D03*
X307966Y354144D02*
D03*
X443566Y436054D02*
D03*
Y481000D02*
D03*
X699119Y688676D02*
D03*
X699000Y676013D02*
D03*
X742232Y650480D02*
D03*
X786584Y650554D02*
D03*
X742704Y715500D02*
D03*
X443941Y428000D02*
D03*
X475400Y427875D02*
D03*
X788544Y712000D02*
D03*
X812184Y769393D02*
D03*
X786584Y641286D02*
D03*
X425000Y401559D02*
D03*
X387750Y531280D02*
D03*
X857000Y715000D02*
D03*
X823500Y696066D02*
D03*
X828000Y707766D02*
D03*
X699000Y625112D02*
D03*
X543804Y303345D02*
D03*
X321000Y284250D02*
D03*
X603100Y590800D02*
D03*
X674250Y535000D02*
D03*
Y522376D02*
D03*
X673200Y410437D02*
D03*
X699000Y597000D02*
D03*
X823883Y668166D02*
D03*
X85000Y816000D02*
D03*
X850000Y635000D02*
D03*
X858000Y768966D02*
D03*
X812184Y646000D02*
D03*
X795005Y598076D02*
D03*
X496213Y413000D02*
D03*
X425000Y369615D02*
D03*
X726145Y721000D02*
D03*
X830000Y605500D02*
D03*
X591672Y634700D02*
D03*
X566000Y621000D02*
D03*
X590950Y765000D02*
D03*
X542300Y510559D02*
D03*
X487456Y572151D02*
D03*
X478216D02*
D03*
X458312Y571046D02*
D03*
X448900D02*
D03*
X438713D02*
D03*
X428914Y575000D02*
D03*
X786794Y369216D02*
D03*
Y376000D02*
D03*
X806000Y400000D02*
D03*
X811090Y337000D02*
D03*
X781805Y278905D02*
D03*
X707458Y244627D02*
D03*
X707466Y278227D02*
D03*
X716010Y286530D02*
D03*
X709000Y209000D02*
D03*
Y199000D02*
D03*
X722000Y301000D02*
D03*
X715260Y295000D02*
D03*
X43431Y12710D02*
D03*
X25484Y13685D02*
D03*
X34431Y12710D02*
D03*
X70431D02*
D03*
X52431D02*
D03*
X61431D02*
D03*
X12229Y25304D02*
D03*
X17654Y18123D02*
D03*
X97431Y12710D02*
D03*
X106431D02*
D03*
X79431D02*
D03*
X88431D02*
D03*
X133431D02*
D03*
X115431D02*
D03*
X124431D02*
D03*
X10170Y34065D02*
D03*
X10170Y52065D02*
D03*
Y43065D02*
D03*
Y70065D02*
D03*
Y61065D02*
D03*
Y79065D02*
D03*
Y97065D02*
D03*
Y88065D02*
D03*
X125100Y60588D02*
D03*
Y66900D02*
D03*
X127400Y92632D02*
D03*
X127400Y102679D02*
D03*
Y120000D02*
D03*
X127700Y111300D02*
D03*
X160431Y12710D02*
D03*
X142431D02*
D03*
X151431D02*
D03*
X187430D02*
D03*
X196430D02*
D03*
X169431D02*
D03*
X178431D02*
D03*
X201502Y20145D02*
D03*
X208221Y26133D02*
D03*
X216873Y28611D02*
D03*
X243873Y28710D02*
D03*
X225873D02*
D03*
X234873D02*
D03*
X155300Y112900D02*
D03*
X191352Y88900D02*
D03*
X127400Y181950D02*
D03*
Y191719D02*
D03*
X127700Y202200D02*
D03*
X130939Y224900D02*
D03*
X155500Y202719D02*
D03*
X128100Y269500D02*
D03*
Y279500D02*
D03*
X124804Y326889D02*
D03*
X126196Y336591D02*
D03*
X127600Y288617D02*
D03*
X155000Y285000D02*
D03*
Y296000D02*
D03*
X192600Y177800D02*
D03*
X210700Y125800D02*
D03*
X198500Y209000D02*
D03*
X224200Y170422D02*
D03*
X243600Y140100D02*
D03*
X236700D02*
D03*
X192306Y263533D02*
D03*
X225825Y258211D02*
D03*
Y270022D02*
D03*
X248750Y280100D02*
D03*
X279873Y28710D02*
D03*
X261873D02*
D03*
X270873D02*
D03*
X315872D02*
D03*
X324873D02*
D03*
X297873D02*
D03*
X306873D02*
D03*
X360872D02*
D03*
X333872D02*
D03*
X351872D02*
D03*
X369872D02*
D03*
X378872D02*
D03*
X249482Y60900D02*
D03*
Y68700D02*
D03*
X252873Y28710D02*
D03*
X276643Y104400D02*
D03*
X285180D02*
D03*
X249300Y112300D02*
D03*
X265354Y104400D02*
D03*
X288873Y28710D02*
D03*
X342872D02*
D03*
X364500Y103700D02*
D03*
X423872Y28710D02*
D03*
X432872D02*
D03*
X396872D02*
D03*
X414872D02*
D03*
X459872D02*
D03*
X468872D02*
D03*
X441872D02*
D03*
X450872D02*
D03*
X477872D02*
D03*
X504872D02*
D03*
X486872D02*
D03*
X495872D02*
D03*
X387872D02*
D03*
X405872D02*
D03*
X395400Y80600D02*
D03*
X418138Y37300D02*
D03*
X406200Y128800D02*
D03*
X407500Y107600D02*
D03*
X426218Y37300D02*
D03*
X513872Y28711D02*
D03*
X522872Y28711D02*
D03*
X444680Y37300D02*
D03*
X485418Y109600D02*
D03*
X250200Y233816D02*
D03*
Y240333D02*
D03*
X288143Y203000D02*
D03*
X326000Y238827D02*
D03*
X323000Y252000D02*
D03*
X248750Y273800D02*
D03*
Y332699D02*
D03*
Y339899D02*
D03*
X307966Y340549D02*
D03*
X323000Y258000D02*
D03*
X331717Y259700D02*
D03*
X399900Y136600D02*
D03*
X393300D02*
D03*
X414200Y136400D02*
D03*
X407980Y159078D02*
D03*
X420600Y159350D02*
D03*
X469418Y140900D02*
D03*
X510000Y136400D02*
D03*
X509500Y150300D02*
D03*
X403193Y295593D02*
D03*
X458200Y296200D02*
D03*
X513216Y320104D02*
D03*
X521500Y321000D02*
D03*
X128000Y371000D02*
D03*
Y378000D02*
D03*
X129189Y345808D02*
D03*
X128000Y398000D02*
D03*
Y385000D02*
D03*
X128288Y450900D02*
D03*
X189890Y348930D02*
D03*
X225825Y343697D02*
D03*
X248750Y363549D02*
D03*
Y377049D02*
D03*
Y369849D02*
D03*
X240000Y445868D02*
D03*
X191600Y499623D02*
D03*
X197700Y521553D02*
D03*
X251401Y445868D02*
D03*
X263000Y561174D02*
D03*
X10171Y828627D02*
D03*
Y819627D02*
D03*
Y846627D02*
D03*
Y837627D02*
D03*
Y864627D02*
D03*
Y855627D02*
D03*
X93100Y798700D02*
D03*
X114750Y849000D02*
D03*
X10375Y873625D02*
D03*
X13495Y882066D02*
D03*
X19710Y888577D02*
D03*
X28030Y892007D02*
D03*
X64023Y892366D02*
D03*
X73023D02*
D03*
X46023D02*
D03*
X55023D02*
D03*
X37023D02*
D03*
X100023D02*
D03*
X82023D02*
D03*
X91023D02*
D03*
X127023D02*
D03*
X136023D02*
D03*
X109023D02*
D03*
X118023D02*
D03*
X146900Y838100D02*
D03*
X181023Y892366D02*
D03*
X163023D02*
D03*
X172023D02*
D03*
X203387Y882433D02*
D03*
X210990Y877618D02*
D03*
X190023Y892366D02*
D03*
X198744Y890143D02*
D03*
X145023Y892366D02*
D03*
X154023D02*
D03*
X219902Y876364D02*
D03*
X228902Y876364D02*
D03*
X237902Y876364D02*
D03*
X246902Y876364D02*
D03*
X255902Y876364D02*
D03*
X264902Y876364D02*
D03*
X273902Y876364D02*
D03*
X282902Y876364D02*
D03*
X291902Y876364D02*
D03*
X300902Y876365D02*
D03*
X307904Y360026D02*
D03*
X331012Y353617D02*
D03*
X331661Y462144D02*
D03*
X308004Y532200D02*
D03*
X343216Y506639D02*
D03*
X368091Y531280D02*
D03*
X425000Y392000D02*
D03*
X436000Y453644D02*
D03*
X502038Y366144D02*
D03*
X496213Y428703D02*
D03*
X519700Y359144D02*
D03*
X383216Y507455D02*
D03*
X436000Y463894D02*
D03*
X374897Y630000D02*
D03*
X420000Y630000D02*
D03*
X309902Y876365D02*
D03*
X318902Y876365D02*
D03*
X327902Y876365D02*
D03*
X336902Y876365D02*
D03*
X345902Y876365D02*
D03*
X354902Y876365D02*
D03*
X363902Y876365D02*
D03*
X372902Y876365D02*
D03*
X381902Y876365D02*
D03*
X390902Y876365D02*
D03*
X399902Y876365D02*
D03*
X408902Y876366D02*
D03*
X417902Y876366D02*
D03*
X426902D02*
D03*
X455750Y623178D02*
D03*
X433000Y769000D02*
D03*
X478420Y769000D02*
D03*
X499563Y625367D02*
D03*
X512000Y628000D02*
D03*
Y675000D02*
D03*
X523223Y769000D02*
D03*
X433052Y839805D02*
D03*
X480902Y876366D02*
D03*
X435902D02*
D03*
X444902D02*
D03*
X471902D02*
D03*
X453902D02*
D03*
X462902D02*
D03*
X485268Y836500D02*
D03*
X498902Y876366D02*
D03*
X507902D02*
D03*
X516902D02*
D03*
X525902D02*
D03*
X489902D02*
D03*
X531872Y28711D02*
D03*
X540872Y28711D02*
D03*
X549872Y28711D02*
D03*
X552000Y99000D02*
D03*
X558872Y28711D02*
D03*
X567872Y28711D02*
D03*
X576872Y28711D02*
D03*
X552000Y109000D02*
D03*
X585872Y28711D02*
D03*
X594872Y28711D02*
D03*
X603872Y28711D02*
D03*
X612872Y28712D02*
D03*
X621872Y28712D02*
D03*
X630872Y28712D02*
D03*
X639872Y28712D02*
D03*
X648872Y28712D02*
D03*
X657872Y28712D02*
D03*
X666872Y28712D02*
D03*
X675872Y28712D02*
D03*
X684872Y28712D02*
D03*
X693872Y28712D02*
D03*
X702872Y28712D02*
D03*
X711872Y28712D02*
D03*
X678858Y38700D02*
D03*
X749685Y12710D02*
D03*
X731693Y13090D02*
D03*
X740685Y12710D02*
D03*
X776685D02*
D03*
X758685D02*
D03*
X767685D02*
D03*
X720652Y26738D02*
D03*
X727720Y21165D02*
D03*
X686600Y38700D02*
D03*
X705400D02*
D03*
X713500Y119700D02*
D03*
X715400Y39100D02*
D03*
X746138Y97194D02*
D03*
X763800Y48100D02*
D03*
X724571Y114000D02*
D03*
X719100Y127800D02*
D03*
X544750Y432000D02*
D03*
X653700Y148400D02*
D03*
X660504D02*
D03*
X675000Y148700D02*
D03*
X638000Y509000D02*
D03*
X661500Y440250D02*
D03*
X687054Y149108D02*
D03*
X725000Y501803D02*
D03*
X777000Y420821D02*
D03*
X746000Y431000D02*
D03*
X754130Y431000D02*
D03*
X803685Y12710D02*
D03*
X785685D02*
D03*
X794685D02*
D03*
X830685D02*
D03*
X839685D02*
D03*
X812685D02*
D03*
X821685D02*
D03*
X816987Y54647D02*
D03*
X866685Y12710D02*
D03*
X848685D02*
D03*
X857685D02*
D03*
X893685D02*
D03*
X875685D02*
D03*
X884685D02*
D03*
X827724Y54647D02*
D03*
X823775Y193957D02*
D03*
X812000Y194000D02*
D03*
X818000D02*
D03*
X834210Y64801D02*
D03*
X831000Y240000D02*
D03*
X832000Y285477D02*
D03*
X902669Y13241D02*
D03*
X910898Y16887D02*
D03*
X916874Y23616D02*
D03*
X919681Y32167D02*
D03*
X919829Y59166D02*
D03*
Y50166D02*
D03*
Y77166D02*
D03*
Y68166D02*
D03*
Y131166D02*
D03*
Y122166D02*
D03*
X906356Y142856D02*
D03*
X912304Y136102D02*
D03*
X919829Y95166D02*
D03*
Y86166D02*
D03*
Y113166D02*
D03*
Y104166D02*
D03*
Y41166D02*
D03*
X903829Y196519D02*
D03*
Y187519D02*
D03*
Y214519D02*
D03*
Y205519D02*
D03*
Y160519D02*
D03*
X903919Y151520D02*
D03*
X903829Y178519D02*
D03*
Y169519D02*
D03*
Y250519D02*
D03*
Y241519D02*
D03*
Y268519D02*
D03*
Y259519D02*
D03*
Y232519D02*
D03*
Y223519D02*
D03*
X903829Y286519D02*
D03*
Y277519D02*
D03*
X832000Y345477D02*
D03*
Y300000D02*
D03*
X799000Y445717D02*
D03*
X783750Y447536D02*
D03*
X787000Y488167D02*
D03*
X903829Y331519D02*
D03*
Y349519D02*
D03*
Y340519D02*
D03*
Y304519D02*
D03*
Y295519D02*
D03*
Y322519D02*
D03*
Y313519D02*
D03*
Y367519D02*
D03*
Y358519D02*
D03*
Y385519D02*
D03*
Y376519D02*
D03*
Y394519D02*
D03*
X903829Y439519D02*
D03*
Y457519D02*
D03*
Y448519D02*
D03*
Y412519D02*
D03*
Y403519D02*
D03*
Y430519D02*
D03*
Y421519D02*
D03*
Y511519D02*
D03*
Y502519D02*
D03*
Y475519D02*
D03*
Y466519D02*
D03*
Y493519D02*
D03*
Y484519D02*
D03*
X555228Y621000D02*
D03*
X605709Y624700D02*
D03*
Y658855D02*
D03*
X648559Y537000D02*
D03*
X651000Y570953D02*
D03*
X562228Y665208D02*
D03*
X535843Y708422D02*
D03*
X582871Y715000D02*
D03*
X639000Y708798D02*
D03*
Y697270D02*
D03*
Y720000D02*
D03*
X697050Y580408D02*
D03*
X699000Y590000D02*
D03*
Y604811D02*
D03*
X666039Y681746D02*
D03*
X695000Y619000D02*
D03*
X723259Y597000D02*
D03*
X729931Y705715D02*
D03*
Y661344D02*
D03*
X531814Y737467D02*
D03*
X584000Y770000D02*
D03*
X559000Y781000D02*
D03*
X529000Y835000D02*
D03*
X605252Y803521D02*
D03*
X534902Y876366D02*
D03*
X561902D02*
D03*
X543902D02*
D03*
X552902D02*
D03*
X564000Y853750D02*
D03*
X570902Y876366D02*
D03*
X597901D02*
D03*
X606902D02*
D03*
X579902D02*
D03*
X588901D02*
D03*
X640231Y781000D02*
D03*
X741268Y759000D02*
D03*
X754000D02*
D03*
X719684Y766000D02*
D03*
X754000Y768000D02*
D03*
X741268D02*
D03*
X642901Y876366D02*
D03*
X624902D02*
D03*
X633901D02*
D03*
X669901D02*
D03*
X678901D02*
D03*
X651901D02*
D03*
X660901D02*
D03*
X615901D02*
D03*
X687901D02*
D03*
X705901Y876366D02*
D03*
X696901Y876366D02*
D03*
X714897Y876650D02*
D03*
X723279Y879928D02*
D03*
X729410Y886516D02*
D03*
X754250Y892366D02*
D03*
X736250D02*
D03*
X745250D02*
D03*
X798848Y519336D02*
D03*
X809000Y554000D02*
D03*
X762017Y640267D02*
D03*
X770000Y661344D02*
D03*
Y668166D02*
D03*
X771434Y707686D02*
D03*
X787698Y623500D02*
D03*
X811719Y624533D02*
D03*
X771454Y698894D02*
D03*
X820474Y512898D02*
D03*
X824000Y519336D02*
D03*
X903829Y565519D02*
D03*
X822379Y597154D02*
D03*
X823000Y587500D02*
D03*
X903829Y583519D02*
D03*
Y574519D02*
D03*
Y592519D02*
D03*
Y556519D02*
D03*
Y529519D02*
D03*
Y520519D02*
D03*
Y547519D02*
D03*
Y538519D02*
D03*
X823253Y654336D02*
D03*
X903829Y628518D02*
D03*
Y610518D02*
D03*
Y601519D02*
D03*
Y619519D02*
D03*
X903829Y673518D02*
D03*
X828000Y690965D02*
D03*
X903829Y682518D02*
D03*
Y700518D02*
D03*
Y691518D02*
D03*
Y637519D02*
D03*
Y655518D02*
D03*
Y646518D02*
D03*
Y664518D02*
D03*
X765800Y768000D02*
D03*
X810934Y741830D02*
D03*
X812630Y749370D02*
D03*
X812184Y758247D02*
D03*
X781250Y892366D02*
D03*
X790250D02*
D03*
X763250D02*
D03*
X772250D02*
D03*
X817250D02*
D03*
X826250D02*
D03*
X799250D02*
D03*
X808250D02*
D03*
X853250D02*
D03*
X835250D02*
D03*
X844250D02*
D03*
X868250Y724000D02*
D03*
X903829Y754518D02*
D03*
Y745518D02*
D03*
Y718518D02*
D03*
Y709518D02*
D03*
Y736518D02*
D03*
Y727518D02*
D03*
X868250Y761000D02*
D03*
X904767Y763469D02*
D03*
X909184Y771311D02*
D03*
X916575Y776447D02*
D03*
X919829Y784837D02*
D03*
X915867Y883108D02*
D03*
X919391Y874827D02*
D03*
X889250Y892366D02*
D03*
X909253Y889212D02*
D03*
X919829Y847837D02*
D03*
Y838837D02*
D03*
Y865837D02*
D03*
Y856837D02*
D03*
X862250Y892366D02*
D03*
X871250D02*
D03*
X880250D02*
D03*
X898250Y892388D02*
D03*
X919829Y829837D02*
D03*
Y802837D02*
D03*
Y793837D02*
D03*
Y820837D02*
D03*
Y811837D02*
D03*
X222000Y388366D02*
D03*
X131000Y497844D02*
D03*
X131556Y543498D02*
D03*
Y566194D02*
D03*
X443193Y530750D02*
D03*
X483200D02*
D03*
X647000Y861000D02*
D03*
X564000Y861750D02*
D03*
X750388Y170284D02*
D03*
X474651Y861750D02*
D03*
X646750Y847000D02*
D03*
X754130Y383870D02*
D03*
X558809Y753400D02*
D03*
X533001Y812920D02*
D03*
X487000Y856750D02*
D03*
X748487Y160696D02*
D03*
X451239Y861750D02*
D03*
X426434D02*
D03*
X510882D02*
D03*
X804250Y301000D02*
D03*
X463000Y365000D02*
D03*
X425000Y455000D02*
D03*
X721760Y414000D02*
D03*
X822009Y416217D02*
D03*
X458000Y372000D02*
D03*
X721760Y424000D02*
D03*
X822000Y437908D02*
D03*
X866000Y394519D02*
D03*
X490110Y384757D02*
D03*
X275503Y444144D02*
D03*
X852000Y439000D02*
D03*
X792000Y294000D02*
D03*
X689000Y202000D02*
D03*
X679600D02*
D03*
X670200D02*
D03*
X660800D02*
D03*
X738943Y407250D02*
D03*
X761510D02*
D03*
X811090Y321937D02*
D03*
X822009Y394519D02*
D03*
X673555Y419380D02*
D03*
X675000Y608922D02*
D03*
X508736Y530750D02*
D03*
X190983Y441691D02*
D03*
X535153Y627803D02*
D03*
X627000Y291000D02*
D03*
X240000Y423000D02*
D03*
X251401D02*
D03*
X255009Y449682D02*
D03*
X161396Y411505D02*
D03*
X177000Y409250D02*
D03*
X237000Y410000D02*
D03*
X190323Y423265D02*
D03*
X251401Y466000D02*
D03*
X351500Y218600D02*
D03*
X380900D02*
D03*
X371100D02*
D03*
X361300D02*
D03*
X390700D02*
D03*
X187200Y513000D02*
D03*
X345000Y42500D02*
D03*
X258306Y521944D02*
D03*
X793233Y235987D02*
D03*
X798000Y528817D02*
D03*
X749947Y550740D02*
D03*
X215606Y47515D02*
D03*
X224900D02*
D03*
X393806Y65400D02*
D03*
X462100Y48632D02*
D03*
Y57800D02*
D03*
X659097Y46220D02*
D03*
Y56090D02*
D03*
Y65960D02*
D03*
X266029Y46878D02*
D03*
X407299Y66800D02*
D03*
X393806Y44750D02*
D03*
X405639Y44984D02*
D03*
X724071Y65384D02*
D03*
Y47375D02*
D03*
X879000Y650000D02*
D03*
Y620500D02*
D03*
Y590500D02*
D03*
X877797Y560500D02*
D03*
X793958Y449000D02*
D03*
X146900Y828000D02*
D03*
X701947Y564500D02*
D03*
X806610Y106000D02*
D03*
X782233Y235987D02*
D03*
X771233D02*
D03*
X658000Y327680D02*
D03*
X266000Y387000D02*
D03*
X856000Y345477D02*
D03*
Y285477D02*
D03*
X839000Y753000D02*
D03*
X127675Y786000D02*
D03*
X563000Y582000D02*
D03*
X271157Y518000D02*
D03*
X686000Y286250D02*
D03*
X697669Y436331D02*
D03*
X689000Y483074D02*
D03*
X673200Y377000D02*
D03*
X684497Y554000D02*
D03*
Y308000D02*
D03*
X604250Y320000D02*
D03*
X608500Y297000D02*
D03*
X595888Y480372D02*
D03*
X664000Y489000D02*
D03*
X740614Y475532D02*
D03*
X697120Y237000D02*
D03*
X678000Y282000D02*
D03*
X330000Y226846D02*
D03*
X405285Y242415D02*
D03*
X414810Y247043D02*
D03*
X546068Y242532D02*
D03*
X513702Y254750D02*
D03*
X522000Y252000D02*
D03*
X540804Y231250D02*
D03*
X464352Y254144D02*
D03*
X565223Y242997D02*
D03*
X572238Y647531D02*
D03*
X741908Y516271D02*
D03*
X871750Y465571D02*
D03*
X876250Y477519D02*
D03*
X403200Y319100D02*
D03*
X604250Y275000D02*
D03*
X804051Y246921D02*
D03*
X821567Y303000D02*
D03*
X821090Y323000D02*
D03*
X813799Y263000D02*
D03*
X680000Y271250D02*
D03*
X560407Y254750D02*
D03*
X267000Y313164D02*
D03*
X271250Y322200D02*
D03*
Y377049D02*
D03*
X681587Y680263D02*
D03*
Y697270D02*
D03*
X275758Y508000D02*
D03*
X270616Y489307D02*
D03*
X272250Y478000D02*
D03*
X503978Y451350D02*
D03*
X711999Y630999D02*
D03*
X821090Y247000D02*
D03*
X350978Y251515D02*
D03*
X385415Y246775D02*
D03*
X692000Y643000D02*
D03*
X697000Y650480D02*
D03*
X454559Y251957D02*
D03*
X445000Y251600D02*
D03*
X494099Y251534D02*
D03*
X395000Y257000D02*
D03*
X823500Y685602D02*
D03*
X833000Y694465D02*
D03*
X870000Y532000D02*
D03*
X829090Y730910D02*
D03*
X834000Y741830D02*
D03*
X776334Y624533D02*
D03*
X416250Y429000D02*
D03*
X503978Y461600D02*
D03*
X384000Y384000D02*
D03*
X483000Y327184D02*
D03*
X544000Y642000D02*
D03*
X639750Y523238D02*
D03*
X551000Y543000D02*
D03*
X498000Y585000D02*
D03*
X685837Y655547D02*
D03*
X699000Y701336D02*
D03*
X716000Y643394D02*
D03*
X598600Y568750D02*
D03*
X699000Y663589D02*
D03*
X640600Y621835D02*
D03*
X800500Y835000D02*
D03*
X785500Y830000D02*
D03*
X770500Y825000D02*
D03*
X503000Y642000D02*
D03*
X657000Y412000D02*
D03*
X491000Y498650D02*
D03*
X443100Y506000D02*
D03*
X274834Y356684D02*
D03*
X825610Y106000D02*
D03*
X816060D02*
D03*
X505000Y631000D02*
D03*
X649933Y781000D02*
D03*
X681684Y707752D02*
D03*
X524000Y779000D02*
D03*
X456051Y769000D02*
D03*
X456357Y784584D02*
D03*
X476497Y790525D02*
D03*
X732000Y789500D02*
D03*
X779000Y799000D02*
D03*
X666039Y708500D02*
D03*
X602400Y726000D02*
D03*
X602806Y690980D02*
D03*
X602400Y708798D02*
D03*
X202710Y510481D02*
D03*
X363400Y507200D02*
D03*
X248597Y544000D02*
D03*
X224000Y529000D02*
D03*
X254056Y533250D02*
D03*
X281920Y527164D02*
D03*
X607700Y568750D02*
D03*
X272688Y560423D02*
D03*
X132901Y728403D02*
D03*
X148050Y698300D02*
D03*
X570541Y782500D02*
D03*
X506000Y785250D02*
D03*
X608000Y763000D02*
D03*
X445958Y784541D02*
D03*
X347300Y692000D02*
D03*
X741268Y794961D02*
D03*
X761354Y794714D02*
D03*
X701000Y768000D02*
D03*
X576250Y747000D02*
D03*
X582871Y738968D02*
D03*
X590000Y734000D02*
D03*
X658500Y686250D02*
D03*
X626000Y324780D02*
D03*
X662111Y676400D02*
D03*
X160412Y312224D02*
D03*
X223000Y242000D02*
D03*
X299000Y265000D02*
D03*
X330820Y340644D02*
D03*
X605719Y249031D02*
D03*
X257830Y576093D02*
D03*
X223000Y231072D02*
D03*
X276300Y187500D02*
D03*
X304800Y39600D02*
D03*
X200987Y306799D02*
D03*
X154043Y616301D02*
D03*
X147250Y743500D02*
D03*
X325100Y40100D02*
D03*
X276000Y75000D02*
D03*
X122739Y797439D02*
D03*
X519311Y495644D02*
D03*
X331200Y364078D02*
D03*
X480400Y164100D02*
D03*
X239156Y124644D02*
D03*
X148050Y298249D02*
D03*
X151161Y218943D02*
D03*
X168585Y224662D02*
D03*
X168146Y125100D02*
D03*
X138400Y123300D02*
D03*
X245600Y309100D02*
D03*
Y316141D02*
D03*
X170164Y396300D02*
D03*
Y386012D02*
D03*
X190323D02*
D03*
Y396300D02*
D03*
X180244D02*
D03*
Y386012D02*
D03*
X180544Y375013D02*
D03*
X182245Y125566D02*
D03*
X130400Y171719D02*
D03*
X175028Y208746D02*
D03*
X180866Y200158D02*
D03*
X175028Y120000D02*
D03*
X130454Y82584D02*
D03*
X182116Y213729D02*
D03*
X168585D02*
D03*
X213815Y299536D02*
D03*
X218024Y306799D02*
D03*
X209593D02*
D03*
X205387Y299536D02*
D03*
X196573D02*
D03*
X512000Y117718D02*
D03*
X178876Y296571D02*
D03*
X178900Y288199D02*
D03*
X131700Y259520D02*
D03*
X167617Y137172D02*
D03*
X159202Y147841D02*
D03*
X167617D02*
D03*
X159202Y137172D02*
D03*
X221796Y142526D02*
D03*
X227320Y148526D02*
D03*
X159460Y224650D02*
D03*
X168585Y235331D02*
D03*
X159460Y235319D02*
D03*
X160412Y325142D02*
D03*
X169000Y312224D02*
D03*
X167185Y59669D02*
D03*
X158585D02*
D03*
Y49000D02*
D03*
X167185D02*
D03*
X294700Y237600D02*
D03*
D141*
X330000Y859200D02*
D03*
X169000Y828000D02*
D03*
X425000Y801000D02*
D03*
X393000Y828000D02*
D03*
X160000Y816300D02*
D03*
X186950Y852000D02*
D03*
X178000Y839000D02*
D03*
X366000Y830000D02*
D03*
X355500Y839692D02*
D03*
X343000Y849000D02*
D03*
D142*
X35700Y88000D02*
D03*
Y824600D02*
D03*
X893000Y50000D02*
D03*
Y850000D02*
D03*
D143*
X144719Y694969D02*
X148050Y698300D01*
X144719Y596071D02*
Y694969D01*
X148407Y598593D02*
Y652637D01*
X148769Y653000D01*
X853719Y500050D02*
X876250Y477519D01*
X796639Y493771D02*
X802919Y500050D01*
X853719D01*
X570464Y489921D02*
X661453D01*
X557230Y476688D02*
X570464Y489921D01*
X661453D02*
X661915Y489459D01*
X663541D01*
X664000Y489000D01*
X600000Y501000D02*
X607229Y493771D01*
X796639D01*
X338020Y497500D02*
X381687D01*
X335192Y500327D02*
X338020Y497500D01*
X291525Y500327D02*
X335192D01*
X211048Y502144D02*
X274732D01*
X276516Y503927D01*
X340200D02*
X341538Y502589D01*
X382627D01*
X383072Y502144D01*
X270616Y497481D02*
X288679D01*
X291525Y500327D01*
X276516Y503927D02*
X340200D01*
X381687Y497500D02*
X393187Y486000D01*
X156150Y590850D02*
X460038D01*
X148407Y598593D02*
X156150Y590850D01*
X144719Y596071D02*
X153540Y587250D01*
X462550D02*
X472000Y596700D01*
X153540Y587250D02*
X462550D01*
X472000Y596700D02*
Y611000D01*
X460038Y590850D02*
X467000Y597812D01*
Y616000D02*
X499000Y648000D01*
X510867D01*
X467404Y486000D02*
X476716Y476688D01*
X557230D01*
X472000Y611000D02*
X503000Y642000D01*
X467000Y597812D02*
Y616000D01*
X393187Y486000D02*
X467404D01*
M02*
