G04*
G04 #@! TF.GenerationSoftware,Altium Limited,Altium Designer,25.8.1 (18)*
G04*
G04 Layer_Physical_Order=5*
G04 Layer_Color=12811406*
%FSLAX44Y44*%
%MOMM*%
G71*
G04*
G04 #@! TF.SameCoordinates,2741212A-0909-4EBE-8243-947659D43CE8*
G04*
G04*
G04 #@! TF.FilePolarity,Positive*
G04*
G01*
G75*
%ADD123C,1.5000*%
%ADD134C,0.3000*%
%ADD135C,1.6000*%
%ADD136C,1.5300*%
%ADD137R,1.5300X1.5300*%
%ADD138R,1.6000X1.6000*%
%ADD139C,0.4000*%
%ADD140C,0.6000*%
%ADD141C,4.4000*%
G36*
X396500Y222500D02*
X397337Y222500D01*
X398979Y222173D01*
X400526Y221532D01*
X401918Y220602D01*
X403102Y219418D01*
X404033Y218026D01*
X404673Y216479D01*
X405000Y214837D01*
X405000Y191400D01*
X405000D01*
Y190477D01*
X404640Y188666D01*
X403933Y186960D01*
X402907Y185425D01*
X401602Y184119D01*
X400066Y183093D01*
X398361Y182387D01*
X396550Y182027D01*
X344152D01*
X333987Y171861D01*
X320643D01*
Y146943D01*
X309143Y135443D01*
Y113862D01*
X299643D01*
Y135362D01*
X288143Y146862D01*
Y193361D01*
X319013D01*
X319000Y193374D01*
X348126Y222500D01*
X350603D01*
X350702Y221500D01*
X350330Y221426D01*
X349337Y220763D01*
X348674Y219771D01*
X348441Y218600D01*
X348674Y217430D01*
X349337Y216437D01*
X350330Y215774D01*
X351500Y215541D01*
X352671Y215774D01*
X353663Y216437D01*
X354326Y217430D01*
X354559Y218600D01*
X354326Y219771D01*
X353663Y220763D01*
X352671Y221426D01*
X352298Y221500D01*
X352397Y222500D01*
X360403D01*
X360502Y221500D01*
X360130Y221426D01*
X359137Y220763D01*
X358474Y219771D01*
X358241Y218600D01*
X358474Y217430D01*
X359137Y216437D01*
X360130Y215774D01*
X361300Y215541D01*
X362471Y215774D01*
X363463Y216437D01*
X364126Y217430D01*
X364359Y218600D01*
X364126Y219771D01*
X363463Y220763D01*
X362471Y221426D01*
X362098Y221500D01*
X362197Y222500D01*
X370203D01*
X370302Y221500D01*
X369929Y221426D01*
X368937Y220763D01*
X368274Y219771D01*
X368041Y218600D01*
X368274Y217430D01*
X368937Y216437D01*
X369929Y215774D01*
X371100Y215541D01*
X372271Y215774D01*
X373263Y216437D01*
X373926Y217430D01*
X374159Y218600D01*
X373926Y219771D01*
X373263Y220763D01*
X372271Y221426D01*
X371898Y221500D01*
X371997Y222500D01*
X380003D01*
X380102Y221500D01*
X379729Y221426D01*
X378737Y220763D01*
X378074Y219771D01*
X377841Y218600D01*
X378074Y217430D01*
X378737Y216437D01*
X379729Y215774D01*
X380900Y215541D01*
X382071Y215774D01*
X383063Y216437D01*
X383726Y217430D01*
X383959Y218600D01*
X383726Y219771D01*
X383063Y220763D01*
X382071Y221426D01*
X381698Y221500D01*
X381797Y222500D01*
X389803D01*
X389902Y221500D01*
X389529Y221426D01*
X388537Y220763D01*
X387874Y219771D01*
X387641Y218600D01*
X387874Y217430D01*
X388537Y216437D01*
X389529Y215774D01*
X390700Y215541D01*
X391870Y215774D01*
X392863Y216437D01*
X393526Y217430D01*
X393759Y218600D01*
X393526Y219771D01*
X392863Y220763D01*
X391870Y221426D01*
X391498Y221500D01*
X391597Y222500D01*
X396500D01*
Y222500D01*
D02*
G37*
D123*
X507200Y753400D02*
D03*
X431000Y728200D02*
D03*
X532600Y601000D02*
D03*
X456400Y728200D02*
D03*
X329400D02*
D03*
Y652000D02*
D03*
X354800Y728200D02*
D03*
X380200D02*
D03*
X405600D02*
D03*
X431000Y652000D02*
D03*
X456400D02*
D03*
X481800D02*
D03*
Y728200D02*
D03*
X405600Y652000D02*
D03*
X354800D02*
D03*
X380200D02*
D03*
X304000D02*
D03*
X278600D02*
D03*
Y728200D02*
D03*
X304000D02*
D03*
X481800Y753400D02*
D03*
X456400D02*
D03*
X431000D02*
D03*
X405600D02*
D03*
X329400Y601000D02*
D03*
X380200D02*
D03*
X354800D02*
D03*
X380200Y753400D02*
D03*
X304000D02*
D03*
X329400D02*
D03*
X456400Y601000D02*
D03*
X481800D02*
D03*
X278600D02*
D03*
X253200D02*
D03*
X227800D02*
D03*
X354800Y753400D02*
D03*
X202400D02*
D03*
X227800D02*
D03*
X507200Y601000D02*
D03*
X532600Y753400D02*
D03*
X431000Y601000D02*
D03*
X405600D02*
D03*
X278600Y753400D02*
D03*
X253200D02*
D03*
X202400Y601000D02*
D03*
X304000D02*
D03*
D134*
X774510Y356000D02*
D03*
Y344000D02*
D03*
X762510D02*
D03*
X750510Y356000D02*
D03*
X738510D02*
D03*
X762510D02*
D03*
X750510Y344000D02*
D03*
X726510Y356000D02*
D03*
X714510Y344000D02*
D03*
Y356000D02*
D03*
X750510Y332000D02*
D03*
X738510D02*
D03*
X774510D02*
D03*
X762510D02*
D03*
X738510Y344000D02*
D03*
X726510D02*
D03*
Y332000D02*
D03*
X714510D02*
D03*
D135*
X640500Y424700D02*
D03*
Y348500D02*
D03*
Y297700D02*
D03*
Y399300D02*
D03*
Y373900D02*
D03*
Y323100D02*
D03*
Y450100D02*
D03*
D136*
X61100Y723000D02*
D03*
X35700D02*
D03*
X61100Y519800D02*
D03*
X35700D02*
D03*
X61100Y494400D02*
D03*
X35700D02*
D03*
X111900Y164200D02*
D03*
X61100Y697600D02*
D03*
X35700D02*
D03*
Y469000D02*
D03*
X61100D02*
D03*
Y291200D02*
D03*
Y316600D02*
D03*
X35700D02*
D03*
X61100Y342000D02*
D03*
X35700D02*
D03*
X61100Y367400D02*
D03*
X35700D02*
D03*
X61100Y392800D02*
D03*
X35700D02*
D03*
X61100Y545200D02*
D03*
X35700D02*
D03*
X61100Y570600D02*
D03*
Y596000D02*
D03*
X35700D02*
D03*
Y570600D02*
D03*
Y621400D02*
D03*
X61100D02*
D03*
Y646800D02*
D03*
X35700D02*
D03*
X61100Y672200D02*
D03*
X35700D02*
D03*
X61100Y748400D02*
D03*
X35700D02*
D03*
X61100Y773800D02*
D03*
X35700D02*
D03*
Y138800D02*
D03*
X61100Y164200D02*
D03*
X35700D02*
D03*
X61100Y189600D02*
D03*
X35700D02*
D03*
X61100Y215000D02*
D03*
X35700D02*
D03*
X61100Y240400D02*
D03*
Y265800D02*
D03*
X35700D02*
D03*
Y291200D02*
D03*
Y240400D02*
D03*
X61100Y418200D02*
D03*
X35700D02*
D03*
Y443600D02*
D03*
X61100D02*
D03*
X86500Y291200D02*
D03*
X111900Y316600D02*
D03*
Y291200D02*
D03*
Y265800D02*
D03*
Y240400D02*
D03*
X86500Y189600D02*
D03*
Y316600D02*
D03*
X111900Y342000D02*
D03*
X86500D02*
D03*
X111900Y367400D02*
D03*
X86500D02*
D03*
Y469000D02*
D03*
X111900Y494400D02*
D03*
X86500D02*
D03*
X111900Y519800D02*
D03*
X86500D02*
D03*
X111900Y545200D02*
D03*
X86500D02*
D03*
X111900Y570600D02*
D03*
X86500D02*
D03*
Y621400D02*
D03*
Y646800D02*
D03*
Y723000D02*
D03*
Y748400D02*
D03*
X111900Y773800D02*
D03*
X86500D02*
D03*
Y138800D02*
D03*
Y164200D02*
D03*
X111900Y189600D02*
D03*
Y215000D02*
D03*
X86500D02*
D03*
Y265800D02*
D03*
Y240400D02*
D03*
Y596000D02*
D03*
X111900D02*
D03*
Y748400D02*
D03*
Y723000D02*
D03*
X86500Y443600D02*
D03*
Y418200D02*
D03*
Y392800D02*
D03*
X111900Y646800D02*
D03*
X86500Y697600D02*
D03*
X111900D02*
D03*
X86500Y672200D02*
D03*
X111900D02*
D03*
Y621400D02*
D03*
Y443600D02*
D03*
Y469000D02*
D03*
Y392800D02*
D03*
Y418200D02*
D03*
D137*
Y138800D02*
D03*
X61100D02*
D03*
D138*
X640500Y475500D02*
D03*
D139*
X799208Y427000D02*
D03*
X781805Y281029D02*
D03*
Y287444D02*
D03*
X775448Y275276D02*
D03*
X768460D02*
D03*
X721760Y275370D02*
D03*
X714410D02*
D03*
X708760Y279870D02*
D03*
Y287949D02*
D03*
X358700Y573950D02*
D03*
X590950Y765000D02*
D03*
X558809Y753400D02*
D03*
X563991Y757750D02*
D03*
X646750Y847000D02*
D03*
X590950Y811842D02*
D03*
X889000Y663000D02*
D03*
X474651Y861750D02*
D03*
X533001Y812920D02*
D03*
X487000Y856750D02*
D03*
X750388Y170284D02*
D03*
X748487Y160696D02*
D03*
X709000Y211063D02*
D03*
Y218000D02*
D03*
X564000Y861750D02*
D03*
X451239D02*
D03*
X426434D02*
D03*
X647000Y861000D02*
D03*
X510882Y861750D02*
D03*
X804250Y301000D02*
D03*
X275687Y459144D02*
D03*
X463000Y365000D02*
D03*
X425000Y455000D02*
D03*
X741000Y384000D02*
D03*
X471000Y365000D02*
D03*
X735000Y389000D02*
D03*
X449716Y571046D02*
D03*
X721760Y414000D02*
D03*
X822009Y416217D02*
D03*
X715260Y295000D02*
D03*
X722000Y301000D02*
D03*
X703000Y426000D02*
D03*
X382042Y575513D02*
D03*
X389000Y321000D02*
D03*
X747760Y299000D02*
D03*
X458000Y372000D02*
D03*
X415404Y572536D02*
D03*
X754260Y303000D02*
D03*
X721760Y424000D02*
D03*
X822000Y437908D02*
D03*
X866000Y394519D02*
D03*
X490110Y384757D02*
D03*
X275503Y444144D02*
D03*
X754000Y394000D02*
D03*
X852000Y439000D02*
D03*
X792000Y294000D02*
D03*
X689000Y202000D02*
D03*
X679600D02*
D03*
X670200D02*
D03*
X660800D02*
D03*
X708760Y422414D02*
D03*
X738943Y407250D02*
D03*
X799000Y270000D02*
D03*
Y263000D02*
D03*
X761510Y407250D02*
D03*
X811090Y337000D02*
D03*
Y321937D02*
D03*
X822009Y394519D02*
D03*
X429888Y574557D02*
D03*
X673555Y419380D02*
D03*
X675000Y608922D02*
D03*
X483200Y530750D02*
D03*
X443193D02*
D03*
X131556Y566194D02*
D03*
Y543498D02*
D03*
X131000Y497844D02*
D03*
X222000Y388366D02*
D03*
X919829Y811837D02*
D03*
Y820837D02*
D03*
Y793837D02*
D03*
Y802837D02*
D03*
Y829837D02*
D03*
X898250Y892388D02*
D03*
X880250Y892366D02*
D03*
X871250D02*
D03*
X862250D02*
D03*
X919829Y856837D02*
D03*
Y865837D02*
D03*
Y838837D02*
D03*
Y847837D02*
D03*
X909253Y889212D02*
D03*
X889250Y892366D02*
D03*
X919391Y874827D02*
D03*
X915867Y883108D02*
D03*
X919829Y784837D02*
D03*
X916575Y776447D02*
D03*
X909184Y771311D02*
D03*
X904767Y763469D02*
D03*
X868250Y761000D02*
D03*
X903829Y727518D02*
D03*
Y736518D02*
D03*
Y709518D02*
D03*
Y718518D02*
D03*
Y745518D02*
D03*
Y754518D02*
D03*
X868250Y724000D02*
D03*
X844250Y892366D02*
D03*
X835250D02*
D03*
X853250D02*
D03*
X808250D02*
D03*
X799250D02*
D03*
X826250D02*
D03*
X817250D02*
D03*
X772250D02*
D03*
X763250D02*
D03*
X790250D02*
D03*
X781250D02*
D03*
X812184Y758247D02*
D03*
X812630Y749370D02*
D03*
X810934Y741830D02*
D03*
X765800Y759000D02*
D03*
Y768000D02*
D03*
X785000Y736650D02*
D03*
X789698Y736566D02*
D03*
X903829Y664518D02*
D03*
Y646518D02*
D03*
Y655518D02*
D03*
Y637519D02*
D03*
Y691518D02*
D03*
Y700518D02*
D03*
Y682518D02*
D03*
X828000Y690965D02*
D03*
X903829Y673518D02*
D03*
X903829Y619519D02*
D03*
Y601519D02*
D03*
Y610518D02*
D03*
Y628518D02*
D03*
X823253Y654336D02*
D03*
X903829Y538519D02*
D03*
Y547519D02*
D03*
Y520519D02*
D03*
Y529519D02*
D03*
Y556519D02*
D03*
Y592519D02*
D03*
Y574519D02*
D03*
Y583519D02*
D03*
X823000Y587500D02*
D03*
X822379Y597154D02*
D03*
X903829Y565519D02*
D03*
X824000Y519336D02*
D03*
X820474Y512898D02*
D03*
X771454Y698894D02*
D03*
X811719Y624533D02*
D03*
X787698Y623500D02*
D03*
X771434Y707686D02*
D03*
X770000Y668166D02*
D03*
Y661344D02*
D03*
X762017Y640267D02*
D03*
X809000Y554000D02*
D03*
X793451Y557408D02*
D03*
X798848Y519336D02*
D03*
X745250Y892366D02*
D03*
X736250D02*
D03*
X754250D02*
D03*
X729410Y886516D02*
D03*
X723279Y879928D02*
D03*
X714897Y876650D02*
D03*
X696901Y876366D02*
D03*
X705901Y876366D02*
D03*
X687901Y876366D02*
D03*
X615901D02*
D03*
X660901D02*
D03*
X651901D02*
D03*
X678901D02*
D03*
X669901D02*
D03*
X633901D02*
D03*
X624902D02*
D03*
X642901D02*
D03*
X741268Y768000D02*
D03*
X754000D02*
D03*
X719684Y766000D02*
D03*
X754000Y759000D02*
D03*
X741268D02*
D03*
X640231Y781000D02*
D03*
X661770Y774750D02*
D03*
X636203Y739742D02*
D03*
X588901Y876366D02*
D03*
X579902D02*
D03*
X606902D02*
D03*
X597901D02*
D03*
X570902D02*
D03*
X564000Y853750D02*
D03*
X552902Y876366D02*
D03*
X543902D02*
D03*
X561902D02*
D03*
X534902D02*
D03*
X605252Y803521D02*
D03*
X600000D02*
D03*
X529000Y835000D02*
D03*
X559000Y781000D02*
D03*
X584000Y770000D02*
D03*
X531814Y737467D02*
D03*
X729931Y661344D02*
D03*
Y705715D02*
D03*
X723259Y597000D02*
D03*
X695000Y619000D02*
D03*
X666039Y681746D02*
D03*
X699000Y604811D02*
D03*
Y590000D02*
D03*
X697050Y580408D02*
D03*
X706434Y568367D02*
D03*
X723259Y540969D02*
D03*
X699271Y535212D02*
D03*
Y551847D02*
D03*
X699250Y524850D02*
D03*
X639000Y720000D02*
D03*
Y697270D02*
D03*
Y708798D02*
D03*
X619752Y665695D02*
D03*
X582871Y715000D02*
D03*
X535843Y708422D02*
D03*
X583850Y686000D02*
D03*
X562228Y665208D02*
D03*
X619752Y658855D02*
D03*
X651000Y570953D02*
D03*
X648559Y537000D02*
D03*
X605709Y658855D02*
D03*
Y624700D02*
D03*
X555228Y621000D02*
D03*
X903829Y484519D02*
D03*
Y493519D02*
D03*
Y466519D02*
D03*
Y475519D02*
D03*
Y502519D02*
D03*
Y511519D02*
D03*
Y421519D02*
D03*
Y430519D02*
D03*
Y403519D02*
D03*
Y412519D02*
D03*
Y448519D02*
D03*
Y457519D02*
D03*
Y439519D02*
D03*
X903829Y394519D02*
D03*
Y376519D02*
D03*
Y385519D02*
D03*
Y358519D02*
D03*
Y367519D02*
D03*
Y313519D02*
D03*
Y322519D02*
D03*
Y295519D02*
D03*
Y304519D02*
D03*
Y340519D02*
D03*
Y349519D02*
D03*
Y331519D02*
D03*
X811000Y493000D02*
D03*
X798000Y465821D02*
D03*
X787000Y488167D02*
D03*
X783750Y447536D02*
D03*
X799000Y445717D02*
D03*
X832000Y300000D02*
D03*
Y345477D02*
D03*
X806000Y400000D02*
D03*
X787000Y374000D02*
D03*
X786000Y315000D02*
D03*
X903829Y277519D02*
D03*
Y286519D02*
D03*
X903829Y223519D02*
D03*
Y232519D02*
D03*
Y259519D02*
D03*
Y268519D02*
D03*
Y241519D02*
D03*
Y250519D02*
D03*
Y169519D02*
D03*
Y178519D02*
D03*
X903919Y151520D02*
D03*
X903829Y160519D02*
D03*
Y205519D02*
D03*
Y214519D02*
D03*
Y187519D02*
D03*
Y196519D02*
D03*
X919829Y41166D02*
D03*
Y104166D02*
D03*
Y113166D02*
D03*
Y86166D02*
D03*
Y95166D02*
D03*
X912304Y136102D02*
D03*
X906356Y142856D02*
D03*
X919829Y122166D02*
D03*
Y131166D02*
D03*
Y68166D02*
D03*
Y77166D02*
D03*
Y50166D02*
D03*
Y59166D02*
D03*
X919681Y32167D02*
D03*
X916874Y23616D02*
D03*
X910898Y16887D02*
D03*
X902669Y13241D02*
D03*
X832000Y285477D02*
D03*
X831000Y240000D02*
D03*
X834210Y64801D02*
D03*
X818000Y194000D02*
D03*
X812000D02*
D03*
X823775Y193957D02*
D03*
X827724Y54647D02*
D03*
X884685Y12710D02*
D03*
X875685D02*
D03*
X893685D02*
D03*
X857685D02*
D03*
X848685D02*
D03*
X866685D02*
D03*
X816987Y54647D02*
D03*
X821685Y12710D02*
D03*
X812685D02*
D03*
X839685D02*
D03*
X830685D02*
D03*
X794685D02*
D03*
X785685D02*
D03*
X803685D02*
D03*
X754130Y431000D02*
D03*
X746000Y431000D02*
D03*
X777000Y420821D02*
D03*
X699271Y505074D02*
D03*
X725000Y501803D02*
D03*
Y462636D02*
D03*
X704000Y297000D02*
D03*
X687054Y149108D02*
D03*
X675000Y511000D02*
D03*
Y498250D02*
D03*
X661500Y440250D02*
D03*
X638000Y509000D02*
D03*
X542300Y505498D02*
D03*
X544300Y498644D02*
D03*
X673200Y393643D02*
D03*
X595300Y392400D02*
D03*
X675000Y148700D02*
D03*
X660504Y148400D02*
D03*
X653700D02*
D03*
X544750Y432000D02*
D03*
X545300Y365400D02*
D03*
X719100Y127800D02*
D03*
X724571Y114000D02*
D03*
X763800Y48100D02*
D03*
X746138Y97194D02*
D03*
X715400Y39100D02*
D03*
X713500Y119700D02*
D03*
X705400Y38700D02*
D03*
X686600D02*
D03*
X727720Y21165D02*
D03*
X720652Y26738D02*
D03*
X767685Y12710D02*
D03*
X758685D02*
D03*
X776685D02*
D03*
X740685D02*
D03*
X731693Y13090D02*
D03*
X749685Y12710D02*
D03*
X678858Y38700D02*
D03*
X711872Y28712D02*
D03*
X702872Y28712D02*
D03*
X693872Y28712D02*
D03*
X684872Y28712D02*
D03*
X675872Y28712D02*
D03*
X666872Y28712D02*
D03*
X657872Y28712D02*
D03*
X648872Y28712D02*
D03*
X639872Y28712D02*
D03*
X630872Y28712D02*
D03*
X621872Y28712D02*
D03*
X612872Y28712D02*
D03*
X603872Y28711D02*
D03*
X594872Y28711D02*
D03*
X585872Y28711D02*
D03*
X552000Y109000D02*
D03*
X576872Y28711D02*
D03*
X567872Y28711D02*
D03*
X558872Y28711D02*
D03*
X552000Y99000D02*
D03*
X549872Y28711D02*
D03*
X540872Y28711D02*
D03*
X531872Y28711D02*
D03*
X489902Y876366D02*
D03*
X525902D02*
D03*
X516902D02*
D03*
X507902D02*
D03*
X498902D02*
D03*
X485268Y836500D02*
D03*
X462902Y876366D02*
D03*
X453902D02*
D03*
X471902D02*
D03*
X444902D02*
D03*
X435902D02*
D03*
X480902D02*
D03*
X433052Y839805D02*
D03*
X523223Y769000D02*
D03*
X512000Y675000D02*
D03*
Y628000D02*
D03*
X499563Y625367D02*
D03*
X478420Y769000D02*
D03*
X433000Y769000D02*
D03*
X455750Y623178D02*
D03*
X426902Y876366D02*
D03*
X417902D02*
D03*
X408902Y876366D02*
D03*
X399902Y876365D02*
D03*
X390902Y876365D02*
D03*
X381902Y876365D02*
D03*
X372902Y876365D02*
D03*
X363902Y876365D02*
D03*
X354902Y876365D02*
D03*
X345902Y876365D02*
D03*
X336902Y876365D02*
D03*
X327902Y876365D02*
D03*
X318902Y876365D02*
D03*
X309902Y876365D02*
D03*
X420000Y630000D02*
D03*
X374897Y630000D02*
D03*
X400311Y610359D02*
D03*
X436000Y463894D02*
D03*
X383216Y507455D02*
D03*
X519700Y359144D02*
D03*
X496213Y428703D02*
D03*
X502038Y366144D02*
D03*
X436000Y453644D02*
D03*
X425000Y392000D02*
D03*
X368091Y531280D02*
D03*
X328576Y575187D02*
D03*
X343216Y506639D02*
D03*
X308004Y532200D02*
D03*
X331700Y481219D02*
D03*
X331661Y462144D02*
D03*
X331012Y353617D02*
D03*
X308004Y489981D02*
D03*
X307904Y360026D02*
D03*
X300902Y876365D02*
D03*
X291902Y876364D02*
D03*
X282902Y876364D02*
D03*
X273902Y876364D02*
D03*
X264902Y876364D02*
D03*
X255902Y876364D02*
D03*
X246902Y876364D02*
D03*
X237902Y876364D02*
D03*
X228902Y876364D02*
D03*
X219902Y876364D02*
D03*
X154023Y892366D02*
D03*
X145023D02*
D03*
X198744Y890143D02*
D03*
X190023Y892366D02*
D03*
X210990Y877618D02*
D03*
X203387Y882433D02*
D03*
X172023Y892366D02*
D03*
X163023D02*
D03*
X181023D02*
D03*
X146900Y838100D02*
D03*
X118023Y892366D02*
D03*
X109023D02*
D03*
X136023D02*
D03*
X127023D02*
D03*
X91023D02*
D03*
X82023D02*
D03*
X100023D02*
D03*
X37023D02*
D03*
X55023D02*
D03*
X46023D02*
D03*
X73023D02*
D03*
X64023D02*
D03*
X28030Y892007D02*
D03*
X19710Y888577D02*
D03*
X13495Y882066D02*
D03*
X10375Y873625D02*
D03*
X114750Y849000D02*
D03*
X93100Y798700D02*
D03*
X10171Y855627D02*
D03*
Y864627D02*
D03*
Y837627D02*
D03*
Y846627D02*
D03*
Y819627D02*
D03*
Y828627D02*
D03*
X275583Y574676D02*
D03*
X281900Y532414D02*
D03*
X263000Y561174D02*
D03*
X251401Y445868D02*
D03*
X197700Y521553D02*
D03*
X251401Y497481D02*
D03*
X191600Y499623D02*
D03*
X240000Y445868D02*
D03*
X248750Y369849D02*
D03*
Y377049D02*
D03*
Y363549D02*
D03*
X225825Y343697D02*
D03*
X189890Y348930D02*
D03*
X172000Y579000D02*
D03*
X128288Y450900D02*
D03*
X128000Y385000D02*
D03*
Y398000D02*
D03*
X129189Y345808D02*
D03*
X128000Y378000D02*
D03*
Y371000D02*
D03*
X521500Y321000D02*
D03*
X513216Y320104D02*
D03*
X458200Y296200D02*
D03*
X403193Y295593D02*
D03*
X371400Y319750D02*
D03*
X509500Y150300D02*
D03*
X510000Y136400D02*
D03*
X469418Y140900D02*
D03*
X420600Y159350D02*
D03*
X407980Y159078D02*
D03*
X414200Y136400D02*
D03*
X393300Y136600D02*
D03*
X399900D02*
D03*
X331717Y259700D02*
D03*
X323000Y258000D02*
D03*
X307966Y340549D02*
D03*
X248750Y339899D02*
D03*
Y332699D02*
D03*
Y287300D02*
D03*
Y326399D02*
D03*
Y273800D02*
D03*
X323000Y252000D02*
D03*
X326000Y238827D02*
D03*
X288143Y203000D02*
D03*
X250200Y240333D02*
D03*
Y233816D02*
D03*
X249000Y193926D02*
D03*
Y203000D02*
D03*
X485418Y109600D02*
D03*
X444680Y37300D02*
D03*
X522872Y28711D02*
D03*
X513872Y28711D02*
D03*
X426218Y37300D02*
D03*
X407500Y107600D02*
D03*
X406200Y128800D02*
D03*
X418138Y37300D02*
D03*
X395400Y80600D02*
D03*
X405872Y28710D02*
D03*
X387872D02*
D03*
X495872D02*
D03*
X486872D02*
D03*
X504872D02*
D03*
X477872D02*
D03*
X450872D02*
D03*
X441872D02*
D03*
X468872D02*
D03*
X459872D02*
D03*
X414872D02*
D03*
X396872D02*
D03*
X432872D02*
D03*
X423872D02*
D03*
X364500Y103700D02*
D03*
X342872Y28710D02*
D03*
X288873D02*
D03*
X265354Y104400D02*
D03*
X249300Y112300D02*
D03*
Y104400D02*
D03*
X285180D02*
D03*
X276643D02*
D03*
X252873Y28710D02*
D03*
X249482Y68700D02*
D03*
Y60900D02*
D03*
X378872Y28710D02*
D03*
X369872D02*
D03*
X351872D02*
D03*
X333872D02*
D03*
X360872D02*
D03*
X306873D02*
D03*
X297873D02*
D03*
X324873D02*
D03*
X315872D02*
D03*
X270873D02*
D03*
X261873D02*
D03*
X279873D02*
D03*
X248750Y280100D02*
D03*
X225825Y270022D02*
D03*
Y258211D02*
D03*
X192306Y263533D02*
D03*
X158958Y249841D02*
D03*
X236700Y140100D02*
D03*
X243600D02*
D03*
X224200Y170422D02*
D03*
X198500Y209000D02*
D03*
X210700Y125800D02*
D03*
X192600Y177800D02*
D03*
X155000Y296000D02*
D03*
Y285000D02*
D03*
X127600Y288617D02*
D03*
X126196Y336591D02*
D03*
X124804Y326889D02*
D03*
X128100Y279500D02*
D03*
Y269500D02*
D03*
X155500Y202719D02*
D03*
X130939Y224900D02*
D03*
X127700Y202200D02*
D03*
X127400Y191719D02*
D03*
Y181950D02*
D03*
X125360Y143200D02*
D03*
Y156750D02*
D03*
X225774Y82732D02*
D03*
X191352Y88900D02*
D03*
X155300Y112900D02*
D03*
X234873Y28710D02*
D03*
X225873D02*
D03*
X243873D02*
D03*
X216873Y28611D02*
D03*
X208221Y26133D02*
D03*
X201502Y20145D02*
D03*
X178431Y12710D02*
D03*
X169431D02*
D03*
X196430D02*
D03*
X187430D02*
D03*
X151431D02*
D03*
X142431D02*
D03*
X160431D02*
D03*
X127700Y111300D02*
D03*
X127400Y120000D02*
D03*
Y102679D02*
D03*
X127400Y92632D02*
D03*
X125100Y66900D02*
D03*
Y60588D02*
D03*
X10170Y88065D02*
D03*
Y97065D02*
D03*
Y79065D02*
D03*
Y61065D02*
D03*
Y70065D02*
D03*
Y43065D02*
D03*
Y52065D02*
D03*
X10170Y34065D02*
D03*
X124431Y12710D02*
D03*
X115431D02*
D03*
X133431D02*
D03*
X88431D02*
D03*
X79431D02*
D03*
X106431D02*
D03*
X97431D02*
D03*
X17654Y18123D02*
D03*
X12229Y25304D02*
D03*
X61431Y12710D02*
D03*
X52431D02*
D03*
X70431D02*
D03*
X34431D02*
D03*
X25484Y13685D02*
D03*
X43431Y12710D02*
D03*
X633750Y499624D02*
D03*
X596750Y535000D02*
D03*
X610544Y538750D02*
D03*
X508736Y530750D02*
D03*
X596750Y529000D02*
D03*
X190983Y441691D02*
D03*
X535153Y627803D02*
D03*
X588850Y662695D02*
D03*
X566000Y621000D02*
D03*
X627000Y291000D02*
D03*
X591672Y634700D02*
D03*
X240000Y423000D02*
D03*
X251401D02*
D03*
X255009Y449682D02*
D03*
X161396Y411505D02*
D03*
X177000Y409250D02*
D03*
X237000Y410000D02*
D03*
X190323Y423265D02*
D03*
X275503Y397500D02*
D03*
X151788Y438191D02*
D03*
X250000Y454000D02*
D03*
X598000Y464250D02*
D03*
X251401Y466000D02*
D03*
X351500Y218600D02*
D03*
X380900D02*
D03*
X371100D02*
D03*
X361300D02*
D03*
X390700D02*
D03*
X187200Y513000D02*
D03*
X345000Y42500D02*
D03*
X258306Y521944D02*
D03*
X150863Y432761D02*
D03*
X792948Y242652D02*
D03*
X595000Y493250D02*
D03*
X596018Y509315D02*
D03*
X596093Y499549D02*
D03*
X554000Y809953D02*
D03*
X797109Y570000D02*
D03*
X787000Y422000D02*
D03*
X798000Y528817D02*
D03*
X830000Y605500D02*
D03*
X749947Y550740D02*
D03*
X215606Y47515D02*
D03*
X224900D02*
D03*
Y56958D02*
D03*
Y66400D02*
D03*
X393806Y65400D02*
D03*
X462100Y48632D02*
D03*
Y57800D02*
D03*
X659097Y46220D02*
D03*
Y56090D02*
D03*
Y65960D02*
D03*
X266029Y46878D02*
D03*
X407299Y66800D02*
D03*
X393806Y44750D02*
D03*
X405639Y44984D02*
D03*
X724071Y65384D02*
D03*
Y47375D02*
D03*
X879000Y650000D02*
D03*
Y620500D02*
D03*
Y590500D02*
D03*
X877797Y560500D02*
D03*
X796000Y499142D02*
D03*
X793958Y449000D02*
D03*
X726145Y721000D02*
D03*
X146900Y828000D02*
D03*
X514716Y342000D02*
D03*
X425000Y369615D02*
D03*
X496213Y413000D02*
D03*
X795005Y598076D02*
D03*
X812184Y646000D02*
D03*
X858000Y768966D02*
D03*
X850000Y605500D02*
D03*
X857000Y606000D02*
D03*
X864000Y575000D02*
D03*
X850000Y635000D02*
D03*
X716445Y568367D02*
D03*
X701947Y564500D02*
D03*
X85000Y816000D02*
D03*
X806610Y106000D02*
D03*
X781948Y242652D02*
D03*
X770948D02*
D03*
X658000Y327680D02*
D03*
X266000Y387000D02*
D03*
X658000Y251000D02*
D03*
X856000Y345477D02*
D03*
Y285477D02*
D03*
X839000Y753000D02*
D03*
X847800Y811300D02*
D03*
X841424Y807000D02*
D03*
X836000Y803000D02*
D03*
X830000Y799000D02*
D03*
X823883Y668166D02*
D03*
X497000Y785250D02*
D03*
X127675Y786000D02*
D03*
X136825Y684000D02*
D03*
X148383Y713000D02*
D03*
X563000Y582000D02*
D03*
X235101Y215121D02*
D03*
X481130Y794250D02*
D03*
X686000Y719000D02*
D03*
X687747Y568000D02*
D03*
X595000Y519000D02*
D03*
X271157Y518000D02*
D03*
X397482Y572536D02*
D03*
X699000Y597000D02*
D03*
X686000Y286250D02*
D03*
X697669Y436331D02*
D03*
X699271Y498250D02*
D03*
X689000Y483074D02*
D03*
X686750Y515266D02*
D03*
X673200Y377000D02*
D03*
Y410437D02*
D03*
X674250Y522376D02*
D03*
Y535000D02*
D03*
X684497Y554000D02*
D03*
X686973Y501282D02*
D03*
X684497Y308000D02*
D03*
X603100Y590800D02*
D03*
X439901Y571046D02*
D03*
X604250Y320000D02*
D03*
X608500Y297000D02*
D03*
X601000Y429760D02*
D03*
X595750Y384000D02*
D03*
X648500Y498250D02*
D03*
X595888Y480372D02*
D03*
X664000Y489000D02*
D03*
X740614Y475532D02*
D03*
X697120Y237000D02*
D03*
X678000Y282000D02*
D03*
X330000Y226846D02*
D03*
X405285Y242415D02*
D03*
X414810Y247043D02*
D03*
X546068Y242532D02*
D03*
X532000Y247000D02*
D03*
X513702Y254750D02*
D03*
X522000Y252000D02*
D03*
X540804Y231250D02*
D03*
X464352Y254144D02*
D03*
X565223Y242997D02*
D03*
X572238Y647531D02*
D03*
X359277Y547065D02*
D03*
X572238Y654605D02*
D03*
X577951Y555565D02*
D03*
X632113Y549366D02*
D03*
X741908Y516271D02*
D03*
X871750Y465571D02*
D03*
X630250Y460000D02*
D03*
X876250Y477519D02*
D03*
X403200Y319100D02*
D03*
X669000Y333000D02*
D03*
X378250Y477196D02*
D03*
X604250Y275000D02*
D03*
X600000Y280000D02*
D03*
X321000Y284250D02*
D03*
X579000Y260000D02*
D03*
X804051Y246921D02*
D03*
X589005Y264250D02*
D03*
X821567Y303000D02*
D03*
X821090Y323000D02*
D03*
X813799Y263000D02*
D03*
X680000Y271250D02*
D03*
X560407Y254750D02*
D03*
X436400D02*
D03*
X595228Y367614D02*
D03*
X821090Y263000D02*
D03*
X595041Y403000D02*
D03*
X597080Y471488D02*
D03*
X532503Y218000D02*
D03*
X267000Y313164D02*
D03*
X271250Y322200D02*
D03*
Y377049D02*
D03*
X269827Y302431D02*
D03*
X543804Y303345D02*
D03*
X595000Y310476D02*
D03*
X681587Y680263D02*
D03*
Y697270D02*
D03*
X275758Y508000D02*
D03*
X270616Y489307D02*
D03*
Y497481D02*
D03*
X272250Y478000D02*
D03*
Y464583D02*
D03*
X331700Y489981D02*
D03*
X514277Y500644D02*
D03*
X489300Y576000D02*
D03*
X503978Y451350D02*
D03*
X697101Y630999D02*
D03*
X699000Y625112D02*
D03*
X711999Y630999D02*
D03*
X544750Y438750D02*
D03*
X595041Y422088D02*
D03*
X478571Y572950D02*
D03*
X421154Y576786D02*
D03*
X460216Y576000D02*
D03*
X411000Y401559D02*
D03*
X308600Y481219D02*
D03*
X496191Y482250D02*
D03*
X821090Y247000D02*
D03*
X350978Y251515D02*
D03*
X385415Y246775D02*
D03*
X529000Y88551D02*
D03*
X536000D02*
D03*
X842000Y128000D02*
D03*
X858000Y116000D02*
D03*
X655250Y564500D02*
D03*
X692000Y643000D02*
D03*
X697000Y650480D02*
D03*
X454559Y251957D02*
D03*
X445000Y251600D02*
D03*
X494099Y251534D02*
D03*
X429716Y251600D02*
D03*
X403002Y257191D02*
D03*
X422155Y251600D02*
D03*
X395000Y257000D02*
D03*
X828000Y707766D02*
D03*
X823500Y696066D02*
D03*
Y685602D02*
D03*
Y679865D02*
D03*
X833000Y694465D02*
D03*
X870000Y532000D02*
D03*
X857000Y715000D02*
D03*
X829090Y730910D02*
D03*
X834000Y741830D02*
D03*
X776334Y624533D02*
D03*
X416250Y429000D02*
D03*
X406500Y407278D02*
D03*
X387750Y531280D02*
D03*
X503978Y461600D02*
D03*
X546407Y360128D02*
D03*
X425000Y401559D02*
D03*
X384000Y384000D02*
D03*
X483000Y327184D02*
D03*
X544000Y642000D02*
D03*
X503517Y576000D02*
D03*
X508736Y571100D02*
D03*
X639750Y523238D02*
D03*
X551000Y543000D02*
D03*
X415703Y583000D02*
D03*
X277000Y581000D02*
D03*
X786584Y641286D02*
D03*
X498000Y585000D02*
D03*
X812184Y769393D02*
D03*
X797595Y719966D02*
D03*
X788544Y712000D02*
D03*
X685837Y655547D02*
D03*
X475400Y427875D02*
D03*
X443941Y428000D02*
D03*
X172000Y572000D02*
D03*
X152633Y628564D02*
D03*
X136633Y639150D02*
D03*
X742704Y715500D02*
D03*
X786584Y650554D02*
D03*
X742232Y650480D02*
D03*
X699000Y701336D02*
D03*
Y676013D02*
D03*
X699119Y688676D02*
D03*
X716000Y643394D02*
D03*
X700000Y714000D02*
D03*
X454191Y480938D02*
D03*
X443566Y481000D02*
D03*
Y436054D02*
D03*
X598600Y568750D02*
D03*
X699000Y663589D02*
D03*
X640600Y621835D02*
D03*
X800500Y835000D02*
D03*
X785500Y830000D02*
D03*
X770500Y825000D02*
D03*
X754000Y731240D02*
D03*
X776000Y737000D02*
D03*
X508089Y647818D02*
D03*
X503000Y642000D02*
D03*
X657000Y412000D02*
D03*
X491000Y498650D02*
D03*
X443100Y506000D02*
D03*
X612000Y444000D02*
D03*
X287700Y339144D02*
D03*
X274834Y356684D02*
D03*
X307966Y354144D02*
D03*
X825610Y106000D02*
D03*
X816060D02*
D03*
X654183Y768500D02*
D03*
X766000Y799000D02*
D03*
X505000Y631000D02*
D03*
X606200Y778500D02*
D03*
X603138Y782876D02*
D03*
X638750Y810340D02*
D03*
X650250Y810205D02*
D03*
X631437Y810340D02*
D03*
X649933Y781000D02*
D03*
X644608Y768500D02*
D03*
X615919Y551750D02*
D03*
X681684Y726000D02*
D03*
Y707752D02*
D03*
X548502Y812901D02*
D03*
X581000Y811840D02*
D03*
X570935Y752178D02*
D03*
X523000Y840500D02*
D03*
X516787Y844697D02*
D03*
X676331Y810661D02*
D03*
X668000Y810244D02*
D03*
X345000Y242000D02*
D03*
X560733Y821000D02*
D03*
X655000Y810244D02*
D03*
X481000Y844697D02*
D03*
X468938D02*
D03*
X421090Y845000D02*
D03*
X173000Y468000D02*
D03*
X596412Y665208D02*
D03*
X524000Y779000D02*
D03*
X520565Y756873D02*
D03*
X456051Y769000D02*
D03*
X456357Y784584D02*
D03*
X476497Y790525D02*
D03*
X428633Y639047D02*
D03*
X732000Y789500D02*
D03*
X779000Y799000D02*
D03*
X785500D02*
D03*
X666039Y708500D02*
D03*
X602400Y726000D02*
D03*
X602806Y690980D02*
D03*
X602400Y708798D02*
D03*
X729931Y739160D02*
D03*
X754000Y798026D02*
D03*
X202710Y510481D02*
D03*
X363400Y507200D02*
D03*
X248597Y544000D02*
D03*
X224000Y529000D02*
D03*
X254056Y533250D02*
D03*
X281920Y527164D02*
D03*
X148383Y653395D02*
D03*
X655250Y602308D02*
D03*
X615250Y568750D02*
D03*
X607700D02*
D03*
X272688Y560423D02*
D03*
X132901Y728403D02*
D03*
X148383Y670383D02*
D03*
X269778Y296000D02*
D03*
X677000Y783013D02*
D03*
X696684Y756650D02*
D03*
X640600Y649036D02*
D03*
X672750Y772000D02*
D03*
X498000Y77000D02*
D03*
X491000D02*
D03*
X148050Y698300D02*
D03*
X570541Y782500D02*
D03*
X570000Y794000D02*
D03*
X506000Y785250D02*
D03*
X608000Y763000D02*
D03*
X445958Y784541D02*
D03*
X298750Y276223D02*
D03*
X591078Y610250D02*
D03*
X145000Y816200D02*
D03*
X343100Y530955D02*
D03*
X308600Y460644D02*
D03*
X353000Y335000D02*
D03*
X519000Y302644D02*
D03*
X534400Y207900D02*
D03*
X524340D02*
D03*
X494160D02*
D03*
X514280D02*
D03*
X504220D02*
D03*
X368216Y296803D02*
D03*
X484100Y207900D02*
D03*
X323000Y265000D02*
D03*
X306887Y231600D02*
D03*
X320304Y231467D02*
D03*
X347300Y692000D02*
D03*
X815500Y840000D02*
D03*
X741268Y794961D02*
D03*
X761354Y794714D02*
D03*
X701000Y768000D02*
D03*
X707000Y763000D02*
D03*
X576250Y747000D02*
D03*
X627473Y762850D02*
D03*
X632473Y768000D02*
D03*
X582871Y738968D02*
D03*
X590000Y734000D02*
D03*
X658500Y686250D02*
D03*
X666039Y725250D02*
D03*
X746288Y798026D02*
D03*
X626000Y324780D02*
D03*
X662111Y676400D02*
D03*
X171000Y305000D02*
D03*
X163146Y311745D02*
D03*
X226524Y242376D02*
D03*
X299000Y265000D02*
D03*
X330820Y340644D02*
D03*
X519700Y367700D02*
D03*
X287700Y524700D02*
D03*
X632991Y621900D02*
D03*
X605719Y249031D02*
D03*
X257830Y576093D02*
D03*
X226524Y230376D02*
D03*
Y236376D02*
D03*
X276300Y187500D02*
D03*
X304800Y39600D02*
D03*
X510300Y125100D02*
D03*
X394000Y424000D02*
D03*
X374000Y494000D02*
D03*
X253550Y131000D02*
D03*
X199815Y306905D02*
D03*
X154043Y616301D02*
D03*
X147250Y743500D02*
D03*
X392560Y112872D02*
D03*
Y118986D02*
D03*
Y125100D02*
D03*
X325100Y40100D02*
D03*
X276000Y75000D02*
D03*
X122739Y797439D02*
D03*
X519311Y495644D02*
D03*
X331200Y364078D02*
D03*
X480400Y164100D02*
D03*
X239156Y124644D02*
D03*
X148050Y298249D02*
D03*
X151161Y218943D02*
D03*
X167185Y224800D02*
D03*
X171296Y125100D02*
D03*
X138400Y123300D02*
D03*
X245600Y309100D02*
D03*
Y316141D02*
D03*
X170164Y396300D02*
D03*
Y387012D02*
D03*
X190323D02*
D03*
Y396300D02*
D03*
X180244D02*
D03*
Y387012D02*
D03*
Y372257D02*
D03*
Y380240D02*
D03*
X178500Y125100D02*
D03*
X130400Y171719D02*
D03*
X178776Y206902D02*
D03*
Y200094D02*
D03*
Y112584D02*
D03*
X178700Y118842D02*
D03*
X130454Y82584D02*
D03*
X178700Y213710D02*
D03*
X171296D02*
D03*
X217058Y300294D02*
D03*
X216852Y306905D02*
D03*
X208421D02*
D03*
X208629Y300294D02*
D03*
X199815Y300707D02*
D03*
X510300Y118986D02*
D03*
Y112872D02*
D03*
X178876Y296571D02*
D03*
X178900Y288199D02*
D03*
X131700Y259520D02*
D03*
X167617Y137919D02*
D03*
Y153922D02*
D03*
Y148588D02*
D03*
Y143253D02*
D03*
X226524Y154587D02*
D03*
Y142587D02*
D03*
Y148588D02*
D03*
X167185Y230134D02*
D03*
Y235469D02*
D03*
Y240803D02*
D03*
X163146Y317080D02*
D03*
Y322414D02*
D03*
X169862Y317080D02*
D03*
Y311745D02*
D03*
Y327748D02*
D03*
Y322414D02*
D03*
X167185Y64912D02*
D03*
Y59578D02*
D03*
Y48909D02*
D03*
Y54243D02*
D03*
X294700Y237600D02*
D03*
X246122Y302431D02*
D03*
X240476Y302375D02*
D03*
D140*
X330000Y859200D02*
D03*
X169000Y828000D02*
D03*
X425000Y801000D02*
D03*
X393000Y828000D02*
D03*
X160000Y816300D02*
D03*
X186950Y852000D02*
D03*
X178000Y839000D02*
D03*
X366000Y830000D02*
D03*
X355500Y839692D02*
D03*
X343000Y849000D02*
D03*
D141*
X893000Y850000D02*
D03*
Y50000D02*
D03*
X35700Y824600D02*
D03*
Y88000D02*
D03*
M02*
