M48
;Layer_Color=9474304
;FILE_FORMAT=4:2
METRIC,TZ
;TYPE=PLATED
T01F00S00C0.20
T02F00S00C0.30
T03F00S00C0.90
T04F00S00C1.00
T05F00S00C1.10
T06F00S00C3.18
%
T01
X2717Y2721
X2795Y2677
X2884Y2667
X2974
X3064
X3154
X3244
X3334
X3424
X3514
X3604
X3694
X3784
X3874
X3964
X3791Y3146
Y3209
X3845Y3366
X3814Y3466
X3814Y3567
X3817Y3653
X3814Y3740
X3924Y3773
X2642Y3511
Y3421
Y3331
Y3241
Y3151
Y3061
Y2971
X2642Y2881
X2662Y2793
X4054Y2667
X4144
X4234
X4324
X4414
X4504
X4555Y2741
X4622Y2801
X4709Y2826
X4799Y2827
X4889
X4979
X5069
X5159
X5249
X5339
X5429
X5519
X5609
X5699
X5789
X5879
X5969
X6059
X6149
X6239
X6329
X6419
X6509
X6599
X6689
X6779
X6869
X6959
X7049
X7139
X7229
X7319
X7409
X7499
X7589
X7679Y2827
X7769Y2827
X7859Y2827
X7830Y3426
X7900
X7520Y3310
X7450
X7394Y3636
X7643Y3669
Y3730
Y3791
X7640Y3904
X7234Y3949
X6682Y3904
X6539Y3906
X6473
X6466Y3791
Y3730
Y3669
X6615Y3616
X6602Y3828
X6494Y3346
X6478Y3194
X6613Y3208
X6596Y2990
X6478Y2988
X6721Y2913
X6802
X6987
X7161Y3026
Y3118
X5990Y2965
X5791Y2941
X5588Y2936
X5200Y3009
X5035Y3149
Y3227
X4789Y3204
Y3110
Y3015
X4696
X4798Y3367
X4454Y3429
X4328Y3666
X4327Y3728
X4325Y3791
X4253
X4216Y3919
X4093Y3669
X4212Y3189
Y3136
Y3082
Y3029
X4647Y3798
X4932Y3786
X4907Y3941
X4976
X5076Y3850
X5033Y3663
Y3584
X5194
X5306
X5392
X5300Y3290
X4805Y3966
X6185Y3577
X8060Y3530
Y3630
X8039Y2827
X8129Y2827
X8219Y2827
X8309Y2827
X8399Y2827
X8489Y2827
X8579Y2827
X8669Y2827
X8759Y2827
X8849Y2827
X8939Y2827
X9029Y2827
X9119Y2827
X9209Y2827
X9299Y2827
X9389Y2827
X9479Y2827
X9569Y2827
X9659Y2827
X9747Y2807
X9817Y2752
X9857Y2671
X9947Y2667
X10037
X10127
X10217
X10307
X10397
X10487
X10577
X10667
X10757
X10847
X10937
X11027
X11117
X11207
X11297
X11387
X11477
X11567Y2672
X11649Y2709
X11709Y2776
X11737Y2862
X11738Y2952
Y3042
Y3132
Y3222
Y3312
Y3402
Y3492
Y3582
Y3672
Y3762
Y3852
X11663Y3901
X11604Y3969
X11120Y3700
X10960Y3820
X10796Y3600
X10701
X10606
X10710Y3086
X10817
X10882Y3188
X10178Y3021
X9781Y3014
X9694Y2931
X9594Y2927
X9406
X9329
X9131Y3002
Y3101
Y3200
X9781Y3194
X9786Y3680
X9675Y3737
X9731Y3818
X10001Y3512
X7949Y2827
X7948Y4853
X8001Y4965
X8192Y4970
X8144Y5088
X8330Y5140
X8430Y5183
X8582Y5290
X8540Y5340
X8625Y5510
X8810Y5450
X8800Y5788
X8582Y5740
X8490Y5645
X8492Y6216
X8497Y6380
X8493Y6464
X8490Y6570
Y6761
X8550Y6838
X8660Y6980
X8843Y7140
X8520Y7182
X8511Y7255
X8499Y7344
X8490Y7472
X8501Y7535
X8500Y7633
X8490Y7730
X8507Y7830
Y7890
X8645Y7928
X9026Y7910
X8938Y7772
X8920Y7630
X8878Y7536
X9025Y7522
X9180Y7430
X9290Y7522
Y7650
X9282Y7764
Y7890
X9533Y7892
X9532Y7789
X9533Y7591
Y7522
X9410Y7553
X9407Y7693
X9430Y7371
X9790Y7558
X9959Y7703
X9946Y7295
X9790Y7166
X9758Y6780
Y6680
X9628Y6764
X9570Y6800
X9517Y6903
X9155Y6943
X9110Y6660
X9272Y6644
X9276Y6734
X9272Y6476
Y6310
X9230Y5870
X9120Y5817
X9385Y5620
X9400Y5403
X9320Y5360
X9340Y5253
X9628Y5339
Y5419
X9693Y5490
X9760Y5550
X9580Y5510
X9684Y5294
X9758
X10225Y5293
X10294
X10358Y5350
Y5414
X10460Y5480
X10582Y5550
X10756Y5570
X10860Y5540
Y5395
X11100
X11578Y5405
Y5495
Y5585
Y5675
Y5765
Y5855
Y5945
Y6035
Y6125
Y6215
Y6305
Y6395
Y6485
X11578Y6575
Y6665
Y6755
Y6845
Y6935
Y7025
Y7115
Y7205
Y7295
Y7385
Y7475
Y7565
Y7655
X11578Y7745
Y7835
Y7925
X11240Y7860
X10780Y7733
X10745Y7669
X10528Y7733
X10520Y7828
X10500Y7531
X10410Y7422
X10650Y7470
X10520Y7198
X10480Y7030
X10530Y6997
X10378Y7015
X10410Y6760
X10310Y6748
X10532Y6810
X10760Y6702
Y6485
X10600Y6540
X10410Y6280
X10285Y6100
Y5980
X10165
Y6100
X10045
X9925
X9805
X9685
Y5980
X9805
X9925
X10045
Y5860
X9925
X9805
X9685
X10165
X10285
X10400Y5690
X10651Y5759
X10751Y5770
X10651Y5910
X10860Y5995
X11100
X11200Y6485
X11060Y6930
X10760Y6919
X10081Y6850
X10000Y6850
X9929Y6612
X9890Y6430
X9950Y6380
X10080Y6480
X10155Y6612
X10083Y5570
X10018Y5530
X10249Y4967
X10359
X10469
X10581Y5009
X10751Y5010
Y5170
X10678
X10530
Y5240
X10850Y4940
X10778Y4480
X10720Y4480
X10660
X10044Y4243
X10025Y4147
X9411Y4031
X9290Y4027
X9145Y4024
X9077
X9148Y4560
X9242
X9336
X9430
X9630Y4651
Y4720
X9511Y4910
X9120Y5050
X8597Y5030
X7978Y5573
X8004Y6141
X7993Y6194
X7988Y6860
Y6928
X7983Y7526
X7963Y7595
X11303Y7315
X11257Y7196
X11578Y5315
X11578Y5225
Y5135
Y5045
Y4955
Y4865
Y4775
Y4685
Y4595
Y4505
Y4415
Y4325
Y4235
Y4145
X11579Y4055
X7635Y4043
X7344Y4181
X7381Y4619
X7482
X7582
X7683
X7783
X7884
X7865Y4720
X7860Y5010
X7760Y5060
X7677Y5088
X7481Y5055
X7184Y5081
X7086Y5060
X6990Y5056
X6904Y5088
X6837Y5056
X6762
X6688Y5010
X6593Y4964
X6570Y5112
X6490Y5110
X6394Y5008
X6349Y4726
X6251
X6153
X6055
X5840Y4808
X5743Y4855
X5800Y4928
X5770Y5060
Y5120
Y5190
X5857Y5137
X6050Y5055
X5990Y4960
X5609Y4856
X5487Y4916
X5530Y5190
X5528Y5302
X5750Y5383
X6222Y5508
X6254Y5738
X6430Y5750
X6572Y5731
X6572Y5496
X7122Y5502
X7370Y5812
X7672Y5741
X7755Y5750
X7730Y5566
X7687Y5960
X7737Y6131
Y6217
X7560Y6201
X7441Y6388
X7502Y6670
Y6827
X7294Y6819
X6979Y6820
X6976Y6901
X6900Y7076
Y7179
X6790Y7090
X6703Y6830
X6480Y6780
X6605Y6613
X6650Y6556
X6790
Y6460
Y6236
X7120Y6260
X7170Y6190
X7250
X6380Y6380
X5852Y6181
X5850Y6076
X5848Y5946
X5620Y5945
Y6081
X5619Y6140
X5288Y6107
X5253Y6310
X5200Y6410
X5295Y6515
Y6981
X5297Y7131
X5262Y7186
Y7320
X5246Y7433
Y7515
X5298Y7620
X5252Y7720
X5123Y7759
X5081Y7872
X5359Y7864
X5359Y7812
X5417Y7787
X5620Y7862
X5971Y7850
X5972Y7606
X6174Y7612
X6372Y7615
X6280Y7480
X6322Y7312
X5857Y7352
Y7440
X5620
X5626Y7352
Y7146
X5857Y7161
X5054Y7200
X5040Y7080
X5090Y7037
X5054Y6999
X4940
Y6770
X5054
X4910Y6640
X4760Y6424
X4443Y6410
Y6503
X4342
Y6410
Y6342
Y6263
X4242Y6410
Y6503
X4310Y6632
X4154Y6655
X4049Y6868
X4058Y6922
X4450Y6957
X4443Y6773
X4270Y7220
X4456Y7536
X4412Y7670
X4567Y7645
X4517Y7756
X4780Y7830
X5054Y7515
X5028Y6310
Y6238
Y6175
Y5939
Y5867
Y5804
X4996Y5701
Y5631
X5001Y5564
X4945Y5564
X5028Y5413
Y5341
Y5278
X4798Y5240
Y5122
X4805Y4964
Y4904
Y4844
X4891Y4691
X5030Y4570
Y4479
X5303Y4415
X5421Y4570
X5042Y4878
Y4943
X5238Y5500
X5238Y5564
X5210Y5672
X5253Y5762
X5417Y5931
X4798Y5977
X4439Y6029
X4239Y5817
Y5764
Y5711
Y5657
X4171
Y5711
Y5764
X4250Y5590
X4329Y5506
X4329Y5422
X4090Y5390
Y5500
X4021Y5522
X4538Y5547
Y5609
X4624
X4626Y5543
X4711
X4709Y5609
X4463Y5175
X4130Y5038
X4212Y4948
Y4895
Y4841
Y4788
X4253Y4677
X4327
X4328Y4609
Y4541
X4095Y4567
X4052Y4729
X4525Y4630
X4466Y4318
X4782Y4244
X4805Y4086
Y4026
X4216Y4026
Y4079
Y3973
X6620Y4131
X6746Y4133
X6447Y4726
X6070Y5890
X6221Y7853
X6418
X6972Y7847
X6971Y7600
X6976Y7350
X7082Y7349
X7502Y7362
X7450Y7526
X7683Y7546
X7733Y7496
X7627Y7847
X7372
X7580Y7156
Y7054
X3823Y7049
X3850Y7518
X3820Y6520
Y6390
Y6320
Y6250
X3832Y5998
X3802Y5906
X3788Y5809
X3816Y5426
X3821Y5335
Y5235
X3857Y5135
X3849Y4789
X3817Y4562
X3814Y4457
Y4360
X3844Y4257
X3794Y4108
Y3972
X3856Y7975
Y8202
X3906Y8932
X3908Y9380
X3869Y9824
X3817Y10400
X3767Y10514
X3471Y10527
X3390Y10700
X3688Y11030
X3720Y11464
X3630
X3540
X3450
X3360
X3270
X3180
X3090
X3000
X2910
X2820Y11460
X2737Y11426
X2675Y11361
X2644Y11276
X2642Y11186
Y11096
Y11006
Y10916
Y10826
Y10736
X3810Y11464
X3900
X3990
X4080
X4170
X4260
X4350
X4440
X4527Y11441
X4574Y11364
X4650Y11316
X4739Y11304
X4829Y11304
X4919Y11304
X5009Y11304
X5099Y11304
X5189Y11304
X5279Y11304
X5369Y11304
X5459Y11304
X5549Y11304
X5639Y11304
X5729Y11304
X5819Y11304
X5909Y11304
X5999Y11304
X6089Y11304
X6179Y11304
X6269Y11304
X6359Y11304
X6449Y11304
X6539Y11304
X6629Y11304
X6719Y11304
X6809
X6899
X6989
X7079
X7169
X7259
X7349
X7439
X7529
X7619
X7709
X7799
X7889
X7649Y11157
X7708Y10987
X7770Y10945
X7830Y10890
X7870Y10669
X7780Y10330
X7772Y10230
X7746Y10109
X7858Y9915
X7898Y9624
X7660Y9290
X7621Y9018
X7570Y8960
X7590Y8850
X7660Y8820
X7536Y8794
X7892Y8818
X7520Y8390
X7575Y8300
X7627Y8251
X7433Y8300
X7326Y8269
X7142Y8300
X7037Y8250
X6939
X6839Y8286
X6752Y8308
X6694Y8265
X6697Y8370
X6515Y8265
X6360Y8295
X6127Y8279
X6133Y8011
X5826Y8292
X5296Y8287
X5310Y8350
X5118Y8301
X5170Y8152
X5267Y8144
X5026Y7980
X4260Y8260
Y8330
X4080Y8703
X4066Y8826
X4024Y9074
Y9244
X4021Y9523
X4024Y9670
X4012Y9975
X3990Y10702
X4009Y10820
Y10921
X6751Y10990
X6871Y10938
X6804Y11157
X7052
X7287
X7410Y11107
X7350Y10987
X7229
X7393Y10905
X7351Y10482
X7305Y10445
X7324Y10230
X7101
X7104Y10386
X7000Y10385
X6870Y10230
X7510Y10393
X7600
X7097Y8772
X6740Y8840
X6826Y8930
X6543Y8644
X6289Y8840
X6013Y9460
X8162Y9192
X8262Y9086
Y9015
X8429Y9167
X8504Y9192
X8597Y9129
X8738
Y9197
X8946Y9030
Y8758
X8870Y8759
X8597Y8787
X8457Y8887
X8451Y8643
X8571Y8448
X8526Y8228
X8617
X8693
X8699Y8057
X8861Y8034
X9093Y8185
X9050Y8250
X9093Y8563
X9290Y8629
X9530Y8588
Y8510
Y8440
X9511Y8344
X9559Y8185
X9604Y8224
X9704
X9417Y8220
X9385Y8080
X9533Y8058
X9773Y7950
X10039Y8047
X10475Y8114
X10511Y8240
X10630Y8080
X10770Y8415
X10764Y8512
X10840Y8595
X11040
X11110Y8600
X11040Y8890
X11330Y8745
X11578Y8735
Y8645
Y8555
Y8465
Y8375
Y8285
Y8195
Y8105
Y8015
X11318Y8145
X11180Y8290
X11330Y8445
Y9040
X11430Y9170
X11578Y9185
Y9095
Y9005
Y8915
X11578Y8825
X11578Y9275
Y9365
Y9455
Y9545
Y9635
Y9725
Y9815
Y9905
Y9995
Y10085
X11588Y10175
X11632Y10253
X11706Y10304
X11738Y10388
Y10478
Y10568
Y10658
Y10748
Y10838
Y10928
Y11018
Y11108
Y11198
X11734Y11288
X11699Y11371
X11633Y11432
X11522Y11464
X11432Y11464
X11342
X11252
X11162
X11072
X10982
X10892
X10803
X10712
X10622
X10532
X10443
X10353
X10263
X10173
X10083
X9993
X9903
X9834Y11405
X9773Y11339
X9689Y11307
X9599Y11304
X9509Y11304
X9419
X9329
X9239
X9149
X9059
X8969
X8879
X8789
X8699
X8609
X8519
X8429
X8339
X8249
X8159
X8069
X7979
X8180Y11157
Y11078
X8147Y10750
X8080Y10640
X8025Y10669
X8350Y10658
X8450Y10658
X8540Y10575
X8593
X8571Y10369
X8602Y10325
X8620Y10170
X8450Y10190
X8380Y10240
X8245Y10365
X8240Y10480
X8130Y10350
X8128Y10074
X8180Y10118
X8249Y10062
X8303Y10010
X8369Y9930
X8440Y9880
X8564Y9800
Y9628
X8568Y9450
X8379Y9400
X8369Y9690
X8930Y9740
Y9628
Y9513
X9125Y9403
X9200Y9357
X9161Y9304
X9356Y9343
Y9513
X9357Y9618
X9400Y9730
X9357Y9800
X9200Y9793
Y9625
X9540Y9680
X9530Y9553
X9531Y9427
X9530Y9300
Y9176
X9510Y9045
X9460Y8970
X9511Y8850
X9530Y8791
X9490Y8730
X9660Y8850
X9700Y8974
X9839Y9153
X9962Y9045
X10160Y8943
X10406Y8953
Y9046
X10240Y9153
Y9222
X10255Y9529
X10254Y9617
X10425Y9660
X10516Y9740
X10437Y9906
X10390Y9906
X10300Y9910
X10080Y9852
X9967Y9695
X9801Y9750
X9839Y9597
Y9932
X9953Y10130
Y10220
X10080
Y10130
X10198
Y10220
X10154Y10487
X10200Y10530
X10080Y10520
X10003
X9953Y10490
X9860Y10435
X9737Y10200
X9610Y10170
X9550Y10220
X9507Y10107
X9268Y10260
X9158Y10288
X9082Y10225
X8986
X8865Y10220
X8815Y10168
X8942Y10350
X9039
X9310Y10370
X9303Y10647
X9220Y10642
X9090
X9042Y10642
X8928Y10643
X8854
X9007Y11010
X9010Y11150
X8902Y9937
X9398Y9095
X9773Y8510
X10490Y8521
X10417Y8775
X10303Y8785
X10657
X10662Y9000
X10773Y9083
X10779Y9222
X10775Y9339
Y9396
X10820Y9450
X10870Y9485
X10775Y9501
X10820Y9618
X10831Y9849
X10880Y9958
X10930Y10070
X10666Y10034
X10649Y9958
X10662Y10122
Y10234
X11120Y10230
X11222Y10150
X11223Y9780
X11110Y9690
X11018Y10653
X10954Y10610
X10900Y10570
X10840Y10530
X10395
X10330
X10245Y10790
X10395Y10840
X10545Y10890
X10695Y10940
X8200Y8750
X8092
X7980Y8960
X8170Y8360
X8320Y8096
X8050Y7970
T02
X4140Y10703
X4230Y10820
X4320Y10930
X4410Y11060
X5840Y11132
X5970Y11030
X6095Y10937
X6200Y10840
X6470Y10820
X6790Y10550
T03
X2897Y3928
X3151
X3405
X3659
Y4182
X3405
X3151
X2897
Y4436
X3151
Y4690
X2897
Y4944
X3151
Y5198
Y5452
Y5706
X2897
Y5960
X3151
Y6214
X2897
Y6468
X3151
Y6722
X2897
Y6976
Y7230
Y7484
Y7738
X3151
Y7484
Y7230
Y6976
X3405
Y7230
Y7484
X3659
Y7738
X3405
X3659Y7230
Y6976
Y6722
X3405
Y6468
Y6214
Y5960
Y5706
Y5452
X3659
Y5706
Y5960
Y6214
Y6468
Y5198
Y4944
Y4690
Y4436
X3405
Y4690
Y4944
Y5198
X2897
Y5452
Y7992
X3151
Y8246
Y8500
X2897
Y8246
Y8754
X3151
Y9008
X2897
Y9262
Y9516
Y9770
X3151
Y9516
Y9262
X3405
Y9008
Y8754
Y8500
Y8246
Y7992
X3659
Y8246
Y8500
Y8754
Y9008
Y9262
Y9516
Y9770
X3405
Y10024
X3151
X2897
Y10278
X3151
X3405
X3659
Y10024
X3405Y9516
T04
X4564Y8550
X4818
X5072
X5326
X5580
X5834
X6088
X6342
X6596
X6850
X7104
X7358
X7612
X7866
X7358Y9060
X7104
X6850
X6596
X6342
X6088
X5834
X5580
X5326
Y9822
Y10074
X5580
Y9822
X5834
Y10074
X6088
Y9822
X6342
Y10074
X6596
Y9822
X6850
Y10074
X7104
Y9822
X7358
Y10074
X7612
X7866
X5072
X4818
X4564
T05
X8945Y5517
Y5771
Y6025
Y6279
Y6533
Y6787
Y7041
Y7295
T06
X2897Y3420
X11470Y3040
X2897Y10786
X11470Y11040
M30
