G04*
G04 #@! TF.GenerationSoftware,Altium Limited,Altium Designer,25.8.1 (18)*
G04*
G04 Layer_Color=8388736*
%FSLAX44Y44*%
%MOMM*%
G71*
G04*
G04 #@! TF.SameCoordinates,A8DF45C0-9C80-403C-80DD-05BD58F3DB8C*
G04*
G04*
G04 #@! TF.FilePolarity,Negative*
G04*
G01*
G75*
%ADD52R,1.4605X0.5334*%
%ADD57R,0.2540X0.8128*%
%ADD59R,0.8128X0.2540*%
%ADD71C,1.0000*%
G04:AMPARAMS|DCode=72|XSize=0.75mm|YSize=0.7mm|CornerRadius=0.2mm|HoleSize=0mm|Usage=FLASHONLY|Rotation=270.000|XOffset=0mm|YOffset=0mm|HoleType=Round|Shape=RoundedRectangle|*
%AMROUNDEDRECTD72*
21,1,0.7500,0.3000,0,0,270.0*
21,1,0.3500,0.7000,0,0,270.0*
1,1,0.4000,-0.1500,-0.1750*
1,1,0.4000,-0.1500,0.1750*
1,1,0.4000,0.1500,0.1750*
1,1,0.4000,0.1500,-0.1750*
%
%ADD72ROUNDEDRECTD72*%
G04:AMPARAMS|DCode=73|XSize=0.464mm|YSize=0.914mm|CornerRadius=0.1445mm|HoleSize=0mm|Usage=FLASHONLY|Rotation=180.000|XOffset=0mm|YOffset=0mm|HoleType=Round|Shape=RoundedRectangle|*
%AMROUNDEDRECTD73*
21,1,0.4640,0.6250,0,0,180.0*
21,1,0.1750,0.9140,0,0,180.0*
1,1,0.2890,-0.0875,0.3125*
1,1,0.2890,0.0875,0.3125*
1,1,0.2890,0.0875,-0.3125*
1,1,0.2890,-0.0875,-0.3125*
%
%ADD73ROUNDEDRECTD73*%
G04:AMPARAMS|DCode=74|XSize=0.5mm|YSize=0.95mm|CornerRadius=0.1625mm|HoleSize=0mm|Usage=FLASHONLY|Rotation=270.000|XOffset=0mm|YOffset=0mm|HoleType=Round|Shape=RoundedRectangle|*
%AMROUNDEDRECTD74*
21,1,0.5000,0.6250,0,0,270.0*
21,1,0.1750,0.9500,0,0,270.0*
1,1,0.3250,-0.3125,-0.0875*
1,1,0.3250,-0.3125,0.0875*
1,1,0.3250,0.3125,0.0875*
1,1,0.3250,0.3125,-0.0875*
%
%ADD74ROUNDEDRECTD74*%
G04:AMPARAMS|DCode=75|XSize=0.75mm|YSize=0.7mm|CornerRadius=0.2mm|HoleSize=0mm|Usage=FLASHONLY|Rotation=0.000|XOffset=0mm|YOffset=0mm|HoleType=Round|Shape=RoundedRectangle|*
%AMROUNDEDRECTD75*
21,1,0.7500,0.3000,0,0,0.0*
21,1,0.3500,0.7000,0,0,0.0*
1,1,0.4000,0.1750,-0.1500*
1,1,0.4000,-0.1750,-0.1500*
1,1,0.4000,-0.1750,0.1500*
1,1,0.4000,0.1750,0.1500*
%
%ADD75ROUNDEDRECTD75*%
%ADD76O,1.9032X0.5032*%
%ADD77R,1.1532X2.3532*%
%ADD78R,3.4532X2.3532*%
G04:AMPARAMS|DCode=79|XSize=2.9032mm|YSize=1.5032mm|CornerRadius=0.3486mm|HoleSize=0mm|Usage=FLASHONLY|Rotation=180.000|XOffset=0mm|YOffset=0mm|HoleType=Round|Shape=RoundedRectangle|*
%AMROUNDEDRECTD79*
21,1,2.9032,0.8060,0,0,180.0*
21,1,2.2060,1.5032,0,0,180.0*
1,1,0.6972,-1.1030,0.4030*
1,1,0.6972,1.1030,0.4030*
1,1,0.6972,1.1030,-0.4030*
1,1,0.6972,-1.1030,-0.4030*
%
%ADD79ROUNDEDRECTD79*%
%ADD80O,0.5032X1.9032*%
G04:AMPARAMS|DCode=81|XSize=1.5232mm|YSize=0.8032mm|CornerRadius=0.1766mm|HoleSize=0mm|Usage=FLASHONLY|Rotation=90.000|XOffset=0mm|YOffset=0mm|HoleType=Round|Shape=RoundedRectangle|*
%AMROUNDEDRECTD81*
21,1,1.5232,0.4500,0,0,90.0*
21,1,1.1700,0.8032,0,0,90.0*
1,1,0.3532,0.2250,0.5850*
1,1,0.3532,0.2250,-0.5850*
1,1,0.3532,-0.2250,-0.5850*
1,1,0.3532,-0.2250,0.5850*
%
%ADD81ROUNDEDRECTD81*%
%ADD82R,0.6032X0.6032*%
%ADD83O,1.5016X0.4516*%
%ADD84O,0.4516X1.5016*%
G04:AMPARAMS|DCode=85|XSize=1.8432mm|YSize=0.7932mm|CornerRadius=0.2491mm|HoleSize=0mm|Usage=FLASHONLY|Rotation=90.000|XOffset=0mm|YOffset=0mm|HoleType=Round|Shape=RoundedRectangle|*
%AMROUNDEDRECTD85*
21,1,1.8432,0.2950,0,0,90.0*
21,1,1.3450,0.7932,0,0,90.0*
1,1,0.4982,0.1475,0.6725*
1,1,0.4982,0.1475,-0.6725*
1,1,0.4982,-0.1475,-0.6725*
1,1,0.4982,-0.1475,0.6725*
%
%ADD85ROUNDEDRECTD85*%
G04:AMPARAMS|DCode=86|XSize=1.1532mm|YSize=1.0532mm|CornerRadius=0.3141mm|HoleSize=0mm|Usage=FLASHONLY|Rotation=0.000|XOffset=0mm|YOffset=0mm|HoleType=Round|Shape=RoundedRectangle|*
%AMROUNDEDRECTD86*
21,1,1.1532,0.4250,0,0,0.0*
21,1,0.5250,1.0532,0,0,0.0*
1,1,0.6282,0.2625,-0.2125*
1,1,0.6282,-0.2625,-0.2125*
1,1,0.6282,-0.2625,0.2125*
1,1,0.6282,0.2625,0.2125*
%
%ADD86ROUNDEDRECTD86*%
G04:AMPARAMS|DCode=87|XSize=1.8432mm|YSize=0.7932mm|CornerRadius=0.2491mm|HoleSize=0mm|Usage=FLASHONLY|Rotation=180.000|XOffset=0mm|YOffset=0mm|HoleType=Round|Shape=RoundedRectangle|*
%AMROUNDEDRECTD87*
21,1,1.8432,0.2950,0,0,180.0*
21,1,1.3450,0.7932,0,0,180.0*
1,1,0.4982,-0.6725,0.1475*
1,1,0.4982,0.6725,0.1475*
1,1,0.4982,0.6725,-0.1475*
1,1,0.4982,-0.6725,-0.1475*
%
%ADD87ROUNDEDRECTD87*%
G04:AMPARAMS|DCode=88|XSize=1.4032mm|YSize=1.5032mm|CornerRadius=0.3476mm|HoleSize=0mm|Usage=FLASHONLY|Rotation=0.000|XOffset=0mm|YOffset=0mm|HoleType=Round|Shape=RoundedRectangle|*
%AMROUNDEDRECTD88*
21,1,1.4032,0.8080,0,0,0.0*
21,1,0.7080,1.5032,0,0,0.0*
1,1,0.6952,0.3540,-0.4040*
1,1,0.6952,-0.3540,-0.4040*
1,1,0.6952,-0.3540,0.4040*
1,1,0.6952,0.3540,0.4040*
%
%ADD88ROUNDEDRECTD88*%
%ADD89R,1.7524X0.9524*%
%ADD90R,1.1524X0.7524*%
%ADD91R,1.0032X1.8032*%
G04:AMPARAMS|DCode=92|XSize=2.9032mm|YSize=1.5032mm|CornerRadius=0.3486mm|HoleSize=0mm|Usage=FLASHONLY|Rotation=270.000|XOffset=0mm|YOffset=0mm|HoleType=Round|Shape=RoundedRectangle|*
%AMROUNDEDRECTD92*
21,1,2.9032,0.8060,0,0,270.0*
21,1,2.2060,1.5032,0,0,270.0*
1,1,0.6972,-0.4030,-1.1030*
1,1,0.6972,-0.4030,1.1030*
1,1,0.6972,0.4030,1.1030*
1,1,0.6972,0.4030,-1.1030*
%
%ADD92ROUNDEDRECTD92*%
G04:AMPARAMS|DCode=93|XSize=1.1032mm|YSize=1.0032mm|CornerRadius=0.3016mm|HoleSize=0mm|Usage=FLASHONLY|Rotation=90.000|XOffset=0mm|YOffset=0mm|HoleType=Round|Shape=RoundedRectangle|*
%AMROUNDEDRECTD93*
21,1,1.1032,0.4000,0,0,90.0*
21,1,0.5000,1.0032,0,0,90.0*
1,1,0.6032,0.2000,0.2500*
1,1,0.6032,0.2000,-0.2500*
1,1,0.6032,-0.2000,-0.2500*
1,1,0.6032,-0.2000,0.2500*
%
%ADD93ROUNDEDRECTD93*%
G04:AMPARAMS|DCode=94|XSize=1.1532mm|YSize=1.0532mm|CornerRadius=0.3141mm|HoleSize=0mm|Usage=FLASHONLY|Rotation=270.000|XOffset=0mm|YOffset=0mm|HoleType=Round|Shape=RoundedRectangle|*
%AMROUNDEDRECTD94*
21,1,1.1532,0.4250,0,0,270.0*
21,1,0.5250,1.0532,0,0,270.0*
1,1,0.6282,-0.2125,-0.2625*
1,1,0.6282,-0.2125,0.2625*
1,1,0.6282,0.2125,0.2625*
1,1,0.6282,0.2125,-0.2625*
%
%ADD94ROUNDEDRECTD94*%
%ADD95R,0.8532X0.4532*%
%ADD96R,2.7500X2.7500*%
G04:AMPARAMS|DCode=97|XSize=1.4032mm|YSize=1.5032mm|CornerRadius=0.3476mm|HoleSize=0mm|Usage=FLASHONLY|Rotation=90.000|XOffset=0mm|YOffset=0mm|HoleType=Round|Shape=RoundedRectangle|*
%AMROUNDEDRECTD97*
21,1,1.4032,0.8080,0,0,90.0*
21,1,0.7080,1.5032,0,0,90.0*
1,1,0.6952,0.4040,0.3540*
1,1,0.6952,0.4040,-0.3540*
1,1,0.6952,-0.4040,-0.3540*
1,1,0.6952,-0.4040,0.3540*
%
%ADD97ROUNDEDRECTD97*%
%ADD98R,1.5032X1.8032*%
%ADD99R,1.4024X1.9524*%
%ADD100R,2.4000X3.1000*%
G04:AMPARAMS|DCode=101|XSize=1.1032mm|YSize=1.0032mm|CornerRadius=0.3016mm|HoleSize=0mm|Usage=FLASHONLY|Rotation=0.000|XOffset=0mm|YOffset=0mm|HoleType=Round|Shape=RoundedRectangle|*
%AMROUNDEDRECTD101*
21,1,1.1032,0.4000,0,0,0.0*
21,1,0.5000,1.0032,0,0,0.0*
1,1,0.6032,0.2500,-0.2000*
1,1,0.6032,-0.2500,-0.2000*
1,1,0.6032,-0.2500,0.2000*
1,1,0.6032,0.2500,0.2000*
%
%ADD101ROUNDEDRECTD101*%
G04:AMPARAMS|DCode=102|XSize=1.8532mm|YSize=2.7532mm|CornerRadius=0.3491mm|HoleSize=0mm|Usage=FLASHONLY|Rotation=180.000|XOffset=0mm|YOffset=0mm|HoleType=Round|Shape=RoundedRectangle|*
%AMROUNDEDRECTD102*
21,1,1.8532,2.0550,0,0,180.0*
21,1,1.1550,2.7532,0,0,180.0*
1,1,0.6982,-0.5775,1.0275*
1,1,0.6982,0.5775,1.0275*
1,1,0.6982,0.5775,-1.0275*
1,1,0.6982,-0.5775,-1.0275*
%
%ADD102ROUNDEDRECTD102*%
%ADD103R,3.1524X2.2524*%
%ADD104R,1.9524X1.4024*%
%ADD105R,2.0582X1.4994*%
%ADD106R,3.2004X3.2004*%
%ADD107R,3.2004X3.2004*%
%ADD108R,2.2524X3.1524*%
%ADD109R,0.9524X1.7524*%
%ADD110R,2.3032X3.2032*%
%ADD111R,2.1844X0.7440*%
%ADD112R,1.2454X0.8644*%
%ADD113R,1.2000X0.7000*%
%ADD114R,3.1532X3.7032*%
%ADD115R,0.7524X1.1524*%
%ADD116C,0.8000*%
%ADD117R,0.8532X0.5032*%
%ADD118R,0.4532X0.8532*%
%ADD119R,0.5032X2.6032*%
%ADD120R,1.2000X0.5500*%
%ADD121C,1.8032*%
%ADD122C,6.2032*%
%ADD123C,1.7332*%
%ADD124C,1.5000*%
%ADD125R,1.7332X1.7332*%
%ADD126R,1.8032X1.8032*%
G36*
X537738Y704766D02*
X537771D01*
X537804Y704762D01*
X537837Y704760D01*
X537870Y704753D01*
X537903Y704749D01*
X538313Y704667D01*
X538346Y704658D01*
X538378Y704652D01*
X538410Y704641D01*
X538442Y704632D01*
X538473Y704620D01*
X538504Y704609D01*
X538891Y704449D01*
X538921Y704434D01*
X538952Y704421D01*
X538981Y704405D01*
X539011Y704390D01*
X539038Y704371D01*
X539067Y704355D01*
X539415Y704122D01*
X539442Y704102D01*
X539469Y704083D01*
X539494Y704062D01*
X539521Y704041D01*
X539545Y704017D01*
X539570Y703996D01*
X539865Y703700D01*
X539888Y703674D01*
X539911Y703651D01*
X539931Y703625D01*
X539953Y703599D01*
X539972Y703572D01*
X539992Y703545D01*
X540225Y703197D01*
X540241Y703168D01*
X540260Y703141D01*
X540275Y703111D01*
X540291Y703082D01*
X540304Y703051D01*
X540319Y703021D01*
X540479Y702635D01*
X540490Y702603D01*
X540502Y702572D01*
X540511Y702540D01*
X540522Y702508D01*
X540528Y702476D01*
X540537Y702443D01*
X540619Y702033D01*
X540623Y702000D01*
X540630Y701967D01*
X540632Y701934D01*
X540636Y701901D01*
Y701868D01*
X540638Y701834D01*
Y701625D01*
Y696375D01*
Y696166D01*
X540636Y696132D01*
Y696099D01*
X540632Y696066D01*
X540630Y696033D01*
X540623Y696000D01*
X540619Y695967D01*
X540537Y695556D01*
X540528Y695524D01*
X540522Y695492D01*
X540511Y695460D01*
X540502Y695428D01*
X540490Y695397D01*
X540479Y695366D01*
X540319Y694979D01*
X540304Y694949D01*
X540291Y694918D01*
X540275Y694889D01*
X540260Y694859D01*
X540241Y694832D01*
X540225Y694803D01*
X539992Y694455D01*
X539972Y694428D01*
X539953Y694401D01*
X539931Y694376D01*
X539911Y694349D01*
X539887Y694325D01*
X539865Y694300D01*
X539570Y694005D01*
X539544Y693982D01*
X539521Y693959D01*
X539495Y693939D01*
X539469Y693917D01*
X539442Y693898D01*
X539415Y693878D01*
X539067Y693645D01*
X539038Y693629D01*
X539011Y693610D01*
X538981Y693595D01*
X538952Y693579D01*
X538921Y693566D01*
X538891Y693551D01*
X538504Y693391D01*
X538473Y693380D01*
X538442Y693367D01*
X538410Y693359D01*
X538378Y693348D01*
X538346Y693342D01*
X538313Y693333D01*
X537903Y693251D01*
X537870Y693247D01*
X537837Y693241D01*
X537804Y693238D01*
X537771Y693234D01*
X537738D01*
X537704Y693232D01*
X531064D01*
X531062Y693232D01*
X531060Y693232D01*
X530993Y693236D01*
X530931Y693241D01*
X530929Y693241D01*
X530927Y693241D01*
X530863Y693254D01*
X530800Y693267D01*
X530798Y693267D01*
X530797Y693268D01*
X530735Y693289D01*
X530674Y693309D01*
X530672Y693310D01*
X530671Y693311D01*
X530611Y693341D01*
X530555Y693368D01*
X530553Y693369D01*
X530551Y693370D01*
X530496Y693407D01*
X530444Y693442D01*
X530443Y693444D01*
X530441Y693445D01*
X530391Y693488D01*
X530344Y693530D01*
X530343Y693531D01*
X530341Y693533D01*
X529587Y694292D01*
X529590Y694250D01*
X529581Y694117D01*
X529555Y693986D01*
X529513Y693860D01*
X529454Y693741D01*
X529380Y693630D01*
X529292Y693530D01*
X529192Y693442D01*
X529081Y693368D01*
X528962Y693309D01*
X528835Y693267D01*
X528705Y693241D01*
X528572Y693232D01*
X517875Y693232D01*
X517666D01*
X517632Y693234D01*
X517599D01*
X517566Y693238D01*
X517533Y693241D01*
X517500Y693247D01*
X517467Y693251D01*
X517057Y693333D01*
X517024Y693342D01*
X516992Y693348D01*
X516960Y693359D01*
X516928Y693367D01*
X516897Y693380D01*
X516866Y693391D01*
X516479Y693551D01*
X516449Y693566D01*
X516418Y693579D01*
X516389Y693595D01*
X516359Y693610D01*
X516332Y693629D01*
X516303Y693645D01*
X515955Y693878D01*
X515928Y693898D01*
X515901Y693917D01*
X515876Y693939D01*
X515849Y693959D01*
X515825Y693983D01*
X515800Y694005D01*
X515504Y694300D01*
X515482Y694326D01*
X515459Y694349D01*
X515439Y694375D01*
X515417Y694401D01*
X515398Y694428D01*
X515378Y694455D01*
X515145Y694803D01*
X515129Y694832D01*
X515110Y694859D01*
X515095Y694889D01*
X515079Y694918D01*
X515066Y694949D01*
X515051Y694979D01*
X514891Y695366D01*
X514880Y695397D01*
X514868Y695428D01*
X514859Y695460D01*
X514848Y695492D01*
X514842Y695524D01*
X514833Y695556D01*
X514751Y695967D01*
X514747Y696000D01*
X514740Y696033D01*
X514738Y696066D01*
X514734Y696099D01*
Y696132D01*
X514732Y696166D01*
Y696375D01*
Y696375D01*
Y701625D01*
Y701834D01*
X514734Y701868D01*
Y701901D01*
X514738Y701934D01*
X514740Y701967D01*
X514747Y702000D01*
X514751Y702033D01*
X514833Y702443D01*
X514842Y702476D01*
X514848Y702508D01*
X514859Y702540D01*
X514868Y702572D01*
X514880Y702603D01*
X514891Y702634D01*
X515051Y703021D01*
X515066Y703051D01*
X515079Y703082D01*
X515095Y703111D01*
X515110Y703141D01*
X515129Y703168D01*
X515145Y703197D01*
X515378Y703545D01*
X515398Y703572D01*
X515417Y703599D01*
X515438Y703624D01*
X515459Y703651D01*
X515483Y703675D01*
X515504Y703700D01*
X515800Y703996D01*
X515826Y704018D01*
X515849Y704041D01*
X515875Y704061D01*
X515901Y704083D01*
X515928Y704102D01*
X515955Y704122D01*
X516303Y704355D01*
X516332Y704371D01*
X516359Y704390D01*
X516389Y704405D01*
X516418Y704421D01*
X516449Y704434D01*
X516479Y704449D01*
X516866Y704609D01*
X516897Y704620D01*
X516928Y704632D01*
X516960Y704641D01*
X516992Y704652D01*
X517024Y704658D01*
X517057Y704667D01*
X517467Y704749D01*
X517500Y704753D01*
X517533Y704760D01*
X517566Y704762D01*
X517599Y704766D01*
X517632D01*
X517666Y704768D01*
X528618D01*
X528751Y704760D01*
X528881Y704734D01*
X529007Y704691D01*
X529127Y704632D01*
X529238Y704558D01*
X529338Y704470D01*
X529426Y704370D01*
X529500Y704259D01*
X529559Y704140D01*
X529601Y704014D01*
X529627Y703883D01*
X529636Y703756D01*
X530341Y704467D01*
X530342Y704468D01*
X530344Y704470D01*
X530393Y704513D01*
X530441Y704555D01*
X530443Y704557D01*
X530444Y704558D01*
X530498Y704594D01*
X530551Y704630D01*
X530553Y704631D01*
X530555Y704632D01*
X530612Y704660D01*
X530671Y704689D01*
X530672Y704690D01*
X530674Y704691D01*
X530735Y704711D01*
X530797Y704733D01*
X530798Y704733D01*
X530800Y704734D01*
X530866Y704747D01*
X530927Y704759D01*
X530929Y704759D01*
X530931Y704760D01*
X531000Y704764D01*
X531060Y704768D01*
X531062Y704768D01*
X531064Y704768D01*
X537704D01*
X537738Y704766D01*
D02*
G37*
G36*
X782110Y380990D02*
X782170D01*
X782220Y380980D01*
X782270Y380970D01*
X782320Y380950D01*
X782370Y380930D01*
X782420Y380910D01*
X782460Y380890D01*
X782510Y380870D01*
X782550Y380840D01*
X782600Y380810D01*
X782640Y380780D01*
X782680Y380740D01*
X782720Y380710D01*
X782750Y380670D01*
X782790Y380630D01*
X782820Y380590D01*
X782850Y380540D01*
X782880Y380500D01*
X782900Y380450D01*
X782920Y380410D01*
X782940Y380360D01*
X782960Y380310D01*
X782980Y380260D01*
X782990Y380210D01*
X783000Y380160D01*
Y380100D01*
X783010Y380050D01*
Y365950D01*
X783000Y365900D01*
Y365840D01*
X782990Y365790D01*
X782980Y365740D01*
X782960Y365690D01*
X782940Y365640D01*
X782920Y365590D01*
X782900Y365550D01*
X782880Y365500D01*
X782850Y365460D01*
X782820Y365410D01*
X782790Y365370D01*
X782750Y365330D01*
X782720Y365290D01*
X782680Y365260D01*
X782640Y365220D01*
X782600Y365190D01*
X782550Y365160D01*
X782510Y365130D01*
X782460Y365110D01*
X782420Y365090D01*
X782370Y365070D01*
X782320Y365050D01*
X782270Y365030D01*
X782220Y365020D01*
X782170Y365010D01*
X782110D01*
X782060Y365000D01*
X778460D01*
X778410Y365010D01*
X778350D01*
X778300Y365020D01*
X778250Y365030D01*
X778200Y365050D01*
X778150Y365070D01*
X778100Y365090D01*
X778060Y365110D01*
X778010Y365130D01*
X777970Y365160D01*
X777920Y365190D01*
X777880Y365220D01*
X777840Y365260D01*
X777800Y365290D01*
X777770Y365330D01*
X777730Y365370D01*
X777700Y365410D01*
X777670Y365460D01*
X777640Y365500D01*
X777620Y365550D01*
X777600Y365590D01*
X777580Y365640D01*
X777560Y365690D01*
X777540Y365740D01*
X777530Y365790D01*
X777520Y365840D01*
Y365900D01*
X777510Y365950D01*
Y380050D01*
X777520Y380100D01*
Y380160D01*
X777530Y380210D01*
X777540Y380260D01*
X777560Y380310D01*
X777580Y380360D01*
X777600Y380410D01*
X777620Y380450D01*
X777640Y380500D01*
X777670Y380540D01*
X777700Y380590D01*
X777730Y380630D01*
X777770Y380670D01*
X777800Y380710D01*
X777840Y380740D01*
X777880Y380780D01*
X777920Y380810D01*
X777970Y380840D01*
X778010Y380870D01*
X778060Y380890D01*
X778100Y380910D01*
X778150Y380930D01*
X778200Y380950D01*
X778250Y380970D01*
X778300Y380980D01*
X778350Y380990D01*
X778410D01*
X778460Y381000D01*
X782060D01*
X782110Y380990D01*
D02*
G37*
G36*
X775610D02*
X775670D01*
X775720Y380980D01*
X775770Y380970D01*
X775820Y380950D01*
X775870Y380930D01*
X775920Y380910D01*
X775960Y380890D01*
X776010Y380870D01*
X776050Y380840D01*
X776100Y380810D01*
X776140Y380780D01*
X776180Y380740D01*
X776220Y380710D01*
X776250Y380670D01*
X776290Y380630D01*
X776320Y380590D01*
X776350Y380540D01*
X776380Y380500D01*
X776400Y380450D01*
X776420Y380410D01*
X776440Y380360D01*
X776460Y380310D01*
X776480Y380260D01*
X776490Y380210D01*
X776500Y380160D01*
Y380100D01*
X776510Y380050D01*
Y365950D01*
X776500Y365900D01*
Y365840D01*
X776490Y365790D01*
X776480Y365740D01*
X776460Y365690D01*
X776440Y365640D01*
X776420Y365590D01*
X776400Y365550D01*
X776380Y365500D01*
X776350Y365460D01*
X776320Y365410D01*
X776290Y365370D01*
X776250Y365330D01*
X776220Y365290D01*
X776180Y365260D01*
X776140Y365220D01*
X776100Y365190D01*
X776050Y365160D01*
X776010Y365130D01*
X775960Y365110D01*
X775920Y365090D01*
X775870Y365070D01*
X775820Y365050D01*
X775770Y365030D01*
X775720Y365020D01*
X775670Y365010D01*
X775610D01*
X775560Y365000D01*
X771960D01*
X771910Y365010D01*
X771850D01*
X771800Y365020D01*
X771750Y365030D01*
X771700Y365050D01*
X771650Y365070D01*
X771600Y365090D01*
X771560Y365110D01*
X771510Y365130D01*
X771470Y365160D01*
X771420Y365190D01*
X771380Y365220D01*
X771340Y365260D01*
X771300Y365290D01*
X771270Y365330D01*
X771230Y365370D01*
X771200Y365410D01*
X771170Y365460D01*
X771140Y365500D01*
X771120Y365550D01*
X771100Y365590D01*
X771080Y365640D01*
X771060Y365690D01*
X771040Y365740D01*
X771030Y365790D01*
X771020Y365840D01*
Y365900D01*
X771010Y365950D01*
Y380050D01*
X771020Y380100D01*
Y380160D01*
X771030Y380210D01*
X771040Y380260D01*
X771060Y380310D01*
X771080Y380360D01*
X771100Y380410D01*
X771120Y380450D01*
X771140Y380500D01*
X771170Y380540D01*
X771200Y380590D01*
X771230Y380630D01*
X771270Y380670D01*
X771300Y380710D01*
X771340Y380740D01*
X771380Y380780D01*
X771420Y380810D01*
X771470Y380840D01*
X771510Y380870D01*
X771560Y380890D01*
X771600Y380910D01*
X771650Y380930D01*
X771700Y380950D01*
X771750Y380970D01*
X771800Y380980D01*
X771850Y380990D01*
X771910D01*
X771960Y381000D01*
X775560D01*
X775610Y380990D01*
D02*
G37*
G36*
X769110D02*
X769170D01*
X769220Y380980D01*
X769270Y380970D01*
X769320Y380950D01*
X769370Y380930D01*
X769420Y380910D01*
X769460Y380890D01*
X769510Y380870D01*
X769550Y380840D01*
X769600Y380810D01*
X769640Y380780D01*
X769680Y380740D01*
X769720Y380710D01*
X769750Y380670D01*
X769790Y380630D01*
X769820Y380590D01*
X769850Y380540D01*
X769880Y380500D01*
X769900Y380450D01*
X769920Y380410D01*
X769940Y380360D01*
X769960Y380310D01*
X769980Y380260D01*
X769990Y380210D01*
X770000Y380160D01*
Y380100D01*
X770010Y380050D01*
Y365950D01*
X770000Y365900D01*
Y365840D01*
X769990Y365790D01*
X769980Y365740D01*
X769960Y365690D01*
X769940Y365640D01*
X769920Y365590D01*
X769900Y365550D01*
X769880Y365500D01*
X769850Y365460D01*
X769820Y365410D01*
X769790Y365370D01*
X769750Y365330D01*
X769720Y365290D01*
X769680Y365260D01*
X769640Y365220D01*
X769600Y365190D01*
X769550Y365160D01*
X769510Y365130D01*
X769460Y365110D01*
X769420Y365090D01*
X769370Y365070D01*
X769320Y365050D01*
X769270Y365030D01*
X769220Y365020D01*
X769170Y365010D01*
X769110D01*
X769060Y365000D01*
X765460D01*
X765410Y365010D01*
X765350D01*
X765300Y365020D01*
X765250Y365030D01*
X765200Y365050D01*
X765150Y365070D01*
X765100Y365090D01*
X765060Y365110D01*
X765010Y365130D01*
X764970Y365160D01*
X764920Y365190D01*
X764880Y365220D01*
X764840Y365260D01*
X764800Y365290D01*
X764770Y365330D01*
X764730Y365370D01*
X764700Y365410D01*
X764670Y365460D01*
X764640Y365500D01*
X764620Y365550D01*
X764600Y365590D01*
X764580Y365640D01*
X764560Y365690D01*
X764540Y365740D01*
X764530Y365790D01*
X764520Y365840D01*
Y365900D01*
X764510Y365950D01*
Y380050D01*
X764520Y380100D01*
Y380160D01*
X764530Y380210D01*
X764540Y380260D01*
X764560Y380310D01*
X764580Y380360D01*
X764600Y380410D01*
X764620Y380450D01*
X764640Y380500D01*
X764670Y380540D01*
X764700Y380590D01*
X764730Y380630D01*
X764770Y380670D01*
X764800Y380710D01*
X764840Y380740D01*
X764880Y380780D01*
X764920Y380810D01*
X764970Y380840D01*
X765010Y380870D01*
X765060Y380890D01*
X765100Y380910D01*
X765150Y380930D01*
X765200Y380950D01*
X765250Y380970D01*
X765300Y380980D01*
X765350Y380990D01*
X765410D01*
X765460Y381000D01*
X769060D01*
X769110Y380990D01*
D02*
G37*
G36*
X762610D02*
X762670D01*
X762720Y380980D01*
X762770Y380970D01*
X762820Y380950D01*
X762870Y380930D01*
X762920Y380910D01*
X762960Y380890D01*
X763010Y380870D01*
X763050Y380840D01*
X763100Y380810D01*
X763140Y380780D01*
X763180Y380740D01*
X763220Y380710D01*
X763250Y380670D01*
X763290Y380630D01*
X763320Y380590D01*
X763350Y380540D01*
X763380Y380500D01*
X763400Y380450D01*
X763420Y380410D01*
X763440Y380360D01*
X763460Y380310D01*
X763480Y380260D01*
X763490Y380210D01*
X763500Y380160D01*
Y380100D01*
X763510Y380050D01*
Y365950D01*
X763500Y365900D01*
Y365840D01*
X763490Y365790D01*
X763480Y365740D01*
X763460Y365690D01*
X763440Y365640D01*
X763420Y365590D01*
X763400Y365550D01*
X763380Y365500D01*
X763350Y365460D01*
X763320Y365410D01*
X763290Y365370D01*
X763250Y365330D01*
X763220Y365290D01*
X763180Y365260D01*
X763140Y365220D01*
X763100Y365190D01*
X763050Y365160D01*
X763010Y365130D01*
X762960Y365110D01*
X762920Y365090D01*
X762870Y365070D01*
X762820Y365050D01*
X762770Y365030D01*
X762720Y365020D01*
X762670Y365010D01*
X762610D01*
X762560Y365000D01*
X758960D01*
X758910Y365010D01*
X758850D01*
X758800Y365020D01*
X758750Y365030D01*
X758700Y365050D01*
X758650Y365070D01*
X758600Y365090D01*
X758560Y365110D01*
X758510Y365130D01*
X758470Y365160D01*
X758420Y365190D01*
X758380Y365220D01*
X758340Y365260D01*
X758300Y365290D01*
X758270Y365330D01*
X758230Y365370D01*
X758200Y365410D01*
X758170Y365460D01*
X758140Y365500D01*
X758120Y365550D01*
X758100Y365590D01*
X758080Y365640D01*
X758060Y365690D01*
X758040Y365740D01*
X758030Y365790D01*
X758020Y365840D01*
Y365900D01*
X758010Y365950D01*
Y380050D01*
X758020Y380100D01*
Y380160D01*
X758030Y380210D01*
X758040Y380260D01*
X758060Y380310D01*
X758080Y380360D01*
X758100Y380410D01*
X758120Y380450D01*
X758140Y380500D01*
X758170Y380540D01*
X758200Y380590D01*
X758230Y380630D01*
X758270Y380670D01*
X758300Y380710D01*
X758340Y380740D01*
X758380Y380780D01*
X758420Y380810D01*
X758470Y380840D01*
X758510Y380870D01*
X758560Y380890D01*
X758600Y380910D01*
X758650Y380930D01*
X758700Y380950D01*
X758750Y380970D01*
X758800Y380980D01*
X758850Y380990D01*
X758910D01*
X758960Y381000D01*
X762560D01*
X762610Y380990D01*
D02*
G37*
G36*
X756110D02*
X756170D01*
X756220Y380980D01*
X756270Y380970D01*
X756320Y380950D01*
X756370Y380930D01*
X756420Y380910D01*
X756460Y380890D01*
X756510Y380870D01*
X756550Y380840D01*
X756600Y380810D01*
X756640Y380780D01*
X756680Y380740D01*
X756720Y380710D01*
X756750Y380670D01*
X756790Y380630D01*
X756820Y380590D01*
X756850Y380540D01*
X756880Y380500D01*
X756900Y380450D01*
X756920Y380410D01*
X756940Y380360D01*
X756960Y380310D01*
X756980Y380260D01*
X756990Y380210D01*
X757000Y380160D01*
Y380100D01*
X757010Y380050D01*
Y365950D01*
X757000Y365900D01*
Y365840D01*
X756990Y365790D01*
X756980Y365740D01*
X756960Y365690D01*
X756940Y365640D01*
X756920Y365590D01*
X756900Y365550D01*
X756880Y365500D01*
X756850Y365460D01*
X756820Y365410D01*
X756790Y365370D01*
X756750Y365330D01*
X756720Y365290D01*
X756680Y365260D01*
X756640Y365220D01*
X756600Y365190D01*
X756550Y365160D01*
X756510Y365130D01*
X756460Y365110D01*
X756420Y365090D01*
X756370Y365070D01*
X756320Y365050D01*
X756270Y365030D01*
X756220Y365020D01*
X756170Y365010D01*
X756110D01*
X756060Y365000D01*
X752460D01*
X752410Y365010D01*
X752350D01*
X752300Y365020D01*
X752250Y365030D01*
X752200Y365050D01*
X752150Y365070D01*
X752100Y365090D01*
X752060Y365110D01*
X752010Y365130D01*
X751970Y365160D01*
X751920Y365190D01*
X751880Y365220D01*
X751840Y365260D01*
X751800Y365290D01*
X751770Y365330D01*
X751730Y365370D01*
X751700Y365410D01*
X751670Y365460D01*
X751640Y365500D01*
X751620Y365550D01*
X751600Y365590D01*
X751580Y365640D01*
X751560Y365690D01*
X751540Y365740D01*
X751530Y365790D01*
X751520Y365840D01*
Y365900D01*
X751510Y365950D01*
Y380050D01*
X751520Y380100D01*
Y380160D01*
X751530Y380210D01*
X751540Y380260D01*
X751560Y380310D01*
X751580Y380360D01*
X751600Y380410D01*
X751620Y380450D01*
X751640Y380500D01*
X751670Y380540D01*
X751700Y380590D01*
X751730Y380630D01*
X751770Y380670D01*
X751800Y380710D01*
X751840Y380740D01*
X751880Y380780D01*
X751920Y380810D01*
X751970Y380840D01*
X752010Y380870D01*
X752060Y380890D01*
X752100Y380910D01*
X752150Y380930D01*
X752200Y380950D01*
X752250Y380970D01*
X752300Y380980D01*
X752350Y380990D01*
X752410D01*
X752460Y381000D01*
X756060D01*
X756110Y380990D01*
D02*
G37*
G36*
X749610D02*
X749670D01*
X749720Y380980D01*
X749770Y380970D01*
X749820Y380950D01*
X749870Y380930D01*
X749920Y380910D01*
X749960Y380890D01*
X750010Y380870D01*
X750050Y380840D01*
X750100Y380810D01*
X750140Y380780D01*
X750180Y380740D01*
X750220Y380710D01*
X750250Y380670D01*
X750290Y380630D01*
X750320Y380590D01*
X750350Y380540D01*
X750380Y380500D01*
X750400Y380450D01*
X750420Y380410D01*
X750440Y380360D01*
X750460Y380310D01*
X750480Y380260D01*
X750490Y380210D01*
X750500Y380160D01*
Y380100D01*
X750510Y380050D01*
Y365950D01*
X750500Y365900D01*
Y365840D01*
X750490Y365790D01*
X750480Y365740D01*
X750460Y365690D01*
X750440Y365640D01*
X750420Y365590D01*
X750400Y365550D01*
X750380Y365500D01*
X750350Y365460D01*
X750320Y365410D01*
X750290Y365370D01*
X750250Y365330D01*
X750220Y365290D01*
X750180Y365260D01*
X750140Y365220D01*
X750100Y365190D01*
X750050Y365160D01*
X750010Y365130D01*
X749960Y365110D01*
X749920Y365090D01*
X749870Y365070D01*
X749820Y365050D01*
X749770Y365030D01*
X749720Y365020D01*
X749670Y365010D01*
X749610D01*
X749560Y365000D01*
X745960D01*
X745910Y365010D01*
X745850D01*
X745800Y365020D01*
X745750Y365030D01*
X745700Y365050D01*
X745650Y365070D01*
X745600Y365090D01*
X745560Y365110D01*
X745510Y365130D01*
X745470Y365160D01*
X745420Y365190D01*
X745380Y365220D01*
X745340Y365260D01*
X745300Y365290D01*
X745270Y365330D01*
X745230Y365370D01*
X745200Y365410D01*
X745170Y365460D01*
X745140Y365500D01*
X745120Y365550D01*
X745100Y365590D01*
X745080Y365640D01*
X745060Y365690D01*
X745040Y365740D01*
X745030Y365790D01*
X745020Y365840D01*
Y365900D01*
X745010Y365950D01*
Y380050D01*
X745020Y380100D01*
Y380160D01*
X745030Y380210D01*
X745040Y380260D01*
X745060Y380310D01*
X745080Y380360D01*
X745100Y380410D01*
X745120Y380450D01*
X745140Y380500D01*
X745170Y380540D01*
X745200Y380590D01*
X745230Y380630D01*
X745270Y380670D01*
X745300Y380710D01*
X745340Y380740D01*
X745380Y380780D01*
X745420Y380810D01*
X745470Y380840D01*
X745510Y380870D01*
X745560Y380890D01*
X745600Y380910D01*
X745650Y380930D01*
X745700Y380950D01*
X745750Y380970D01*
X745800Y380980D01*
X745850Y380990D01*
X745910D01*
X745960Y381000D01*
X749560D01*
X749610Y380990D01*
D02*
G37*
G36*
X743110D02*
X743170D01*
X743220Y380980D01*
X743270Y380970D01*
X743320Y380950D01*
X743370Y380930D01*
X743420Y380910D01*
X743460Y380890D01*
X743510Y380870D01*
X743550Y380840D01*
X743600Y380810D01*
X743640Y380780D01*
X743680Y380740D01*
X743720Y380710D01*
X743750Y380670D01*
X743790Y380630D01*
X743820Y380590D01*
X743850Y380540D01*
X743880Y380500D01*
X743900Y380450D01*
X743920Y380410D01*
X743940Y380360D01*
X743960Y380310D01*
X743980Y380260D01*
X743990Y380210D01*
X744000Y380160D01*
Y380100D01*
X744010Y380050D01*
Y365950D01*
X744000Y365900D01*
Y365840D01*
X743990Y365790D01*
X743980Y365740D01*
X743960Y365690D01*
X743940Y365640D01*
X743920Y365590D01*
X743900Y365550D01*
X743880Y365500D01*
X743850Y365460D01*
X743820Y365410D01*
X743790Y365370D01*
X743750Y365330D01*
X743720Y365290D01*
X743680Y365260D01*
X743640Y365220D01*
X743600Y365190D01*
X743550Y365160D01*
X743510Y365130D01*
X743460Y365110D01*
X743420Y365090D01*
X743370Y365070D01*
X743320Y365050D01*
X743270Y365030D01*
X743220Y365020D01*
X743170Y365010D01*
X743110D01*
X743060Y365000D01*
X739460D01*
X739410Y365010D01*
X739350D01*
X739300Y365020D01*
X739250Y365030D01*
X739200Y365050D01*
X739150Y365070D01*
X739100Y365090D01*
X739060Y365110D01*
X739010Y365130D01*
X738970Y365160D01*
X738920Y365190D01*
X738880Y365220D01*
X738840Y365260D01*
X738800Y365290D01*
X738770Y365330D01*
X738730Y365370D01*
X738700Y365410D01*
X738670Y365460D01*
X738640Y365500D01*
X738620Y365550D01*
X738600Y365590D01*
X738580Y365640D01*
X738560Y365690D01*
X738540Y365740D01*
X738530Y365790D01*
X738520Y365840D01*
Y365900D01*
X738510Y365950D01*
Y380050D01*
X738520Y380100D01*
Y380160D01*
X738530Y380210D01*
X738540Y380260D01*
X738560Y380310D01*
X738580Y380360D01*
X738600Y380410D01*
X738620Y380450D01*
X738640Y380500D01*
X738670Y380540D01*
X738700Y380590D01*
X738730Y380630D01*
X738770Y380670D01*
X738800Y380710D01*
X738840Y380740D01*
X738880Y380780D01*
X738920Y380810D01*
X738970Y380840D01*
X739010Y380870D01*
X739060Y380890D01*
X739100Y380910D01*
X739150Y380930D01*
X739200Y380950D01*
X739250Y380970D01*
X739300Y380980D01*
X739350Y380990D01*
X739410D01*
X739460Y381000D01*
X743060D01*
X743110Y380990D01*
D02*
G37*
G36*
X736610D02*
X736670D01*
X736720Y380980D01*
X736770Y380970D01*
X736820Y380950D01*
X736870Y380930D01*
X736920Y380910D01*
X736960Y380890D01*
X737010Y380870D01*
X737050Y380840D01*
X737100Y380810D01*
X737140Y380780D01*
X737180Y380740D01*
X737220Y380710D01*
X737250Y380670D01*
X737290Y380630D01*
X737320Y380590D01*
X737350Y380540D01*
X737380Y380500D01*
X737400Y380450D01*
X737420Y380410D01*
X737440Y380360D01*
X737460Y380310D01*
X737480Y380260D01*
X737490Y380210D01*
X737500Y380160D01*
Y380100D01*
X737510Y380050D01*
Y365950D01*
X737500Y365900D01*
Y365840D01*
X737490Y365790D01*
X737480Y365740D01*
X737460Y365690D01*
X737440Y365640D01*
X737420Y365590D01*
X737400Y365550D01*
X737380Y365500D01*
X737350Y365460D01*
X737320Y365410D01*
X737290Y365370D01*
X737250Y365330D01*
X737220Y365290D01*
X737180Y365260D01*
X737140Y365220D01*
X737100Y365190D01*
X737050Y365160D01*
X737010Y365130D01*
X736960Y365110D01*
X736920Y365090D01*
X736870Y365070D01*
X736820Y365050D01*
X736770Y365030D01*
X736720Y365020D01*
X736670Y365010D01*
X736610D01*
X736560Y365000D01*
X732960D01*
X732910Y365010D01*
X732850D01*
X732800Y365020D01*
X732750Y365030D01*
X732700Y365050D01*
X732650Y365070D01*
X732600Y365090D01*
X732560Y365110D01*
X732510Y365130D01*
X732470Y365160D01*
X732420Y365190D01*
X732380Y365220D01*
X732340Y365260D01*
X732300Y365290D01*
X732270Y365330D01*
X732230Y365370D01*
X732200Y365410D01*
X732170Y365460D01*
X732140Y365500D01*
X732120Y365550D01*
X732100Y365590D01*
X732080Y365640D01*
X732060Y365690D01*
X732040Y365740D01*
X732030Y365790D01*
X732020Y365840D01*
Y365900D01*
X732010Y365950D01*
Y380050D01*
X732020Y380100D01*
Y380160D01*
X732030Y380210D01*
X732040Y380260D01*
X732060Y380310D01*
X732080Y380360D01*
X732100Y380410D01*
X732120Y380450D01*
X732140Y380500D01*
X732170Y380540D01*
X732200Y380590D01*
X732230Y380630D01*
X732270Y380670D01*
X732300Y380710D01*
X732340Y380740D01*
X732380Y380780D01*
X732420Y380810D01*
X732470Y380840D01*
X732510Y380870D01*
X732560Y380890D01*
X732600Y380910D01*
X732650Y380930D01*
X732700Y380950D01*
X732750Y380970D01*
X732800Y380980D01*
X732850Y380990D01*
X732910D01*
X732960Y381000D01*
X736560D01*
X736610Y380990D01*
D02*
G37*
G36*
X730110D02*
X730170D01*
X730220Y380980D01*
X730270Y380970D01*
X730320Y380950D01*
X730370Y380930D01*
X730420Y380910D01*
X730460Y380890D01*
X730510Y380870D01*
X730550Y380840D01*
X730600Y380810D01*
X730640Y380780D01*
X730680Y380740D01*
X730720Y380710D01*
X730750Y380670D01*
X730790Y380630D01*
X730820Y380590D01*
X730850Y380540D01*
X730880Y380500D01*
X730900Y380450D01*
X730920Y380410D01*
X730940Y380360D01*
X730960Y380310D01*
X730980Y380260D01*
X730990Y380210D01*
X731000Y380160D01*
Y380100D01*
X731010Y380050D01*
Y365950D01*
X731000Y365900D01*
Y365840D01*
X730990Y365790D01*
X730980Y365740D01*
X730960Y365690D01*
X730940Y365640D01*
X730920Y365590D01*
X730900Y365550D01*
X730880Y365500D01*
X730850Y365460D01*
X730820Y365410D01*
X730790Y365370D01*
X730750Y365330D01*
X730720Y365290D01*
X730680Y365260D01*
X730640Y365220D01*
X730600Y365190D01*
X730550Y365160D01*
X730510Y365130D01*
X730460Y365110D01*
X730420Y365090D01*
X730370Y365070D01*
X730320Y365050D01*
X730270Y365030D01*
X730220Y365020D01*
X730170Y365010D01*
X730110D01*
X730060Y365000D01*
X726460D01*
X726410Y365010D01*
X726350D01*
X726300Y365020D01*
X726250Y365030D01*
X726200Y365050D01*
X726150Y365070D01*
X726100Y365090D01*
X726060Y365110D01*
X726010Y365130D01*
X725970Y365160D01*
X725920Y365190D01*
X725880Y365220D01*
X725840Y365260D01*
X725800Y365290D01*
X725770Y365330D01*
X725730Y365370D01*
X725700Y365410D01*
X725670Y365460D01*
X725640Y365500D01*
X725620Y365550D01*
X725600Y365590D01*
X725580Y365640D01*
X725560Y365690D01*
X725540Y365740D01*
X725530Y365790D01*
X725520Y365840D01*
Y365900D01*
X725510Y365950D01*
Y380050D01*
X725520Y380100D01*
Y380160D01*
X725530Y380210D01*
X725540Y380260D01*
X725560Y380310D01*
X725580Y380360D01*
X725600Y380410D01*
X725620Y380450D01*
X725640Y380500D01*
X725670Y380540D01*
X725700Y380590D01*
X725730Y380630D01*
X725770Y380670D01*
X725800Y380710D01*
X725840Y380740D01*
X725880Y380780D01*
X725920Y380810D01*
X725970Y380840D01*
X726010Y380870D01*
X726060Y380890D01*
X726100Y380910D01*
X726150Y380930D01*
X726200Y380950D01*
X726250Y380970D01*
X726300Y380980D01*
X726350Y380990D01*
X726410D01*
X726460Y381000D01*
X730060D01*
X730110Y380990D01*
D02*
G37*
G36*
X723610D02*
X723670D01*
X723720Y380980D01*
X723770Y380970D01*
X723820Y380950D01*
X723870Y380930D01*
X723920Y380910D01*
X723960Y380890D01*
X724010Y380870D01*
X724050Y380840D01*
X724100Y380810D01*
X724140Y380780D01*
X724180Y380740D01*
X724220Y380710D01*
X724250Y380670D01*
X724290Y380630D01*
X724320Y380590D01*
X724350Y380540D01*
X724380Y380500D01*
X724400Y380450D01*
X724420Y380410D01*
X724440Y380360D01*
X724460Y380310D01*
X724480Y380260D01*
X724490Y380210D01*
X724500Y380160D01*
Y380100D01*
X724510Y380050D01*
Y365950D01*
X724500Y365900D01*
Y365840D01*
X724490Y365790D01*
X724480Y365740D01*
X724460Y365690D01*
X724440Y365640D01*
X724420Y365590D01*
X724400Y365550D01*
X724380Y365500D01*
X724350Y365460D01*
X724320Y365410D01*
X724290Y365370D01*
X724250Y365330D01*
X724220Y365290D01*
X724180Y365260D01*
X724140Y365220D01*
X724100Y365190D01*
X724050Y365160D01*
X724010Y365130D01*
X723960Y365110D01*
X723920Y365090D01*
X723870Y365070D01*
X723820Y365050D01*
X723770Y365030D01*
X723720Y365020D01*
X723670Y365010D01*
X723610D01*
X723560Y365000D01*
X719960D01*
X719910Y365010D01*
X719850D01*
X719800Y365020D01*
X719750Y365030D01*
X719700Y365050D01*
X719650Y365070D01*
X719600Y365090D01*
X719560Y365110D01*
X719510Y365130D01*
X719470Y365160D01*
X719420Y365190D01*
X719380Y365220D01*
X719340Y365260D01*
X719300Y365290D01*
X719270Y365330D01*
X719230Y365370D01*
X719200Y365410D01*
X719170Y365460D01*
X719140Y365500D01*
X719120Y365550D01*
X719100Y365590D01*
X719080Y365640D01*
X719060Y365690D01*
X719040Y365740D01*
X719030Y365790D01*
X719020Y365840D01*
Y365900D01*
X719010Y365950D01*
Y380050D01*
X719020Y380100D01*
Y380160D01*
X719030Y380210D01*
X719040Y380260D01*
X719060Y380310D01*
X719080Y380360D01*
X719100Y380410D01*
X719120Y380450D01*
X719140Y380500D01*
X719170Y380540D01*
X719200Y380590D01*
X719230Y380630D01*
X719270Y380670D01*
X719300Y380710D01*
X719340Y380740D01*
X719380Y380780D01*
X719420Y380810D01*
X719470Y380840D01*
X719510Y380870D01*
X719560Y380890D01*
X719600Y380910D01*
X719650Y380930D01*
X719700Y380950D01*
X719750Y380970D01*
X719800Y380980D01*
X719850Y380990D01*
X719910D01*
X719960Y381000D01*
X723560D01*
X723610Y380990D01*
D02*
G37*
G36*
X717110D02*
X717170D01*
X717220Y380980D01*
X717270Y380970D01*
X717320Y380950D01*
X717370Y380930D01*
X717420Y380910D01*
X717460Y380890D01*
X717510Y380870D01*
X717550Y380840D01*
X717600Y380810D01*
X717640Y380780D01*
X717680Y380740D01*
X717720Y380710D01*
X717750Y380670D01*
X717790Y380630D01*
X717820Y380590D01*
X717850Y380540D01*
X717880Y380500D01*
X717900Y380450D01*
X717920Y380410D01*
X717940Y380360D01*
X717960Y380310D01*
X717980Y380260D01*
X717990Y380210D01*
X718000Y380160D01*
Y380100D01*
X718010Y380050D01*
Y365950D01*
X718000Y365900D01*
Y365840D01*
X717990Y365790D01*
X717980Y365740D01*
X717960Y365690D01*
X717940Y365640D01*
X717920Y365590D01*
X717900Y365550D01*
X717880Y365500D01*
X717850Y365460D01*
X717820Y365410D01*
X717790Y365370D01*
X717750Y365330D01*
X717720Y365290D01*
X717680Y365260D01*
X717640Y365220D01*
X717600Y365190D01*
X717550Y365160D01*
X717510Y365130D01*
X717460Y365110D01*
X717420Y365090D01*
X717370Y365070D01*
X717320Y365050D01*
X717270Y365030D01*
X717220Y365020D01*
X717170Y365010D01*
X717110D01*
X717060Y365000D01*
X713460D01*
X713410Y365010D01*
X713350D01*
X713300Y365020D01*
X713250Y365030D01*
X713200Y365050D01*
X713150Y365070D01*
X713100Y365090D01*
X713060Y365110D01*
X713010Y365130D01*
X712970Y365160D01*
X712920Y365190D01*
X712880Y365220D01*
X712840Y365260D01*
X712800Y365290D01*
X712770Y365330D01*
X712730Y365370D01*
X712700Y365410D01*
X712670Y365460D01*
X712640Y365500D01*
X712620Y365550D01*
X712600Y365590D01*
X712580Y365640D01*
X712560Y365690D01*
X712540Y365740D01*
X712530Y365790D01*
X712520Y365840D01*
Y365900D01*
X712510Y365950D01*
Y380050D01*
X712520Y380100D01*
Y380160D01*
X712530Y380210D01*
X712540Y380260D01*
X712560Y380310D01*
X712580Y380360D01*
X712600Y380410D01*
X712620Y380450D01*
X712640Y380500D01*
X712670Y380540D01*
X712700Y380590D01*
X712730Y380630D01*
X712770Y380670D01*
X712800Y380710D01*
X712840Y380740D01*
X712880Y380780D01*
X712920Y380810D01*
X712970Y380840D01*
X713010Y380870D01*
X713060Y380890D01*
X713100Y380910D01*
X713150Y380930D01*
X713200Y380950D01*
X713250Y380970D01*
X713300Y380980D01*
X713350Y380990D01*
X713410D01*
X713460Y381000D01*
X717060D01*
X717110Y380990D01*
D02*
G37*
G36*
X710610D02*
X710670D01*
X710720Y380980D01*
X710770Y380970D01*
X710820Y380950D01*
X710870Y380930D01*
X710920Y380910D01*
X710960Y380890D01*
X711010Y380870D01*
X711050Y380840D01*
X711100Y380810D01*
X711140Y380780D01*
X711180Y380740D01*
X711220Y380710D01*
X711250Y380670D01*
X711290Y380630D01*
X711320Y380590D01*
X711350Y380540D01*
X711380Y380500D01*
X711400Y380450D01*
X711420Y380410D01*
X711440Y380360D01*
X711460Y380310D01*
X711480Y380260D01*
X711490Y380210D01*
X711500Y380160D01*
Y380100D01*
X711510Y380050D01*
Y365950D01*
X711500Y365900D01*
Y365840D01*
X711490Y365790D01*
X711480Y365740D01*
X711460Y365690D01*
X711440Y365640D01*
X711420Y365590D01*
X711400Y365550D01*
X711380Y365500D01*
X711350Y365460D01*
X711320Y365410D01*
X711290Y365370D01*
X711250Y365330D01*
X711220Y365290D01*
X711180Y365260D01*
X711140Y365220D01*
X711100Y365190D01*
X711050Y365160D01*
X711010Y365130D01*
X710960Y365110D01*
X710920Y365090D01*
X710870Y365070D01*
X710820Y365050D01*
X710770Y365030D01*
X710720Y365020D01*
X710670Y365010D01*
X710610D01*
X710560Y365000D01*
X706960D01*
X706910Y365010D01*
X706850D01*
X706800Y365020D01*
X706750Y365030D01*
X706700Y365050D01*
X706650Y365070D01*
X706600Y365090D01*
X706560Y365110D01*
X706510Y365130D01*
X706470Y365160D01*
X706420Y365190D01*
X706380Y365220D01*
X706340Y365260D01*
X706300Y365290D01*
X706270Y365330D01*
X706230Y365370D01*
X706200Y365410D01*
X706170Y365460D01*
X706140Y365500D01*
X706120Y365550D01*
X706100Y365590D01*
X706080Y365640D01*
X706060Y365690D01*
X706040Y365740D01*
X706030Y365790D01*
X706020Y365840D01*
Y365900D01*
X706010Y365950D01*
Y380050D01*
X706020Y380100D01*
Y380160D01*
X706030Y380210D01*
X706040Y380260D01*
X706060Y380310D01*
X706080Y380360D01*
X706100Y380410D01*
X706120Y380450D01*
X706140Y380500D01*
X706170Y380540D01*
X706200Y380590D01*
X706230Y380630D01*
X706270Y380670D01*
X706300Y380710D01*
X706340Y380740D01*
X706380Y380780D01*
X706420Y380810D01*
X706470Y380840D01*
X706510Y380870D01*
X706560Y380890D01*
X706600Y380910D01*
X706650Y380930D01*
X706700Y380950D01*
X706750Y380970D01*
X706800Y380980D01*
X706850Y380990D01*
X706910D01*
X706960Y381000D01*
X710560D01*
X710610Y380990D01*
D02*
G37*
G36*
X764240Y358780D02*
X764260D01*
X764290Y358770D01*
X764310Y358760D01*
X764340Y358750D01*
X764360Y358730D01*
X764380Y358720D01*
X764400Y358700D01*
X764420Y358690D01*
X764440Y358670D01*
X764460Y358650D01*
X764480Y358630D01*
X764500Y358610D01*
X764510Y358590D01*
X764530Y358570D01*
X764540Y358550D01*
X764560Y358530D01*
X764570Y358500D01*
X764580Y358480D01*
X764590Y358450D01*
Y358430D01*
X764600Y358400D01*
Y358380D01*
Y329620D01*
Y329600D01*
X764590Y329570D01*
Y329550D01*
X764580Y329520D01*
X764570Y329500D01*
X764560Y329470D01*
X764540Y329450D01*
X764530Y329430D01*
X764510Y329410D01*
X764500Y329390D01*
X764480Y329370D01*
X764460Y329350D01*
X764440Y329330D01*
X764420Y329310D01*
X764400Y329300D01*
X764380Y329280D01*
X764360Y329270D01*
X764340Y329250D01*
X764310Y329240D01*
X764290Y329230D01*
X764260Y329220D01*
X764240D01*
X764210Y329210D01*
X724810D01*
X724780Y329220D01*
X724760D01*
X724730Y329230D01*
X724710Y329240D01*
X724680Y329250D01*
X724660Y329270D01*
X724640Y329280D01*
X724620Y329300D01*
X724600Y329310D01*
X724580Y329330D01*
X724560Y329350D01*
X724540Y329370D01*
X724520Y329390D01*
X724510Y329410D01*
X724490Y329430D01*
X724480Y329450D01*
X724460Y329470D01*
X724450Y329500D01*
X724440Y329520D01*
X724430Y329550D01*
Y329570D01*
Y358430D01*
Y358450D01*
X724440Y358480D01*
X724450Y358500D01*
X724460Y358530D01*
X724480Y358550D01*
X724490Y358570D01*
X724510Y358590D01*
X724520Y358610D01*
X724540Y358630D01*
X724560Y358650D01*
X724580Y358670D01*
X724600Y358690D01*
X724620Y358700D01*
X724640Y358720D01*
X724660Y358730D01*
X724680Y358750D01*
X724710Y358760D01*
X724730Y358770D01*
X724760Y358780D01*
X724780D01*
X724810Y358790D01*
X764210D01*
X764240Y358780D01*
D02*
G37*
G36*
X782110Y322990D02*
X782170D01*
X782220Y322980D01*
X782270Y322970D01*
X782320Y322950D01*
X782370Y322930D01*
X782420Y322910D01*
X782460Y322890D01*
X782510Y322870D01*
X782550Y322840D01*
X782600Y322810D01*
X782640Y322780D01*
X782680Y322740D01*
X782720Y322710D01*
X782750Y322670D01*
X782790Y322630D01*
X782820Y322590D01*
X782850Y322540D01*
X782880Y322500D01*
X782900Y322450D01*
X782920Y322410D01*
X782940Y322360D01*
X782960Y322310D01*
X782980Y322260D01*
X782990Y322210D01*
X783000Y322160D01*
Y322100D01*
X783010Y322050D01*
Y307950D01*
X783000Y307900D01*
Y307840D01*
X782990Y307790D01*
X782980Y307740D01*
X782960Y307690D01*
X782940Y307640D01*
X782920Y307590D01*
X782900Y307550D01*
X782880Y307500D01*
X782850Y307460D01*
X782820Y307410D01*
X782790Y307370D01*
X782750Y307330D01*
X782720Y307290D01*
X782680Y307260D01*
X782640Y307220D01*
X782600Y307190D01*
X782550Y307160D01*
X782510Y307130D01*
X782460Y307110D01*
X782420Y307090D01*
X782370Y307070D01*
X782320Y307050D01*
X782270Y307030D01*
X782220Y307020D01*
X782170Y307010D01*
X782110D01*
X782060Y307000D01*
X778460D01*
X778410Y307010D01*
X778350D01*
X778300Y307020D01*
X778250Y307030D01*
X778200Y307050D01*
X778150Y307070D01*
X778100Y307090D01*
X778060Y307110D01*
X778010Y307130D01*
X777970Y307160D01*
X777920Y307190D01*
X777880Y307220D01*
X777840Y307260D01*
X777800Y307290D01*
X777770Y307330D01*
X777730Y307370D01*
X777700Y307410D01*
X777670Y307460D01*
X777640Y307500D01*
X777620Y307550D01*
X777600Y307590D01*
X777580Y307640D01*
X777560Y307690D01*
X777540Y307740D01*
X777530Y307790D01*
X777520Y307840D01*
Y307900D01*
X777510Y307950D01*
Y322050D01*
X777520Y322100D01*
Y322160D01*
X777530Y322210D01*
X777540Y322260D01*
X777560Y322310D01*
X777580Y322360D01*
X777600Y322410D01*
X777620Y322450D01*
X777640Y322500D01*
X777670Y322540D01*
X777700Y322590D01*
X777730Y322630D01*
X777770Y322670D01*
X777800Y322710D01*
X777840Y322740D01*
X777880Y322780D01*
X777920Y322810D01*
X777970Y322840D01*
X778010Y322870D01*
X778060Y322890D01*
X778100Y322910D01*
X778150Y322930D01*
X778200Y322950D01*
X778250Y322970D01*
X778300Y322980D01*
X778350Y322990D01*
X778410D01*
X778460Y323000D01*
X782060D01*
X782110Y322990D01*
D02*
G37*
G36*
X775610D02*
X775670D01*
X775720Y322980D01*
X775770Y322970D01*
X775820Y322950D01*
X775870Y322930D01*
X775920Y322910D01*
X775960Y322890D01*
X776010Y322870D01*
X776050Y322840D01*
X776100Y322810D01*
X776140Y322780D01*
X776180Y322740D01*
X776220Y322710D01*
X776250Y322670D01*
X776290Y322630D01*
X776320Y322590D01*
X776350Y322540D01*
X776380Y322500D01*
X776400Y322450D01*
X776420Y322410D01*
X776440Y322360D01*
X776460Y322310D01*
X776480Y322260D01*
X776490Y322210D01*
X776500Y322160D01*
Y322100D01*
X776510Y322050D01*
Y307950D01*
X776500Y307900D01*
Y307840D01*
X776490Y307790D01*
X776480Y307740D01*
X776460Y307690D01*
X776440Y307640D01*
X776420Y307590D01*
X776400Y307550D01*
X776380Y307500D01*
X776350Y307460D01*
X776320Y307410D01*
X776290Y307370D01*
X776250Y307330D01*
X776220Y307290D01*
X776180Y307260D01*
X776140Y307220D01*
X776100Y307190D01*
X776050Y307160D01*
X776010Y307130D01*
X775960Y307110D01*
X775920Y307090D01*
X775870Y307070D01*
X775820Y307050D01*
X775770Y307030D01*
X775720Y307020D01*
X775670Y307010D01*
X775610D01*
X775560Y307000D01*
X771960D01*
X771910Y307010D01*
X771850D01*
X771800Y307020D01*
X771750Y307030D01*
X771700Y307050D01*
X771650Y307070D01*
X771600Y307090D01*
X771560Y307110D01*
X771510Y307130D01*
X771470Y307160D01*
X771420Y307190D01*
X771380Y307220D01*
X771340Y307260D01*
X771300Y307290D01*
X771270Y307330D01*
X771230Y307370D01*
X771200Y307410D01*
X771170Y307460D01*
X771140Y307500D01*
X771120Y307550D01*
X771100Y307590D01*
X771080Y307640D01*
X771060Y307690D01*
X771040Y307740D01*
X771030Y307790D01*
X771020Y307840D01*
Y307900D01*
X771010Y307950D01*
Y322050D01*
X771020Y322100D01*
Y322160D01*
X771030Y322210D01*
X771040Y322260D01*
X771060Y322310D01*
X771080Y322360D01*
X771100Y322410D01*
X771120Y322450D01*
X771140Y322500D01*
X771170Y322540D01*
X771200Y322590D01*
X771230Y322630D01*
X771270Y322670D01*
X771300Y322710D01*
X771340Y322740D01*
X771380Y322780D01*
X771420Y322810D01*
X771470Y322840D01*
X771510Y322870D01*
X771560Y322890D01*
X771600Y322910D01*
X771650Y322930D01*
X771700Y322950D01*
X771750Y322970D01*
X771800Y322980D01*
X771850Y322990D01*
X771910D01*
X771960Y323000D01*
X775560D01*
X775610Y322990D01*
D02*
G37*
G36*
X769110D02*
X769170D01*
X769220Y322980D01*
X769270Y322970D01*
X769320Y322950D01*
X769370Y322930D01*
X769420Y322910D01*
X769460Y322890D01*
X769510Y322870D01*
X769550Y322840D01*
X769600Y322810D01*
X769640Y322780D01*
X769680Y322740D01*
X769720Y322710D01*
X769750Y322670D01*
X769790Y322630D01*
X769820Y322590D01*
X769850Y322540D01*
X769880Y322500D01*
X769900Y322450D01*
X769920Y322410D01*
X769940Y322360D01*
X769960Y322310D01*
X769980Y322260D01*
X769990Y322210D01*
X770000Y322160D01*
Y322100D01*
X770010Y322050D01*
Y307950D01*
X770000Y307900D01*
Y307840D01*
X769990Y307790D01*
X769980Y307740D01*
X769960Y307690D01*
X769940Y307640D01*
X769920Y307590D01*
X769900Y307550D01*
X769880Y307500D01*
X769850Y307460D01*
X769820Y307410D01*
X769790Y307370D01*
X769750Y307330D01*
X769720Y307290D01*
X769680Y307260D01*
X769640Y307220D01*
X769600Y307190D01*
X769550Y307160D01*
X769510Y307130D01*
X769460Y307110D01*
X769420Y307090D01*
X769370Y307070D01*
X769320Y307050D01*
X769270Y307030D01*
X769220Y307020D01*
X769170Y307010D01*
X769110D01*
X769060Y307000D01*
X765460D01*
X765410Y307010D01*
X765350D01*
X765300Y307020D01*
X765250Y307030D01*
X765200Y307050D01*
X765150Y307070D01*
X765100Y307090D01*
X765060Y307110D01*
X765010Y307130D01*
X764970Y307160D01*
X764920Y307190D01*
X764880Y307220D01*
X764840Y307260D01*
X764800Y307290D01*
X764770Y307330D01*
X764730Y307370D01*
X764700Y307410D01*
X764670Y307460D01*
X764640Y307500D01*
X764620Y307550D01*
X764600Y307590D01*
X764580Y307640D01*
X764560Y307690D01*
X764540Y307740D01*
X764530Y307790D01*
X764520Y307840D01*
Y307900D01*
X764510Y307950D01*
Y322050D01*
X764520Y322100D01*
Y322160D01*
X764530Y322210D01*
X764540Y322260D01*
X764560Y322310D01*
X764580Y322360D01*
X764600Y322410D01*
X764620Y322450D01*
X764640Y322500D01*
X764670Y322540D01*
X764700Y322590D01*
X764730Y322630D01*
X764770Y322670D01*
X764800Y322710D01*
X764840Y322740D01*
X764880Y322780D01*
X764920Y322810D01*
X764970Y322840D01*
X765010Y322870D01*
X765060Y322890D01*
X765100Y322910D01*
X765150Y322930D01*
X765200Y322950D01*
X765250Y322970D01*
X765300Y322980D01*
X765350Y322990D01*
X765410D01*
X765460Y323000D01*
X769060D01*
X769110Y322990D01*
D02*
G37*
G36*
X762610D02*
X762670D01*
X762720Y322980D01*
X762770Y322970D01*
X762820Y322950D01*
X762870Y322930D01*
X762920Y322910D01*
X762960Y322890D01*
X763010Y322870D01*
X763050Y322840D01*
X763100Y322810D01*
X763140Y322780D01*
X763180Y322740D01*
X763220Y322710D01*
X763250Y322670D01*
X763290Y322630D01*
X763320Y322590D01*
X763350Y322540D01*
X763380Y322500D01*
X763400Y322450D01*
X763420Y322410D01*
X763440Y322360D01*
X763460Y322310D01*
X763480Y322260D01*
X763490Y322210D01*
X763500Y322160D01*
Y322100D01*
X763510Y322050D01*
Y307950D01*
X763500Y307900D01*
Y307840D01*
X763490Y307790D01*
X763480Y307740D01*
X763460Y307690D01*
X763440Y307640D01*
X763420Y307590D01*
X763400Y307550D01*
X763380Y307500D01*
X763350Y307460D01*
X763320Y307410D01*
X763290Y307370D01*
X763250Y307330D01*
X763220Y307290D01*
X763180Y307260D01*
X763140Y307220D01*
X763100Y307190D01*
X763050Y307160D01*
X763010Y307130D01*
X762960Y307110D01*
X762920Y307090D01*
X762870Y307070D01*
X762820Y307050D01*
X762770Y307030D01*
X762720Y307020D01*
X762670Y307010D01*
X762610D01*
X762560Y307000D01*
X758960D01*
X758910Y307010D01*
X758850D01*
X758800Y307020D01*
X758750Y307030D01*
X758700Y307050D01*
X758650Y307070D01*
X758600Y307090D01*
X758560Y307110D01*
X758510Y307130D01*
X758470Y307160D01*
X758420Y307190D01*
X758380Y307220D01*
X758340Y307260D01*
X758300Y307290D01*
X758270Y307330D01*
X758230Y307370D01*
X758200Y307410D01*
X758170Y307460D01*
X758140Y307500D01*
X758120Y307550D01*
X758100Y307590D01*
X758080Y307640D01*
X758060Y307690D01*
X758040Y307740D01*
X758030Y307790D01*
X758020Y307840D01*
Y307900D01*
X758010Y307950D01*
Y322050D01*
X758020Y322100D01*
Y322160D01*
X758030Y322210D01*
X758040Y322260D01*
X758060Y322310D01*
X758080Y322360D01*
X758100Y322410D01*
X758120Y322450D01*
X758140Y322500D01*
X758170Y322540D01*
X758200Y322590D01*
X758230Y322630D01*
X758270Y322670D01*
X758300Y322710D01*
X758340Y322740D01*
X758380Y322780D01*
X758420Y322810D01*
X758470Y322840D01*
X758510Y322870D01*
X758560Y322890D01*
X758600Y322910D01*
X758650Y322930D01*
X758700Y322950D01*
X758750Y322970D01*
X758800Y322980D01*
X758850Y322990D01*
X758910D01*
X758960Y323000D01*
X762560D01*
X762610Y322990D01*
D02*
G37*
G36*
X756110D02*
X756170D01*
X756220Y322980D01*
X756270Y322970D01*
X756320Y322950D01*
X756370Y322930D01*
X756420Y322910D01*
X756460Y322890D01*
X756510Y322870D01*
X756550Y322840D01*
X756600Y322810D01*
X756640Y322780D01*
X756680Y322740D01*
X756720Y322710D01*
X756750Y322670D01*
X756790Y322630D01*
X756820Y322590D01*
X756850Y322540D01*
X756880Y322500D01*
X756900Y322450D01*
X756920Y322410D01*
X756940Y322360D01*
X756960Y322310D01*
X756980Y322260D01*
X756990Y322210D01*
X757000Y322160D01*
Y322100D01*
X757010Y322050D01*
Y307950D01*
X757000Y307900D01*
Y307840D01*
X756990Y307790D01*
X756980Y307740D01*
X756960Y307690D01*
X756940Y307640D01*
X756920Y307590D01*
X756900Y307550D01*
X756880Y307500D01*
X756850Y307460D01*
X756820Y307410D01*
X756790Y307370D01*
X756750Y307330D01*
X756720Y307290D01*
X756680Y307260D01*
X756640Y307220D01*
X756600Y307190D01*
X756550Y307160D01*
X756510Y307130D01*
X756460Y307110D01*
X756420Y307090D01*
X756370Y307070D01*
X756320Y307050D01*
X756270Y307030D01*
X756220Y307020D01*
X756170Y307010D01*
X756110D01*
X756060Y307000D01*
X752460D01*
X752410Y307010D01*
X752350D01*
X752300Y307020D01*
X752250Y307030D01*
X752200Y307050D01*
X752150Y307070D01*
X752100Y307090D01*
X752060Y307110D01*
X752010Y307130D01*
X751970Y307160D01*
X751920Y307190D01*
X751880Y307220D01*
X751840Y307260D01*
X751800Y307290D01*
X751770Y307330D01*
X751730Y307370D01*
X751700Y307410D01*
X751670Y307460D01*
X751640Y307500D01*
X751620Y307550D01*
X751600Y307590D01*
X751580Y307640D01*
X751560Y307690D01*
X751540Y307740D01*
X751530Y307790D01*
X751520Y307840D01*
Y307900D01*
X751510Y307950D01*
Y322050D01*
X751520Y322100D01*
Y322160D01*
X751530Y322210D01*
X751540Y322260D01*
X751560Y322310D01*
X751580Y322360D01*
X751600Y322410D01*
X751620Y322450D01*
X751640Y322500D01*
X751670Y322540D01*
X751700Y322590D01*
X751730Y322630D01*
X751770Y322670D01*
X751800Y322710D01*
X751840Y322740D01*
X751880Y322780D01*
X751920Y322810D01*
X751970Y322840D01*
X752010Y322870D01*
X752060Y322890D01*
X752100Y322910D01*
X752150Y322930D01*
X752200Y322950D01*
X752250Y322970D01*
X752300Y322980D01*
X752350Y322990D01*
X752410D01*
X752460Y323000D01*
X756060D01*
X756110Y322990D01*
D02*
G37*
G36*
X749610D02*
X749670D01*
X749720Y322980D01*
X749770Y322970D01*
X749820Y322950D01*
X749870Y322930D01*
X749920Y322910D01*
X749960Y322890D01*
X750010Y322870D01*
X750050Y322840D01*
X750100Y322810D01*
X750140Y322780D01*
X750180Y322740D01*
X750220Y322710D01*
X750250Y322670D01*
X750290Y322630D01*
X750320Y322590D01*
X750350Y322540D01*
X750380Y322500D01*
X750400Y322450D01*
X750420Y322410D01*
X750440Y322360D01*
X750460Y322310D01*
X750480Y322260D01*
X750490Y322210D01*
X750500Y322160D01*
Y322100D01*
X750510Y322050D01*
Y307950D01*
X750500Y307900D01*
Y307840D01*
X750490Y307790D01*
X750480Y307740D01*
X750460Y307690D01*
X750440Y307640D01*
X750420Y307590D01*
X750400Y307550D01*
X750380Y307500D01*
X750350Y307460D01*
X750320Y307410D01*
X750290Y307370D01*
X750250Y307330D01*
X750220Y307290D01*
X750180Y307260D01*
X750140Y307220D01*
X750100Y307190D01*
X750050Y307160D01*
X750010Y307130D01*
X749960Y307110D01*
X749920Y307090D01*
X749870Y307070D01*
X749820Y307050D01*
X749770Y307030D01*
X749720Y307020D01*
X749670Y307010D01*
X749610D01*
X749560Y307000D01*
X745960D01*
X745910Y307010D01*
X745850D01*
X745800Y307020D01*
X745750Y307030D01*
X745700Y307050D01*
X745650Y307070D01*
X745600Y307090D01*
X745560Y307110D01*
X745510Y307130D01*
X745470Y307160D01*
X745420Y307190D01*
X745380Y307220D01*
X745340Y307260D01*
X745300Y307290D01*
X745270Y307330D01*
X745230Y307370D01*
X745200Y307410D01*
X745170Y307460D01*
X745140Y307500D01*
X745120Y307550D01*
X745100Y307590D01*
X745080Y307640D01*
X745060Y307690D01*
X745040Y307740D01*
X745030Y307790D01*
X745020Y307840D01*
Y307900D01*
X745010Y307950D01*
Y322050D01*
X745020Y322100D01*
Y322160D01*
X745030Y322210D01*
X745040Y322260D01*
X745060Y322310D01*
X745080Y322360D01*
X745100Y322410D01*
X745120Y322450D01*
X745140Y322500D01*
X745170Y322540D01*
X745200Y322590D01*
X745230Y322630D01*
X745270Y322670D01*
X745300Y322710D01*
X745340Y322740D01*
X745380Y322780D01*
X745420Y322810D01*
X745470Y322840D01*
X745510Y322870D01*
X745560Y322890D01*
X745600Y322910D01*
X745650Y322930D01*
X745700Y322950D01*
X745750Y322970D01*
X745800Y322980D01*
X745850Y322990D01*
X745910D01*
X745960Y323000D01*
X749560D01*
X749610Y322990D01*
D02*
G37*
G36*
X743110D02*
X743170D01*
X743220Y322980D01*
X743270Y322970D01*
X743320Y322950D01*
X743370Y322930D01*
X743420Y322910D01*
X743460Y322890D01*
X743510Y322870D01*
X743550Y322840D01*
X743600Y322810D01*
X743640Y322780D01*
X743680Y322740D01*
X743720Y322710D01*
X743750Y322670D01*
X743790Y322630D01*
X743820Y322590D01*
X743850Y322540D01*
X743880Y322500D01*
X743900Y322450D01*
X743920Y322410D01*
X743940Y322360D01*
X743960Y322310D01*
X743980Y322260D01*
X743990Y322210D01*
X744000Y322160D01*
Y322100D01*
X744010Y322050D01*
Y307950D01*
X744000Y307900D01*
Y307840D01*
X743990Y307790D01*
X743980Y307740D01*
X743960Y307690D01*
X743940Y307640D01*
X743920Y307590D01*
X743900Y307550D01*
X743880Y307500D01*
X743850Y307460D01*
X743820Y307410D01*
X743790Y307370D01*
X743750Y307330D01*
X743720Y307290D01*
X743680Y307260D01*
X743640Y307220D01*
X743600Y307190D01*
X743550Y307160D01*
X743510Y307130D01*
X743460Y307110D01*
X743420Y307090D01*
X743370Y307070D01*
X743320Y307050D01*
X743270Y307030D01*
X743220Y307020D01*
X743170Y307010D01*
X743110D01*
X743060Y307000D01*
X739460D01*
X739410Y307010D01*
X739350D01*
X739300Y307020D01*
X739250Y307030D01*
X739200Y307050D01*
X739150Y307070D01*
X739100Y307090D01*
X739060Y307110D01*
X739010Y307130D01*
X738970Y307160D01*
X738920Y307190D01*
X738880Y307220D01*
X738840Y307260D01*
X738800Y307290D01*
X738770Y307330D01*
X738730Y307370D01*
X738700Y307410D01*
X738670Y307460D01*
X738640Y307500D01*
X738620Y307550D01*
X738600Y307590D01*
X738580Y307640D01*
X738560Y307690D01*
X738540Y307740D01*
X738530Y307790D01*
X738520Y307840D01*
Y307900D01*
X738510Y307950D01*
Y322050D01*
X738520Y322100D01*
Y322160D01*
X738530Y322210D01*
X738540Y322260D01*
X738560Y322310D01*
X738580Y322360D01*
X738600Y322410D01*
X738620Y322450D01*
X738640Y322500D01*
X738670Y322540D01*
X738700Y322590D01*
X738730Y322630D01*
X738770Y322670D01*
X738800Y322710D01*
X738840Y322740D01*
X738880Y322780D01*
X738920Y322810D01*
X738970Y322840D01*
X739010Y322870D01*
X739060Y322890D01*
X739100Y322910D01*
X739150Y322930D01*
X739200Y322950D01*
X739250Y322970D01*
X739300Y322980D01*
X739350Y322990D01*
X739410D01*
X739460Y323000D01*
X743060D01*
X743110Y322990D01*
D02*
G37*
G36*
X736610D02*
X736670D01*
X736720Y322980D01*
X736770Y322970D01*
X736820Y322950D01*
X736870Y322930D01*
X736920Y322910D01*
X736960Y322890D01*
X737010Y322870D01*
X737050Y322840D01*
X737100Y322810D01*
X737140Y322780D01*
X737180Y322740D01*
X737220Y322710D01*
X737250Y322670D01*
X737290Y322630D01*
X737320Y322590D01*
X737350Y322540D01*
X737380Y322500D01*
X737400Y322450D01*
X737420Y322410D01*
X737440Y322360D01*
X737460Y322310D01*
X737480Y322260D01*
X737490Y322210D01*
X737500Y322160D01*
Y322100D01*
X737510Y322050D01*
Y307950D01*
X737500Y307900D01*
Y307840D01*
X737490Y307790D01*
X737480Y307740D01*
X737460Y307690D01*
X737440Y307640D01*
X737420Y307590D01*
X737400Y307550D01*
X737380Y307500D01*
X737350Y307460D01*
X737320Y307410D01*
X737290Y307370D01*
X737250Y307330D01*
X737220Y307290D01*
X737180Y307260D01*
X737140Y307220D01*
X737100Y307190D01*
X737050Y307160D01*
X737010Y307130D01*
X736960Y307110D01*
X736920Y307090D01*
X736870Y307070D01*
X736820Y307050D01*
X736770Y307030D01*
X736720Y307020D01*
X736670Y307010D01*
X736610D01*
X736560Y307000D01*
X732960D01*
X732910Y307010D01*
X732850D01*
X732800Y307020D01*
X732750Y307030D01*
X732700Y307050D01*
X732650Y307070D01*
X732600Y307090D01*
X732560Y307110D01*
X732510Y307130D01*
X732470Y307160D01*
X732420Y307190D01*
X732380Y307220D01*
X732340Y307260D01*
X732300Y307290D01*
X732270Y307330D01*
X732230Y307370D01*
X732200Y307410D01*
X732170Y307460D01*
X732140Y307500D01*
X732120Y307550D01*
X732100Y307590D01*
X732080Y307640D01*
X732060Y307690D01*
X732040Y307740D01*
X732030Y307790D01*
X732020Y307840D01*
Y307900D01*
X732010Y307950D01*
Y322050D01*
X732020Y322100D01*
Y322160D01*
X732030Y322210D01*
X732040Y322260D01*
X732060Y322310D01*
X732080Y322360D01*
X732100Y322410D01*
X732120Y322450D01*
X732140Y322500D01*
X732170Y322540D01*
X732200Y322590D01*
X732230Y322630D01*
X732270Y322670D01*
X732300Y322710D01*
X732340Y322740D01*
X732380Y322780D01*
X732420Y322810D01*
X732470Y322840D01*
X732510Y322870D01*
X732560Y322890D01*
X732600Y322910D01*
X732650Y322930D01*
X732700Y322950D01*
X732750Y322970D01*
X732800Y322980D01*
X732850Y322990D01*
X732910D01*
X732960Y323000D01*
X736560D01*
X736610Y322990D01*
D02*
G37*
G36*
X730110D02*
X730170D01*
X730220Y322980D01*
X730270Y322970D01*
X730320Y322950D01*
X730370Y322930D01*
X730420Y322910D01*
X730460Y322890D01*
X730510Y322870D01*
X730550Y322840D01*
X730600Y322810D01*
X730640Y322780D01*
X730680Y322740D01*
X730720Y322710D01*
X730750Y322670D01*
X730790Y322630D01*
X730820Y322590D01*
X730850Y322540D01*
X730880Y322500D01*
X730900Y322450D01*
X730920Y322410D01*
X730940Y322360D01*
X730960Y322310D01*
X730980Y322260D01*
X730990Y322210D01*
X731000Y322160D01*
Y322100D01*
X731010Y322050D01*
Y307950D01*
X731000Y307900D01*
Y307840D01*
X730990Y307790D01*
X730980Y307740D01*
X730960Y307690D01*
X730940Y307640D01*
X730920Y307590D01*
X730900Y307550D01*
X730880Y307500D01*
X730850Y307460D01*
X730820Y307410D01*
X730790Y307370D01*
X730750Y307330D01*
X730720Y307290D01*
X730680Y307260D01*
X730640Y307220D01*
X730600Y307190D01*
X730550Y307160D01*
X730510Y307130D01*
X730460Y307110D01*
X730420Y307090D01*
X730370Y307070D01*
X730320Y307050D01*
X730270Y307030D01*
X730220Y307020D01*
X730170Y307010D01*
X730110D01*
X730060Y307000D01*
X726460D01*
X726410Y307010D01*
X726350D01*
X726300Y307020D01*
X726250Y307030D01*
X726200Y307050D01*
X726150Y307070D01*
X726100Y307090D01*
X726060Y307110D01*
X726010Y307130D01*
X725970Y307160D01*
X725920Y307190D01*
X725880Y307220D01*
X725840Y307260D01*
X725800Y307290D01*
X725770Y307330D01*
X725730Y307370D01*
X725700Y307410D01*
X725670Y307460D01*
X725640Y307500D01*
X725620Y307550D01*
X725600Y307590D01*
X725580Y307640D01*
X725560Y307690D01*
X725540Y307740D01*
X725530Y307790D01*
X725520Y307840D01*
Y307900D01*
X725510Y307950D01*
Y322050D01*
X725520Y322100D01*
Y322160D01*
X725530Y322210D01*
X725540Y322260D01*
X725560Y322310D01*
X725580Y322360D01*
X725600Y322410D01*
X725620Y322450D01*
X725640Y322500D01*
X725670Y322540D01*
X725700Y322590D01*
X725730Y322630D01*
X725770Y322670D01*
X725800Y322710D01*
X725840Y322740D01*
X725880Y322780D01*
X725920Y322810D01*
X725970Y322840D01*
X726010Y322870D01*
X726060Y322890D01*
X726100Y322910D01*
X726150Y322930D01*
X726200Y322950D01*
X726250Y322970D01*
X726300Y322980D01*
X726350Y322990D01*
X726410D01*
X726460Y323000D01*
X730060D01*
X730110Y322990D01*
D02*
G37*
G36*
X723610D02*
X723670D01*
X723720Y322980D01*
X723770Y322970D01*
X723820Y322950D01*
X723870Y322930D01*
X723920Y322910D01*
X723960Y322890D01*
X724010Y322870D01*
X724050Y322840D01*
X724100Y322810D01*
X724140Y322780D01*
X724180Y322740D01*
X724220Y322710D01*
X724250Y322670D01*
X724290Y322630D01*
X724320Y322590D01*
X724350Y322540D01*
X724380Y322500D01*
X724400Y322450D01*
X724420Y322410D01*
X724440Y322360D01*
X724460Y322310D01*
X724480Y322260D01*
X724490Y322210D01*
X724500Y322160D01*
Y322100D01*
X724510Y322050D01*
Y307950D01*
X724500Y307900D01*
Y307840D01*
X724490Y307790D01*
X724480Y307740D01*
X724460Y307690D01*
X724440Y307640D01*
X724420Y307590D01*
X724400Y307550D01*
X724380Y307500D01*
X724350Y307460D01*
X724320Y307410D01*
X724290Y307370D01*
X724250Y307330D01*
X724220Y307290D01*
X724180Y307260D01*
X724140Y307220D01*
X724100Y307190D01*
X724050Y307160D01*
X724010Y307130D01*
X723960Y307110D01*
X723920Y307090D01*
X723870Y307070D01*
X723820Y307050D01*
X723770Y307030D01*
X723720Y307020D01*
X723670Y307010D01*
X723610D01*
X723560Y307000D01*
X719960D01*
X719910Y307010D01*
X719850D01*
X719800Y307020D01*
X719750Y307030D01*
X719700Y307050D01*
X719650Y307070D01*
X719600Y307090D01*
X719560Y307110D01*
X719510Y307130D01*
X719470Y307160D01*
X719420Y307190D01*
X719380Y307220D01*
X719340Y307260D01*
X719300Y307290D01*
X719270Y307330D01*
X719230Y307370D01*
X719200Y307410D01*
X719170Y307460D01*
X719140Y307500D01*
X719120Y307550D01*
X719100Y307590D01*
X719080Y307640D01*
X719060Y307690D01*
X719040Y307740D01*
X719030Y307790D01*
X719020Y307840D01*
Y307900D01*
X719010Y307950D01*
Y322050D01*
X719020Y322100D01*
Y322160D01*
X719030Y322210D01*
X719040Y322260D01*
X719060Y322310D01*
X719080Y322360D01*
X719100Y322410D01*
X719120Y322450D01*
X719140Y322500D01*
X719170Y322540D01*
X719200Y322590D01*
X719230Y322630D01*
X719270Y322670D01*
X719300Y322710D01*
X719340Y322740D01*
X719380Y322780D01*
X719420Y322810D01*
X719470Y322840D01*
X719510Y322870D01*
X719560Y322890D01*
X719600Y322910D01*
X719650Y322930D01*
X719700Y322950D01*
X719750Y322970D01*
X719800Y322980D01*
X719850Y322990D01*
X719910D01*
X719960Y323000D01*
X723560D01*
X723610Y322990D01*
D02*
G37*
G36*
X717110D02*
X717170D01*
X717220Y322980D01*
X717270Y322970D01*
X717320Y322950D01*
X717370Y322930D01*
X717420Y322910D01*
X717460Y322890D01*
X717510Y322870D01*
X717550Y322840D01*
X717600Y322810D01*
X717640Y322780D01*
X717680Y322740D01*
X717720Y322710D01*
X717750Y322670D01*
X717790Y322630D01*
X717820Y322590D01*
X717850Y322540D01*
X717880Y322500D01*
X717900Y322450D01*
X717920Y322410D01*
X717940Y322360D01*
X717960Y322310D01*
X717980Y322260D01*
X717990Y322210D01*
X718000Y322160D01*
Y322100D01*
X718010Y322050D01*
Y307950D01*
X718000Y307900D01*
Y307840D01*
X717990Y307790D01*
X717980Y307740D01*
X717960Y307690D01*
X717940Y307640D01*
X717920Y307590D01*
X717900Y307550D01*
X717880Y307500D01*
X717850Y307460D01*
X717820Y307410D01*
X717790Y307370D01*
X717750Y307330D01*
X717720Y307290D01*
X717680Y307260D01*
X717640Y307220D01*
X717600Y307190D01*
X717550Y307160D01*
X717510Y307130D01*
X717460Y307110D01*
X717420Y307090D01*
X717370Y307070D01*
X717320Y307050D01*
X717270Y307030D01*
X717220Y307020D01*
X717170Y307010D01*
X717110D01*
X717060Y307000D01*
X713460D01*
X713410Y307010D01*
X713350D01*
X713300Y307020D01*
X713250Y307030D01*
X713200Y307050D01*
X713150Y307070D01*
X713100Y307090D01*
X713060Y307110D01*
X713010Y307130D01*
X712970Y307160D01*
X712920Y307190D01*
X712880Y307220D01*
X712840Y307260D01*
X712800Y307290D01*
X712770Y307330D01*
X712730Y307370D01*
X712700Y307410D01*
X712670Y307460D01*
X712640Y307500D01*
X712620Y307550D01*
X712600Y307590D01*
X712580Y307640D01*
X712560Y307690D01*
X712540Y307740D01*
X712530Y307790D01*
X712520Y307840D01*
Y307900D01*
X712510Y307950D01*
Y322050D01*
X712520Y322100D01*
Y322160D01*
X712530Y322210D01*
X712540Y322260D01*
X712560Y322310D01*
X712580Y322360D01*
X712600Y322410D01*
X712620Y322450D01*
X712640Y322500D01*
X712670Y322540D01*
X712700Y322590D01*
X712730Y322630D01*
X712770Y322670D01*
X712800Y322710D01*
X712840Y322740D01*
X712880Y322780D01*
X712920Y322810D01*
X712970Y322840D01*
X713010Y322870D01*
X713060Y322890D01*
X713100Y322910D01*
X713150Y322930D01*
X713200Y322950D01*
X713250Y322970D01*
X713300Y322980D01*
X713350Y322990D01*
X713410D01*
X713460Y323000D01*
X717060D01*
X717110Y322990D01*
D02*
G37*
G36*
X710610D02*
X710670D01*
X710720Y322980D01*
X710770Y322970D01*
X710820Y322950D01*
X710870Y322930D01*
X710920Y322910D01*
X710960Y322890D01*
X711010Y322870D01*
X711050Y322840D01*
X711100Y322810D01*
X711140Y322780D01*
X711180Y322740D01*
X711220Y322710D01*
X711250Y322670D01*
X711290Y322630D01*
X711320Y322590D01*
X711350Y322540D01*
X711380Y322500D01*
X711400Y322450D01*
X711420Y322410D01*
X711440Y322360D01*
X711460Y322310D01*
X711480Y322260D01*
X711490Y322210D01*
X711500Y322160D01*
Y322100D01*
X711510Y322050D01*
Y307950D01*
X711500Y307900D01*
Y307840D01*
X711490Y307790D01*
X711480Y307740D01*
X711460Y307690D01*
X711440Y307640D01*
X711420Y307590D01*
X711400Y307550D01*
X711380Y307500D01*
X711350Y307460D01*
X711320Y307410D01*
X711290Y307370D01*
X711250Y307330D01*
X711220Y307290D01*
X711180Y307260D01*
X711140Y307220D01*
X711100Y307190D01*
X711050Y307160D01*
X711010Y307130D01*
X710960Y307110D01*
X710920Y307090D01*
X710870Y307070D01*
X710820Y307050D01*
X710770Y307030D01*
X710720Y307020D01*
X710670Y307010D01*
X710610D01*
X710560Y307000D01*
X706960D01*
X706910Y307010D01*
X706850D01*
X706800Y307020D01*
X706750Y307030D01*
X706700Y307050D01*
X706650Y307070D01*
X706600Y307090D01*
X706560Y307110D01*
X706510Y307130D01*
X706470Y307160D01*
X706420Y307190D01*
X706380Y307220D01*
X706340Y307260D01*
X706300Y307290D01*
X706270Y307330D01*
X706230Y307370D01*
X706200Y307410D01*
X706170Y307460D01*
X706140Y307500D01*
X706120Y307550D01*
X706100Y307590D01*
X706080Y307640D01*
X706060Y307690D01*
X706040Y307740D01*
X706030Y307790D01*
X706020Y307840D01*
Y307900D01*
X706010Y307950D01*
Y322050D01*
X706020Y322100D01*
Y322160D01*
X706030Y322210D01*
X706040Y322260D01*
X706060Y322310D01*
X706080Y322360D01*
X706100Y322410D01*
X706120Y322450D01*
X706140Y322500D01*
X706170Y322540D01*
X706200Y322590D01*
X706230Y322630D01*
X706270Y322670D01*
X706300Y322710D01*
X706340Y322740D01*
X706380Y322780D01*
X706420Y322810D01*
X706470Y322840D01*
X706510Y322870D01*
X706560Y322890D01*
X706600Y322910D01*
X706650Y322930D01*
X706700Y322950D01*
X706750Y322970D01*
X706800Y322980D01*
X706850Y322990D01*
X706910D01*
X706960Y323000D01*
X710560D01*
X710610Y322990D01*
D02*
G37*
%LPC*%
G36*
X525333Y699026D02*
X525285Y698977D01*
X525337Y698925D01*
X525336Y698930D01*
X525332Y698996D01*
X525332Y699000D01*
X525332Y699004D01*
X525333Y699026D01*
D02*
G37*
%LPD*%
D52*
X790341Y62134D02*
D03*
Y87534D02*
D03*
Y74834D02*
D03*
X735859Y87534D02*
D03*
Y49434D02*
D03*
X790341D02*
D03*
X735859Y74834D02*
D03*
Y62134D02*
D03*
D57*
X626203Y684497D02*
D03*
X636203Y732503D02*
D03*
X736434Y787166D02*
D03*
X741434D02*
D03*
X746434D02*
D03*
X751434D02*
D03*
X756434D02*
D03*
X761434D02*
D03*
X766434D02*
D03*
X771434D02*
D03*
Y739160D02*
D03*
X766434D02*
D03*
X761434D02*
D03*
X756434D02*
D03*
X751434D02*
D03*
X746434D02*
D03*
X741434D02*
D03*
X736434D02*
D03*
X616203Y684497D02*
D03*
Y732503D02*
D03*
X621203Y684497D02*
D03*
X646203Y732503D02*
D03*
X636203Y684497D02*
D03*
X626203Y732503D02*
D03*
X631203D02*
D03*
X641203D02*
D03*
X621203D02*
D03*
X651203D02*
D03*
X631203Y684497D02*
D03*
X646203D02*
D03*
X641203D02*
D03*
X651203D02*
D03*
D59*
X729931Y765663D02*
D03*
X777937Y755663D02*
D03*
X729931Y780663D02*
D03*
X777937D02*
D03*
Y775663D02*
D03*
Y770663D02*
D03*
Y765663D02*
D03*
Y760663D02*
D03*
Y750663D02*
D03*
Y745663D02*
D03*
X729931D02*
D03*
Y750663D02*
D03*
Y755663D02*
D03*
Y760663D02*
D03*
Y770663D02*
D03*
Y775663D02*
D03*
X657706Y726000D02*
D03*
X609700D02*
D03*
Y711000D02*
D03*
X657706Y706000D02*
D03*
Y711000D02*
D03*
X609700Y706000D02*
D03*
X657706Y691000D02*
D03*
X609700D02*
D03*
Y696000D02*
D03*
Y701000D02*
D03*
Y716000D02*
D03*
Y721000D02*
D03*
X657706Y696000D02*
D03*
Y701000D02*
D03*
Y716000D02*
D03*
Y721000D02*
D03*
D71*
X10000Y34540D02*
G03*
X32000Y12540I22000J0D01*
G01*
X215606Y28536D02*
G03*
X198111Y12540I394J-17996D01*
G01*
X31627Y892537D02*
G03*
X10000Y870540I373J-21997D01*
G01*
X198005Y892536D02*
G03*
X215608Y876538I17889J2000D01*
G01*
X731889Y12540D02*
G03*
X714285Y28538I-17889J-2000D01*
G01*
X898000Y12540D02*
G03*
X920000Y34540I0J22000D01*
G01*
X904000Y150492D02*
G03*
X920000Y132652I18000J48D01*
G01*
X714287Y876541D02*
G03*
X731782Y892536I-394J17996D01*
G01*
X920000Y777499D02*
G03*
X904000Y759611I2000J-17889D01*
G01*
X920000Y870598D02*
G03*
X898151Y892540I-22000J-58D01*
G01*
X52431Y12540D02*
X61431D01*
X70431D01*
X9999Y34673D02*
Y43065D01*
X32000Y12540D02*
X43431D01*
X52431D01*
X88431D02*
X97431D01*
X106431D01*
X70431D02*
X79431D01*
X88431D01*
X124431D02*
X133431D01*
X142431D01*
X106431D02*
X115431D01*
X124431D01*
X9999Y43065D02*
Y52065D01*
Y61065D01*
Y70065D02*
Y79065D01*
Y88065D02*
Y97065D01*
Y79065D02*
Y88065D01*
Y61065D02*
Y70065D01*
X169431Y12540D02*
X178431D01*
X187430D01*
X151431D02*
X160431D01*
X169431D01*
X142431D02*
X151431D01*
X187430D02*
X198111D01*
X215900Y28540D02*
X225873D01*
X234873D01*
X306873D02*
X315872D01*
X324873D01*
X252873D02*
X261873D01*
X270873D01*
X234873D02*
X243873D01*
X252873D01*
X288873D02*
X297873D01*
X306873D01*
X270873D02*
X279873D01*
X288873D01*
X378872Y28540D02*
X387872D01*
X396872D01*
X333872Y28540D02*
X342872D01*
X351872D01*
X324873D02*
X333872D01*
X360872D02*
X369872Y28540D01*
X378872D01*
X351872Y28540D02*
X360872D01*
X405872Y28540D02*
X414872D01*
X423872D01*
X396872D02*
X405872D01*
X441872D02*
X450872D01*
X459872D01*
X423872D02*
X432872D01*
X441872D01*
X477872D02*
X486872D01*
X495872D01*
X468872D02*
X477872D01*
X495872D02*
X509746D01*
X513872Y28540D01*
X459872Y28540D02*
X468872D01*
X513872Y28540D02*
X522872Y28540D01*
X531872Y28540D01*
X10000Y828627D02*
Y837627D01*
Y819627D02*
Y828627D01*
Y837627D02*
Y846627D01*
Y855627D01*
Y864627D02*
Y870540D01*
Y855627D02*
Y864627D01*
X37023Y892536D02*
X46023D01*
X55023D01*
X31745D02*
X37023D01*
X55023D02*
X64023D01*
X73023D01*
X82023D02*
X91023D01*
X100023D01*
X73023D02*
X82023D01*
X127023D02*
X136023D01*
X145023D01*
X100023D02*
X109023D01*
X118023D02*
X127023D01*
X109023D02*
X118023D01*
X215899Y876534D02*
X219902Y876534D01*
X228902Y876534D01*
X237902Y876534D01*
X246902Y876535D01*
X255902Y876535D01*
X145023Y892536D02*
X154023D01*
X163023D01*
X181023D02*
X190023D01*
X198005D01*
X163023D02*
X172023D01*
X181023D01*
X255902Y876535D02*
X264902Y876535D01*
X273902Y876535D01*
X282902Y876535D01*
X291902Y876535D01*
X300902Y876535D01*
X309902Y876535D01*
X318902Y876535D01*
X327902Y876535D01*
X336902Y876535D01*
X345902Y876535D01*
X354902Y876535D01*
X363902Y876536D01*
X372902Y876536D01*
X381190Y876536D01*
X381902D01*
X390902Y876536D01*
X399902Y876536D01*
X408902Y876536D01*
X417902Y876536D01*
X420147Y876536D01*
X426902D01*
X435902D01*
X444902D01*
X453902D01*
X462902D01*
X471902D02*
X480902D01*
X489902D01*
X462902D02*
X471902D01*
X516902D02*
X525902D01*
X534902D01*
X489902D02*
X498902D01*
X507902D02*
X516902D01*
X498902D02*
X507902D01*
X531872Y28540D02*
X540872Y28540D01*
X549872Y28540D01*
X558872Y28540D01*
X567872Y28541D01*
X576872Y28541D01*
X585872Y28541D01*
X594872Y28541D01*
X603872Y28541D01*
X612872Y28541D01*
X620260Y28541D01*
X621872Y28541D01*
X630872Y28541D01*
X639872Y28541D01*
X648872Y28541D01*
X657872Y28542D01*
X666872Y28542D01*
X675872Y28542D01*
X684872Y28542D01*
X693872Y28542D01*
X702872Y28542D01*
X711872Y28542D01*
X758685Y12540D02*
X767685D01*
X776685D01*
X711872Y28542D02*
X713994Y28542D01*
X740685Y12540D02*
X749685D01*
X758685D01*
X731889D02*
X740685D01*
X821685D02*
X830685D01*
X794685D02*
X803685D01*
X812685D01*
X776685D02*
X785685D01*
X794685D01*
X812685D02*
X821685D01*
X884685D02*
X898000D01*
X848685D02*
X857685D01*
X866685D01*
X830685D02*
X839685D01*
X848685D01*
X875685D02*
X884685D01*
X866685D02*
X875685D01*
X920000Y59166D02*
Y68166D01*
Y77166D02*
Y86166D01*
Y68166D02*
Y77166D01*
Y41166D02*
Y50166D01*
Y34540D02*
Y41166D01*
Y50166D02*
Y59166D01*
Y122166D02*
Y132652D01*
Y95166D02*
Y104166D01*
Y86166D02*
Y95166D01*
Y113166D02*
Y122166D01*
Y104166D02*
Y113166D01*
X904000Y178519D02*
Y187519D01*
Y196519D02*
Y205519D01*
Y187519D02*
Y196519D01*
Y150540D02*
Y160519D01*
Y169519D02*
Y178519D01*
Y160519D02*
Y169519D01*
Y205519D02*
X904000Y214519D01*
Y268519D02*
Y277519D01*
Y259519D02*
Y268519D01*
Y223519D02*
Y232519D01*
Y214519D02*
Y223519D01*
Y250519D02*
Y259519D01*
Y232519D02*
Y241519D01*
Y250519D01*
Y313519D02*
Y322519D01*
Y331519D01*
Y286519D02*
Y295519D01*
Y277519D02*
Y286519D01*
Y304519D02*
Y313519D01*
Y295519D02*
Y304519D01*
Y331519D02*
X904000Y340519D01*
Y385519D02*
Y394519D01*
Y376519D02*
Y385519D01*
Y349519D02*
Y358519D01*
Y340519D02*
Y349519D01*
Y367519D02*
Y376519D01*
Y358519D02*
Y367519D01*
Y430519D02*
Y439519D01*
Y421519D02*
Y430519D01*
Y439519D02*
Y448519D01*
X904000Y457519D01*
X904000Y403519D02*
Y412519D01*
Y394519D02*
Y403519D01*
Y412519D02*
Y421519D01*
X904000Y511519D02*
Y520519D01*
Y502519D02*
Y511519D01*
Y466519D02*
Y475519D01*
Y457519D02*
Y466519D01*
Y493519D02*
Y502519D01*
Y475519D02*
Y484519D01*
Y493519D01*
X534902Y876536D02*
X543902D01*
X552902D01*
X561902D02*
X570902Y876536D01*
X579902D01*
X552902Y876536D02*
X561902D01*
X597901Y876536D02*
X606902D01*
X615901D01*
X579902D02*
X588901D01*
X597901D01*
X615901D02*
X624902D01*
X633901D01*
X651901D02*
X660901D01*
X669901D01*
X633901D02*
X642901D01*
X651901D01*
X687901D02*
X696901D01*
X705901D01*
X678901D02*
X687901D01*
X705901D02*
X713993D01*
X669901D02*
X678901D01*
X731782Y892536D02*
X745250D01*
X904000Y529519D02*
Y538519D01*
Y520519D02*
Y529519D01*
Y538519D02*
Y547519D01*
Y565519D02*
Y574519D01*
Y556519D02*
Y565519D01*
Y574519D02*
X904000Y583519D01*
X904000Y547519D02*
Y556519D01*
X904000Y583519D02*
Y592519D01*
Y601519D01*
Y619519D02*
Y628518D01*
Y610518D02*
Y619519D01*
Y637519D02*
Y646518D01*
Y628518D02*
Y637519D01*
Y601519D02*
Y610518D01*
Y682518D02*
Y691518D01*
Y673518D02*
Y682518D01*
Y691518D02*
X904000Y700518D01*
X904000Y655518D02*
Y664518D01*
Y646518D02*
Y655518D01*
Y664518D02*
Y673518D01*
X904000Y700518D02*
Y709518D01*
X763250Y892536D02*
X772250D01*
X781250D01*
X745250D02*
X754250D01*
X763250D01*
X799250D02*
X808250D01*
X817250D01*
X781250D02*
X790250D01*
X799250D01*
X826250D02*
X835250D01*
X844250D01*
X817250D02*
X826250D01*
X844250D02*
X853250D01*
X862250D01*
X904000Y736518D02*
Y745518D01*
Y754518D02*
Y759556D01*
Y745518D02*
Y754518D01*
Y718518D02*
Y727518D01*
Y709518D02*
Y718518D01*
Y727518D02*
Y736518D01*
X920000Y777499D02*
Y784837D01*
Y793837D01*
Y802837D01*
X862250Y892536D02*
X871250D01*
X880250D01*
X889250D01*
X897893D01*
X920000Y811837D02*
Y820837D01*
Y802837D02*
Y811837D01*
Y820837D02*
Y829837D01*
Y856837D02*
Y870598D01*
Y838837D02*
Y847837D01*
Y829837D02*
Y838837D01*
Y847837D02*
Y856837D01*
D72*
X267327Y221481D02*
D03*
X279660D02*
D03*
X291993Y211481D02*
D03*
X304326D02*
D03*
X266711Y459583D02*
D03*
X173300Y474623D02*
D03*
X480901Y852000D02*
D03*
X516787D02*
D03*
X528750D02*
D03*
X615555Y511602D02*
D03*
X598600Y585800D02*
D03*
X598600Y610250D02*
D03*
Y634700D02*
D03*
X668088Y533800D02*
D03*
X671000Y602000D02*
D03*
X640204Y658089D02*
D03*
X421090Y852000D02*
D03*
X456976D02*
D03*
X468938Y852000D02*
D03*
X663039Y756000D02*
D03*
X597700Y746000D02*
D03*
X668088Y521600D02*
D03*
X265354Y95200D02*
D03*
X364483D02*
D03*
X384308D02*
D03*
X305006D02*
D03*
X324831D02*
D03*
X285180D02*
D03*
X344657D02*
D03*
X267327Y211481D02*
D03*
X279660D02*
D03*
X173300Y484623D02*
D03*
X281900Y538550D02*
D03*
X281900Y574650D02*
D03*
X358700Y564200D02*
D03*
X439274Y769000D02*
D03*
X472827D02*
D03*
X484012Y769000D02*
D03*
X517565Y769000D02*
D03*
X468938Y862000D02*
D03*
X528750D02*
D03*
X715321Y49124D02*
D03*
X668088Y511600D02*
D03*
X598600Y624700D02*
D03*
X612370Y658089D02*
D03*
X628787D02*
D03*
X448513Y564200D02*
D03*
X389716Y564200D02*
D03*
X409315Y564200D02*
D03*
X266711Y449583D02*
D03*
X708510Y414000D02*
D03*
Y404000D02*
D03*
X428914Y564200D02*
D03*
X612370Y668089D02*
D03*
X523402Y274904D02*
D03*
Y264904D02*
D03*
X428914Y554200D02*
D03*
X517109Y554200D02*
D03*
Y564200D02*
D03*
X526908D02*
D03*
Y554200D02*
D03*
X399515D02*
D03*
Y564200D02*
D03*
X409315Y554200D02*
D03*
X715321Y79895D02*
D03*
X385716Y274904D02*
D03*
Y264904D02*
D03*
X349478D02*
D03*
X448513Y554200D02*
D03*
X458312Y564200D02*
D03*
Y554200D02*
D03*
X715321Y59124D02*
D03*
Y69895D02*
D03*
X627039Y756000D02*
D03*
Y746000D02*
D03*
X597700Y756000D02*
D03*
X607700Y746000D02*
D03*
Y756000D02*
D03*
X617370D02*
D03*
Y746000D02*
D03*
X653539Y756000D02*
D03*
Y746000D02*
D03*
X663039D02*
D03*
X644039Y756000D02*
D03*
Y746000D02*
D03*
X492863Y862000D02*
D03*
Y852000D02*
D03*
X456976Y862000D02*
D03*
X445014Y862000D02*
D03*
Y852000D02*
D03*
X433052D02*
D03*
Y862000D02*
D03*
X421090Y862000D02*
D03*
X439274Y779000D02*
D03*
X461643Y769000D02*
D03*
Y779000D02*
D03*
X495196Y769000D02*
D03*
Y779000D02*
D03*
X484012Y779000D02*
D03*
X450458Y769000D02*
D03*
Y779000D02*
D03*
X506381Y769000D02*
D03*
Y779000D02*
D03*
X517565D02*
D03*
X472827D02*
D03*
X628787Y668089D02*
D03*
X497510Y554200D02*
D03*
Y564200D02*
D03*
X468112D02*
D03*
Y554200D02*
D03*
X170000Y551400D02*
D03*
Y561400D02*
D03*
X281900Y548550D02*
D03*
X281900Y564650D02*
D03*
X474229Y264904D02*
D03*
Y274904D02*
D03*
X454559Y264904D02*
D03*
Y274904D02*
D03*
X375882Y264904D02*
D03*
X668088Y543800D02*
D03*
X615555Y521602D02*
D03*
Y533800D02*
D03*
Y543800D02*
D03*
X480901Y862000D02*
D03*
X516787D02*
D03*
X504825D02*
D03*
Y852000D02*
D03*
X552906Y264904D02*
D03*
X671000Y592000D02*
D03*
X598600Y600250D02*
D03*
X598600Y575800D02*
D03*
X513567Y264904D02*
D03*
X663039Y658089D02*
D03*
X503733Y264904D02*
D03*
X477911Y564200D02*
D03*
Y554200D02*
D03*
X464394Y264904D02*
D03*
Y274904D02*
D03*
X389716Y554200D02*
D03*
X304326Y221481D02*
D03*
X291993D02*
D03*
X384308Y85200D02*
D03*
X364483D02*
D03*
X344657D02*
D03*
X324831D02*
D03*
X305006D02*
D03*
X285180D02*
D03*
X265354D02*
D03*
X640204Y668089D02*
D03*
X663039Y668089D02*
D03*
X651622Y668089D02*
D03*
Y658089D02*
D03*
X444724Y274904D02*
D03*
Y264904D02*
D03*
X425055Y274904D02*
D03*
Y264904D02*
D03*
X513567Y274904D02*
D03*
X552906Y274904D02*
D03*
X543072Y274904D02*
D03*
Y264904D02*
D03*
X533237Y274904D02*
D03*
Y264904D02*
D03*
X503733Y274904D02*
D03*
X484063D02*
D03*
Y264904D02*
D03*
X434890Y274904D02*
D03*
Y264904D02*
D03*
X415220Y274904D02*
D03*
Y264904D02*
D03*
X405386Y274904D02*
D03*
Y264904D02*
D03*
X395551Y274904D02*
D03*
Y264904D02*
D03*
X375882Y274904D02*
D03*
X359279Y274904D02*
D03*
Y264904D02*
D03*
X349478Y274904D02*
D03*
X507310Y564200D02*
D03*
Y554200D02*
D03*
X487711Y564200D02*
D03*
Y554200D02*
D03*
X438713Y564200D02*
D03*
Y554200D02*
D03*
X419114D02*
D03*
Y564200D02*
D03*
X493898Y264904D02*
D03*
Y274904D02*
D03*
X358700Y554200D02*
D03*
X336800Y554200D02*
D03*
Y564200D02*
D03*
D73*
X274576Y235083D02*
D03*
X281077Y275083D02*
D03*
X261576D02*
D03*
X268076D02*
D03*
X274576D02*
D03*
X281077Y235083D02*
D03*
X261576D02*
D03*
X268076D02*
D03*
D74*
X291327Y251833D02*
D03*
Y258333D02*
D03*
Y264833D02*
D03*
X251327Y258333D02*
D03*
Y264833D02*
D03*
Y251833D02*
D03*
Y245333D02*
D03*
X291327D02*
D03*
D75*
X307150Y239500D02*
D03*
Y251778D02*
D03*
X317150Y264055D02*
D03*
X292076Y286383D02*
D03*
X317150Y276333D02*
D03*
X565477Y627928D02*
D03*
X673200Y402300D02*
D03*
X549093Y675000D02*
D03*
X553983Y800250D02*
D03*
Y787500D02*
D03*
X609750Y810340D02*
D03*
X716434Y727160D02*
D03*
X706434Y792500D02*
D03*
X804345Y769665D02*
D03*
X588422Y656015D02*
D03*
Y646068D02*
D03*
X655000Y787500D02*
D03*
Y800250D02*
D03*
X706434Y676009D02*
D03*
X815434Y694566D02*
D03*
Y707766D02*
D03*
X788544Y698894D02*
D03*
X706434Y688673D02*
D03*
X716434Y573972D02*
D03*
Y504528D02*
D03*
X657588Y498000D02*
D03*
X138050Y92632D02*
D03*
X138050Y102679D02*
D03*
X161396Y112727D02*
D03*
X213431Y83406D02*
D03*
Y112727D02*
D03*
Y102679D02*
D03*
X138050Y181719D02*
D03*
X138050Y191719D02*
D03*
X138050Y269507D02*
D03*
X138050Y343171D02*
D03*
Y279507D02*
D03*
X161396Y202719D02*
D03*
X213431Y191719D02*
D03*
Y202719D02*
D03*
Y170422D02*
D03*
Y258211D02*
D03*
X161396Y290507D02*
D03*
X213431Y343171D02*
D03*
Y279507D02*
D03*
Y290507D02*
D03*
X317150Y239500D02*
D03*
Y251778D02*
D03*
X161396Y375013D02*
D03*
X213431Y363171D02*
D03*
Y373013D02*
D03*
X191600Y521700D02*
D03*
X116000Y816300D02*
D03*
X449000Y616600D02*
D03*
X490267D02*
D03*
X381840Y616600D02*
D03*
X426750Y616600D02*
D03*
X381840Y630000D02*
D03*
X426750Y630000D02*
D03*
X518343Y627928D02*
D03*
Y675000D02*
D03*
X725821Y105671D02*
D03*
X588079Y393012D02*
D03*
X673200Y386250D02*
D03*
X663200Y446900D02*
D03*
X667588Y498000D02*
D03*
X706434Y504528D02*
D03*
X542343Y616600D02*
D03*
X555477Y627928D02*
D03*
X647905Y544300D02*
D03*
X532000Y730000D02*
D03*
X706434Y524984D02*
D03*
Y535212D02*
D03*
Y555667D02*
D03*
Y573972D02*
D03*
Y594428D02*
D03*
Y625112D02*
D03*
Y604656D02*
D03*
X599750Y810340D02*
D03*
X655000Y774750D02*
D03*
X805348Y547868D02*
D03*
X815348Y527962D02*
D03*
Y518010D02*
D03*
Y587455D02*
D03*
X805348Y617312D02*
D03*
X815348Y597407D02*
D03*
X815434Y654966D02*
D03*
X778544Y698894D02*
D03*
X804345Y741830D02*
D03*
Y758247D02*
D03*
X282950Y458319D02*
D03*
Y448172D02*
D03*
X811090Y315000D02*
D03*
Y330000D02*
D03*
Y270000D02*
D03*
Y255977D02*
D03*
X588079Y460856D02*
D03*
X181600Y521700D02*
D03*
X240806Y521700D02*
D03*
X282950Y407585D02*
D03*
X138050Y353171D02*
D03*
X148050D02*
D03*
X148050Y343171D02*
D03*
Y363171D02*
D03*
X138050D02*
D03*
X148050Y290507D02*
D03*
X138050D02*
D03*
X148050Y279507D02*
D03*
X148050Y269507D02*
D03*
X171396Y202719D02*
D03*
X148050Y425826D02*
D03*
X138050D02*
D03*
X148050Y154087D02*
D03*
X138050D02*
D03*
X805348Y577502D02*
D03*
X815348D02*
D03*
X805348Y587455D02*
D03*
Y597407D02*
D03*
X815348Y547868D02*
D03*
X805348Y537915D02*
D03*
X815348D02*
D03*
X805348Y527962D02*
D03*
Y518010D02*
D03*
X815348Y508058D02*
D03*
X805348D02*
D03*
X282950Y397439D02*
D03*
X292950D02*
D03*
X282950Y438026D02*
D03*
X292950D02*
D03*
X588079Y519007D02*
D03*
X578079D02*
D03*
X588079Y489932D02*
D03*
X578079D02*
D03*
X588079Y528699D02*
D03*
X578079D02*
D03*
X578079Y509315D02*
D03*
X588079D02*
D03*
X588079Y499624D02*
D03*
X578079D02*
D03*
X588079Y538391D02*
D03*
X578079D02*
D03*
X657905Y544300D02*
D03*
X637000Y544300D02*
D03*
X627000D02*
D03*
X716434Y555667D02*
D03*
Y545439D02*
D03*
X706434D02*
D03*
X716434Y535212D02*
D03*
Y524984D02*
D03*
X716434Y514756D02*
D03*
X706434D02*
D03*
X706434Y614884D02*
D03*
X716434D02*
D03*
Y604656D02*
D03*
Y594428D02*
D03*
X716434Y584200D02*
D03*
X706434D02*
D03*
X716434Y650682D02*
D03*
X706434D02*
D03*
X716434Y625112D02*
D03*
X815348Y607360D02*
D03*
X805348D02*
D03*
X815348Y617312D02*
D03*
X716434Y714000D02*
D03*
X706434D02*
D03*
X716434Y688673D02*
D03*
Y701336D02*
D03*
X706434D02*
D03*
X821090Y255977D02*
D03*
Y270000D02*
D03*
X715821Y105671D02*
D03*
X821090Y315000D02*
D03*
X805434Y668166D02*
D03*
X815434D02*
D03*
X805434Y654966D02*
D03*
Y681366D02*
D03*
Y694566D02*
D03*
X126000Y816300D02*
D03*
X821090Y330000D02*
D03*
X815434Y681366D02*
D03*
X805434Y707766D02*
D03*
X716434Y676009D02*
D03*
X706434Y663345D02*
D03*
X716434D02*
D03*
X148050Y324712D02*
D03*
X138050D02*
D03*
X148050Y311962D02*
D03*
X138050D02*
D03*
X138050Y259507D02*
D03*
X148050D02*
D03*
X645000Y774750D02*
D03*
X645000Y800250D02*
D03*
Y787500D02*
D03*
X578422Y646068D02*
D03*
Y656015D02*
D03*
X436750Y630000D02*
D03*
Y616600D02*
D03*
X391840Y630000D02*
D03*
X469633Y616600D02*
D03*
X479633D02*
D03*
X402350Y630000D02*
D03*
X412350D02*
D03*
Y616600D02*
D03*
X402350D02*
D03*
X391840D02*
D03*
X148050Y586800D02*
D03*
X138050D02*
D03*
Y631326D02*
D03*
X148050D02*
D03*
X138050Y675853D02*
D03*
X148050D02*
D03*
X138050Y616484D02*
D03*
X148050D02*
D03*
X148050Y690695D02*
D03*
X138050D02*
D03*
X148050Y646169D02*
D03*
X138050D02*
D03*
Y661011D02*
D03*
X148050D02*
D03*
X138050Y750063D02*
D03*
X148050D02*
D03*
X148050Y601642D02*
D03*
X138050D02*
D03*
Y705537D02*
D03*
X148050D02*
D03*
X138050Y735221D02*
D03*
X148050D02*
D03*
X138050Y449330D02*
D03*
X148050D02*
D03*
X230806Y521700D02*
D03*
X292950Y498906D02*
D03*
X282950D02*
D03*
X292950Y366998D02*
D03*
X282950D02*
D03*
X292950Y356851D02*
D03*
X282950D02*
D03*
X794345Y758247D02*
D03*
X804345Y781082D02*
D03*
X794345D02*
D03*
X794345Y792500D02*
D03*
X804345D02*
D03*
X794345Y769665D02*
D03*
X716434Y792500D02*
D03*
Y783000D02*
D03*
X706434D02*
D03*
X716434Y773500D02*
D03*
X706434D02*
D03*
X716434Y756500D02*
D03*
X706434D02*
D03*
X716434Y737160D02*
D03*
X706434D02*
D03*
X706434Y727160D02*
D03*
X716434Y746830D02*
D03*
X706434D02*
D03*
X578079Y349000D02*
D03*
X588079D02*
D03*
X578079Y291092D02*
D03*
X588079D02*
D03*
X578079Y300784D02*
D03*
X588079D02*
D03*
Y310476D02*
D03*
X578079D02*
D03*
Y320168D02*
D03*
X588079D02*
D03*
X588079Y329860D02*
D03*
X578079D02*
D03*
X588079Y339552D02*
D03*
X578079D02*
D03*
X578079Y363936D02*
D03*
X588079D02*
D03*
X578079Y383320D02*
D03*
X588079D02*
D03*
X578079Y393012D02*
D03*
X588079Y412396D02*
D03*
X578079D02*
D03*
X578079Y422088D02*
D03*
X588079D02*
D03*
X578079Y431780D02*
D03*
X588079D02*
D03*
X588079Y451164D02*
D03*
X578079D02*
D03*
X578079Y460856D02*
D03*
X588079Y480240D02*
D03*
X578079D02*
D03*
X588079Y470548D02*
D03*
X578079D02*
D03*
X563983Y787500D02*
D03*
Y800250D02*
D03*
X528343Y627928D02*
D03*
X307150Y276333D02*
D03*
X539093Y675000D02*
D03*
X528343D02*
D03*
X542000Y730000D02*
D03*
X794345Y741830D02*
D03*
X307150Y264055D02*
D03*
X520900Y616600D02*
D03*
X532343D02*
D03*
X282950Y478613D02*
D03*
Y488759D02*
D03*
X282950Y377145D02*
D03*
X292950D02*
D03*
X673200Y446900D02*
D03*
X663200Y386250D02*
D03*
X663200Y402300D02*
D03*
Y370200D02*
D03*
X673200D02*
D03*
X148050Y478063D02*
D03*
X138050D02*
D03*
X510900Y616600D02*
D03*
X500267Y616600D02*
D03*
X459000D02*
D03*
X138050Y463696D02*
D03*
X148050D02*
D03*
X138050Y403184D02*
D03*
X148050D02*
D03*
Y391863D02*
D03*
X138050D02*
D03*
X148050Y414505D02*
D03*
X138050D02*
D03*
X148050Y191719D02*
D03*
X138050Y54650D02*
D03*
X148050D02*
D03*
X203431Y258211D02*
D03*
Y279507D02*
D03*
Y290507D02*
D03*
Y202719D02*
D03*
X171396Y375013D02*
D03*
X171396Y112727D02*
D03*
X171396Y290507D02*
D03*
X138050Y230126D02*
D03*
X148050D02*
D03*
X138050Y241876D02*
D03*
X148050D02*
D03*
X203431Y170422D02*
D03*
Y191719D02*
D03*
X148050Y202719D02*
D03*
X138050D02*
D03*
X148050Y181719D02*
D03*
X148050Y171719D02*
D03*
X138050D02*
D03*
X138050Y142338D02*
D03*
X148050D02*
D03*
X203431Y83406D02*
D03*
X148050Y92632D02*
D03*
Y112727D02*
D03*
X138050D02*
D03*
X203431Y102679D02*
D03*
Y112727D02*
D03*
X148050Y102679D02*
D03*
Y82584D02*
D03*
X138050D02*
D03*
X138050Y66427D02*
D03*
X148050D02*
D03*
X292950Y346705D02*
D03*
X282950D02*
D03*
X292950Y387292D02*
D03*
X282950D02*
D03*
X292950Y407585D02*
D03*
Y417732D02*
D03*
X282950D02*
D03*
X292950Y427879D02*
D03*
X282950D02*
D03*
X292950Y448172D02*
D03*
Y458319D02*
D03*
X282950Y468466D02*
D03*
X292950D02*
D03*
Y478613D02*
D03*
Y488759D02*
D03*
X282950Y509053D02*
D03*
X292950D02*
D03*
Y519200D02*
D03*
X282950D02*
D03*
X292600Y314400D02*
D03*
X282600D02*
D03*
X203431Y373013D02*
D03*
Y363171D02*
D03*
Y343171D02*
D03*
X282076Y286383D02*
D03*
X578079Y373900D02*
D03*
X588079D02*
D03*
X578079Y402704D02*
D03*
X588079D02*
D03*
D76*
X319716Y355644D02*
D03*
X531716Y360644D02*
D03*
Y440644D02*
D03*
X319716Y460644D02*
D03*
Y480644D02*
D03*
Y465644D02*
D03*
X531716Y435644D02*
D03*
X319716Y490644D02*
D03*
Y360644D02*
D03*
Y340644D02*
D03*
X531716Y365644D02*
D03*
Y495644D02*
D03*
Y480644D02*
D03*
Y375644D02*
D03*
Y385644D02*
D03*
Y470644D02*
D03*
Y455644D02*
D03*
Y425644D02*
D03*
Y415644D02*
D03*
Y345644D02*
D03*
Y325644D02*
D03*
X319716Y330644D02*
D03*
Y325644D02*
D03*
X531716Y335644D02*
D03*
X319716Y380644D02*
D03*
Y385644D02*
D03*
Y390644D02*
D03*
Y395644D02*
D03*
Y345644D02*
D03*
Y400644D02*
D03*
Y405644D02*
D03*
Y375644D02*
D03*
Y350644D02*
D03*
X531716Y485644D02*
D03*
Y355644D02*
D03*
Y405644D02*
D03*
Y395644D02*
D03*
X319716Y450644D02*
D03*
X531716Y370644D02*
D03*
Y390644D02*
D03*
Y410644D02*
D03*
Y430644D02*
D03*
X319716Y420644D02*
D03*
Y410644D02*
D03*
X531716Y445644D02*
D03*
X319716Y415644D02*
D03*
X531716Y460644D02*
D03*
Y475644D02*
D03*
X319716Y440644D02*
D03*
Y445644D02*
D03*
X531716Y340644D02*
D03*
X319716Y425644D02*
D03*
Y430644D02*
D03*
Y435644D02*
D03*
Y500644D02*
D03*
X531716Y465644D02*
D03*
Y450644D02*
D03*
Y420644D02*
D03*
Y400644D02*
D03*
Y380644D02*
D03*
Y490644D02*
D03*
Y350644D02*
D03*
Y330644D02*
D03*
Y500644D02*
D03*
X319716Y335644D02*
D03*
Y495644D02*
D03*
Y485644D02*
D03*
Y475644D02*
D03*
Y470644D02*
D03*
Y455644D02*
D03*
Y370644D02*
D03*
Y365644D02*
D03*
D77*
X449133Y124612D02*
D03*
X281393D02*
D03*
X426133D02*
D03*
X570750D02*
D03*
X593750D02*
D03*
X304393D02*
D03*
X616750D02*
D03*
X327393D02*
D03*
X472133D02*
D03*
D78*
X449133Y182612D02*
D03*
X593750D02*
D03*
X304393D02*
D03*
D79*
X501908Y188526D02*
D03*
X536358D02*
D03*
X357168Y160527D02*
D03*
X391618D02*
D03*
X501908D02*
D03*
X536358D02*
D03*
X646525D02*
D03*
X680975D02*
D03*
X816987Y64981D02*
D03*
X646525Y188526D02*
D03*
X680975D02*
D03*
X391618D02*
D03*
X357168D02*
D03*
X816987Y92981D02*
D03*
D80*
X368216Y307644D02*
D03*
X513216D02*
D03*
X343216Y518644D02*
D03*
X388216D02*
D03*
X373216Y307644D02*
D03*
X458216D02*
D03*
X368216Y518644D02*
D03*
X383216D02*
D03*
X483216D02*
D03*
X403216Y307644D02*
D03*
X443216Y518644D02*
D03*
X363216D02*
D03*
X353216D02*
D03*
X348216D02*
D03*
X358216D02*
D03*
X488216D02*
D03*
X483216Y307644D02*
D03*
X473216D02*
D03*
X493216D02*
D03*
X363216D02*
D03*
X408216D02*
D03*
X398216D02*
D03*
X378216D02*
D03*
X338216D02*
D03*
X383216D02*
D03*
X433216D02*
D03*
X448216D02*
D03*
X463216D02*
D03*
X503216D02*
D03*
X498216Y518644D02*
D03*
X413216D02*
D03*
X478216D02*
D03*
X468216D02*
D03*
X513216D02*
D03*
X338216D02*
D03*
X343216Y307644D02*
D03*
X348216D02*
D03*
X353216D02*
D03*
X358216D02*
D03*
X443216D02*
D03*
X423216D02*
D03*
X393216D02*
D03*
X503216Y518644D02*
D03*
X473216D02*
D03*
X458216D02*
D03*
X448216D02*
D03*
X438216D02*
D03*
X423216D02*
D03*
X408216D02*
D03*
X393216D02*
D03*
X398216D02*
D03*
X403216D02*
D03*
X418216D02*
D03*
X428216D02*
D03*
X433216D02*
D03*
X453216D02*
D03*
X463216D02*
D03*
X493216D02*
D03*
X508216D02*
D03*
X498216Y307644D02*
D03*
X488216D02*
D03*
X478216D02*
D03*
X468216D02*
D03*
X453216D02*
D03*
X438216D02*
D03*
X428216D02*
D03*
X413216D02*
D03*
X418216D02*
D03*
X388216D02*
D03*
X508216D02*
D03*
X373216Y518644D02*
D03*
X378216D02*
D03*
D81*
X189500Y479623D02*
D03*
X199000Y499623D02*
D03*
X208500Y479623D02*
D03*
D82*
X656000Y509000D02*
D03*
Y525000D02*
D03*
X632000Y509000D02*
D03*
X656000Y517000D02*
D03*
X632000Y533000D02*
D03*
Y525000D02*
D03*
Y517000D02*
D03*
X656000Y533000D02*
D03*
D83*
X562228Y641318D02*
D03*
X583950Y797250D02*
D03*
X624950D02*
D03*
X740848Y680844D02*
D03*
X781848D02*
D03*
X562228Y660818D02*
D03*
X740848Y661344D02*
D03*
X583950Y777750D02*
D03*
X781848Y661344D02*
D03*
X740848Y667844D02*
D03*
X781848Y674344D02*
D03*
Y667844D02*
D03*
X740848Y674344D02*
D03*
X562228Y647818D02*
D03*
X624950Y777750D02*
D03*
Y790750D02*
D03*
Y784250D02*
D03*
X583950Y790750D02*
D03*
Y784250D02*
D03*
X521227Y641318D02*
D03*
X562228Y654318D02*
D03*
X521227Y647818D02*
D03*
Y654318D02*
D03*
Y660818D02*
D03*
D84*
X510263Y836500D02*
D03*
X457054D02*
D03*
X490763D02*
D03*
X437554D02*
D03*
Y795500D02*
D03*
X444054D02*
D03*
X450554D02*
D03*
X457054D02*
D03*
X444054Y836500D02*
D03*
X450554D02*
D03*
X497263D02*
D03*
X503763D02*
D03*
X490763Y795500D02*
D03*
X497263D02*
D03*
X503763D02*
D03*
X510263D02*
D03*
D85*
X615260Y633825D02*
D03*
X653360Y581125D02*
D03*
X627960Y633825D02*
D03*
X653360D02*
D03*
X640660D02*
D03*
X627960Y581125D02*
D03*
X615260D02*
D03*
X640660D02*
D03*
D86*
X384732Y54250D02*
D03*
X364889D02*
D03*
X345046D02*
D03*
X265672D02*
D03*
Y69750D02*
D03*
X285516Y54250D02*
D03*
Y69750D02*
D03*
X305359D02*
D03*
Y54250D02*
D03*
X325202D02*
D03*
Y69750D02*
D03*
X364889D02*
D03*
X384732D02*
D03*
X345046D02*
D03*
D87*
X734998Y509767D02*
D03*
Y579212D02*
D03*
X787698Y547868D02*
D03*
Y617312D02*
D03*
X734998Y591912D02*
D03*
Y604612D02*
D03*
Y617312D02*
D03*
X787698Y604612D02*
D03*
Y591912D02*
D03*
Y579212D02*
D03*
X734998Y522467D02*
D03*
Y535168D02*
D03*
Y547868D02*
D03*
X787698Y535168D02*
D03*
Y522467D02*
D03*
Y509767D02*
D03*
D88*
X742855Y703646D02*
D03*
X760855D02*
D03*
D89*
X857000Y724215D02*
D03*
Y761715D02*
D03*
X859615Y150750D02*
D03*
Y163250D02*
D03*
X857000Y736715D02*
D03*
Y749215D02*
D03*
D90*
X841300Y635500D02*
D03*
Y605500D02*
D03*
Y575500D02*
D03*
Y545500D02*
D03*
Y285477D02*
D03*
Y345477D02*
D03*
Y330477D02*
D03*
Y315477D02*
D03*
Y270477D02*
D03*
Y255477D02*
D03*
Y240477D02*
D03*
Y300477D02*
D03*
Y560500D02*
D03*
Y590500D02*
D03*
Y620500D02*
D03*
Y650500D02*
D03*
D91*
X611502Y828500D02*
D03*
X599002D02*
D03*
X574002D02*
D03*
X586502D02*
D03*
X624002D02*
D03*
X636502D02*
D03*
D92*
X782458Y261793D02*
D03*
X754458D02*
D03*
X707458Y261793D02*
D03*
X735458D02*
D03*
X718671Y209000D02*
D03*
X746671D02*
D03*
D93*
X722458Y286530D02*
D03*
X738458D02*
D03*
X751458D02*
D03*
X767458D02*
D03*
X806000Y407858D02*
D03*
Y427697D02*
D03*
Y447536D02*
D03*
Y467375D02*
D03*
Y487214D02*
D03*
X822000Y467375D02*
D03*
Y407858D02*
D03*
Y487214D02*
D03*
Y427697D02*
D03*
Y447536D02*
D03*
X766487Y105671D02*
D03*
X750487D02*
D03*
D94*
X745284Y236000D02*
D03*
X729284D02*
D03*
X761283D02*
D03*
X664450Y461400D02*
D03*
X679950D02*
D03*
D95*
X184116Y91666D02*
D03*
Y179424D02*
D03*
Y267213D02*
D03*
Y349189D02*
D03*
X165617Y179424D02*
D03*
X165646Y183916D02*
D03*
X184116D02*
D03*
X165646Y353680D02*
D03*
X165617Y349189D02*
D03*
X184116Y353680D02*
D03*
X165617Y91666D02*
D03*
X165646Y96158D02*
D03*
X184116D02*
D03*
X165617Y267213D02*
D03*
X165646Y271705D02*
D03*
X184116D02*
D03*
D96*
X271327Y255083D02*
D03*
D97*
X350416Y136872D02*
D03*
X495156D02*
D03*
X639773D02*
D03*
Y118872D02*
D03*
X495156D02*
D03*
X350416D02*
D03*
D98*
X296900Y536950D02*
D03*
X319900Y574950D02*
D03*
X296900D02*
D03*
X319900Y536950D02*
D03*
D99*
X187950Y868200D02*
D03*
X345050D02*
D03*
X684450D02*
D03*
X841550D02*
D03*
D100*
X763100Y68484D02*
D03*
D101*
X738943Y431000D02*
D03*
X761510D02*
D03*
X738943Y415000D02*
D03*
X761510D02*
D03*
D102*
X818000Y176167D02*
D03*
Y135167D02*
D03*
D103*
X888615Y188750D02*
D03*
Y125250D02*
D03*
X886000Y698716D02*
D03*
Y787215D02*
D03*
D104*
X893200Y214427D02*
D03*
Y371527D02*
D03*
Y519450D02*
D03*
Y676550D02*
D03*
D105*
X892480Y391469D02*
D03*
Y503569D02*
D03*
D106*
X633703Y708500D02*
D03*
D107*
X753934Y763163D02*
D03*
D108*
X152750Y862215D02*
D03*
X89250D02*
D03*
D109*
X114750Y833215D02*
D03*
X127250D02*
D03*
D110*
X662002Y857500D02*
D03*
X548502D02*
D03*
D111*
X186541Y575650D02*
D03*
Y537550D02*
D03*
Y550250D02*
D03*
Y562950D02*
D03*
X235841Y575650D02*
D03*
Y562950D02*
D03*
Y550250D02*
D03*
Y537550D02*
D03*
D112*
X840580Y462519D02*
D03*
Y417519D02*
D03*
Y477519D02*
D03*
Y432519D02*
D03*
Y447519D02*
D03*
D113*
X211432Y66900D02*
D03*
Y54900D02*
D03*
Y242376D02*
D03*
Y230376D02*
D03*
X181432D02*
D03*
Y242376D02*
D03*
X181432Y312462D02*
D03*
Y324462D02*
D03*
X211432D02*
D03*
Y312462D02*
D03*
X181432Y66900D02*
D03*
Y54900D02*
D03*
X211432Y154587D02*
D03*
Y142587D02*
D03*
X181432Y154587D02*
D03*
Y142587D02*
D03*
D114*
X780150Y153619D02*
D03*
X725650D02*
D03*
D115*
X815500Y816300D02*
D03*
X800500D02*
D03*
X785500D02*
D03*
X770500D02*
D03*
X755500D02*
D03*
X740500D02*
D03*
X725500D02*
D03*
X710500D02*
D03*
X229000D02*
D03*
X214000D02*
D03*
X244000D02*
D03*
X259000D02*
D03*
X289000D02*
D03*
X274000D02*
D03*
X304000D02*
D03*
X319000D02*
D03*
D116*
X564001Y380644D02*
D03*
X549845Y482737D02*
D03*
D117*
X165646Y188672D02*
D03*
X165617Y174672D02*
D03*
X184116D02*
D03*
Y188672D02*
D03*
X165646Y358437D02*
D03*
X165617Y344437D02*
D03*
X184116D02*
D03*
Y358437D02*
D03*
X165646Y100914D02*
D03*
X165617Y86914D02*
D03*
X184116D02*
D03*
Y100914D02*
D03*
X165646Y276461D02*
D03*
X165617Y262461D02*
D03*
X184116D02*
D03*
Y276461D02*
D03*
D118*
X167646Y190422D02*
D03*
X167617Y172922D02*
D03*
X182116D02*
D03*
X182116Y190422D02*
D03*
X167646Y360187D02*
D03*
X167617Y342687D02*
D03*
X182116D02*
D03*
X182116Y360187D02*
D03*
X167646Y102664D02*
D03*
X167617Y85164D02*
D03*
X182116D02*
D03*
X182116Y102664D02*
D03*
X167646Y278211D02*
D03*
X167617Y260711D02*
D03*
X182116D02*
D03*
X182116Y278211D02*
D03*
D119*
X177376Y181683D02*
D03*
X172375Y181672D02*
D03*
X177376Y351447D02*
D03*
X172375Y351437D02*
D03*
X177376Y93925D02*
D03*
X172375Y93914D02*
D03*
X177376Y269472D02*
D03*
X172375Y269461D02*
D03*
D120*
X181432Y236376D02*
D03*
X211432D02*
D03*
X181432Y318462D02*
D03*
X211432D02*
D03*
X181432Y60900D02*
D03*
X211432D02*
D03*
X181432Y148588D02*
D03*
X211432D02*
D03*
D121*
X640500Y450100D02*
D03*
Y424700D02*
D03*
Y348500D02*
D03*
Y297700D02*
D03*
Y399300D02*
D03*
Y373900D02*
D03*
Y323100D02*
D03*
D122*
X35700Y88000D02*
D03*
Y824600D02*
D03*
X893000Y50000D02*
D03*
Y850000D02*
D03*
D123*
X35700Y494400D02*
D03*
X61100D02*
D03*
X35700Y519800D02*
D03*
X61100D02*
D03*
X35700Y723000D02*
D03*
X61100D02*
D03*
X111900Y164200D02*
D03*
X61100Y697600D02*
D03*
X35700D02*
D03*
Y469000D02*
D03*
X61100D02*
D03*
Y291200D02*
D03*
Y316600D02*
D03*
X35700D02*
D03*
X61100Y342000D02*
D03*
X35700D02*
D03*
X61100Y367400D02*
D03*
X35700D02*
D03*
X61100Y392800D02*
D03*
X35700D02*
D03*
X61100Y545200D02*
D03*
X35700D02*
D03*
X61100Y570600D02*
D03*
Y596000D02*
D03*
X35700D02*
D03*
Y570600D02*
D03*
Y621400D02*
D03*
X61100D02*
D03*
Y646800D02*
D03*
X35700D02*
D03*
X61100Y672200D02*
D03*
X35700D02*
D03*
X61100Y748400D02*
D03*
X35700D02*
D03*
X61100Y773800D02*
D03*
X35700D02*
D03*
Y138800D02*
D03*
X61100Y164200D02*
D03*
X35700D02*
D03*
X61100Y189600D02*
D03*
X35700D02*
D03*
X61100Y215000D02*
D03*
X35700D02*
D03*
X61100Y240400D02*
D03*
Y265800D02*
D03*
X35700D02*
D03*
Y291200D02*
D03*
Y240400D02*
D03*
X61100Y418200D02*
D03*
X35700D02*
D03*
Y443600D02*
D03*
X61100D02*
D03*
X86500Y291200D02*
D03*
X111900Y316600D02*
D03*
Y291200D02*
D03*
Y265800D02*
D03*
Y240400D02*
D03*
X86500Y189600D02*
D03*
Y316600D02*
D03*
X111900Y342000D02*
D03*
X86500D02*
D03*
X111900Y367400D02*
D03*
X86500D02*
D03*
Y469000D02*
D03*
X111900Y494400D02*
D03*
X86500D02*
D03*
X111900Y519800D02*
D03*
X86500D02*
D03*
X111900Y545200D02*
D03*
X86500D02*
D03*
X111900Y570600D02*
D03*
X86500D02*
D03*
Y621400D02*
D03*
Y646800D02*
D03*
Y723000D02*
D03*
Y748400D02*
D03*
X111900Y773800D02*
D03*
X86500D02*
D03*
Y138800D02*
D03*
Y164200D02*
D03*
X111900Y189600D02*
D03*
Y215000D02*
D03*
X86500D02*
D03*
Y265800D02*
D03*
Y240400D02*
D03*
Y596000D02*
D03*
X111900D02*
D03*
Y748400D02*
D03*
Y723000D02*
D03*
X86500Y443600D02*
D03*
Y418200D02*
D03*
Y392800D02*
D03*
X111900Y646800D02*
D03*
X86500Y697600D02*
D03*
X111900D02*
D03*
X86500Y672200D02*
D03*
X111900D02*
D03*
Y621400D02*
D03*
Y443600D02*
D03*
Y469000D02*
D03*
Y392800D02*
D03*
Y418200D02*
D03*
D124*
X532600Y601000D02*
D03*
X431000Y728200D02*
D03*
X507200Y753400D02*
D03*
X456400Y728200D02*
D03*
X329400D02*
D03*
Y652000D02*
D03*
X354800Y728200D02*
D03*
X380200D02*
D03*
X405600D02*
D03*
X431000Y652000D02*
D03*
X456400D02*
D03*
X481800D02*
D03*
Y728200D02*
D03*
X405600Y652000D02*
D03*
X354800D02*
D03*
X380200D02*
D03*
X304000D02*
D03*
X278600D02*
D03*
Y728200D02*
D03*
X304000D02*
D03*
X481800Y753400D02*
D03*
X456400D02*
D03*
X431000D02*
D03*
X405600D02*
D03*
X329400Y601000D02*
D03*
X380200D02*
D03*
X354800D02*
D03*
X380200Y753400D02*
D03*
X304000D02*
D03*
X329400D02*
D03*
X456400Y601000D02*
D03*
X481800D02*
D03*
X278600D02*
D03*
X253200D02*
D03*
X227800D02*
D03*
X354800Y753400D02*
D03*
X202400D02*
D03*
X227800D02*
D03*
X507200Y601000D02*
D03*
X532600Y753400D02*
D03*
X431000Y601000D02*
D03*
X405600D02*
D03*
X278600Y753400D02*
D03*
X253200D02*
D03*
X202400Y601000D02*
D03*
X304000D02*
D03*
D125*
X111900Y138800D02*
D03*
X61100D02*
D03*
D126*
X640500Y475500D02*
D03*
M02*
