G04*
G04 #@! TF.GenerationSoftware,Altium Limited,Altium Designer,25.8.1 (18)*
G04*
G04 Layer_Color=16711935*
%FSLAX44Y44*%
%MOMM*%
G71*
G04*
G04 #@! TF.SameCoordinates,746143FD-BC81-4DAC-81BB-7BE3C6F3D048*
G04*
G04*
G04 #@! TF.FilePolarity,Negative*
G04*
G01*
G75*
%ADD71C,1.0000*%
G04:AMPARAMS|DCode=72|XSize=0.75mm|YSize=0.7mm|CornerRadius=0.2mm|HoleSize=0mm|Usage=FLASHONLY|Rotation=270.000|XOffset=0mm|YOffset=0mm|HoleType=Round|Shape=RoundedRectangle|*
%AMROUNDEDRECTD72*
21,1,0.7500,0.3000,0,0,270.0*
21,1,0.3500,0.7000,0,0,270.0*
1,1,0.4000,-0.1500,-0.1750*
1,1,0.4000,-0.1500,0.1750*
1,1,0.4000,0.1500,0.1750*
1,1,0.4000,0.1500,-0.1750*
%
%ADD72ROUNDEDRECTD72*%
G04:AMPARAMS|DCode=73|XSize=0.75mm|YSize=0.7mm|CornerRadius=0.2mm|HoleSize=0mm|Usage=FLASHONLY|Rotation=0.000|XOffset=0mm|YOffset=0mm|HoleType=Round|Shape=RoundedRectangle|*
%AMROUNDEDRECTD73*
21,1,0.7500,0.3000,0,0,0.0*
21,1,0.3500,0.7000,0,0,0.0*
1,1,0.4000,0.1750,-0.1500*
1,1,0.4000,-0.1750,-0.1500*
1,1,0.4000,-0.1750,0.1500*
1,1,0.4000,0.1750,0.1500*
%
%ADD73ROUNDEDRECTD73*%
%ADD74R,1.7524X0.9524*%
%ADD84O,1.5016X0.4516*%
G04:AMPARAMS|DCode=86|XSize=1.8432mm|YSize=0.7932mm|CornerRadius=0.2491mm|HoleSize=0mm|Usage=FLASHONLY|Rotation=90.000|XOffset=0mm|YOffset=0mm|HoleType=Round|Shape=RoundedRectangle|*
%AMROUNDEDRECTD86*
21,1,1.8432,0.2950,0,0,90.0*
21,1,1.3450,0.7932,0,0,90.0*
1,1,0.4982,0.1475,0.6725*
1,1,0.4982,0.1475,-0.6725*
1,1,0.4982,-0.1475,-0.6725*
1,1,0.4982,-0.1475,0.6725*
%
%ADD86ROUNDEDRECTD86*%
G04:AMPARAMS|DCode=89|XSize=1.4032mm|YSize=1.5032mm|CornerRadius=0.3476mm|HoleSize=0mm|Usage=FLASHONLY|Rotation=0.000|XOffset=0mm|YOffset=0mm|HoleType=Round|Shape=RoundedRectangle|*
%AMROUNDEDRECTD89*
21,1,1.4032,0.8080,0,0,0.0*
21,1,0.7080,1.5032,0,0,0.0*
1,1,0.6952,0.3540,-0.4040*
1,1,0.6952,-0.3540,-0.4040*
1,1,0.6952,-0.3540,0.4040*
1,1,0.6952,0.3540,0.4040*
%
%ADD89ROUNDEDRECTD89*%
%ADD90R,1.1524X0.7524*%
%ADD91R,1.0032X1.8032*%
G04:AMPARAMS|DCode=92|XSize=2.9032mm|YSize=1.5032mm|CornerRadius=0.3486mm|HoleSize=0mm|Usage=FLASHONLY|Rotation=270.000|XOffset=0mm|YOffset=0mm|HoleType=Round|Shape=RoundedRectangle|*
%AMROUNDEDRECTD92*
21,1,2.9032,0.8060,0,0,270.0*
21,1,2.2060,1.5032,0,0,270.0*
1,1,0.6972,-0.4030,-1.1030*
1,1,0.6972,-0.4030,1.1030*
1,1,0.6972,0.4030,1.1030*
1,1,0.6972,0.4030,-1.1030*
%
%ADD92ROUNDEDRECTD92*%
G04:AMPARAMS|DCode=93|XSize=1.1032mm|YSize=1.0032mm|CornerRadius=0.3016mm|HoleSize=0mm|Usage=FLASHONLY|Rotation=90.000|XOffset=0mm|YOffset=0mm|HoleType=Round|Shape=RoundedRectangle|*
%AMROUNDEDRECTD93*
21,1,1.1032,0.4000,0,0,90.0*
21,1,0.5000,1.0032,0,0,90.0*
1,1,0.6032,0.2000,0.2500*
1,1,0.6032,0.2000,-0.2500*
1,1,0.6032,-0.2000,-0.2500*
1,1,0.6032,-0.2000,0.2500*
%
%ADD93ROUNDEDRECTD93*%
G04:AMPARAMS|DCode=94|XSize=1.1532mm|YSize=1.0532mm|CornerRadius=0.3141mm|HoleSize=0mm|Usage=FLASHONLY|Rotation=270.000|XOffset=0mm|YOffset=0mm|HoleType=Round|Shape=RoundedRectangle|*
%AMROUNDEDRECTD94*
21,1,1.1532,0.4250,0,0,270.0*
21,1,0.5250,1.0532,0,0,270.0*
1,1,0.6282,-0.2125,-0.2625*
1,1,0.6282,-0.2125,0.2625*
1,1,0.6282,0.2125,0.2625*
1,1,0.6282,0.2125,-0.2625*
%
%ADD94ROUNDEDRECTD94*%
G04:AMPARAMS|DCode=97|XSize=1.4032mm|YSize=1.5032mm|CornerRadius=0.3476mm|HoleSize=0mm|Usage=FLASHONLY|Rotation=90.000|XOffset=0mm|YOffset=0mm|HoleType=Round|Shape=RoundedRectangle|*
%AMROUNDEDRECTD97*
21,1,1.4032,0.8080,0,0,90.0*
21,1,0.7080,1.5032,0,0,90.0*
1,1,0.6952,0.4040,0.3540*
1,1,0.6952,0.4040,-0.3540*
1,1,0.6952,-0.4040,-0.3540*
1,1,0.6952,-0.4040,0.3540*
%
%ADD97ROUNDEDRECTD97*%
%ADD99R,1.4024X1.9524*%
G04:AMPARAMS|DCode=101|XSize=1.1032mm|YSize=1.0032mm|CornerRadius=0.3016mm|HoleSize=0mm|Usage=FLASHONLY|Rotation=0.000|XOffset=0mm|YOffset=0mm|HoleType=Round|Shape=RoundedRectangle|*
%AMROUNDEDRECTD101*
21,1,1.1032,0.4000,0,0,0.0*
21,1,0.5000,1.0032,0,0,0.0*
1,1,0.6032,0.2500,-0.2000*
1,1,0.6032,-0.2500,-0.2000*
1,1,0.6032,-0.2500,0.2000*
1,1,0.6032,0.2500,0.2000*
%
%ADD101ROUNDEDRECTD101*%
%ADD103R,3.1524X2.2524*%
%ADD104R,1.9524X1.4024*%
%ADD105R,2.0582X1.4994*%
%ADD108R,2.2524X3.1524*%
%ADD110R,2.3032X3.2032*%
%ADD112R,1.2454X0.8644*%
%ADD115R,0.7524X1.1524*%
%ADD121C,1.8032*%
%ADD122C,6.2032*%
%ADD123C,1.7332*%
%ADD124C,1.5000*%
%ADD125R,1.7332X1.7332*%
%ADD126R,1.8032X1.8032*%
%ADD145R,5.5880X3.0988*%
%ADD151R,0.3500X0.6100*%
%ADD152R,0.6100X0.3500*%
G04:AMPARAMS|DCode=158|XSize=1.1032mm|YSize=1.1532mm|CornerRadius=0.2006mm|HoleSize=0mm|Usage=FLASHONLY|Rotation=0.000|XOffset=0mm|YOffset=0mm|HoleType=Round|Shape=RoundedRectangle|*
%AMROUNDEDRECTD158*
21,1,1.1032,0.7520,0,0,0.0*
21,1,0.7020,1.1532,0,0,0.0*
1,1,0.4012,0.3510,-0.3760*
1,1,0.4012,-0.3510,-0.3760*
1,1,0.4012,-0.3510,0.3760*
1,1,0.4012,0.3510,0.3760*
%
%ADD158ROUNDEDRECTD158*%
G04:AMPARAMS|DCode=159|XSize=1.9532mm|YSize=1.4532mm|CornerRadius=0.3454mm|HoleSize=0mm|Usage=FLASHONLY|Rotation=0.000|XOffset=0mm|YOffset=0mm|HoleType=Round|Shape=RoundedRectangle|*
%AMROUNDEDRECTD159*
21,1,1.9532,0.7625,0,0,0.0*
21,1,1.2625,1.4532,0,0,0.0*
1,1,0.6907,0.6313,-0.3813*
1,1,0.6907,-0.6313,-0.3813*
1,1,0.6907,-0.6313,0.3813*
1,1,0.6907,0.6313,0.3813*
%
%ADD159ROUNDEDRECTD159*%
G04:AMPARAMS|DCode=160|XSize=1.4132mm|YSize=0.7932mm|CornerRadius=0.1754mm|HoleSize=0mm|Usage=FLASHONLY|Rotation=90.000|XOffset=0mm|YOffset=0mm|HoleType=Round|Shape=RoundedRectangle|*
%AMROUNDEDRECTD160*
21,1,1.4132,0.4425,0,0,90.0*
21,1,1.0625,0.7932,0,0,90.0*
1,1,0.3507,0.2213,0.5313*
1,1,0.3507,0.2213,-0.5313*
1,1,0.3507,-0.2213,-0.5313*
1,1,0.3507,-0.2213,0.5313*
%
%ADD160ROUNDEDRECTD160*%
%ADD161R,0.9000X0.6000*%
G04:AMPARAMS|DCode=162|XSize=1.6637mm|YSize=0.762mm|CornerRadius=0.2413mm|HoleSize=0mm|Usage=FLASHONLY|Rotation=180.000|XOffset=0mm|YOffset=0mm|HoleType=Round|Shape=RoundedRectangle|*
%AMROUNDEDRECTD162*
21,1,1.6637,0.2794,0,0,180.0*
21,1,1.1811,0.7620,0,0,180.0*
1,1,0.4826,-0.5906,0.1397*
1,1,0.4826,0.5906,0.1397*
1,1,0.4826,0.5906,-0.1397*
1,1,0.4826,-0.5906,-0.1397*
%
%ADD162ROUNDEDRECTD162*%
%ADD163R,0.9524X1.4524*%
G04:AMPARAMS|DCode=164|XSize=1.8532mm|YSize=2.7532mm|CornerRadius=0.3491mm|HoleSize=0mm|Usage=FLASHONLY|Rotation=90.000|XOffset=0mm|YOffset=0mm|HoleType=Round|Shape=RoundedRectangle|*
%AMROUNDEDRECTD164*
21,1,1.8532,2.0550,0,0,90.0*
21,1,1.1550,2.7532,0,0,90.0*
1,1,0.6982,1.0275,0.5775*
1,1,0.6982,1.0275,-0.5775*
1,1,0.6982,-1.0275,-0.5775*
1,1,0.6982,-1.0275,0.5775*
%
%ADD164ROUNDEDRECTD164*%
%ADD165R,3.6068X2.9210*%
G04:AMPARAMS|DCode=166|XSize=2.174mm|YSize=0.794mm|CornerRadius=0.1758mm|HoleSize=0mm|Usage=FLASHONLY|Rotation=180.000|XOffset=0mm|YOffset=0mm|HoleType=Round|Shape=RoundedRectangle|*
%AMROUNDEDRECTD166*
21,1,2.1740,0.4425,0,0,180.0*
21,1,1.8225,0.7940,0,0,180.0*
1,1,0.3515,-0.9113,0.2213*
1,1,0.3515,0.9113,0.2213*
1,1,0.3515,0.9113,-0.2213*
1,1,0.3515,-0.9113,-0.2213*
%
%ADD166ROUNDEDRECTD166*%
G04:AMPARAMS|DCode=167|XSize=1.5232mm|YSize=0.8032mm|CornerRadius=0.1766mm|HoleSize=0mm|Usage=FLASHONLY|Rotation=0.000|XOffset=0mm|YOffset=0mm|HoleType=Round|Shape=RoundedRectangle|*
%AMROUNDEDRECTD167*
21,1,1.5232,0.4500,0,0,0.0*
21,1,1.1700,0.8032,0,0,0.0*
1,1,0.3532,0.5850,-0.2250*
1,1,0.3532,-0.5850,-0.2250*
1,1,0.3532,-0.5850,0.2250*
1,1,0.3532,0.5850,0.2250*
%
%ADD167ROUNDEDRECTD167*%
G04:AMPARAMS|DCode=168|XSize=1.67mm|YSize=0.51mm|CornerRadius=0.1013mm|HoleSize=0mm|Usage=FLASHONLY|Rotation=0.000|XOffset=0mm|YOffset=0mm|HoleType=Round|Shape=RoundedRectangle|*
%AMROUNDEDRECTD168*
21,1,1.6700,0.3075,0,0,0.0*
21,1,1.4675,0.5100,0,0,0.0*
1,1,0.2025,0.7338,-0.1538*
1,1,0.2025,-0.7338,-0.1538*
1,1,0.2025,-0.7338,0.1538*
1,1,0.2025,0.7338,0.1538*
%
%ADD168ROUNDEDRECTD168*%
G36*
X192780Y383381D02*
X192814D01*
X192847Y383376D01*
X192880Y383374D01*
X192913Y383368D01*
X192946Y383363D01*
X193356Y383282D01*
X193389Y383273D01*
X193421Y383266D01*
X193453Y383256D01*
X193485Y383247D01*
X193516Y383234D01*
X193547Y383224D01*
X193934Y383064D01*
X193964Y383049D01*
X193995Y383036D01*
X194024Y383019D01*
X194054Y383005D01*
X194081Y382986D01*
X194110Y382970D01*
X194458Y382737D01*
X194485Y382717D01*
X194512Y382698D01*
X194538Y382676D01*
X194564Y382656D01*
X194587Y382632D01*
X194613Y382610D01*
X194909Y382314D01*
X194930Y382289D01*
X194954Y382266D01*
X194974Y382239D01*
X194996Y382214D01*
X195015Y382187D01*
X195035Y382160D01*
X195268Y381812D01*
X195284Y381783D01*
X195303Y381755D01*
X195318Y381726D01*
X195334Y381697D01*
X195347Y381666D01*
X195362Y381636D01*
X195522Y381249D01*
X195533Y381218D01*
X195545Y381187D01*
X195554Y381155D01*
X195565Y381123D01*
X195571Y381090D01*
X195580Y381058D01*
X195662Y380648D01*
X195666Y380615D01*
X195672Y380582D01*
X195675Y380549D01*
X195679Y380516D01*
Y380482D01*
X195681Y380449D01*
Y380240D01*
Y373809D01*
X195681Y373806D01*
X195681Y373805D01*
X195677Y373745D01*
X195672Y373676D01*
X195672Y373674D01*
X195672Y373672D01*
X195660Y373611D01*
X195646Y373545D01*
X195646Y373543D01*
X195645Y373541D01*
X195624Y373480D01*
X195604Y373419D01*
X195603Y373417D01*
X195602Y373415D01*
X195573Y373357D01*
X195545Y373299D01*
X195544Y373298D01*
X195543Y373296D01*
X195506Y373242D01*
X195471Y373189D01*
X195469Y373187D01*
X195468Y373186D01*
X195426Y373138D01*
X195383Y373089D01*
X195381Y373087D01*
X195380Y373086D01*
X194669Y372380D01*
X194796Y372372D01*
X194926Y372346D01*
X195053Y372303D01*
X195172Y372244D01*
X195283Y372170D01*
X195383Y372083D01*
X195471Y371982D01*
X195545Y371872D01*
X195604Y371752D01*
X195646Y371626D01*
X195672Y371496D01*
X195681Y371363D01*
Y360620D01*
Y360410D01*
X195679Y360377D01*
Y360344D01*
X195675Y360311D01*
X195672Y360278D01*
X195666Y360245D01*
X195662Y360212D01*
X195580Y359801D01*
X195571Y359769D01*
X195565Y359736D01*
X195554Y359705D01*
X195545Y359673D01*
X195533Y359642D01*
X195522Y359610D01*
X195362Y359224D01*
X195347Y359194D01*
X195334Y359163D01*
X195318Y359134D01*
X195303Y359104D01*
X195284Y359076D01*
X195268Y359048D01*
X195035Y358699D01*
X195015Y358673D01*
X194996Y358645D01*
X194974Y358620D01*
X194954Y358594D01*
X194930Y358570D01*
X194909Y358545D01*
X194613Y358249D01*
X194587Y358227D01*
X194564Y358204D01*
X194537Y358183D01*
X194512Y358161D01*
X194485Y358143D01*
X194458Y358123D01*
X194110Y357890D01*
X194081Y357873D01*
X194054Y357855D01*
X194024Y357840D01*
X193995Y357823D01*
X193964Y357811D01*
X193934Y357796D01*
X193547Y357636D01*
X193516Y357625D01*
X193485Y357612D01*
X193453Y357604D01*
X193421Y357593D01*
X193389Y357586D01*
X193356Y357578D01*
X192946Y357496D01*
X192913Y357492D01*
X192880Y357485D01*
X192847Y357483D01*
X192814Y357479D01*
X192780D01*
X192747Y357477D01*
X187079D01*
X187045Y357479D01*
X187012D01*
X186979Y357483D01*
X186946Y357485D01*
X186913Y357492D01*
X186880Y357496D01*
X186469Y357578D01*
X186437Y357586D01*
X186405Y357593D01*
X186373Y357604D01*
X186341Y357612D01*
X186310Y357625D01*
X186278Y357636D01*
X185892Y357796D01*
X185862Y357811D01*
X185831Y357823D01*
X185802Y357840D01*
X185772Y357855D01*
X185745Y357873D01*
X185716Y357890D01*
X185368Y358123D01*
X185341Y358143D01*
X185313Y358161D01*
X185288Y358183D01*
X185262Y358204D01*
X185238Y358227D01*
X185213Y358249D01*
X184917Y358545D01*
X184895Y358570D01*
X184872Y358594D01*
X184851Y358620D01*
X184830Y358645D01*
X184811Y358673D01*
X184791Y358699D01*
X184558Y359048D01*
X184541Y359076D01*
X184523Y359104D01*
X184508Y359134D01*
X184492Y359163D01*
X184479Y359194D01*
X184464Y359224D01*
X184304Y359610D01*
X184293Y359642D01*
X184280Y359673D01*
X184272Y359705D01*
X184261Y359736D01*
X184255Y359769D01*
X184246Y359801D01*
X184164Y360212D01*
X184160Y360245D01*
X184153Y360278D01*
X184151Y360311D01*
X184147Y360344D01*
Y360377D01*
X184145Y360410D01*
Y360620D01*
X184145Y371317D01*
X184153Y371450D01*
X184179Y371580D01*
X184222Y371706D01*
X184281Y371826D01*
X184355Y371936D01*
X184443Y372037D01*
X184543Y372124D01*
X184654Y372198D01*
X184773Y372257D01*
X184899Y372300D01*
X185030Y372326D01*
X185163Y372335D01*
X185205Y372332D01*
X184446Y373086D01*
X184444Y373087D01*
X184443Y373089D01*
X184401Y373136D01*
X184357Y373186D01*
X184356Y373187D01*
X184355Y373189D01*
X184320Y373241D01*
X184283Y373296D01*
X184282Y373298D01*
X184281Y373299D01*
X184254Y373355D01*
X184224Y373415D01*
X184223Y373417D01*
X184222Y373419D01*
X184202Y373480D01*
X184181Y373541D01*
X184180Y373543D01*
X184179Y373545D01*
X184167Y373608D01*
X184154Y373672D01*
X184154Y373674D01*
X184153Y373676D01*
X184149Y373738D01*
X184145Y373805D01*
X184145Y373807D01*
X184145Y373809D01*
Y380240D01*
Y380449D01*
X184147Y380482D01*
Y380516D01*
X184151Y380549D01*
X184153Y380582D01*
X184160Y380615D01*
X184164Y380648D01*
X184246Y381058D01*
X184255Y381090D01*
X184261Y381123D01*
X184272Y381155D01*
X184280Y381187D01*
X184293Y381218D01*
X184304Y381249D01*
X184464Y381636D01*
X184479Y381666D01*
X184492Y381697D01*
X184508Y381726D01*
X184523Y381755D01*
X184541Y381783D01*
X184558Y381812D01*
X184791Y382160D01*
X184811Y382186D01*
X184830Y382214D01*
X184852Y382239D01*
X184872Y382266D01*
X184895Y382289D01*
X184917Y382314D01*
X185213Y382610D01*
X185238Y382632D01*
X185262Y382656D01*
X185289Y382676D01*
X185313Y382698D01*
X185341Y382716D01*
X185368Y382737D01*
X185716Y382970D01*
X185745Y382986D01*
X185772Y383005D01*
X185802Y383019D01*
X185831Y383036D01*
X185862Y383049D01*
X185892Y383064D01*
X186278Y383224D01*
X186310Y383234D01*
X186341Y383247D01*
X186373Y383256D01*
X186405Y383266D01*
X186437Y383273D01*
X186469Y383282D01*
X186880Y383363D01*
X186913Y383368D01*
X186946Y383374D01*
X186979Y383376D01*
X187012Y383381D01*
X187045D01*
X187079Y383383D01*
X192747D01*
X192780Y383381D01*
D02*
G37*
G36*
X315150Y307145D02*
X315183D01*
X315216Y307141D01*
X315249Y307139D01*
X315282Y307132D01*
X315315Y307128D01*
X315726Y307046D01*
X315758Y307038D01*
X315791Y307031D01*
X315822Y307020D01*
X315854Y307012D01*
X315885Y306999D01*
X315917Y306988D01*
X316303Y306828D01*
X316333Y306813D01*
X316364Y306800D01*
X316393Y306784D01*
X316423Y306769D01*
X316451Y306751D01*
X316479Y306734D01*
X316828Y306501D01*
X316854Y306481D01*
X316882Y306462D01*
X316907Y306441D01*
X316933Y306420D01*
X316957Y306397D01*
X316982Y306375D01*
X317278Y306079D01*
X317300Y306054D01*
X317323Y306030D01*
X317344Y306004D01*
X317365Y305979D01*
X317384Y305951D01*
X317404Y305924D01*
X317637Y305576D01*
X317654Y305548D01*
X317672Y305520D01*
X317687Y305490D01*
X317703Y305461D01*
X317716Y305430D01*
X317731Y305400D01*
X317891Y305014D01*
X317902Y304982D01*
X317915Y304951D01*
X317923Y304919D01*
X317934Y304888D01*
X317941Y304855D01*
X317949Y304823D01*
X318031Y304412D01*
X318035Y304379D01*
X318042Y304346D01*
X318044Y304313D01*
X318048Y304280D01*
Y304247D01*
X318050Y304213D01*
Y304004D01*
Y297573D01*
X318050Y297571D01*
X318050Y297569D01*
X318046Y297509D01*
X318042Y297440D01*
X318041Y297438D01*
X318041Y297436D01*
X318029Y297375D01*
X318016Y297309D01*
X318015Y297308D01*
X318015Y297306D01*
X317994Y297244D01*
X317973Y297183D01*
X317972Y297182D01*
X317971Y297180D01*
X317942Y297121D01*
X317914Y297064D01*
X317913Y297062D01*
X317912Y297061D01*
X317876Y297007D01*
X317840Y296953D01*
X317839Y296952D01*
X317838Y296950D01*
X317796Y296903D01*
X317752Y296853D01*
X317751Y296852D01*
X317749Y296850D01*
X317038Y296145D01*
X317165Y296136D01*
X317296Y296110D01*
X317422Y296068D01*
X317541Y296009D01*
X317652Y295935D01*
X317752Y295847D01*
X317840Y295747D01*
X317914Y295636D01*
X317973Y295517D01*
X318016Y295391D01*
X318042Y295260D01*
X318050Y295127D01*
Y284384D01*
Y284175D01*
X318048Y284142D01*
Y284108D01*
X318044Y284075D01*
X318042Y284042D01*
X318035Y284009D01*
X318031Y283976D01*
X317949Y283566D01*
X317941Y283534D01*
X317934Y283501D01*
X317923Y283469D01*
X317915Y283437D01*
X317902Y283406D01*
X317891Y283375D01*
X317731Y282988D01*
X317716Y282958D01*
X317703Y282927D01*
X317687Y282898D01*
X317672Y282869D01*
X317654Y282841D01*
X317637Y282812D01*
X317404Y282464D01*
X317384Y282437D01*
X317365Y282410D01*
X317344Y282385D01*
X317323Y282358D01*
X317300Y282335D01*
X317278Y282310D01*
X316982Y282014D01*
X316957Y281992D01*
X316933Y281968D01*
X316907Y281948D01*
X316882Y281926D01*
X316854Y281907D01*
X316827Y281887D01*
X316479Y281654D01*
X316451Y281638D01*
X316423Y281619D01*
X316393Y281604D01*
X316364Y281588D01*
X316333Y281575D01*
X316303Y281560D01*
X315917Y281400D01*
X315885Y281390D01*
X315854Y281377D01*
X315822Y281368D01*
X315791Y281357D01*
X315758Y281351D01*
X315726Y281342D01*
X315315Y281261D01*
X315282Y281256D01*
X315249Y281250D01*
X315216Y281248D01*
X315183Y281243D01*
X315150D01*
X315116Y281241D01*
X309448D01*
X309415Y281243D01*
X309381D01*
X309348Y281248D01*
X309315Y281250D01*
X309282Y281256D01*
X309249Y281261D01*
X308839Y281342D01*
X308807Y281351D01*
X308774Y281357D01*
X308742Y281368D01*
X308710Y281377D01*
X308679Y281389D01*
X308648Y281400D01*
X308261Y281560D01*
X308231Y281575D01*
X308200Y281588D01*
X308171Y281604D01*
X308142Y281619D01*
X308114Y281638D01*
X308085Y281654D01*
X307737Y281887D01*
X307710Y281907D01*
X307683Y281926D01*
X307658Y281948D01*
X307631Y281968D01*
X307608Y281992D01*
X307583Y282014D01*
X307287Y282310D01*
X307265Y282335D01*
X307241Y282358D01*
X307221Y282385D01*
X307199Y282410D01*
X307180Y282437D01*
X307160Y282464D01*
X306928Y282812D01*
X306911Y282841D01*
X306892Y282869D01*
X306877Y282898D01*
X306861Y282927D01*
X306848Y282958D01*
X306833Y282988D01*
X306673Y283375D01*
X306663Y283406D01*
X306650Y283437D01*
X306641Y283469D01*
X306630Y283501D01*
X306624Y283533D01*
X306615Y283566D01*
X306534Y283976D01*
X306529Y284009D01*
X306523Y284042D01*
X306521Y284075D01*
X306516Y284108D01*
Y284142D01*
X306514Y284175D01*
Y284384D01*
X306514Y295081D01*
X306523Y295214D01*
X306549Y295345D01*
X306591Y295471D01*
X306650Y295590D01*
X306724Y295701D01*
X306812Y295801D01*
X306912Y295889D01*
X307023Y295963D01*
X307143Y296022D01*
X307269Y296065D01*
X307399Y296091D01*
X307532Y296099D01*
X307575Y296096D01*
X306815Y296850D01*
X306814Y296852D01*
X306812Y296853D01*
X306771Y296901D01*
X306727Y296950D01*
X306726Y296952D01*
X306724Y296953D01*
X306690Y297005D01*
X306652Y297061D01*
X306651Y297062D01*
X306650Y297064D01*
X306623Y297120D01*
X306593Y297180D01*
X306592Y297182D01*
X306591Y297183D01*
X306571Y297244D01*
X306550Y297306D01*
X306549Y297308D01*
X306549Y297309D01*
X306536Y297372D01*
X306523Y297436D01*
X306523Y297438D01*
X306523Y297440D01*
X306519Y297503D01*
X306514Y297569D01*
X306514Y297571D01*
X306514Y297573D01*
Y304004D01*
Y304213D01*
X306516Y304247D01*
Y304280D01*
X306521Y304313D01*
X306523Y304346D01*
X306529Y304379D01*
X306534Y304412D01*
X306615Y304823D01*
X306624Y304855D01*
X306630Y304888D01*
X306641Y304919D01*
X306650Y304951D01*
X306662Y304982D01*
X306673Y305014D01*
X306833Y305400D01*
X306848Y305430D01*
X306861Y305461D01*
X306877Y305490D01*
X306892Y305520D01*
X306911Y305548D01*
X306928Y305576D01*
X307160Y305924D01*
X307180Y305951D01*
X307199Y305979D01*
X307221Y306004D01*
X307241Y306030D01*
X307265Y306054D01*
X307287Y306079D01*
X307583Y306375D01*
X307608Y306397D01*
X307631Y306420D01*
X307658Y306441D01*
X307683Y306462D01*
X307710Y306481D01*
X307737Y306501D01*
X308085Y306734D01*
X308114Y306751D01*
X308142Y306769D01*
X308171Y306784D01*
X308200Y306800D01*
X308231Y306813D01*
X308261Y306828D01*
X308648Y306988D01*
X308679Y306999D01*
X308710Y307012D01*
X308742Y307020D01*
X308774Y307031D01*
X308806Y307038D01*
X308839Y307046D01*
X309249Y307128D01*
X309282Y307132D01*
X309315Y307139D01*
X309348Y307141D01*
X309381Y307145D01*
X309415D01*
X309448Y307147D01*
X315116D01*
X315150Y307145D01*
D02*
G37*
G36*
X192780Y295435D02*
X192814D01*
X192847Y295431D01*
X192880Y295429D01*
X192913Y295422D01*
X192946Y295418D01*
X193356Y295336D01*
X193389Y295328D01*
X193421Y295321D01*
X193453Y295310D01*
X193485Y295302D01*
X193516Y295289D01*
X193547Y295278D01*
X193934Y295118D01*
X193964Y295103D01*
X193995Y295091D01*
X194024Y295074D01*
X194054Y295059D01*
X194081Y295041D01*
X194110Y295024D01*
X194458Y294791D01*
X194485Y294771D01*
X194512Y294753D01*
X194538Y294731D01*
X194564Y294710D01*
X194587Y294687D01*
X194613Y294665D01*
X194909Y294369D01*
X194930Y294344D01*
X194954Y294320D01*
X194974Y294294D01*
X194996Y294269D01*
X195015Y294241D01*
X195035Y294214D01*
X195268Y293867D01*
X195284Y293838D01*
X195303Y293810D01*
X195318Y293780D01*
X195334Y293751D01*
X195347Y293720D01*
X195362Y293690D01*
X195522Y293304D01*
X195533Y293272D01*
X195545Y293241D01*
X195554Y293209D01*
X195565Y293178D01*
X195571Y293145D01*
X195580Y293113D01*
X195662Y292702D01*
X195666Y292669D01*
X195672Y292636D01*
X195675Y292603D01*
X195679Y292570D01*
Y292537D01*
X195681Y292504D01*
Y292294D01*
Y285863D01*
X195681Y285861D01*
X195681Y285859D01*
X195677Y285799D01*
X195672Y285730D01*
X195672Y285728D01*
X195672Y285726D01*
X195660Y285665D01*
X195646Y285600D01*
X195646Y285598D01*
X195645Y285596D01*
X195624Y285535D01*
X195604Y285473D01*
X195603Y285472D01*
X195602Y285470D01*
X195573Y285411D01*
X195545Y285354D01*
X195544Y285352D01*
X195543Y285351D01*
X195506Y285297D01*
X195471Y285243D01*
X195469Y285242D01*
X195468Y285240D01*
X195426Y285193D01*
X195383Y285143D01*
X195381Y285142D01*
X195380Y285140D01*
X194669Y284435D01*
X194796Y284427D01*
X194926Y284401D01*
X195053Y284358D01*
X195172Y284299D01*
X195283Y284225D01*
X195383Y284137D01*
X195471Y284037D01*
X195545Y283926D01*
X195604Y283807D01*
X195646Y283681D01*
X195672Y283550D01*
X195681Y283417D01*
Y272674D01*
Y272465D01*
X195679Y272432D01*
Y272398D01*
X195675Y272365D01*
X195672Y272332D01*
X195666Y272299D01*
X195662Y272266D01*
X195580Y271856D01*
X195571Y271824D01*
X195565Y271791D01*
X195554Y271759D01*
X195545Y271727D01*
X195533Y271696D01*
X195522Y271665D01*
X195362Y271278D01*
X195347Y271248D01*
X195334Y271217D01*
X195318Y271189D01*
X195303Y271159D01*
X195284Y271131D01*
X195268Y271102D01*
X195035Y270754D01*
X195015Y270728D01*
X194996Y270700D01*
X194974Y270675D01*
X194954Y270648D01*
X194930Y270625D01*
X194909Y270600D01*
X194613Y270304D01*
X194587Y270282D01*
X194564Y270258D01*
X194537Y270238D01*
X194512Y270216D01*
X194485Y270198D01*
X194458Y270177D01*
X194110Y269944D01*
X194081Y269928D01*
X194054Y269909D01*
X194024Y269895D01*
X193995Y269878D01*
X193964Y269865D01*
X193934Y269850D01*
X193547Y269690D01*
X193516Y269680D01*
X193485Y269667D01*
X193453Y269658D01*
X193421Y269648D01*
X193389Y269641D01*
X193356Y269632D01*
X192946Y269551D01*
X192913Y269546D01*
X192880Y269540D01*
X192847Y269538D01*
X192814Y269533D01*
X192780D01*
X192747Y269531D01*
X187079D01*
X187045Y269533D01*
X187012D01*
X186979Y269538D01*
X186946Y269540D01*
X186913Y269546D01*
X186880Y269551D01*
X186469Y269632D01*
X186437Y269641D01*
X186405Y269648D01*
X186373Y269658D01*
X186341Y269667D01*
X186310Y269680D01*
X186278Y269690D01*
X185892Y269850D01*
X185862Y269865D01*
X185831Y269878D01*
X185802Y269895D01*
X185772Y269909D01*
X185745Y269928D01*
X185716Y269944D01*
X185368Y270177D01*
X185341Y270197D01*
X185313Y270216D01*
X185288Y270238D01*
X185262Y270258D01*
X185238Y270282D01*
X185213Y270304D01*
X184917Y270600D01*
X184895Y270625D01*
X184872Y270648D01*
X184851Y270675D01*
X184830Y270700D01*
X184811Y270727D01*
X184791Y270754D01*
X184558Y271102D01*
X184541Y271131D01*
X184523Y271159D01*
X184508Y271189D01*
X184492Y271217D01*
X184479Y271248D01*
X184464Y271278D01*
X184304Y271665D01*
X184293Y271696D01*
X184280Y271727D01*
X184272Y271759D01*
X184261Y271791D01*
X184255Y271824D01*
X184246Y271856D01*
X184164Y272266D01*
X184160Y272299D01*
X184153Y272332D01*
X184151Y272365D01*
X184147Y272398D01*
Y272432D01*
X184145Y272465D01*
Y272674D01*
X184145Y283371D01*
X184153Y283504D01*
X184179Y283635D01*
X184222Y283761D01*
X184281Y283880D01*
X184355Y283991D01*
X184443Y284091D01*
X184543Y284179D01*
X184654Y284253D01*
X184773Y284312D01*
X184899Y284355D01*
X185030Y284381D01*
X185163Y284389D01*
X185205Y284387D01*
X184446Y285140D01*
X184444Y285142D01*
X184443Y285143D01*
X184401Y285191D01*
X184357Y285240D01*
X184356Y285242D01*
X184355Y285243D01*
X184320Y285295D01*
X184283Y285351D01*
X184282Y285352D01*
X184281Y285354D01*
X184254Y285410D01*
X184224Y285470D01*
X184223Y285472D01*
X184222Y285473D01*
X184202Y285535D01*
X184181Y285596D01*
X184180Y285598D01*
X184179Y285600D01*
X184167Y285662D01*
X184154Y285726D01*
X184154Y285728D01*
X184153Y285730D01*
X184149Y285793D01*
X184145Y285859D01*
X184145Y285861D01*
X184145Y285863D01*
Y292294D01*
Y292504D01*
X184147Y292537D01*
Y292570D01*
X184151Y292603D01*
X184153Y292636D01*
X184160Y292669D01*
X184164Y292702D01*
X184246Y293113D01*
X184255Y293145D01*
X184261Y293178D01*
X184272Y293209D01*
X184280Y293241D01*
X184293Y293272D01*
X184304Y293304D01*
X184464Y293690D01*
X184479Y293720D01*
X184492Y293751D01*
X184508Y293780D01*
X184523Y293810D01*
X184541Y293838D01*
X184558Y293867D01*
X184791Y294214D01*
X184811Y294241D01*
X184830Y294269D01*
X184852Y294294D01*
X184872Y294320D01*
X184895Y294344D01*
X184917Y294369D01*
X185213Y294665D01*
X185238Y294687D01*
X185262Y294710D01*
X185289Y294731D01*
X185313Y294753D01*
X185341Y294771D01*
X185368Y294792D01*
X185716Y295024D01*
X185745Y295041D01*
X185772Y295059D01*
X185802Y295074D01*
X185831Y295091D01*
X185862Y295103D01*
X185892Y295118D01*
X186278Y295278D01*
X186310Y295289D01*
X186341Y295302D01*
X186373Y295310D01*
X186405Y295321D01*
X186437Y295328D01*
X186469Y295336D01*
X186880Y295418D01*
X186913Y295422D01*
X186946Y295429D01*
X186979Y295431D01*
X187012Y295435D01*
X187045D01*
X187079Y295438D01*
X192747D01*
X192780Y295435D01*
D02*
G37*
G36*
Y207490D02*
X192814D01*
X192847Y207486D01*
X192880Y207483D01*
X192913Y207477D01*
X192946Y207472D01*
X193356Y207391D01*
X193389Y207382D01*
X193421Y207376D01*
X193453Y207365D01*
X193485Y207356D01*
X193516Y207344D01*
X193547Y207333D01*
X193934Y207173D01*
X193964Y207158D01*
X193995Y207145D01*
X194024Y207128D01*
X194054Y207114D01*
X194081Y207095D01*
X194110Y207078D01*
X194458Y206846D01*
X194485Y206826D01*
X194512Y206807D01*
X194538Y206785D01*
X194564Y206765D01*
X194587Y206741D01*
X194613Y206719D01*
X194909Y206423D01*
X194930Y206398D01*
X194954Y206375D01*
X194974Y206348D01*
X194996Y206323D01*
X195015Y206296D01*
X195035Y206269D01*
X195268Y205921D01*
X195284Y205892D01*
X195303Y205864D01*
X195318Y205835D01*
X195334Y205806D01*
X195347Y205775D01*
X195362Y205745D01*
X195522Y205358D01*
X195533Y205327D01*
X195545Y205296D01*
X195554Y205264D01*
X195565Y205232D01*
X195571Y205200D01*
X195580Y205167D01*
X195662Y204757D01*
X195666Y204724D01*
X195672Y204691D01*
X195675Y204658D01*
X195679Y204625D01*
Y204591D01*
X195681Y204558D01*
Y204349D01*
Y197918D01*
X195681Y197916D01*
X195681Y197914D01*
X195677Y197854D01*
X195672Y197785D01*
X195672Y197783D01*
X195672Y197781D01*
X195660Y197720D01*
X195646Y197654D01*
X195646Y197652D01*
X195645Y197650D01*
X195624Y197589D01*
X195604Y197528D01*
X195603Y197526D01*
X195602Y197524D01*
X195573Y197466D01*
X195545Y197409D01*
X195544Y197407D01*
X195543Y197405D01*
X195506Y197351D01*
X195471Y197298D01*
X195469Y197296D01*
X195468Y197295D01*
X195426Y197247D01*
X195383Y197198D01*
X195381Y197196D01*
X195380Y197195D01*
X194669Y196489D01*
X194796Y196481D01*
X194926Y196455D01*
X195053Y196412D01*
X195172Y196353D01*
X195283Y196279D01*
X195383Y196192D01*
X195471Y196091D01*
X195545Y195981D01*
X195604Y195861D01*
X195646Y195735D01*
X195672Y195605D01*
X195681Y195472D01*
Y184729D01*
Y184520D01*
X195679Y184486D01*
Y184453D01*
X195675Y184420D01*
X195672Y184387D01*
X195666Y184354D01*
X195662Y184321D01*
X195580Y183910D01*
X195571Y183878D01*
X195565Y183846D01*
X195554Y183814D01*
X195545Y183782D01*
X195533Y183751D01*
X195522Y183719D01*
X195362Y183333D01*
X195347Y183303D01*
X195334Y183272D01*
X195318Y183243D01*
X195303Y183213D01*
X195284Y183186D01*
X195268Y183157D01*
X195035Y182808D01*
X195015Y182782D01*
X194996Y182754D01*
X194974Y182729D01*
X194954Y182703D01*
X194930Y182679D01*
X194909Y182654D01*
X194613Y182358D01*
X194587Y182336D01*
X194564Y182313D01*
X194537Y182292D01*
X194512Y182271D01*
X194485Y182252D01*
X194458Y182232D01*
X194110Y181999D01*
X194081Y181982D01*
X194054Y181964D01*
X194024Y181949D01*
X193995Y181933D01*
X193964Y181920D01*
X193934Y181905D01*
X193547Y181745D01*
X193516Y181734D01*
X193485Y181721D01*
X193453Y181713D01*
X193421Y181702D01*
X193389Y181695D01*
X193356Y181687D01*
X192946Y181605D01*
X192913Y181601D01*
X192880Y181594D01*
X192847Y181592D01*
X192814Y181588D01*
X192780D01*
X192747Y181586D01*
X187079D01*
X187045Y181588D01*
X187012D01*
X186979Y181592D01*
X186946Y181594D01*
X186913Y181601D01*
X186880Y181605D01*
X186469Y181687D01*
X186437Y181695D01*
X186405Y181702D01*
X186373Y181713D01*
X186341Y181721D01*
X186310Y181734D01*
X186278Y181745D01*
X185892Y181905D01*
X185862Y181920D01*
X185831Y181933D01*
X185802Y181949D01*
X185772Y181964D01*
X185745Y181982D01*
X185716Y181999D01*
X185368Y182232D01*
X185341Y182252D01*
X185313Y182271D01*
X185288Y182292D01*
X185262Y182313D01*
X185238Y182336D01*
X185213Y182358D01*
X184917Y182654D01*
X184895Y182679D01*
X184872Y182703D01*
X184851Y182729D01*
X184830Y182754D01*
X184811Y182782D01*
X184791Y182808D01*
X184558Y183157D01*
X184541Y183186D01*
X184523Y183213D01*
X184508Y183243D01*
X184492Y183272D01*
X184479Y183303D01*
X184464Y183333D01*
X184304Y183719D01*
X184293Y183751D01*
X184280Y183782D01*
X184272Y183814D01*
X184261Y183846D01*
X184255Y183878D01*
X184246Y183910D01*
X184164Y184321D01*
X184160Y184354D01*
X184153Y184387D01*
X184151Y184420D01*
X184147Y184453D01*
Y184486D01*
X184145Y184520D01*
Y184729D01*
X184145Y195426D01*
X184153Y195559D01*
X184179Y195689D01*
X184222Y195815D01*
X184281Y195935D01*
X184355Y196045D01*
X184443Y196146D01*
X184543Y196234D01*
X184654Y196308D01*
X184773Y196366D01*
X184899Y196409D01*
X185030Y196435D01*
X185163Y196444D01*
X185205Y196441D01*
X184446Y197195D01*
X184444Y197196D01*
X184443Y197198D01*
X184401Y197245D01*
X184357Y197295D01*
X184356Y197296D01*
X184355Y197298D01*
X184320Y197350D01*
X184283Y197405D01*
X184282Y197407D01*
X184281Y197409D01*
X184254Y197464D01*
X184224Y197524D01*
X184223Y197526D01*
X184222Y197528D01*
X184202Y197589D01*
X184181Y197650D01*
X184180Y197652D01*
X184179Y197654D01*
X184167Y197717D01*
X184154Y197781D01*
X184154Y197783D01*
X184153Y197785D01*
X184149Y197847D01*
X184145Y197914D01*
X184145Y197916D01*
X184145Y197918D01*
Y204349D01*
Y204558D01*
X184147Y204591D01*
Y204625D01*
X184151Y204658D01*
X184153Y204691D01*
X184160Y204724D01*
X184164Y204757D01*
X184246Y205167D01*
X184255Y205199D01*
X184261Y205232D01*
X184272Y205264D01*
X184280Y205296D01*
X184293Y205327D01*
X184304Y205358D01*
X184464Y205745D01*
X184479Y205775D01*
X184492Y205806D01*
X184508Y205835D01*
X184523Y205864D01*
X184541Y205892D01*
X184558Y205921D01*
X184791Y206269D01*
X184811Y206296D01*
X184830Y206323D01*
X184852Y206348D01*
X184872Y206375D01*
X184895Y206398D01*
X184917Y206423D01*
X185213Y206719D01*
X185238Y206741D01*
X185262Y206765D01*
X185289Y206785D01*
X185313Y206807D01*
X185341Y206826D01*
X185368Y206846D01*
X185716Y207078D01*
X185745Y207095D01*
X185772Y207114D01*
X185802Y207128D01*
X185831Y207145D01*
X185862Y207158D01*
X185892Y207173D01*
X186278Y207333D01*
X186310Y207344D01*
X186341Y207356D01*
X186373Y207365D01*
X186405Y207376D01*
X186437Y207382D01*
X186469Y207391D01*
X186880Y207472D01*
X186913Y207477D01*
X186946Y207483D01*
X186979Y207486D01*
X187012Y207490D01*
X187045D01*
X187079Y207492D01*
X192747D01*
X192780Y207490D01*
D02*
G37*
G36*
Y119544D02*
X192814D01*
X192847Y119540D01*
X192880Y119538D01*
X192913Y119531D01*
X192946Y119527D01*
X193356Y119445D01*
X193389Y119437D01*
X193421Y119430D01*
X193453Y119419D01*
X193485Y119411D01*
X193516Y119398D01*
X193547Y119387D01*
X193934Y119227D01*
X193964Y119212D01*
X193995Y119200D01*
X194024Y119183D01*
X194054Y119168D01*
X194081Y119150D01*
X194110Y119133D01*
X194458Y118900D01*
X194485Y118880D01*
X194512Y118862D01*
X194538Y118840D01*
X194564Y118819D01*
X194587Y118796D01*
X194613Y118774D01*
X194909Y118478D01*
X194930Y118453D01*
X194954Y118429D01*
X194974Y118403D01*
X194996Y118378D01*
X195015Y118350D01*
X195035Y118324D01*
X195268Y117976D01*
X195284Y117947D01*
X195303Y117919D01*
X195318Y117889D01*
X195334Y117860D01*
X195347Y117829D01*
X195362Y117800D01*
X195522Y117413D01*
X195533Y117381D01*
X195545Y117351D01*
X195554Y117318D01*
X195565Y117287D01*
X195571Y117254D01*
X195580Y117222D01*
X195662Y116811D01*
X195666Y116778D01*
X195672Y116746D01*
X195675Y116712D01*
X195679Y116679D01*
Y116646D01*
X195681Y116613D01*
Y116403D01*
Y109972D01*
X195681Y109970D01*
X195681Y109968D01*
X195677Y109909D01*
X195672Y109839D01*
X195672Y109837D01*
X195672Y109835D01*
X195660Y109775D01*
X195646Y109709D01*
X195646Y109707D01*
X195645Y109705D01*
X195624Y109644D01*
X195604Y109583D01*
X195603Y109581D01*
X195602Y109579D01*
X195573Y109520D01*
X195545Y109463D01*
X195544Y109461D01*
X195543Y109460D01*
X195506Y109406D01*
X195471Y109352D01*
X195469Y109351D01*
X195468Y109349D01*
X195426Y109302D01*
X195383Y109252D01*
X195381Y109251D01*
X195380Y109249D01*
X194669Y108544D01*
X194796Y108536D01*
X194926Y108510D01*
X195053Y108467D01*
X195172Y108408D01*
X195283Y108334D01*
X195383Y108246D01*
X195471Y108146D01*
X195545Y108035D01*
X195604Y107916D01*
X195646Y107790D01*
X195672Y107659D01*
X195681Y107526D01*
Y96783D01*
Y96574D01*
X195679Y96541D01*
Y96507D01*
X195675Y96474D01*
X195672Y96441D01*
X195666Y96408D01*
X195662Y96375D01*
X195580Y95965D01*
X195571Y95933D01*
X195565Y95900D01*
X195554Y95868D01*
X195545Y95836D01*
X195533Y95806D01*
X195522Y95774D01*
X195362Y95387D01*
X195347Y95357D01*
X195334Y95326D01*
X195318Y95297D01*
X195303Y95268D01*
X195284Y95240D01*
X195268Y95211D01*
X195035Y94863D01*
X195015Y94837D01*
X194996Y94809D01*
X194974Y94784D01*
X194954Y94757D01*
X194930Y94734D01*
X194909Y94709D01*
X194613Y94413D01*
X194587Y94391D01*
X194564Y94367D01*
X194537Y94347D01*
X194512Y94325D01*
X194485Y94307D01*
X194458Y94286D01*
X194110Y94054D01*
X194081Y94037D01*
X194054Y94018D01*
X194024Y94004D01*
X193995Y93987D01*
X193964Y93974D01*
X193934Y93960D01*
X193547Y93799D01*
X193516Y93789D01*
X193485Y93776D01*
X193453Y93767D01*
X193421Y93757D01*
X193389Y93750D01*
X193356Y93741D01*
X192946Y93660D01*
X192913Y93655D01*
X192880Y93649D01*
X192847Y93647D01*
X192814Y93642D01*
X192780D01*
X192747Y93640D01*
X187079D01*
X187045Y93642D01*
X187012D01*
X186979Y93647D01*
X186946Y93649D01*
X186913Y93655D01*
X186880Y93660D01*
X186469Y93741D01*
X186437Y93750D01*
X186405Y93757D01*
X186373Y93767D01*
X186341Y93776D01*
X186310Y93789D01*
X186278Y93799D01*
X185892Y93960D01*
X185862Y93974D01*
X185831Y93987D01*
X185802Y94004D01*
X185772Y94018D01*
X185745Y94037D01*
X185716Y94054D01*
X185368Y94286D01*
X185341Y94306D01*
X185313Y94325D01*
X185288Y94347D01*
X185262Y94367D01*
X185238Y94391D01*
X185213Y94413D01*
X184917Y94709D01*
X184895Y94734D01*
X184872Y94757D01*
X184851Y94784D01*
X184830Y94809D01*
X184811Y94837D01*
X184791Y94863D01*
X184558Y95211D01*
X184541Y95240D01*
X184523Y95268D01*
X184508Y95297D01*
X184492Y95326D01*
X184479Y95357D01*
X184464Y95387D01*
X184304Y95774D01*
X184293Y95805D01*
X184280Y95836D01*
X184272Y95869D01*
X184261Y95900D01*
X184255Y95933D01*
X184246Y95965D01*
X184164Y96375D01*
X184160Y96408D01*
X184153Y96441D01*
X184151Y96474D01*
X184147Y96507D01*
Y96541D01*
X184145Y96574D01*
Y96783D01*
X184145Y107480D01*
X184153Y107613D01*
X184179Y107744D01*
X184222Y107870D01*
X184281Y107989D01*
X184355Y108100D01*
X184443Y108200D01*
X184543Y108288D01*
X184654Y108362D01*
X184773Y108421D01*
X184899Y108464D01*
X185030Y108490D01*
X185163Y108498D01*
X185205Y108496D01*
X184446Y109249D01*
X184444Y109251D01*
X184443Y109252D01*
X184401Y109300D01*
X184357Y109349D01*
X184356Y109351D01*
X184355Y109352D01*
X184320Y109404D01*
X184283Y109460D01*
X184282Y109462D01*
X184281Y109463D01*
X184254Y109519D01*
X184224Y109579D01*
X184223Y109581D01*
X184222Y109583D01*
X184202Y109644D01*
X184181Y109705D01*
X184180Y109707D01*
X184179Y109709D01*
X184167Y109771D01*
X184154Y109835D01*
X184154Y109837D01*
X184153Y109839D01*
X184149Y109902D01*
X184145Y109968D01*
X184145Y109970D01*
X184145Y109972D01*
Y116403D01*
Y116613D01*
X184147Y116646D01*
Y116679D01*
X184151Y116712D01*
X184153Y116746D01*
X184160Y116778D01*
X184164Y116811D01*
X184246Y117222D01*
X184255Y117254D01*
X184261Y117287D01*
X184272Y117318D01*
X184280Y117351D01*
X184293Y117381D01*
X184304Y117413D01*
X184464Y117800D01*
X184479Y117829D01*
X184492Y117860D01*
X184508Y117889D01*
X184523Y117919D01*
X184541Y117947D01*
X184558Y117976D01*
X184791Y118324D01*
X184811Y118350D01*
X184830Y118378D01*
X184852Y118403D01*
X184872Y118429D01*
X184895Y118453D01*
X184917Y118478D01*
X185213Y118774D01*
X185238Y118796D01*
X185262Y118819D01*
X185289Y118840D01*
X185313Y118862D01*
X185341Y118880D01*
X185368Y118900D01*
X185716Y119133D01*
X185745Y119150D01*
X185772Y119168D01*
X185802Y119183D01*
X185831Y119200D01*
X185862Y119213D01*
X185892Y119227D01*
X186278Y119387D01*
X186310Y119398D01*
X186341Y119411D01*
X186373Y119419D01*
X186405Y119430D01*
X186437Y119437D01*
X186469Y119445D01*
X186880Y119527D01*
X186913Y119531D01*
X186946Y119538D01*
X186979Y119540D01*
X187012Y119544D01*
X187045D01*
X187079Y119546D01*
X192747D01*
X192780Y119544D01*
D02*
G37*
%LPC*%
G36*
X189838Y368082D02*
X189890Y368030D01*
X189939Y368078D01*
X189917Y368077D01*
X189913Y368077D01*
X189909Y368077D01*
X189843Y368081D01*
X189838Y368082D01*
D02*
G37*
G36*
X312207Y291846D02*
X312259Y291794D01*
X312308Y291842D01*
X312286Y291841D01*
X312282Y291841D01*
X312278Y291841D01*
X312212Y291846D01*
X312207Y291846D01*
D02*
G37*
G36*
X189838Y280136D02*
X189890Y280084D01*
X189939Y280133D01*
X189917Y280131D01*
X189913Y280131D01*
X189909Y280131D01*
X189843Y280136D01*
X189838Y280136D01*
D02*
G37*
G36*
Y192190D02*
X189890Y192139D01*
X189939Y192187D01*
X189917Y192186D01*
X189913Y192186D01*
X189909Y192186D01*
X189843Y192190D01*
X189838Y192190D01*
D02*
G37*
G36*
Y104245D02*
X189890Y104193D01*
X189939Y104242D01*
X189917Y104240D01*
X189913Y104240D01*
X189909Y104240D01*
X189843Y104245D01*
X189838Y104245D01*
D02*
G37*
%LPD*%
D71*
X10000Y34540D02*
G03*
X32000Y12540I22000J0D01*
G01*
X215606Y28536D02*
G03*
X198111Y12540I394J-17996D01*
G01*
X31627Y892537D02*
G03*
X10000Y870540I373J-21997D01*
G01*
X198005Y892536D02*
G03*
X215608Y876538I17889J2000D01*
G01*
X731889Y12540D02*
G03*
X714285Y28538I-17889J-2000D01*
G01*
X898000Y12540D02*
G03*
X920000Y34540I0J22000D01*
G01*
X904000Y150492D02*
G03*
X920000Y132652I18000J48D01*
G01*
X714287Y876541D02*
G03*
X731782Y892536I-394J17996D01*
G01*
X920000Y777499D02*
G03*
X904000Y759611I2000J-17889D01*
G01*
X920000Y870598D02*
G03*
X898151Y892540I-22000J-58D01*
G01*
X9999Y34673D02*
Y97065D01*
X32000Y12540D02*
X142431D01*
X198111D01*
X369872Y28540D02*
X509746D01*
X215900Y28540D02*
X360872D01*
X369872Y28540D01*
X509746D02*
X513872Y28540D01*
X515880D01*
X522872Y28540D01*
X531872Y28540D01*
X10000Y819627D02*
Y870540D01*
X31745Y892536D02*
X198005D01*
X215899Y876534D02*
X219902Y876534D01*
X228902Y876534D01*
X237902Y876534D01*
X246902Y876535D01*
X255902Y876535D01*
X258407Y876535D01*
X264902Y876535D01*
X273902Y876535D01*
X282902Y876535D01*
X291902Y876535D01*
X300902Y876535D01*
X309902Y876535D01*
X318902Y876535D01*
X327902Y876535D01*
X336902Y876535D01*
X345902Y876535D01*
X354902Y876535D01*
X355507D02*
X363902Y876536D01*
X354902Y876535D02*
X355507D01*
X363902Y876536D02*
X372902Y876536D01*
X381902Y876536D01*
X390902Y876536D01*
X399902Y876536D01*
X408902Y876536D01*
X417902Y876536D01*
X420147Y876536D01*
X561902D01*
X531872Y28540D02*
X540872Y28540D01*
X545850Y28540D01*
X549872Y28540D01*
X558872Y28540D01*
X567872Y28541D01*
X576872Y28541D01*
X585872Y28541D01*
X594872Y28541D01*
X603872Y28541D01*
X612872Y28541D01*
X621872Y28541D01*
X630872Y28541D01*
X639872Y28541D01*
X648872Y28541D01*
X657872Y28542D01*
X666850Y28542D01*
X666872D01*
X675872Y28542D01*
X684872Y28542D01*
X693872Y28542D01*
X702872Y28542D01*
X711872Y28542D01*
X713994Y28542D01*
X731889Y12540D02*
X898000D01*
X920000Y34540D02*
Y132652D01*
X904000Y150540D02*
Y205519D01*
X904000Y214519D01*
Y331519D01*
X904000Y340519D01*
Y448519D01*
X904000Y457519D02*
Y574519D01*
X904000Y448519D02*
X904000Y457519D01*
X561902Y876536D02*
X570902Y876536D01*
X713993D01*
X904000Y574519D02*
X904000Y583519D01*
Y691518D01*
X904000Y700518D01*
X731782Y892536D02*
X897893D01*
X904000Y700518D02*
Y759556D01*
X920000Y777499D02*
Y870598D01*
D72*
X348808Y328190D02*
D03*
X368216Y302644D02*
D03*
X513216D02*
D03*
X443691Y443644D02*
D03*
X443691Y474144D02*
D03*
X93400Y816050D02*
D03*
X104325D02*
D03*
X137100D02*
D03*
X343216Y523644D02*
D03*
X388216D02*
D03*
X431000Y369047D02*
D03*
Y401559D02*
D03*
X312282Y328190D02*
D03*
X312282Y262129D02*
D03*
X368216Y312644D02*
D03*
X403216Y302644D02*
D03*
X513216Y312644D02*
D03*
X145006Y543498D02*
D03*
Y498106D02*
D03*
X145006Y566194D02*
D03*
X241000Y439326D02*
D03*
X251401D02*
D03*
X253400Y563985D02*
D03*
X93400Y806050D02*
D03*
X343216Y513644D02*
D03*
X363216Y523644D02*
D03*
X358700Y564200D02*
D03*
X431000Y391559D02*
D03*
X443691Y453644D02*
D03*
X388216Y513644D02*
D03*
X443691Y464144D02*
D03*
X443216Y523644D02*
D03*
X666039Y689730D02*
D03*
X736683Y749460D02*
D03*
X754000D02*
D03*
X754000Y776000D02*
D03*
X241000Y429326D02*
D03*
X251401D02*
D03*
X431000Y379047D02*
D03*
X754000Y786000D02*
D03*
X736683Y739460D02*
D03*
X754000D02*
D03*
X666039Y699730D02*
D03*
X348808Y318190D02*
D03*
X145006Y465409D02*
D03*
Y475409D02*
D03*
Y488106D02*
D03*
X312282Y272129D02*
D03*
X312282Y318190D02*
D03*
X358000Y328190D02*
D03*
Y318190D02*
D03*
X253400Y553985D02*
D03*
X145006Y556194D02*
D03*
X145006Y510802D02*
D03*
Y520802D02*
D03*
Y533498D02*
D03*
X403216Y312644D02*
D03*
X358700Y554200D02*
D03*
X363216Y513644D02*
D03*
X443216D02*
D03*
X104325Y806050D02*
D03*
X115250Y806050D02*
D03*
Y816050D02*
D03*
X126175Y806050D02*
D03*
Y816050D02*
D03*
X137100Y806050D02*
D03*
D73*
X314570Y354144D02*
D03*
X350529Y260044D02*
D03*
X536716Y359144D02*
D03*
Y440644D02*
D03*
X314716Y460644D02*
D03*
Y480644D02*
D03*
X496191Y474644D02*
D03*
X444191Y420644D02*
D03*
X454191Y474644D02*
D03*
X599750Y810340D02*
D03*
X554000Y787500D02*
D03*
Y800250D02*
D03*
X706434Y688676D02*
D03*
Y676013D02*
D03*
X506880Y342000D02*
D03*
X496191Y420644D02*
D03*
X815434Y654966D02*
D03*
Y668166D02*
D03*
X786584Y633033D02*
D03*
X706434Y637267D02*
D03*
X786584Y600533D02*
D03*
X706434Y623844D02*
D03*
X786584Y668166D02*
D03*
X706434Y610422D02*
D03*
Y597000D02*
D03*
X475191Y420644D02*
D03*
X314716Y340644D02*
D03*
X340529Y260044D02*
D03*
X135332Y451326D02*
D03*
X145332Y406326D02*
D03*
X324570Y354144D02*
D03*
X314716Y490644D02*
D03*
Y364144D02*
D03*
X324716Y480644D02*
D03*
Y460644D02*
D03*
X526716Y359144D02*
D03*
X496191Y435644D02*
D03*
X526716Y440644D02*
D03*
X536716Y369144D02*
D03*
Y495644D02*
D03*
X777000Y428713D02*
D03*
X787000Y440908D02*
D03*
Y480074D02*
D03*
X583850Y708798D02*
D03*
Y691631D02*
D03*
X716434Y597000D02*
D03*
X554000Y774750D02*
D03*
X609750Y810340D02*
D03*
X787000Y519241D02*
D03*
Y558408D02*
D03*
X776584Y668166D02*
D03*
X815434Y694566D02*
D03*
X811090Y330000D02*
D03*
Y315000D02*
D03*
Y270000D02*
D03*
Y255977D02*
D03*
X145332Y440076D02*
D03*
X145332Y428826D02*
D03*
X145332Y417576D02*
D03*
X145332Y451326D02*
D03*
X465191Y420644D02*
D03*
X821090Y255977D02*
D03*
Y270000D02*
D03*
Y315000D02*
D03*
Y330000D02*
D03*
X716434Y610422D02*
D03*
X777000Y558408D02*
D03*
X761686Y558408D02*
D03*
X751686D02*
D03*
X777000Y440908D02*
D03*
X787000Y428713D02*
D03*
X761686Y440908D02*
D03*
X751686D02*
D03*
X761686Y480074D02*
D03*
X751686D02*
D03*
X777000Y480074D02*
D03*
X761686Y519241D02*
D03*
X751686D02*
D03*
X777000Y519241D02*
D03*
X135332Y417576D02*
D03*
X716434Y623844D02*
D03*
X776584Y600533D02*
D03*
X716434Y637267D02*
D03*
X776584Y633033D02*
D03*
X716434Y663351D02*
D03*
X706434D02*
D03*
X805434Y707766D02*
D03*
X815434D02*
D03*
X805434Y694566D02*
D03*
X805434Y668166D02*
D03*
Y654966D02*
D03*
X815434Y681366D02*
D03*
X805434D02*
D03*
X706434Y650689D02*
D03*
X716434D02*
D03*
X706434Y701338D02*
D03*
X716434D02*
D03*
X486191Y435644D02*
D03*
X486191Y420644D02*
D03*
X496881Y342000D02*
D03*
X716434Y714000D02*
D03*
X706434D02*
D03*
X716434Y676013D02*
D03*
Y688676D02*
D03*
X564000Y800250D02*
D03*
X486191Y461644D02*
D03*
Y448644D02*
D03*
X564000Y787500D02*
D03*
X564000Y774750D02*
D03*
X593850Y708798D02*
D03*
Y691631D02*
D03*
X135332Y428826D02*
D03*
X135332Y440076D02*
D03*
Y406326D02*
D03*
X324716Y340644D02*
D03*
Y364144D02*
D03*
Y490644D02*
D03*
X526716Y369144D02*
D03*
X496191Y448644D02*
D03*
X454191Y420644D02*
D03*
X496191Y461644D02*
D03*
X526716Y495644D02*
D03*
X486191Y474644D02*
D03*
X464191Y474644D02*
D03*
D74*
X857000Y761716D02*
D03*
Y724216D02*
D03*
Y736716D02*
D03*
Y749216D02*
D03*
X859615Y163250D02*
D03*
Y150750D02*
D03*
D84*
X624950Y797250D02*
D03*
X583950D02*
D03*
X783334Y686216D02*
D03*
X742334D02*
D03*
Y705715D02*
D03*
X624950Y777750D02*
D03*
X783334Y692716D02*
D03*
Y699215D02*
D03*
X742334D02*
D03*
Y692716D02*
D03*
X783334Y705715D02*
D03*
X583950Y777750D02*
D03*
X624950Y784250D02*
D03*
X583950Y790750D02*
D03*
Y784250D02*
D03*
X624950Y790750D02*
D03*
D86*
X433368Y145575D02*
D03*
X407968D02*
D03*
X420668D02*
D03*
X681388Y145577D02*
D03*
X668688D02*
D03*
X694088Y92877D02*
D03*
X433368Y92875D02*
D03*
X446068Y145575D02*
D03*
Y92875D02*
D03*
X407968D02*
D03*
X420668D02*
D03*
X706788Y145577D02*
D03*
Y92877D02*
D03*
X694088Y145577D02*
D03*
X681388Y92877D02*
D03*
X668688D02*
D03*
D89*
X742084Y663469D02*
D03*
X533716Y511998D02*
D03*
X760084Y663469D02*
D03*
X515716Y511998D02*
D03*
D90*
X841300Y240000D02*
D03*
Y300000D02*
D03*
Y545500D02*
D03*
Y575500D02*
D03*
Y560500D02*
D03*
Y590500D02*
D03*
Y650500D02*
D03*
Y620500D02*
D03*
Y605500D02*
D03*
Y635500D02*
D03*
Y315000D02*
D03*
Y255000D02*
D03*
Y330000D02*
D03*
Y270000D02*
D03*
Y285000D02*
D03*
Y345000D02*
D03*
D91*
X599002Y828500D02*
D03*
X611502D02*
D03*
X636502D02*
D03*
X586502D02*
D03*
X574002D02*
D03*
X624002D02*
D03*
D92*
X138189Y105980D02*
D03*
X239825Y69204D02*
D03*
Y105980D02*
D03*
X138189Y193926D02*
D03*
Y281871D02*
D03*
X239825Y157025D02*
D03*
Y244846D02*
D03*
Y193926D02*
D03*
Y332667D02*
D03*
Y281871D02*
D03*
X138189Y369817D02*
D03*
X239825Y369817D02*
D03*
X166189Y193926D02*
D03*
Y369817D02*
D03*
Y281871D02*
D03*
Y105980D02*
D03*
X211825Y69204D02*
D03*
Y105980D02*
D03*
Y157025D02*
D03*
Y193926D02*
D03*
Y244846D02*
D03*
Y281871D02*
D03*
Y332667D02*
D03*
Y369817D02*
D03*
D93*
X485418Y101113D02*
D03*
X746138Y106115D02*
D03*
X806000Y407858D02*
D03*
Y427697D02*
D03*
Y447536D02*
D03*
Y467375D02*
D03*
Y487214D02*
D03*
X822000Y467375D02*
D03*
Y447536D02*
D03*
Y427697D02*
D03*
Y487214D02*
D03*
Y407858D02*
D03*
X469418Y101113D02*
D03*
X730138Y106115D02*
D03*
D94*
X469418Y148975D02*
D03*
X730138Y148977D02*
D03*
X746138D02*
D03*
X746138Y125108D02*
D03*
X469418Y125106D02*
D03*
X485418D02*
D03*
X485418Y148975D02*
D03*
X730138Y125108D02*
D03*
D97*
X533402Y305644D02*
D03*
X422178Y47278D02*
D03*
X533402Y323644D02*
D03*
X682898Y47280D02*
D03*
Y65280D02*
D03*
X422178Y65278D02*
D03*
D99*
X187950Y868200D02*
D03*
X345050D02*
D03*
X684450D02*
D03*
X841550D02*
D03*
X466050Y868200D02*
D03*
X368950D02*
D03*
D101*
X431900Y189900D02*
D03*
X412800D02*
D03*
X431900Y173900D02*
D03*
X412800D02*
D03*
X444680Y51278D02*
D03*
X251401Y490985D02*
D03*
X705400Y51280D02*
D03*
X251401Y474985D02*
D03*
X705400Y67280D02*
D03*
X444680Y67278D02*
D03*
X673520Y173902D02*
D03*
Y189902D02*
D03*
X692620Y173902D02*
D03*
Y189902D02*
D03*
D103*
X888615Y188750D02*
D03*
Y125250D02*
D03*
X886000Y698716D02*
D03*
Y787216D02*
D03*
D104*
X893200Y213950D02*
D03*
Y371050D02*
D03*
Y519450D02*
D03*
Y676550D02*
D03*
D105*
X892480Y391469D02*
D03*
Y503569D02*
D03*
D108*
X75740Y865600D02*
D03*
X164240D02*
D03*
D110*
X662002Y857500D02*
D03*
X548502D02*
D03*
D112*
X840580Y462519D02*
D03*
Y447519D02*
D03*
Y432519D02*
D03*
Y477519D02*
D03*
Y417519D02*
D03*
D115*
X440000Y816300D02*
D03*
X425000D02*
D03*
X410000D02*
D03*
X395000D02*
D03*
X710500Y816300D02*
D03*
X725500D02*
D03*
X740500D02*
D03*
X800500D02*
D03*
X770500D02*
D03*
X755500D02*
D03*
X815500D02*
D03*
X785500D02*
D03*
X274000D02*
D03*
X319000D02*
D03*
X304000D02*
D03*
X289000D02*
D03*
X259000D02*
D03*
X244000D02*
D03*
X214000D02*
D03*
X229000D02*
D03*
D121*
X640500Y450100D02*
D03*
Y424700D02*
D03*
Y348500D02*
D03*
Y297700D02*
D03*
Y399300D02*
D03*
Y373900D02*
D03*
Y323100D02*
D03*
D122*
X35700Y88000D02*
D03*
Y824600D02*
D03*
X893000Y50000D02*
D03*
Y850000D02*
D03*
D123*
X35700Y494400D02*
D03*
X61100D02*
D03*
X35700Y519800D02*
D03*
X61100D02*
D03*
X35700Y723000D02*
D03*
X61100D02*
D03*
X111900Y164200D02*
D03*
X61100Y697600D02*
D03*
X35700D02*
D03*
Y469000D02*
D03*
X61100D02*
D03*
Y291200D02*
D03*
Y316600D02*
D03*
X35700D02*
D03*
X61100Y342000D02*
D03*
X35700D02*
D03*
X61100Y367400D02*
D03*
X35700D02*
D03*
X61100Y392800D02*
D03*
X35700D02*
D03*
X61100Y545200D02*
D03*
X35700D02*
D03*
X61100Y570600D02*
D03*
Y596000D02*
D03*
X35700D02*
D03*
Y570600D02*
D03*
Y621400D02*
D03*
X61100D02*
D03*
Y646800D02*
D03*
X35700D02*
D03*
X61100Y672200D02*
D03*
X35700D02*
D03*
X61100Y748400D02*
D03*
X35700D02*
D03*
X61100Y773800D02*
D03*
X35700D02*
D03*
Y138800D02*
D03*
X61100Y164200D02*
D03*
X35700D02*
D03*
X61100Y189600D02*
D03*
X35700D02*
D03*
X61100Y215000D02*
D03*
X35700D02*
D03*
X61100Y240400D02*
D03*
Y265800D02*
D03*
X35700D02*
D03*
Y291200D02*
D03*
Y240400D02*
D03*
X61100Y418200D02*
D03*
X35700D02*
D03*
Y443600D02*
D03*
X61100D02*
D03*
X86500Y291200D02*
D03*
X111900Y316600D02*
D03*
Y291200D02*
D03*
Y265800D02*
D03*
Y240400D02*
D03*
X86500Y189600D02*
D03*
Y316600D02*
D03*
X111900Y342000D02*
D03*
X86500D02*
D03*
X111900Y367400D02*
D03*
X86500D02*
D03*
Y469000D02*
D03*
X111900Y494400D02*
D03*
X86500D02*
D03*
X111900Y519800D02*
D03*
X86500D02*
D03*
X111900Y545200D02*
D03*
X86500D02*
D03*
X111900Y570600D02*
D03*
X86500D02*
D03*
Y621400D02*
D03*
Y646800D02*
D03*
Y723000D02*
D03*
Y748400D02*
D03*
X111900Y773800D02*
D03*
X86500D02*
D03*
Y138800D02*
D03*
Y164200D02*
D03*
X111900Y189600D02*
D03*
Y215000D02*
D03*
X86500D02*
D03*
Y265800D02*
D03*
Y240400D02*
D03*
Y596000D02*
D03*
X111900D02*
D03*
Y748400D02*
D03*
Y723000D02*
D03*
X86500Y443600D02*
D03*
Y418200D02*
D03*
Y392800D02*
D03*
X111900Y646800D02*
D03*
X86500Y697600D02*
D03*
X111900D02*
D03*
X86500Y672200D02*
D03*
X111900D02*
D03*
Y621400D02*
D03*
Y443600D02*
D03*
Y469000D02*
D03*
Y392800D02*
D03*
Y418200D02*
D03*
D124*
X532600Y601000D02*
D03*
X431000Y728200D02*
D03*
X507200Y753400D02*
D03*
X456400Y728200D02*
D03*
X329400D02*
D03*
Y652000D02*
D03*
X354800Y728200D02*
D03*
X380200D02*
D03*
X405600D02*
D03*
X431000Y652000D02*
D03*
X456400D02*
D03*
X481800D02*
D03*
Y728200D02*
D03*
X405600Y652000D02*
D03*
X354800D02*
D03*
X380200D02*
D03*
X304000D02*
D03*
X278600D02*
D03*
Y728200D02*
D03*
X304000D02*
D03*
X481800Y753400D02*
D03*
X456400D02*
D03*
X431000D02*
D03*
X405600D02*
D03*
X329400Y601000D02*
D03*
X380200D02*
D03*
X354800D02*
D03*
X380200Y753400D02*
D03*
X304000D02*
D03*
X329400D02*
D03*
X456400Y601000D02*
D03*
X481800D02*
D03*
X278600D02*
D03*
X253200D02*
D03*
X227800D02*
D03*
X354800Y753400D02*
D03*
X202400D02*
D03*
X227800D02*
D03*
X507200Y601000D02*
D03*
X532600Y753400D02*
D03*
X431000Y601000D02*
D03*
X405600D02*
D03*
X278600Y753400D02*
D03*
X253200D02*
D03*
X202400Y601000D02*
D03*
X304000D02*
D03*
D125*
X111900Y138800D02*
D03*
X61100D02*
D03*
D126*
X640500Y475500D02*
D03*
D145*
X326800Y198546D02*
D03*
Y97454D02*
D03*
X587520Y198548D02*
D03*
Y97456D02*
D03*
D151*
X457500Y461600D02*
D03*
X472500Y438400D02*
D03*
X467500D02*
D03*
X462500D02*
D03*
X457500D02*
D03*
X462500Y461600D02*
D03*
X467500D02*
D03*
X472500D02*
D03*
D152*
X455900Y445000D02*
D03*
Y455000D02*
D03*
Y450000D02*
D03*
X474100Y455000D02*
D03*
Y450000D02*
D03*
Y445000D02*
D03*
D158*
X450107Y184887D02*
D03*
X483718Y184918D02*
D03*
X784300Y458908D02*
D03*
X750689Y458876D02*
D03*
X784300Y498074D02*
D03*
X750689Y498043D02*
D03*
Y537209D02*
D03*
X784300Y537241D02*
D03*
X750689Y576376D02*
D03*
X784300Y576408D02*
D03*
X744438Y184920D02*
D03*
X710827Y184889D02*
D03*
D159*
X479418Y79100D02*
D03*
X740138Y51102D02*
D03*
X479418Y51100D02*
D03*
X740138Y79102D02*
D03*
D160*
X348029Y276064D02*
D03*
X338529D02*
D03*
X329029Y301164D02*
D03*
X338529D02*
D03*
X329029Y276064D02*
D03*
X348029Y301164D02*
D03*
D161*
X739943Y608533D02*
D03*
X761943Y632533D02*
D03*
Y608533D02*
D03*
X739943Y616533D02*
D03*
X761943Y624533D02*
D03*
X739943Y600533D02*
D03*
X761943D02*
D03*
Y616533D02*
D03*
X739943Y632533D02*
D03*
Y624533D02*
D03*
D162*
X447555Y398050D02*
D03*
X502038Y359950D02*
D03*
X447555D02*
D03*
Y372650D02*
D03*
X502038Y385350D02*
D03*
Y398050D02*
D03*
Y372650D02*
D03*
X447555Y385350D02*
D03*
D163*
X101240Y838100D02*
D03*
X138740D02*
D03*
X113740D02*
D03*
X126240D02*
D03*
D164*
X143689Y68830D02*
D03*
Y156776D02*
D03*
Y244721D02*
D03*
Y332667D02*
D03*
X637220Y59516D02*
D03*
X376500Y59514D02*
D03*
X184689Y244721D02*
D03*
Y332667D02*
D03*
Y156776D02*
D03*
Y68830D02*
D03*
X335500Y59514D02*
D03*
X596220Y59516D02*
D03*
D165*
X427018Y119225D02*
D03*
X687738Y119227D02*
D03*
D166*
X224016Y441676D02*
D03*
X174516Y454376D02*
D03*
Y416276D02*
D03*
X224016Y454376D02*
D03*
Y416276D02*
D03*
X174516Y428976D02*
D03*
Y441676D02*
D03*
X224016Y428976D02*
D03*
D167*
X713259Y462908D02*
D03*
Y502074D02*
D03*
Y541241D02*
D03*
Y580408D02*
D03*
Y443908D02*
D03*
X733259Y453408D02*
D03*
Y492574D02*
D03*
X713259Y483074D02*
D03*
X733259Y531741D02*
D03*
X713259Y522241D02*
D03*
X733259Y570908D02*
D03*
X713259Y561408D02*
D03*
D168*
X228706Y482944D02*
D03*
Y476444D02*
D03*
Y489444D02*
D03*
Y495944D02*
D03*
Y502444D02*
D03*
Y508944D02*
D03*
Y515444D02*
D03*
Y521944D02*
D03*
X171306D02*
D03*
Y515444D02*
D03*
Y508944D02*
D03*
Y502444D02*
D03*
Y495944D02*
D03*
Y489444D02*
D03*
Y482944D02*
D03*
Y476444D02*
D03*
M02*
