M48
;Layer_Color=9474304
;FILE_FORMAT=4:2
METRIC,TZ
;TYPE=PLATED
T01F00S00C0.20
T02F00S00C0.30
T03F00S00C0.90
T04F00S00C1.00
T05F00S00C1.10
T06F00S00C3.18
%
T01
X177Y181
X255Y137
X344Y127
X434
X524
X614
X704
X794
X884
X974
X1064
X1154
X1244
X1334
X1424
X1251Y606
Y669
X1305Y826
X1274Y926
X1274Y1027
X1277Y1113
X1274Y1200
X1384Y1233
X102Y971
Y881
Y791
Y701
Y611
Y521
Y431
X102Y341
X122Y253
X1514Y127
X1604
X1694
X1784
X1874
X1964
X2015Y201
X2082Y261
X2169Y286
X2259Y287
X2349
X2439
X2529
X2619
X2709
X2799
X2889
X2979
X3069
X3159
X3249
X3339
X3429
X3519
X3609
X3699
X3789
X3879
X3969
X4059
X4149
X4239
X4329
X4419
X4509
X4599
X4689
X4779
X4869
X4959
X5049
X5139Y287
X5229Y287
X5319Y287
X5360Y886
X5255
X5120Y1073
Y1177
Y1278
X5100Y1364
X5045Y1231
Y1109
X4854Y1096
X4910Y770
X5000
X4621Y578
Y486
X4447Y373
X4262
X4181
X4056Y450
X3938Y447
Y654
X4073Y668
X3954Y806
X3921Y1119
X4010
X4075Y1076
X4062Y1288
X4010Y1256
X3921
X3933Y1366
X3999
X4142Y1364
X4694Y1409
X3645Y1037
X2852Y1044
X2766
X2654
X2493
Y1123
X2392Y1246
X2367Y1401
X2436
X2534Y1310
X2218Y1425
X2107Y1258
X1822Y1256
X1750Y1200
X1681Y1251
X1676Y1372
X1592
X1553Y1129
X1822Y1116
X1914Y889
X2258Y827
X2249Y664
Y570
Y475
X2156
X2495Y609
Y687
X2760Y750
X2660Y469
X3048Y396
X3251Y401
X3450Y425
X1672Y490
X1586
Y597
X1672
X5409Y287
X5499Y287
X5589Y287
X5679Y287
X5769Y287
X5859Y287
X5949Y287
X6039Y287
X6129Y287
X6219Y287
X6309Y287
X6399Y287
X6489Y287
X6579Y287
X6669Y287
X6759Y287
X6849Y287
X6939Y287
X7029Y287
X7119Y287
X7207Y267
X7277Y212
X7317Y131
X7407Y127
X7497
X7587
X7677
X7767
X7857
X7947
X8037
X8127
X8217
X8307
X8397
X8487
X8577
X8667
X8757
X8847
X8937
X9027Y132
X9109Y169
X9169Y236
X9197Y322
X9198Y412
Y502
Y592
Y682
Y772
Y862
Y952
Y1042
Y1132
Y1222
Y1312
X9123Y1361
X9064Y1429
X8580Y1160
X8420Y1280
X8256Y1060
X8161
X8066
X8170Y546
X8277
X8342Y648
X7638Y481
X7241Y474
X7154Y391
X7054Y387
X6866
X6789
X6591Y462
Y561
Y660
X7241Y654
X7246Y1140
X7135Y1197
X7191Y1278
X7461Y972
X5520Y990
Y1090
X5408Y2312
X5461Y2425
X5652Y2430
X5604Y2548
X5760Y2602
X5890Y2644
X5950Y2800
X6042Y2750
X6085Y2970
X6270Y2910
X6260Y3248
X6042Y3200
X5950Y3105
X5952Y3676
X5958Y3840
X5953Y3924
X5950Y4030
Y4221
X6010Y4298
X6121Y4440
X6290Y4600
X5961Y4634
X5976Y4720
X5959Y4804
X5940Y4940
X6000Y5010
X5940Y5090
X5950Y5190
X5967Y5290
X5970Y5380
X6486Y5370
X6397Y5232
X6380Y5090
X6338Y4996
X6485Y4983
X6640Y4890
X6750Y4983
Y5105
X6743Y5224
Y5350
X6994Y5352
Y5249
Y5051
Y4983
X6870Y5013
X6869Y5153
X6890Y4831
X7250Y5018
X7419Y5163
X7406Y4755
X7250Y4610
X7218Y4240
Y4140
X7088Y4194
X7030Y4260
X6977Y4363
X6615Y4403
X6570Y4120
X6732Y4104
X6736Y4194
X6732Y3936
Y3770
X6565Y3490
X6580Y3277
X6690Y3330
X6845Y3080
X7034Y3059
Y3171
X7145Y3320
X7265
Y3440
X7385
X7505
Y3320
X7385
X7625
X7745
Y3440
X7625
Y3560
X7505
X7385
X7265
X7145
Y3440
X7153Y2950
X7160Y2865
X7075Y2782
X6860Y2862
X6780Y2820
X6800Y2712
X6630Y2500
X6971Y2370
X7075Y2446
X7090Y2180
Y2090
Y1990
X6890Y2020
X6796
X6702
X6608
X6605Y1484
X6537
X6750Y1487
X6871Y1491
X7485Y1607
X7504Y1703
X8120Y1940
X8180
X8238Y1940
X8310Y2400
X8211Y2470
X8041Y2469
X8041Y2562
X8050Y2700
X8138Y2630
X8228
X8320Y2855
Y3000
X8216Y3030
X8043Y3010
X7920Y2940
X7855Y3120
X7853Y3188
X8111Y3219
X8211Y3230
X8111Y3370
X8320Y3455
X8560
X9038Y3495
Y3405
Y3315
Y3225
Y3135
Y3045
Y2955
Y2865
Y2775
X9038Y2685
Y2595
Y2505
Y2415
Y2325
Y2235
Y2145
Y2055
Y1965
Y1875
Y1785
Y1695
Y1605
X9039Y1515
X8560Y2855
X7818Y2789
X7740Y2865
X7721Y2685
X7920Y2670
X7932Y2360
X7822
X7712
X7475Y2970
X7544Y3040
X7220Y3010
X7350Y3883
X7410Y3960
X7389Y4072
X7615
X7770Y4208
X7870Y4220
X8010
X7990Y4457
X7940Y4490
X7838Y4475
X7988Y4699
X7993Y4842
X7870Y4882
X7960Y4991
X8100Y4960
X8205Y5129
X8240Y5193
X7988
X7980Y5288
X8700Y5320
X9038Y5295
Y5205
X9038Y5115
Y5025
Y4935
Y4845
Y4755
Y4665
Y4575
Y4485
Y4395
Y4305
Y4215
Y4125
Y4035
X9038Y3945
Y3855
Y3765
Y3675
Y3585
X8660Y3945
X8220
X8060Y4000
X8220Y4162
X8220Y4379
X8520Y4390
X8718Y4656
X8762Y4775
X9038Y5385
X7233Y5397
X7460Y4310
X7541Y4310
Y3839
X7868Y3760
Y3692
X7745Y3560
X5460Y3606
X5438Y3661
X5438Y3033
X6057Y2490
X5447Y4320
X5458Y4396
X5443Y4986
X5423Y5106
X5193Y4956
X5122Y5020
X4910Y4986
X4962Y4809
X5040Y4616
Y4513
X5146Y4391
X4962Y4287
Y4130
X4901Y3848
X5020Y3661
X5197Y3677
Y3591
X5147Y3422
X5132Y3201
X5215Y3210
X5190Y3026
X5137Y2548
X5220Y2520
X5325Y2454
Y2180
X5344Y2079
X5243
X5143
X5042
X4942
X4841
X4804Y1641
X5095Y1503
X4206Y1594
X4080Y1591
X3907Y2186
X3809
X3711
X3613
X3515
X3300Y2268
X3203Y2315
X3260Y2388
X3230Y2520
Y2580
Y2650
X3317Y2597
X3510Y2515
X3450Y2420
X3854Y2468
X3950Y2570
X4053
Y2424
X4148Y2470
X4222Y2516
X4283Y2584
X4364Y2548
X4450Y2516
X4546Y2520
X4644Y2541
X4941Y2515
X4582Y2962
X4682Y3243
X4830Y3272
X4760Y3650
X4630
X4580Y3720
X4250Y3696
Y3920
Y4016
X4110Y3957
X4067Y4073
X3938Y4240
X4162Y4290
X4439Y4280
X4436Y4361
X4360Y4536
Y4639
X4250Y4550
X4436Y4810
X4541Y4809
Y5044
X4431Y5060
X4432Y5308
X4832
X5087
X4155Y5044
X3832Y5075
X3634Y5072
X3432Y5066
X3431Y5310
X3681Y5313
X3878
X3717Y4921
X3780Y4770
X3317Y4812
Y4878
X3317Y4621
X3086Y4606
X3090Y4806
X3073Y4963
X3080Y5322
X2924Y5254
X2819Y5272
X2818Y5333
X2712Y5180
X2758Y5080
X2706Y4975
Y4893
X2723Y4780
X2693Y4658
X2758Y4577
X2755Y4441
X2514Y4459
X2550Y4497
X2460Y4540
X2400Y4459
Y4230
X2514
X2370Y4100
X2220Y3884
X1903Y3860
X1802
X1702
Y3963
X1802
X1903
X1770Y4092
X1614Y4115
X1530Y4332
X1528Y4385
X1910Y4417
X1903Y4233
X1805Y3750
X1899Y3489
X2258Y3437
X2488Y3399
Y3327
Y3264
X2456Y3161
Y3091
X2477Y2996
X2421Y2995
X2488Y2873
Y2801
Y2738
X2258Y2700
Y2582
X2230Y2420
X2277Y2365
X2230Y2311
X2340Y2151
X2490Y2030
Y1939
X2763Y1875
X2881Y2030
X2947Y2376
X3069Y2316
X2990Y2650
X2970Y2761
X3210Y2842
X3682Y2968
X3714Y3198
X3890Y3210
X4032Y3191
X4032Y2956
X4285Y3243
X3621Y3480
X3310Y3536
X3312Y3641
X3369Y3736
X3308Y3406
X3080Y3405
Y3541
X3079Y3600
X2748Y3567
X2712Y3770
X2660Y3870
X2760Y3930
X2488Y3770
Y3698
Y3635
X2712Y3222
X2670Y3132
X2698Y3040
Y2960
X2138Y2995
X2054
X1966
X2010Y3068
X2096
X2180
X1789Y2966
X1789Y2882
X1676Y3036
X1690Y3122
X1604
Y3251
X1690
X1550Y2960
X1481Y2982
X1550Y2850
X1591Y2497
X1595Y2353
X1686Y2353
Y2247
X1595Y2247
X1512Y2189
X1555Y2027
X1686Y2137
X1750Y2087
X1821Y2137
X1809Y2002
X1985Y2090
X1926Y1778
X2242Y1704
X2218Y1549
X2273Y1485
X1676Y1478
X1592
X1923Y2635
X2502Y2403
Y2338
X2906Y3381
X3369Y4141
Y4395
X3840Y3840
X4754Y4279
X5146Y3941
X2514Y4660
Y4975
X2583Y5219
X2541Y5333
X2240Y5290
X1977Y5216
X2027Y5105
X1872Y5130
X1916Y4996
X1730Y4680
X1283Y4509
X1310Y4978
X1280Y3980
Y3850
Y3780
Y3710
X1292Y3458
X1262Y3366
X1248Y3269
X1276Y2886
X1281Y2795
Y2695
X1317Y2595
X1309Y2249
X1277Y2022
X1274Y1917
Y1819
X1304Y1717
X1254Y1570
Y1432
X1316Y5435
Y5662
X1366Y6392
X1368Y6840
X1329Y7284
X1277Y7860
X1227Y7974
X931Y7987
X850Y8160
X1148Y8490
X1180Y8924
X1270
X1360
X1090
X1000
X910
X820
X730
X640
X550
X460
X370
X280Y8920
X197Y8886
X135Y8821
X104Y8736
X102Y8646
Y8556
Y8466
Y8376
Y8286
Y8196
X1450Y8162
X1469Y8280
Y8381
X1450Y8924
X1540
X1630
X1720
X1810
X1900
X1987Y8901
X2034Y8824
X2110Y8776
X2199Y8764
X2289Y8764
X2379Y8764
X2469Y8764
X2559Y8764
X2649Y8764
X2739Y8764
X2829Y8764
X2919Y8764
X3009Y8764
X3099Y8764
X3189Y8764
X3279Y8764
X3369Y8764
X3459Y8764
X3549Y8764
X3639Y8764
X3729Y8764
X3819Y8764
X3909Y8764
X3999Y8764
X4089Y8764
X4179Y8764
X4269
X4359
X4449
X4539
X4629
X4719
X4809
X4899
X4989
X5079
X5169
X5259
X5349
X5109Y8618
X5159Y8462
X5230Y8405
X5290Y8350
X5330Y8129
X5240Y7790
X5232Y7690
X5191Y7609
X5318Y7375
X5358Y7084
X5120Y6750
X5109Y6480
X5030Y6420
X5050Y6310
X5120Y6280
X4996Y6254
X5352Y6278
X4980Y5850
X5035Y5760
X5125Y5699
X4875Y5722
X4782
X4583Y5710
X4489
X4387
X4289Y5750
X4192Y5767
X4147Y5697
X4133Y5828
X3900Y5805
X3975Y5725
X4003Y6104
X4200Y6300
X4285Y6370
X4557Y6232
X3749Y6300
X3587Y5753
X3593Y5471
X3286Y5753
X2756
X2727Y5604
X2630Y5612
X2578Y5761
X2486Y5440
X1743Y5707
Y5790
X1540Y6163
X1527Y6286
X1488Y6530
X1492Y6704
X1481Y6983
X1473Y7435
X3473Y6920
X4826Y7134
X4784Y7690
X4561
X4564Y7846
X4460Y7845
X4330Y7690
X4765Y7905
X4840Y7950
X4967Y7856
X5060Y7853
X4709Y8170
X4689Y8447
X4810
X4853Y8365
X4870Y8568
X4747Y8618
X4512
X4264
X4211Y8450
X4331Y8398
X5485Y8129
X5553Y8070
X5607Y8210
X5810Y8118
X5915Y8124
X6001Y8041
X6053Y8035
X6179Y8107
X6302Y8099
X6502Y8102
X6600Y8050
X6649Y7830
X6750
X6710Y7703
X6618Y7747
X6521Y7686
X6421
X6318Y7707
X6275Y7629
X6080Y7630
X6115Y7785
X6031Y7829
X5910Y7650
X5840Y7700
X5705Y7825
X5700Y7940
X5590Y7810
X5641Y7623
X5705Y7547
X5588Y7534
X5762Y7470
X5829Y7390
X5900Y7340
X6024Y7260
Y7088
X6028Y6910
X5840Y6860
X5873Y6630
X5964Y6652
X6057Y6589
X6188
Y6686
X6406Y6490
Y6218
X6309
X6057Y6247
X5917Y6347
X5911Y6103
X6031Y5908
X5986Y5688
X6077
X6159
Y5517
X6121Y5399
X6326Y5498
X6530Y5640
X6510Y5710
X6553Y6023
X6750Y6089
X6990Y6048
Y5970
Y5900
X6971Y5804
X7064Y5690
X7019Y5645
X6994Y5518
X6845Y5540
X6879Y5680
X7164Y5690
X7233Y5970
X7120Y6310
X7160Y6434
X6920Y6430
X6970Y6505
X6990Y6636
Y6760
X6991Y6887
X6990Y7013
X7000Y7140
X6838Y7190
X6817Y7078
X6816Y6973
Y6803
X6660Y6817
X6621Y6764
X6585Y6862
X6660Y7085
Y7260
X6797Y7290
X6967Y7570
X7010Y7680
X7075Y7619
X7197Y7660
X7413Y7680
Y7590
X7540
Y7680
X7658
Y7590
X7760Y7370
X7850Y7366
X7897Y7366
X7976Y7188
X7885Y7120
X7714Y7077
X7715Y6989
X7700Y6682
Y6613
X7866Y6506
Y6413
X7877Y6235
X7763Y6245
X7620Y6403
X7422Y6505
X7299Y6613
Y7057
X7261Y7210
X7299Y7388
X7540Y7297
X7427Y7155
X7413Y7950
X7469Y8026
X7540Y7980
X7614Y7947
X7660Y8040
X7790Y7990
X7880
X7855Y8300
X8005Y8350
X8155Y8388
X8478Y8183
X8415Y8113
X8357Y8050
X8300Y7970
X8122Y7694
Y7582
X8126Y7494
X8109Y7418
X8340
X8291Y7309
X8280Y7078
X8235Y6961
X8280Y6910
X8330Y6945
X8235Y6856
X8283Y6784
X8239Y6682
X8233Y6543
X8122Y6460
X8117Y6245
X8300Y6055
X8224Y5972
X8230Y5875
X7950Y5981
X7971Y5700
X7935Y5562
X8090Y5540
X7499Y5507
X6950Y6190
X6990Y6251
X6928Y6310
X6858Y6555
X6390Y6973
Y7088
Y7200
X6362Y7388
X6402Y7810
X6499
X7009Y7925
X7320Y7895
X7705Y8250
X7723Y8924
X7813
X7903
X7993
X8082
X8172
X8262
X8352
X8442
X8532
X8622
X8712
X8802
X8892
X8982Y8924
X9093Y8892
X9159Y8831
X9194Y8748
X9198Y8658
Y8568
Y8478
Y8388
Y8298
Y8208
Y8118
Y8028
Y7938
Y7848
X9166Y7764
X9092Y7713
X9048Y7635
X9038Y7545
Y7455
Y7365
Y7275
Y7185
Y7095
Y7005
Y6915
Y6825
Y6735
Y6645
Y6555
Y6465
Y6375
X9038Y6285
Y6195
Y6105
Y6015
Y5925
Y5835
Y5745
Y5655
Y5565
Y5475
X8778Y5605
X8643Y5750
X8790Y5905
Y6205
Y6500
X8910Y6630
X8500Y6350
X8496Y6055
X8590
X8570Y7150
X8683Y7240
X8682Y7610
X8580Y7690
X8390Y7530
X7633Y8924
X7543
X7453
X7363
X7294Y8865
X7233Y8799
X7149Y8767
X7059Y8764
X6969Y8764
X6879
X6789
X6699
X6609
X6519
X6429
X6339
X6249
X6159
X6069
X5979
X5889
X5799
X5709
X5619
X5529
X5439
X5640Y8618
Y8538
X6468Y8470
X6470Y8610
X5829Y7150
X5722Y6575
Y6475
X5622Y6652
X5440Y6420
X5552Y6210
X5660
X5630Y5820
X5780Y5556
X5510Y5430
T02
X1600Y8163
X1690Y8280
X1780Y8390
X1869Y8520
X3300Y8592
X3430Y8490
X3555Y8397
X3660Y8300
X3930Y8280
X4250Y8010
T03
X357Y1388
X611
X865
X1119
Y1642
X865
X611
X357
Y1896
X611
Y2150
X357
Y2404
X611
Y2658
Y2912
Y3166
X357
Y3420
X611
Y3674
X357
Y3928
X611
Y4182
X357
Y4436
Y4690
Y4944
X611
Y5198
X357
X865
Y4944
Y4690
X611
Y4436
X865
Y4182
Y3928
Y3674
Y3420
Y3166
Y2912
X1119
Y3166
Y3420
Y3674
Y3928
Y4182
Y4436
Y4690
Y4944
Y5198
Y2658
Y2404
Y2150
Y1896
X865
Y2150
Y2404
Y2658
X357
Y2912
Y5452
X611
Y5706
Y5960
X357
Y5706
Y6214
X611
Y6468
X357
Y6722
Y6976
Y7230
X611
Y6976
Y6722
X865
Y6468
Y6214
Y5960
Y5706
Y5452
X1119
Y5706
Y5960
Y6214
Y6468
Y6722
Y6976
Y7230
X865
Y7484
X611
X357
Y7738
X611
X865
X1119
Y7484
X865Y6976
T04
X2024Y6010
X2278
X2532
X2786
X3040
X3294
X3548
X3802
X4056
X4310
X4564
X4818
X5072
X5326
X4818Y6520
X4564
X4310
X4056
X3802
X3548
X3294
X3040
X2786
Y7282
Y7534
X3040
Y7282
X3294
Y7534
X3548
Y7282
X3802
Y7534
X4056
Y7282
X4310
Y7534
X4564
Y7282
X4818
Y7534
X5072
X5326
X2532
X2278
X2024
T05
X6405Y2977
Y3231
Y3485
Y3739
Y3993
Y4247
Y4501
Y4755
T06
X357Y880
X8930Y500
X357Y8246
X8930Y8500
M30
