G04*
G04 #@! TF.GenerationSoftware,Altium Limited,Altium Designer,25.8.1 (18)*
G04*
G04 Layer_Color=8421504*
%FSLAX44Y44*%
%MOMM*%
G71*
G04*
G04 #@! TF.SameCoordinates,746143FD-BC81-4DAC-81BB-7BE3C6F3D048*
G04*
G04*
G04 #@! TF.FilePolarity,Positive*
G04*
G01*
G75*
G04:AMPARAMS|DCode=21|XSize=0.65mm|YSize=0.6mm|CornerRadius=0.15mm|HoleSize=0mm|Usage=FLASHONLY|Rotation=270.000|XOffset=0mm|YOffset=0mm|HoleType=Round|Shape=RoundedRectangle|*
%AMROUNDEDRECTD21*
21,1,0.6500,0.3000,0,0,270.0*
21,1,0.3500,0.6000,0,0,270.0*
1,1,0.3000,-0.1500,-0.1750*
1,1,0.3000,-0.1500,0.1750*
1,1,0.3000,0.1500,0.1750*
1,1,0.3000,0.1500,-0.1750*
%
%ADD21ROUNDEDRECTD21*%
G04:AMPARAMS|DCode=22|XSize=0.65mm|YSize=0.6mm|CornerRadius=0.15mm|HoleSize=0mm|Usage=FLASHONLY|Rotation=0.000|XOffset=0mm|YOffset=0mm|HoleType=Round|Shape=RoundedRectangle|*
%AMROUNDEDRECTD22*
21,1,0.6500,0.3000,0,0,0.0*
21,1,0.3500,0.6000,0,0,0.0*
1,1,0.3000,0.1750,-0.1500*
1,1,0.3000,-0.1750,-0.1500*
1,1,0.3000,-0.1750,0.1500*
1,1,0.3000,0.1750,0.1500*
%
%ADD22ROUNDEDRECTD22*%
%ADD23R,1.6000X0.8000*%
G04:AMPARAMS|DCode=24|XSize=0.35mm|YSize=0.8mm|CornerRadius=0.0875mm|HoleSize=0mm|Usage=FLASHONLY|Rotation=180.000|XOffset=0mm|YOffset=0mm|HoleType=Round|Shape=RoundedRectangle|*
%AMROUNDEDRECTD24*
21,1,0.3500,0.6250,0,0,180.0*
21,1,0.1750,0.8000,0,0,180.0*
1,1,0.1750,-0.0875,0.3125*
1,1,0.1750,0.0875,0.3125*
1,1,0.1750,0.0875,-0.3125*
1,1,0.1750,-0.0875,-0.3125*
%
%ADD24ROUNDEDRECTD24*%
G04:AMPARAMS|DCode=25|XSize=0.35mm|YSize=0.8mm|CornerRadius=0.0875mm|HoleSize=0mm|Usage=FLASHONLY|Rotation=270.000|XOffset=0mm|YOffset=0mm|HoleType=Round|Shape=RoundedRectangle|*
%AMROUNDEDRECTD25*
21,1,0.3500,0.6250,0,0,270.0*
21,1,0.1750,0.8000,0,0,270.0*
1,1,0.1750,-0.3125,-0.0875*
1,1,0.1750,-0.3125,0.0875*
1,1,0.1750,0.3125,0.0875*
1,1,0.1750,0.3125,-0.0875*
%
%ADD25ROUNDEDRECTD25*%
%ADD26O,1.7000X0.3000*%
%ADD27R,0.9500X2.1500*%
%ADD28R,3.2500X2.1500*%
G04:AMPARAMS|DCode=29|XSize=2.7mm|YSize=1.3mm|CornerRadius=0.247mm|HoleSize=0mm|Usage=FLASHONLY|Rotation=180.000|XOffset=0mm|YOffset=0mm|HoleType=Round|Shape=RoundedRectangle|*
%AMROUNDEDRECTD29*
21,1,2.7000,0.8060,0,0,180.0*
21,1,2.2060,1.3000,0,0,180.0*
1,1,0.4940,-1.1030,0.4030*
1,1,0.4940,1.1030,0.4030*
1,1,0.4940,1.1030,-0.4030*
1,1,0.4940,-1.1030,-0.4030*
%
%ADD29ROUNDEDRECTD29*%
%ADD30O,0.3000X1.7000*%
G04:AMPARAMS|DCode=31|XSize=1.32mm|YSize=0.6mm|CornerRadius=0.075mm|HoleSize=0mm|Usage=FLASHONLY|Rotation=90.000|XOffset=0mm|YOffset=0mm|HoleType=Round|Shape=RoundedRectangle|*
%AMROUNDEDRECTD31*
21,1,1.3200,0.4500,0,0,90.0*
21,1,1.1700,0.6000,0,0,90.0*
1,1,0.1500,0.2250,0.5850*
1,1,0.1500,0.2250,-0.5850*
1,1,0.1500,-0.2250,-0.5850*
1,1,0.1500,-0.2250,0.5850*
%
%ADD31ROUNDEDRECTD31*%
%ADD32R,0.4000X0.4000*%
%ADD33O,1.4000X0.3500*%
%ADD34O,0.3500X1.4000*%
G04:AMPARAMS|DCode=35|XSize=1.64mm|YSize=0.59mm|CornerRadius=0.1475mm|HoleSize=0mm|Usage=FLASHONLY|Rotation=90.000|XOffset=0mm|YOffset=0mm|HoleType=Round|Shape=RoundedRectangle|*
%AMROUNDEDRECTD35*
21,1,1.6400,0.2950,0,0,90.0*
21,1,1.3450,0.5900,0,0,90.0*
1,1,0.2950,0.1475,0.6725*
1,1,0.2950,0.1475,-0.6725*
1,1,0.2950,-0.1475,-0.6725*
1,1,0.2950,-0.1475,0.6725*
%
%ADD35ROUNDEDRECTD35*%
G04:AMPARAMS|DCode=36|XSize=0.95mm|YSize=0.85mm|CornerRadius=0.2125mm|HoleSize=0mm|Usage=FLASHONLY|Rotation=0.000|XOffset=0mm|YOffset=0mm|HoleType=Round|Shape=RoundedRectangle|*
%AMROUNDEDRECTD36*
21,1,0.9500,0.4250,0,0,0.0*
21,1,0.5250,0.8500,0,0,0.0*
1,1,0.4250,0.2625,-0.2125*
1,1,0.4250,-0.2625,-0.2125*
1,1,0.4250,-0.2625,0.2125*
1,1,0.4250,0.2625,0.2125*
%
%ADD36ROUNDEDRECTD36*%
G04:AMPARAMS|DCode=37|XSize=1.64mm|YSize=0.59mm|CornerRadius=0.1475mm|HoleSize=0mm|Usage=FLASHONLY|Rotation=180.000|XOffset=0mm|YOffset=0mm|HoleType=Round|Shape=RoundedRectangle|*
%AMROUNDEDRECTD37*
21,1,1.6400,0.2950,0,0,180.0*
21,1,1.3450,0.5900,0,0,180.0*
1,1,0.2950,-0.6725,0.1475*
1,1,0.2950,0.6725,0.1475*
1,1,0.2950,0.6725,-0.1475*
1,1,0.2950,-0.6725,-0.1475*
%
%ADD37ROUNDEDRECTD37*%
G04:AMPARAMS|DCode=38|XSize=1.2mm|YSize=1.3mm|CornerRadius=0.246mm|HoleSize=0mm|Usage=FLASHONLY|Rotation=0.000|XOffset=0mm|YOffset=0mm|HoleType=Round|Shape=RoundedRectangle|*
%AMROUNDEDRECTD38*
21,1,1.2000,0.8080,0,0,0.0*
21,1,0.7080,1.3000,0,0,0.0*
1,1,0.4920,0.3540,-0.4040*
1,1,0.4920,-0.3540,-0.4040*
1,1,0.4920,-0.3540,0.4040*
1,1,0.4920,0.3540,0.4040*
%
%ADD38ROUNDEDRECTD38*%
%ADD39R,1.0000X0.6000*%
%ADD40R,0.8000X1.6000*%
G04:AMPARAMS|DCode=41|XSize=2.7mm|YSize=1.3mm|CornerRadius=0.247mm|HoleSize=0mm|Usage=FLASHONLY|Rotation=270.000|XOffset=0mm|YOffset=0mm|HoleType=Round|Shape=RoundedRectangle|*
%AMROUNDEDRECTD41*
21,1,2.7000,0.8060,0,0,270.0*
21,1,2.2060,1.3000,0,0,270.0*
1,1,0.4940,-0.4030,-1.1030*
1,1,0.4940,-0.4030,1.1030*
1,1,0.4940,0.4030,1.1030*
1,1,0.4940,0.4030,-1.1030*
%
%ADD41ROUNDEDRECTD41*%
G04:AMPARAMS|DCode=42|XSize=0.9mm|YSize=0.8mm|CornerRadius=0.2mm|HoleSize=0mm|Usage=FLASHONLY|Rotation=90.000|XOffset=0mm|YOffset=0mm|HoleType=Round|Shape=RoundedRectangle|*
%AMROUNDEDRECTD42*
21,1,0.9000,0.4000,0,0,90.0*
21,1,0.5000,0.8000,0,0,90.0*
1,1,0.4000,0.2000,0.2500*
1,1,0.4000,0.2000,-0.2500*
1,1,0.4000,-0.2000,-0.2500*
1,1,0.4000,-0.2000,0.2500*
%
%ADD42ROUNDEDRECTD42*%
G04:AMPARAMS|DCode=43|XSize=0.95mm|YSize=0.85mm|CornerRadius=0.2125mm|HoleSize=0mm|Usage=FLASHONLY|Rotation=270.000|XOffset=0mm|YOffset=0mm|HoleType=Round|Shape=RoundedRectangle|*
%AMROUNDEDRECTD43*
21,1,0.9500,0.4250,0,0,270.0*
21,1,0.5250,0.8500,0,0,270.0*
1,1,0.4250,-0.2125,-0.2625*
1,1,0.4250,-0.2125,0.2625*
1,1,0.4250,0.2125,0.2625*
1,1,0.4250,0.2125,-0.2625*
%
%ADD43ROUNDEDRECTD43*%
G04:AMPARAMS|DCode=44|XSize=1.5mm|YSize=0.45mm|CornerRadius=0.0563mm|HoleSize=0mm|Usage=FLASHONLY|Rotation=270.000|XOffset=0mm|YOffset=0mm|HoleType=Round|Shape=RoundedRectangle|*
%AMROUNDEDRECTD44*
21,1,1.5000,0.3375,0,0,270.0*
21,1,1.3875,0.4500,0,0,270.0*
1,1,0.1125,-0.1688,-0.6938*
1,1,0.1125,-0.1688,0.6938*
1,1,0.1125,0.1688,0.6938*
1,1,0.1125,0.1688,-0.6938*
%
%ADD44ROUNDEDRECTD44*%
%ADD45R,0.6500X0.2500*%
%ADD46R,2.1000X2.1000*%
G04:AMPARAMS|DCode=47|XSize=1.2mm|YSize=1.3mm|CornerRadius=0.246mm|HoleSize=0mm|Usage=FLASHONLY|Rotation=90.000|XOffset=0mm|YOffset=0mm|HoleType=Round|Shape=RoundedRectangle|*
%AMROUNDEDRECTD47*
21,1,1.2000,0.8080,0,0,90.0*
21,1,0.7080,1.3000,0,0,90.0*
1,1,0.4920,0.4040,0.3540*
1,1,0.4920,0.4040,-0.3540*
1,1,0.4920,-0.4040,-0.3540*
1,1,0.4920,-0.4040,0.3540*
%
%ADD47ROUNDEDRECTD47*%
%ADD48R,1.3000X1.6000*%
%ADD49R,1.2500X1.8000*%
%ADD50R,2.2000X2.9000*%
G04:AMPARAMS|DCode=51|XSize=0.9mm|YSize=0.8mm|CornerRadius=0.2mm|HoleSize=0mm|Usage=FLASHONLY|Rotation=0.000|XOffset=0mm|YOffset=0mm|HoleType=Round|Shape=RoundedRectangle|*
%AMROUNDEDRECTD51*
21,1,0.9000,0.4000,0,0,0.0*
21,1,0.5000,0.8000,0,0,0.0*
1,1,0.4000,0.2500,-0.2000*
1,1,0.4000,-0.2500,-0.2000*
1,1,0.4000,-0.2500,0.2000*
1,1,0.4000,0.2500,0.2000*
%
%ADD51ROUNDEDRECTD51*%
%ADD52R,1.4605X0.5334*%
G04:AMPARAMS|DCode=53|XSize=1.65mm|YSize=2.55mm|CornerRadius=0.2475mm|HoleSize=0mm|Usage=FLASHONLY|Rotation=180.000|XOffset=0mm|YOffset=0mm|HoleType=Round|Shape=RoundedRectangle|*
%AMROUNDEDRECTD53*
21,1,1.6500,2.0550,0,0,180.0*
21,1,1.1550,2.5500,0,0,180.0*
1,1,0.4950,-0.5775,1.0275*
1,1,0.4950,0.5775,1.0275*
1,1,0.4950,0.5775,-1.0275*
1,1,0.4950,-0.5775,-1.0275*
%
%ADD53ROUNDEDRECTD53*%
%ADD54R,3.0000X2.1000*%
%ADD55R,1.8000X1.2500*%
%ADD56R,1.8542X1.2954*%
%ADD57R,0.2540X0.8128*%
%ADD58R,2.9004X2.9004*%
%ADD59R,0.8128X0.2540*%
%ADD60R,2.9004X2.9004*%
%ADD61R,2.1000X3.0000*%
%ADD62R,1.9812X0.5408*%
%ADD63R,1.0414X0.6604*%
%ADD64R,1.0000X0.5000*%
%ADD65R,2.9500X3.5000*%
%ADD66R,0.6000X1.0000*%
%ADD67R,0.6500X0.3000*%
%ADD68R,0.2500X0.6500*%
%ADD69R,0.3000X2.4000*%
%ADD70R,1.0000X0.3500*%
G36*
X774100Y67484D02*
X752100D01*
Y53984D01*
X774100D01*
Y67484D01*
D02*
G37*
G36*
Y82984D02*
X752100D01*
Y69484D01*
X774100D01*
Y82984D01*
D02*
G37*
G36*
X764600Y329620D02*
Y329600D01*
X764590Y329570D01*
Y329550D01*
X764580Y329520D01*
X764570Y329500D01*
X764560Y329470D01*
X764540Y329450D01*
X764530Y329430D01*
X764510Y329410D01*
X764500Y329390D01*
X764480Y329370D01*
X764460Y329350D01*
X764440Y329330D01*
X764420Y329310D01*
X764400Y329300D01*
X764380Y329280D01*
X764360Y329270D01*
X764340Y329250D01*
X764310Y329240D01*
X764290Y329230D01*
X764260Y329220D01*
X764240D01*
X764210Y329210D01*
X764190D01*
X764160Y329200D01*
X764140D01*
X764110D01*
X724910D01*
X724880D01*
X724860D01*
X724830Y329210D01*
X724810D01*
X724780Y329220D01*
X724760D01*
X724730Y329230D01*
X724710Y329240D01*
X724680Y329250D01*
X724660Y329270D01*
X724640Y329280D01*
X724620Y329300D01*
X724600Y329310D01*
X724580Y329330D01*
X724560Y329350D01*
X724540Y329370D01*
X724520Y329390D01*
X724510Y329410D01*
X724490Y329430D01*
X724480Y329450D01*
X724460Y329470D01*
X724450Y329500D01*
X724440Y329520D01*
X724430Y329550D01*
Y329570D01*
X724420Y329600D01*
Y329620D01*
X724410Y329650D01*
Y358350D01*
X724420Y358380D01*
Y358400D01*
X724430Y358430D01*
Y358450D01*
X724440Y358480D01*
X724450Y358500D01*
X724460Y358530D01*
X724480Y358550D01*
X724490Y358570D01*
X724510Y358590D01*
X724520Y358610D01*
X724540Y358630D01*
X724560Y358650D01*
X724580Y358670D01*
X724600Y358690D01*
X724620Y358700D01*
X724640Y358720D01*
X724660Y358730D01*
X724680Y358750D01*
X724710Y358760D01*
X724730Y358770D01*
X724760Y358780D01*
X724780D01*
X724810Y358790D01*
X724830D01*
X724860Y358800D01*
X724880D01*
X724910D01*
X764110D01*
X764140D01*
X764160D01*
X764190Y358790D01*
X764210D01*
X764240Y358780D01*
X764260D01*
X764290Y358770D01*
X764310Y358760D01*
X764340Y358750D01*
X764360Y358730D01*
X764380Y358720D01*
X764400Y358700D01*
X764420Y358690D01*
X764440Y358670D01*
X764460Y358650D01*
X764480Y358630D01*
X764500Y358610D01*
X764510Y358590D01*
X764530Y358570D01*
X764540Y358550D01*
X764560Y358530D01*
X764570Y358500D01*
X764580Y358480D01*
X764590Y358450D01*
Y358430D01*
X764600Y358400D01*
Y358380D01*
X764610Y358350D01*
Y329650D01*
X764600Y329620D01*
D02*
G37*
G36*
X648705Y693498D02*
Y707500D01*
X634703D01*
Y693498D01*
X648705D01*
D02*
G37*
G36*
X632703D02*
Y707500D01*
X618701D01*
Y693498D01*
X632703D01*
D02*
G37*
G36*
X768936Y764163D02*
X754934D01*
Y778165D01*
X768936D01*
Y764163D01*
D02*
G37*
G36*
X752934D02*
X738932D01*
Y778165D01*
X752934D01*
Y764163D01*
D02*
G37*
G36*
X768936Y748161D02*
X754934D01*
Y762163D01*
X768936D01*
Y748161D01*
D02*
G37*
G36*
X752934D02*
X738932D01*
Y762163D01*
X752934D01*
Y748161D01*
D02*
G37*
G36*
X648705Y709500D02*
X634703D01*
Y723502D01*
X648705D01*
Y709500D01*
D02*
G37*
G36*
X632703D02*
X618701D01*
Y723502D01*
X632703D01*
Y709500D01*
D02*
G37*
D21*
X663039Y668089D02*
D03*
Y658089D02*
D03*
X631039Y746000D02*
D03*
Y756000D02*
D03*
X643039Y746000D02*
D03*
Y756000D02*
D03*
X653039Y746000D02*
D03*
Y756000D02*
D03*
X619926Y746000D02*
D03*
Y756000D02*
D03*
X663039Y756000D02*
D03*
Y746000D02*
D03*
X608813Y756000D02*
D03*
Y746000D02*
D03*
X597700Y756000D02*
D03*
Y746000D02*
D03*
X267327Y221481D02*
D03*
X279660D02*
D03*
X291993Y211481D02*
D03*
X304326D02*
D03*
X266711Y459583D02*
D03*
X173300Y474623D02*
D03*
X480901Y852000D02*
D03*
X516787D02*
D03*
X528750D02*
D03*
X615555Y511602D02*
D03*
X598600Y585800D02*
D03*
X598600Y610250D02*
D03*
Y634700D02*
D03*
X668088Y533800D02*
D03*
X671000Y602000D02*
D03*
X640204Y658089D02*
D03*
X421090Y852000D02*
D03*
X456976D02*
D03*
X468938Y852000D02*
D03*
X668088Y521600D02*
D03*
X265354Y95200D02*
D03*
X364483D02*
D03*
X384308D02*
D03*
X305006D02*
D03*
X324831D02*
D03*
X285180D02*
D03*
X344657D02*
D03*
X267327Y211481D02*
D03*
X279660D02*
D03*
X173300Y484623D02*
D03*
X281900Y538550D02*
D03*
X281900Y574650D02*
D03*
X358700Y564200D02*
D03*
X439274Y769000D02*
D03*
X472827D02*
D03*
X484012Y769000D02*
D03*
X517565Y769000D02*
D03*
X468938Y862000D02*
D03*
X528750D02*
D03*
X715321Y49124D02*
D03*
X668088Y511600D02*
D03*
X598600Y624700D02*
D03*
X612370Y658089D02*
D03*
X628787D02*
D03*
X448513Y564200D02*
D03*
X389716Y564200D02*
D03*
X409315Y564200D02*
D03*
X266711Y449583D02*
D03*
X708510Y414000D02*
D03*
Y404000D02*
D03*
X428914Y564200D02*
D03*
X612370Y668089D02*
D03*
X523402Y274904D02*
D03*
Y264904D02*
D03*
X428914Y554200D02*
D03*
X517109Y554200D02*
D03*
Y564200D02*
D03*
X526908D02*
D03*
Y554200D02*
D03*
X399515D02*
D03*
Y564200D02*
D03*
X409315Y554200D02*
D03*
X715321Y79895D02*
D03*
X385716Y274904D02*
D03*
Y264904D02*
D03*
X349478D02*
D03*
X448513Y554200D02*
D03*
X458312Y564200D02*
D03*
Y554200D02*
D03*
X715321Y59124D02*
D03*
Y69895D02*
D03*
X492863Y862000D02*
D03*
Y852000D02*
D03*
X456976Y862000D02*
D03*
X445014Y862000D02*
D03*
Y852000D02*
D03*
X433052D02*
D03*
Y862000D02*
D03*
X421090Y862000D02*
D03*
X439274Y779000D02*
D03*
X461643Y769000D02*
D03*
Y779000D02*
D03*
X495196Y769000D02*
D03*
Y779000D02*
D03*
X484012Y779000D02*
D03*
X450458Y769000D02*
D03*
Y779000D02*
D03*
X506381Y769000D02*
D03*
Y779000D02*
D03*
X517565D02*
D03*
X472827D02*
D03*
X628787Y668089D02*
D03*
X497510Y554200D02*
D03*
Y564200D02*
D03*
X468112D02*
D03*
Y554200D02*
D03*
X170000Y551400D02*
D03*
Y561400D02*
D03*
X281900Y548550D02*
D03*
X281900Y564650D02*
D03*
X474229Y264904D02*
D03*
Y274904D02*
D03*
X454559Y264904D02*
D03*
Y274904D02*
D03*
X375882Y264904D02*
D03*
X668088Y543800D02*
D03*
X615555Y521602D02*
D03*
Y533800D02*
D03*
Y543800D02*
D03*
X480901Y862000D02*
D03*
X516787D02*
D03*
X504825D02*
D03*
Y852000D02*
D03*
X552906Y264904D02*
D03*
X671000Y592000D02*
D03*
X598600Y600250D02*
D03*
X598600Y575800D02*
D03*
X513567Y264904D02*
D03*
X503733D02*
D03*
X477911Y564200D02*
D03*
Y554200D02*
D03*
X464394Y264904D02*
D03*
Y274904D02*
D03*
X389716Y554200D02*
D03*
X304326Y221481D02*
D03*
X291993D02*
D03*
X384308Y85200D02*
D03*
X364483D02*
D03*
X344657D02*
D03*
X324831D02*
D03*
X305006D02*
D03*
X285180D02*
D03*
X265354D02*
D03*
X640204Y668089D02*
D03*
X651622D02*
D03*
Y658089D02*
D03*
X444724Y274904D02*
D03*
Y264904D02*
D03*
X425055Y274904D02*
D03*
Y264904D02*
D03*
X513567Y274904D02*
D03*
X552906Y274904D02*
D03*
X543072Y274904D02*
D03*
Y264904D02*
D03*
X533237Y274904D02*
D03*
Y264904D02*
D03*
X503733Y274904D02*
D03*
X484063D02*
D03*
Y264904D02*
D03*
X434890Y274904D02*
D03*
Y264904D02*
D03*
X415220Y274904D02*
D03*
Y264904D02*
D03*
X405386Y274904D02*
D03*
Y264904D02*
D03*
X395551Y274904D02*
D03*
Y264904D02*
D03*
X375882Y274904D02*
D03*
X359279Y274904D02*
D03*
Y264904D02*
D03*
X349478Y274904D02*
D03*
X507310Y564200D02*
D03*
Y554200D02*
D03*
X487711Y564200D02*
D03*
Y554200D02*
D03*
X438713Y564200D02*
D03*
Y554200D02*
D03*
X419114D02*
D03*
Y564200D02*
D03*
X493898Y264904D02*
D03*
Y274904D02*
D03*
X358700Y554200D02*
D03*
X336800Y554200D02*
D03*
Y564200D02*
D03*
D22*
X563983Y800250D02*
D03*
X553983D02*
D03*
X563983Y787500D02*
D03*
X553983D02*
D03*
X307150Y239500D02*
D03*
Y251778D02*
D03*
X317150Y264055D02*
D03*
X292076Y286383D02*
D03*
X317150Y276333D02*
D03*
X565477Y627928D02*
D03*
X673200Y402300D02*
D03*
X549093Y675000D02*
D03*
X609750Y810340D02*
D03*
X716434Y727160D02*
D03*
X706434Y792500D02*
D03*
X804345Y769665D02*
D03*
X588422Y656015D02*
D03*
Y646068D02*
D03*
X655000Y787500D02*
D03*
Y800250D02*
D03*
X706434Y676009D02*
D03*
X815434Y694566D02*
D03*
Y707766D02*
D03*
X788544Y698894D02*
D03*
X706434Y688673D02*
D03*
X716434Y573972D02*
D03*
Y504528D02*
D03*
X657588Y498000D02*
D03*
X138050Y92632D02*
D03*
X138050Y102679D02*
D03*
X161396Y112727D02*
D03*
X213431Y83406D02*
D03*
Y112727D02*
D03*
Y102679D02*
D03*
X138050Y181719D02*
D03*
X138050Y191719D02*
D03*
X138050Y269507D02*
D03*
X138050Y343171D02*
D03*
Y279507D02*
D03*
X161396Y202719D02*
D03*
X213431Y191719D02*
D03*
Y202719D02*
D03*
Y170422D02*
D03*
Y258211D02*
D03*
X161396Y290507D02*
D03*
X213431Y343171D02*
D03*
Y279507D02*
D03*
Y290507D02*
D03*
X317150Y239500D02*
D03*
Y251778D02*
D03*
X161396Y375013D02*
D03*
X213431Y363171D02*
D03*
Y373013D02*
D03*
X191600Y521700D02*
D03*
X116000Y816300D02*
D03*
X449000Y616600D02*
D03*
X490267D02*
D03*
X381840Y616600D02*
D03*
X426750Y616600D02*
D03*
X381840Y630000D02*
D03*
X426750Y630000D02*
D03*
X518343Y627928D02*
D03*
Y675000D02*
D03*
X725821Y105671D02*
D03*
X588079Y393012D02*
D03*
X673200Y386250D02*
D03*
X663200Y446900D02*
D03*
X667588Y498000D02*
D03*
X706434Y504528D02*
D03*
X542343Y616600D02*
D03*
X555477Y627928D02*
D03*
X647905Y544300D02*
D03*
X532000Y730000D02*
D03*
X706434Y524984D02*
D03*
Y535212D02*
D03*
Y555667D02*
D03*
Y573972D02*
D03*
Y594428D02*
D03*
Y625112D02*
D03*
Y604656D02*
D03*
X599750Y810340D02*
D03*
X655000Y774750D02*
D03*
X805348Y547868D02*
D03*
X815348Y527962D02*
D03*
Y518010D02*
D03*
Y587455D02*
D03*
X805348Y617312D02*
D03*
X815348Y597407D02*
D03*
X815434Y654966D02*
D03*
X778544Y698894D02*
D03*
X804345Y741830D02*
D03*
Y758247D02*
D03*
X282950Y458319D02*
D03*
Y448172D02*
D03*
X811090Y315000D02*
D03*
Y330000D02*
D03*
Y270000D02*
D03*
Y255977D02*
D03*
X588079Y460856D02*
D03*
X181600Y521700D02*
D03*
X240806Y521700D02*
D03*
X282950Y407585D02*
D03*
X138050Y353171D02*
D03*
X148050D02*
D03*
X148050Y343171D02*
D03*
Y363171D02*
D03*
X138050D02*
D03*
X148050Y290507D02*
D03*
X138050D02*
D03*
X148050Y279507D02*
D03*
X148050Y269507D02*
D03*
X171396Y202719D02*
D03*
X148050Y425826D02*
D03*
X138050D02*
D03*
X148050Y154087D02*
D03*
X138050D02*
D03*
X805348Y577502D02*
D03*
X815348D02*
D03*
X805348Y587455D02*
D03*
Y597407D02*
D03*
X815348Y547868D02*
D03*
X805348Y537915D02*
D03*
X815348D02*
D03*
X805348Y527962D02*
D03*
Y518010D02*
D03*
X815348Y508058D02*
D03*
X805348D02*
D03*
X282950Y397439D02*
D03*
X292950D02*
D03*
X282950Y438026D02*
D03*
X292950D02*
D03*
X588079Y519007D02*
D03*
X578079D02*
D03*
X588079Y489932D02*
D03*
X578079D02*
D03*
X588079Y528699D02*
D03*
X578079D02*
D03*
X578079Y509315D02*
D03*
X588079D02*
D03*
X588079Y499624D02*
D03*
X578079D02*
D03*
X588079Y538391D02*
D03*
X578079D02*
D03*
X657905Y544300D02*
D03*
X637000Y544300D02*
D03*
X627000D02*
D03*
X716434Y555667D02*
D03*
Y545439D02*
D03*
X706434D02*
D03*
X716434Y535212D02*
D03*
Y524984D02*
D03*
X716434Y514756D02*
D03*
X706434D02*
D03*
X706434Y614884D02*
D03*
X716434D02*
D03*
Y604656D02*
D03*
Y594428D02*
D03*
X716434Y584200D02*
D03*
X706434D02*
D03*
X716434Y650682D02*
D03*
X706434D02*
D03*
X716434Y625112D02*
D03*
X815348Y607360D02*
D03*
X805348D02*
D03*
X815348Y617312D02*
D03*
X716434Y714000D02*
D03*
X706434D02*
D03*
X716434Y688673D02*
D03*
Y701336D02*
D03*
X706434D02*
D03*
X821090Y255977D02*
D03*
Y270000D02*
D03*
X715821Y105671D02*
D03*
X821090Y315000D02*
D03*
X805434Y668166D02*
D03*
X815434D02*
D03*
X805434Y654966D02*
D03*
Y681366D02*
D03*
Y694566D02*
D03*
X126000Y816300D02*
D03*
X821090Y330000D02*
D03*
X815434Y681366D02*
D03*
X805434Y707766D02*
D03*
X716434Y676009D02*
D03*
X706434Y663345D02*
D03*
X716434D02*
D03*
X148050Y324712D02*
D03*
X138050D02*
D03*
X148050Y311962D02*
D03*
X138050D02*
D03*
X138050Y259507D02*
D03*
X148050D02*
D03*
X645000Y774750D02*
D03*
X645000Y800250D02*
D03*
Y787500D02*
D03*
X578422Y646068D02*
D03*
Y656015D02*
D03*
X436750Y630000D02*
D03*
Y616600D02*
D03*
X391840Y630000D02*
D03*
X469633Y616600D02*
D03*
X479633D02*
D03*
X402350Y630000D02*
D03*
X412350D02*
D03*
Y616600D02*
D03*
X402350D02*
D03*
X391840D02*
D03*
X148050Y586800D02*
D03*
X138050D02*
D03*
Y631326D02*
D03*
X148050D02*
D03*
X138050Y675853D02*
D03*
X148050D02*
D03*
X138050Y616484D02*
D03*
X148050D02*
D03*
X148050Y690695D02*
D03*
X138050D02*
D03*
X148050Y646169D02*
D03*
X138050D02*
D03*
Y661011D02*
D03*
X148050D02*
D03*
X138050Y750063D02*
D03*
X148050D02*
D03*
X148050Y601642D02*
D03*
X138050D02*
D03*
Y705537D02*
D03*
X148050D02*
D03*
X138050Y735221D02*
D03*
X148050D02*
D03*
X138050Y449330D02*
D03*
X148050D02*
D03*
X230806Y521700D02*
D03*
X292950Y498906D02*
D03*
X282950D02*
D03*
X292950Y366998D02*
D03*
X282950D02*
D03*
X292950Y356851D02*
D03*
X282950D02*
D03*
X794345Y758247D02*
D03*
X804345Y781082D02*
D03*
X794345D02*
D03*
X794345Y792500D02*
D03*
X804345D02*
D03*
X794345Y769665D02*
D03*
X716434Y792500D02*
D03*
Y783000D02*
D03*
X706434D02*
D03*
X716434Y773500D02*
D03*
X706434D02*
D03*
X716434Y756500D02*
D03*
X706434D02*
D03*
X716434Y737160D02*
D03*
X706434D02*
D03*
X706434Y727160D02*
D03*
X716434Y746830D02*
D03*
X706434D02*
D03*
X578079Y349000D02*
D03*
X588079D02*
D03*
X578079Y291092D02*
D03*
X588079D02*
D03*
X578079Y300784D02*
D03*
X588079D02*
D03*
Y310476D02*
D03*
X578079D02*
D03*
Y320168D02*
D03*
X588079D02*
D03*
X588079Y329860D02*
D03*
X578079D02*
D03*
X588079Y339552D02*
D03*
X578079D02*
D03*
X578079Y363936D02*
D03*
X588079D02*
D03*
X578079Y383320D02*
D03*
X588079D02*
D03*
X578079Y393012D02*
D03*
X588079Y412396D02*
D03*
X578079D02*
D03*
X578079Y422088D02*
D03*
X588079D02*
D03*
X578079Y431780D02*
D03*
X588079D02*
D03*
X588079Y451164D02*
D03*
X578079D02*
D03*
X578079Y460856D02*
D03*
X588079Y480240D02*
D03*
X578079D02*
D03*
X588079Y470548D02*
D03*
X578079D02*
D03*
X528343Y627928D02*
D03*
X307150Y276333D02*
D03*
X539093Y675000D02*
D03*
X528343D02*
D03*
X542000Y730000D02*
D03*
X794345Y741830D02*
D03*
X307150Y264055D02*
D03*
X520900Y616600D02*
D03*
X532343D02*
D03*
X282950Y478613D02*
D03*
Y488759D02*
D03*
X282950Y377145D02*
D03*
X292950D02*
D03*
X673200Y446900D02*
D03*
X663200Y386250D02*
D03*
X663200Y402300D02*
D03*
Y370200D02*
D03*
X673200D02*
D03*
X148050Y478063D02*
D03*
X138050D02*
D03*
X510900Y616600D02*
D03*
X500267Y616600D02*
D03*
X459000D02*
D03*
X138050Y463696D02*
D03*
X148050D02*
D03*
X138050Y403184D02*
D03*
X148050D02*
D03*
Y391863D02*
D03*
X138050D02*
D03*
X148050Y414505D02*
D03*
X138050D02*
D03*
X148050Y191719D02*
D03*
X138050Y54650D02*
D03*
X148050D02*
D03*
X203431Y258211D02*
D03*
Y279507D02*
D03*
Y290507D02*
D03*
Y202719D02*
D03*
X171396Y375013D02*
D03*
X171396Y112727D02*
D03*
X171396Y290507D02*
D03*
X138050Y230126D02*
D03*
X148050D02*
D03*
X138050Y241876D02*
D03*
X148050D02*
D03*
X203431Y170422D02*
D03*
Y191719D02*
D03*
X148050Y202719D02*
D03*
X138050D02*
D03*
X148050Y181719D02*
D03*
X148050Y171719D02*
D03*
X138050D02*
D03*
X138050Y142338D02*
D03*
X148050D02*
D03*
X203431Y83406D02*
D03*
X148050Y92632D02*
D03*
Y112727D02*
D03*
X138050D02*
D03*
X203431Y102679D02*
D03*
Y112727D02*
D03*
X148050Y102679D02*
D03*
Y82584D02*
D03*
X138050D02*
D03*
X138050Y66427D02*
D03*
X148050D02*
D03*
X292950Y346705D02*
D03*
X282950D02*
D03*
X292950Y387292D02*
D03*
X282950D02*
D03*
X292950Y407585D02*
D03*
Y417732D02*
D03*
X282950D02*
D03*
X292950Y427879D02*
D03*
X282950D02*
D03*
X292950Y448172D02*
D03*
Y458319D02*
D03*
X282950Y468466D02*
D03*
X292950D02*
D03*
Y478613D02*
D03*
Y488759D02*
D03*
X282950Y509053D02*
D03*
X292950D02*
D03*
Y519200D02*
D03*
X282950D02*
D03*
X292600Y314400D02*
D03*
X282600D02*
D03*
X203431Y373013D02*
D03*
Y363171D02*
D03*
Y343171D02*
D03*
X282076Y286383D02*
D03*
X578079Y373900D02*
D03*
X588079D02*
D03*
X578079Y402704D02*
D03*
X588079D02*
D03*
D23*
X859615Y163250D02*
D03*
Y150750D02*
D03*
X857000Y724215D02*
D03*
Y761715D02*
D03*
Y736715D02*
D03*
Y749215D02*
D03*
D24*
X274576Y235083D02*
D03*
X281077Y275083D02*
D03*
X261576D02*
D03*
X268076D02*
D03*
X274576D02*
D03*
X281077Y235083D02*
D03*
X261576D02*
D03*
X268076D02*
D03*
D25*
X291327Y251833D02*
D03*
Y258333D02*
D03*
Y264833D02*
D03*
X251327Y258333D02*
D03*
Y264833D02*
D03*
Y251833D02*
D03*
Y245333D02*
D03*
X291327D02*
D03*
D26*
X319716Y355644D02*
D03*
X531716Y360644D02*
D03*
Y440644D02*
D03*
X319716Y460644D02*
D03*
Y480644D02*
D03*
Y465644D02*
D03*
X531716Y435644D02*
D03*
X319716Y490644D02*
D03*
Y360644D02*
D03*
Y340644D02*
D03*
X531716Y365644D02*
D03*
Y495644D02*
D03*
Y480644D02*
D03*
Y375644D02*
D03*
Y385644D02*
D03*
Y470644D02*
D03*
Y455644D02*
D03*
Y425644D02*
D03*
Y415644D02*
D03*
Y345644D02*
D03*
Y325644D02*
D03*
X319716Y330644D02*
D03*
Y325644D02*
D03*
X531716Y335644D02*
D03*
X319716Y380644D02*
D03*
Y385644D02*
D03*
Y390644D02*
D03*
Y395644D02*
D03*
Y345644D02*
D03*
Y400644D02*
D03*
Y405644D02*
D03*
Y375644D02*
D03*
Y350644D02*
D03*
X531716Y485644D02*
D03*
Y355644D02*
D03*
Y405644D02*
D03*
Y395644D02*
D03*
X319716Y450644D02*
D03*
X531716Y370644D02*
D03*
Y390644D02*
D03*
Y410644D02*
D03*
Y430644D02*
D03*
X319716Y420644D02*
D03*
Y410644D02*
D03*
X531716Y445644D02*
D03*
X319716Y415644D02*
D03*
X531716Y460644D02*
D03*
Y475644D02*
D03*
X319716Y440644D02*
D03*
Y445644D02*
D03*
X531716Y340644D02*
D03*
X319716Y425644D02*
D03*
Y430644D02*
D03*
Y435644D02*
D03*
Y500644D02*
D03*
X531716Y465644D02*
D03*
Y450644D02*
D03*
Y420644D02*
D03*
Y400644D02*
D03*
Y380644D02*
D03*
Y490644D02*
D03*
Y350644D02*
D03*
Y330644D02*
D03*
Y500644D02*
D03*
X319716Y335644D02*
D03*
Y495644D02*
D03*
Y485644D02*
D03*
Y475644D02*
D03*
Y470644D02*
D03*
Y455644D02*
D03*
Y370644D02*
D03*
Y365644D02*
D03*
D27*
X449133Y124612D02*
D03*
X281393D02*
D03*
X426133D02*
D03*
X570750D02*
D03*
X593750D02*
D03*
X304393D02*
D03*
X616750D02*
D03*
X327393D02*
D03*
X472133D02*
D03*
D28*
X449133Y182612D02*
D03*
X593750D02*
D03*
X304393D02*
D03*
D29*
X501908Y188526D02*
D03*
X536358D02*
D03*
X357168Y160527D02*
D03*
X391618D02*
D03*
X501908D02*
D03*
X536358D02*
D03*
X646525D02*
D03*
X680975D02*
D03*
X816987Y64981D02*
D03*
X646525Y188526D02*
D03*
X680975D02*
D03*
X391618D02*
D03*
X357168D02*
D03*
X816987Y92981D02*
D03*
D30*
X368216Y307644D02*
D03*
X513216D02*
D03*
X343216Y518644D02*
D03*
X388216D02*
D03*
X373216Y307644D02*
D03*
X458216D02*
D03*
X368216Y518644D02*
D03*
X383216D02*
D03*
X483216D02*
D03*
X403216Y307644D02*
D03*
X443216Y518644D02*
D03*
X363216D02*
D03*
X353216D02*
D03*
X348216D02*
D03*
X358216D02*
D03*
X488216D02*
D03*
X483216Y307644D02*
D03*
X473216D02*
D03*
X493216D02*
D03*
X363216D02*
D03*
X408216D02*
D03*
X398216D02*
D03*
X378216D02*
D03*
X338216D02*
D03*
X383216D02*
D03*
X433216D02*
D03*
X448216D02*
D03*
X463216D02*
D03*
X503216D02*
D03*
X498216Y518644D02*
D03*
X413216D02*
D03*
X478216D02*
D03*
X468216D02*
D03*
X513216D02*
D03*
X338216D02*
D03*
X343216Y307644D02*
D03*
X348216D02*
D03*
X353216D02*
D03*
X358216D02*
D03*
X443216D02*
D03*
X423216D02*
D03*
X393216D02*
D03*
X503216Y518644D02*
D03*
X473216D02*
D03*
X458216D02*
D03*
X448216D02*
D03*
X438216D02*
D03*
X423216D02*
D03*
X408216D02*
D03*
X393216D02*
D03*
X398216D02*
D03*
X403216D02*
D03*
X418216D02*
D03*
X428216D02*
D03*
X433216D02*
D03*
X453216D02*
D03*
X463216D02*
D03*
X493216D02*
D03*
X508216D02*
D03*
X498216Y307644D02*
D03*
X488216D02*
D03*
X478216D02*
D03*
X468216D02*
D03*
X453216D02*
D03*
X438216D02*
D03*
X428216D02*
D03*
X413216D02*
D03*
X418216D02*
D03*
X388216D02*
D03*
X508216D02*
D03*
X373216Y518644D02*
D03*
X378216D02*
D03*
D31*
X189500Y479623D02*
D03*
X199000Y499623D02*
D03*
X208500Y479623D02*
D03*
D32*
X656000Y509000D02*
D03*
Y525000D02*
D03*
X632000Y509000D02*
D03*
X656000Y517000D02*
D03*
X632000Y533000D02*
D03*
Y525000D02*
D03*
Y517000D02*
D03*
X656000Y533000D02*
D03*
D33*
X562228Y641318D02*
D03*
X583950Y797250D02*
D03*
X624950D02*
D03*
X740848Y680844D02*
D03*
X781848D02*
D03*
X562228Y660818D02*
D03*
X740848Y661344D02*
D03*
X583950Y777750D02*
D03*
X781848Y661344D02*
D03*
X740848Y667844D02*
D03*
X781848Y674344D02*
D03*
Y667844D02*
D03*
X740848Y674344D02*
D03*
X562228Y647818D02*
D03*
X624950Y777750D02*
D03*
Y790750D02*
D03*
Y784250D02*
D03*
X583950Y790750D02*
D03*
Y784250D02*
D03*
X521227Y641318D02*
D03*
X562228Y654318D02*
D03*
X521227Y647818D02*
D03*
Y654318D02*
D03*
Y660818D02*
D03*
D34*
X510263Y836500D02*
D03*
X457054D02*
D03*
X490763D02*
D03*
X437554D02*
D03*
Y795500D02*
D03*
X444054D02*
D03*
X450554D02*
D03*
X457054D02*
D03*
X444054Y836500D02*
D03*
X450554D02*
D03*
X497263D02*
D03*
X503763D02*
D03*
X490763Y795500D02*
D03*
X497263D02*
D03*
X503763D02*
D03*
X510263D02*
D03*
D35*
X615260Y633825D02*
D03*
X653360Y581125D02*
D03*
X627960Y633825D02*
D03*
X653360D02*
D03*
X640660D02*
D03*
X627960Y581125D02*
D03*
X615260D02*
D03*
X640660D02*
D03*
D36*
X384732Y54250D02*
D03*
X364889D02*
D03*
X345046D02*
D03*
X265672D02*
D03*
Y69750D02*
D03*
X285516Y54250D02*
D03*
Y69750D02*
D03*
X305359D02*
D03*
Y54250D02*
D03*
X325202D02*
D03*
Y69750D02*
D03*
X364889D02*
D03*
X384732D02*
D03*
X345046D02*
D03*
D37*
X734998Y509767D02*
D03*
Y579212D02*
D03*
X787698Y547868D02*
D03*
Y617312D02*
D03*
X734998Y591912D02*
D03*
Y604612D02*
D03*
Y617312D02*
D03*
X787698Y604612D02*
D03*
Y591912D02*
D03*
Y579212D02*
D03*
X734998Y522467D02*
D03*
Y535168D02*
D03*
Y547868D02*
D03*
X787698Y535168D02*
D03*
Y522467D02*
D03*
Y509767D02*
D03*
D38*
X742855Y703646D02*
D03*
X760855D02*
D03*
D39*
X841300Y635500D02*
D03*
Y605500D02*
D03*
Y575500D02*
D03*
Y545500D02*
D03*
Y285477D02*
D03*
Y345477D02*
D03*
Y330477D02*
D03*
Y315477D02*
D03*
Y270477D02*
D03*
Y255477D02*
D03*
Y240477D02*
D03*
Y300477D02*
D03*
Y560500D02*
D03*
Y590500D02*
D03*
Y620500D02*
D03*
Y650500D02*
D03*
D40*
X611502Y828500D02*
D03*
X114750Y833215D02*
D03*
X599002Y828500D02*
D03*
X574002D02*
D03*
X586502D02*
D03*
X624002D02*
D03*
X636502D02*
D03*
X127250Y833215D02*
D03*
D41*
X782458Y261793D02*
D03*
X754458D02*
D03*
X707458Y261793D02*
D03*
X735458D02*
D03*
X718671Y209000D02*
D03*
X746671D02*
D03*
D42*
X722458Y286530D02*
D03*
X738458D02*
D03*
X751458D02*
D03*
X767458D02*
D03*
X806000Y407858D02*
D03*
Y427697D02*
D03*
Y447536D02*
D03*
Y467375D02*
D03*
Y487214D02*
D03*
X822000Y467375D02*
D03*
Y407858D02*
D03*
Y487214D02*
D03*
Y427697D02*
D03*
Y447536D02*
D03*
X766487Y105671D02*
D03*
X750487D02*
D03*
D43*
X745284Y236000D02*
D03*
X729284D02*
D03*
X761283D02*
D03*
X664450Y461400D02*
D03*
X679950D02*
D03*
D44*
X728260Y315000D02*
D03*
X760760D02*
D03*
X708760D02*
D03*
X780260D02*
D03*
Y373000D02*
D03*
X773760Y315000D02*
D03*
X741260Y373000D02*
D03*
X734760D02*
D03*
X728260D02*
D03*
X721760D02*
D03*
X715260Y315000D02*
D03*
X721760D02*
D03*
X747760D02*
D03*
X754260D02*
D03*
X760760Y373000D02*
D03*
X715260D02*
D03*
X773760D02*
D03*
X754260D02*
D03*
X767260Y315000D02*
D03*
X747760Y373000D02*
D03*
X767260D02*
D03*
X708760D02*
D03*
X734760Y315000D02*
D03*
X741260D02*
D03*
D45*
X184116Y91666D02*
D03*
Y179424D02*
D03*
Y267213D02*
D03*
Y349189D02*
D03*
X165617Y179424D02*
D03*
X165646Y183916D02*
D03*
X184116D02*
D03*
X165646Y353680D02*
D03*
X165617Y349189D02*
D03*
X184116Y353680D02*
D03*
X165617Y91666D02*
D03*
X165646Y96158D02*
D03*
X184116D02*
D03*
X165617Y267213D02*
D03*
X165646Y271705D02*
D03*
X184116D02*
D03*
D46*
X271327Y255083D02*
D03*
D47*
X350416Y136872D02*
D03*
X495156D02*
D03*
X639773D02*
D03*
Y118872D02*
D03*
X495156D02*
D03*
X350416D02*
D03*
D48*
X296900Y536950D02*
D03*
X319900Y574950D02*
D03*
X296900D02*
D03*
X319900Y536950D02*
D03*
D49*
X187950Y868200D02*
D03*
X345050D02*
D03*
X684450D02*
D03*
X841550D02*
D03*
D50*
X763100Y68484D02*
D03*
D51*
X738943Y431000D02*
D03*
X761510D02*
D03*
X738943Y415000D02*
D03*
X761510D02*
D03*
D52*
X790341Y62134D02*
D03*
Y87534D02*
D03*
Y74834D02*
D03*
X735859Y87534D02*
D03*
Y49434D02*
D03*
X790341D02*
D03*
X735859Y74834D02*
D03*
Y62134D02*
D03*
D53*
X818000Y176167D02*
D03*
Y135167D02*
D03*
D54*
X888615Y188750D02*
D03*
Y125250D02*
D03*
X886000Y698716D02*
D03*
Y787215D02*
D03*
D55*
X893200Y214427D02*
D03*
Y371527D02*
D03*
Y519450D02*
D03*
Y676550D02*
D03*
D56*
X892480Y391469D02*
D03*
Y503569D02*
D03*
D57*
X626203Y684497D02*
D03*
X636203Y732503D02*
D03*
X736434Y787166D02*
D03*
X741434D02*
D03*
X746434D02*
D03*
X751434D02*
D03*
X756434D02*
D03*
X761434D02*
D03*
X766434D02*
D03*
X771434D02*
D03*
Y739160D02*
D03*
X766434D02*
D03*
X761434D02*
D03*
X756434D02*
D03*
X751434D02*
D03*
X746434D02*
D03*
X741434D02*
D03*
X736434D02*
D03*
X616203Y684497D02*
D03*
Y732503D02*
D03*
X621203Y684497D02*
D03*
X646203Y732503D02*
D03*
X636203Y684497D02*
D03*
X626203Y732503D02*
D03*
X631203D02*
D03*
X641203D02*
D03*
X621203D02*
D03*
X651203D02*
D03*
X631203Y684497D02*
D03*
X646203D02*
D03*
X641203D02*
D03*
X651203D02*
D03*
D58*
X633703Y708500D02*
D03*
D59*
X729931Y765663D02*
D03*
X777937Y755663D02*
D03*
X729931Y780663D02*
D03*
X777937D02*
D03*
Y775663D02*
D03*
Y770663D02*
D03*
Y765663D02*
D03*
Y760663D02*
D03*
Y750663D02*
D03*
Y745663D02*
D03*
X729931D02*
D03*
Y750663D02*
D03*
Y755663D02*
D03*
Y760663D02*
D03*
Y770663D02*
D03*
Y775663D02*
D03*
X657706Y726000D02*
D03*
X609700D02*
D03*
Y711000D02*
D03*
X657706Y706000D02*
D03*
Y711000D02*
D03*
X609700Y706000D02*
D03*
X657706Y691000D02*
D03*
X609700D02*
D03*
Y696000D02*
D03*
Y701000D02*
D03*
Y716000D02*
D03*
Y721000D02*
D03*
X657706Y696000D02*
D03*
Y701000D02*
D03*
Y716000D02*
D03*
Y721000D02*
D03*
D60*
X753934Y763163D02*
D03*
D61*
X152750Y862215D02*
D03*
X89250D02*
D03*
X662002Y857500D02*
D03*
X548502D02*
D03*
D62*
X186541Y575650D02*
D03*
Y537550D02*
D03*
Y550250D02*
D03*
Y562950D02*
D03*
X235841Y575650D02*
D03*
Y562950D02*
D03*
Y550250D02*
D03*
Y537550D02*
D03*
D63*
X840580Y462519D02*
D03*
Y417519D02*
D03*
Y477519D02*
D03*
Y432519D02*
D03*
Y447519D02*
D03*
D64*
X211432Y66900D02*
D03*
Y54900D02*
D03*
Y242376D02*
D03*
Y230376D02*
D03*
X181432D02*
D03*
Y242376D02*
D03*
X181432Y312462D02*
D03*
Y324462D02*
D03*
X211432D02*
D03*
Y312462D02*
D03*
X181432Y66900D02*
D03*
Y54900D02*
D03*
X211432Y154587D02*
D03*
Y142587D02*
D03*
X181432Y154587D02*
D03*
Y142587D02*
D03*
D65*
X780150Y153619D02*
D03*
X725650D02*
D03*
D66*
X815500Y816300D02*
D03*
X800500D02*
D03*
X785500D02*
D03*
X770500D02*
D03*
X755500D02*
D03*
X740500D02*
D03*
X725500D02*
D03*
X710500D02*
D03*
X229000D02*
D03*
X214000D02*
D03*
X244000D02*
D03*
X259000D02*
D03*
X289000D02*
D03*
X274000D02*
D03*
X304000D02*
D03*
X319000D02*
D03*
D67*
X165646Y188672D02*
D03*
X165617Y174672D02*
D03*
X184116D02*
D03*
Y188672D02*
D03*
X165646Y358437D02*
D03*
X165617Y344437D02*
D03*
X184116D02*
D03*
Y358437D02*
D03*
X165646Y100914D02*
D03*
X165617Y86914D02*
D03*
X184116D02*
D03*
Y100914D02*
D03*
X165646Y276461D02*
D03*
X165617Y262461D02*
D03*
X184116D02*
D03*
Y276461D02*
D03*
D68*
X167646Y190422D02*
D03*
X167617Y172922D02*
D03*
X182116D02*
D03*
X182116Y190422D02*
D03*
X167646Y360187D02*
D03*
X167617Y342687D02*
D03*
X182116D02*
D03*
X182116Y360187D02*
D03*
X167646Y102664D02*
D03*
X167617Y85164D02*
D03*
X182116D02*
D03*
X182116Y102664D02*
D03*
X167646Y278211D02*
D03*
X167617Y260711D02*
D03*
X182116D02*
D03*
X182116Y278211D02*
D03*
D69*
X177376Y181683D02*
D03*
X172375Y181672D02*
D03*
X177376Y351447D02*
D03*
X172375Y351437D02*
D03*
X177376Y93925D02*
D03*
X172375Y93914D02*
D03*
X177376Y269472D02*
D03*
X172375Y269461D02*
D03*
D70*
X181432Y236376D02*
D03*
X211432D02*
D03*
X181432Y318462D02*
D03*
X211432D02*
D03*
X181432Y60900D02*
D03*
X211432D02*
D03*
X181432Y148588D02*
D03*
X211432D02*
D03*
M02*
